<?xml version="1.0" encoding="UTF-8"?>
<svg width="33px" height="33px" viewBox="0 0 33 33" version="1.1" xmlns="http://www.w3.org/2000/svg" xmlns:xlink="http://www.w3.org/1999/xlink">
    <!-- Generator: Sketch 50.2 (55047) - http://www.bohemiancoding.com/sketch -->
    <title>Group 16</title>
    <desc>Created with Sketch.</desc>
    <defs></defs>
    <g id="Page-1" stroke="none" stroke-width="1" fill="none" fill-rule="evenodd">
        <g id="04-01---Product" transform="translate(-966.000000, -608.000000)">
            <g id="Group-13" transform="translate(71.000000, 146.000000)">
                <g id="Stacked-Group" transform="translate(689.000000, 0.000000)">
                    <g id="Stacked-Group-2" transform="translate(0.000000, 192.000000)">
                        <g id="Stacked-Group-4" transform="translate(0.000000, 252.000000)">
                            <g id="Group-5" transform="translate(152.000000, 0.000000)">
                                <g id="Group-16" transform="translate(55.000000, 19.000000)">
                                    <path d="M6.38069753,28.7866504 C7.23298316,28.9270008 8.10796664,29 9,29 C17.836556,29 25,21.836556 25,13 C25,7.77405461 22.4945512,3.13328814 18.6193025,0.213349569 C26.2098286,1.4633217 32,8.05547736 32,16 C32,24.836556 24.836556,32 16,32 C12.3893894,32 9.05811051,30.8040387 6.38069753,28.7866504 Z" id="Combined-Shape" fill="#E0EDFF"></path>
                                    <path d="M18.8222099,26.6365394 C16.6074033,29.5455131 15.5,31 15.5,31 C24.0604136,31 31,24.0604136 31,15.5 C31,6.93958638 24.0604136,0 15.5,0 C6.93958638,0 0,6.93958638 0,15.5" id="Oval-2" stroke="#2380FF" stroke-width="2" stroke-linecap="round" transform="translate(15.500000, 15.500000) rotate(90.000000) translate(-15.500000, -15.500000) "></path>
                                    <text id="30" font-family="NexaBold, Nexa Bold" font-size="10" font-weight="bold" letter-spacing="0.1640625" fill="#2380FF">
                                        <tspan x="9" y="18">30</tspan>
                                    </text>
                                </g>
                            </g>
                        </g>
                    </g>
                </g>
            </g>
        </g>
    </g>
</svg>