<?xml version="1.0" encoding="UTF-8"?>
<svg width="46px" height="24px" viewBox="0 0 46 24" version="1.1" xmlns="http://www.w3.org/2000/svg" xmlns:xlink="http://www.w3.org/1999/xlink">
    <!-- Generator: Sketch 50.2 (55047) - http://www.bohemiancoding.com/sketch -->
    <title>Group 14</title>
    <desc>Created with Sketch.</desc>
    <defs></defs>
    <g id="Page-1" stroke="none" stroke-width="1" fill="none" fill-rule="evenodd">
        <g id="04-01---Product" transform="translate(-809.000000, -611.000000)">
            <g id="Group-13" transform="translate(71.000000, 146.000000)">
                <g id="Stacked-Group" transform="translate(689.000000, 0.000000)">
                    <g id="Stacked-Group-2" transform="translate(0.000000, 192.000000)">
                        <g id="Stacked-Group-4" transform="translate(0.000000, 252.000000)">
                            <g id="Group-5">
                                <g id="Group-14" transform="translate(49.000000, 21.000000)">
                                    <polygon id="Rectangle-8" fill="#E0EDFF" points="22.5 2 30 2 30 18 15 18"></polygon>
                                    <path d="M33.5656492,11.2126973 L43.353421,11.2126973 L45,18 C42.9427272,18.3336036 41.5678501,18.3336036 40.8753686,18 C39.3237589,17.2525105 38.6665119,14.9309692 37.7773571,14.6063487 C36.2929592,14.0644115 34.8890565,13.8041106 33.5656492,13.8254459 L33.5656492,11.2126973 Z" id="Rectangle-8" fill="#E0EDFF"></path>
                                    <path d="M4.34136644,18 C5.17261281,15.6438766 7.41714701,14 10,14 C12.582853,14 14.8273872,15.6438766 15.6586336,18 L29.341702,18 C29.5060499,17.5350205 29.7272724,17.092709 30,16.6823875 L30,1 L1,1 L1,18 L4.34136644,18 Z M40.6586336,18 L45,18 C45,11.1567702 39.7124477,5.5485145 33,5.03788963 L33,14.3416363 C33.6339585,14.1176307 34.3084372,14 35,14 C37.582853,14 39.8273872,15.6438766 40.6586336,18 Z M35,23 C36.6568542,23 38,21.6568542 38,20 C38,18.3431458 36.6568542,17 35,17 C33.3431458,17 32,18.3431458 32,20 C32,21.6568542 33.3431458,23 35,23 Z M10,23 C11.6568542,23 13,21.6568542 13,20 C13,18.3431458 11.6568542,17 10,17 C8.34314575,17 7,18.3431458 7,20 C7,21.6568542 8.34314575,23 10,23 Z" id="Combined-Shape" stroke="#2380FF" stroke-width="2"></path>
                                </g>
                            </g>
                        </g>
                    </g>
                </g>
            </g>
        </g>
    </g>
</svg>