<?xml version="1.0" encoding="UTF-8"?>
<svg width="14px" height="10px" viewBox="0 0 14 10" version="1.1" xmlns="http://www.w3.org/2000/svg" xmlns:xlink="http://www.w3.org/1999/xlink">
    <!-- Generator: Sketch 48.2 (47327) - http://www.bohemiancoding.com/sketch -->
    <title>Shape</title>
    <desc>Created with Sketch.</desc>
    <defs></defs>
    <g id="06-00---contact-us" stroke="none" stroke-width="1" fill="none" fill-rule="evenodd" transform="translate(-271.000000, -225.000000)">
        <g id="Stacked-Group-3" transform="translate(70.000000, 116.000000)" fill="#919FBF" fill-rule="nonzero">
            <g id="Stacked-Group" transform="translate(0.000000, 70.000000)">
                <g transform="translate(0.000000, 32.000000)" id="Group-6">
                    <g transform="translate(196.000000, 0.000000)">
                        <g id="if_ic_local_phone_48px_352510">
                            <g id="if_008_Mail_183573" transform="translate(5.000000, 7.000000)">
                                <path d="M8.731959,5.48453617 L13.681755,9.7272182 C13.501681,9.8954635 13.259495,10 12.993155,10 L1.006845,10 C0.739189,10 0.496237,9.8970552 0.316068,9.7290845 L5.268041,5.48453617 L7,7.0000001 L8.731959,5.48453617 Z M7,6 L0.318245,0.27278178 C0.498319,0.10453648 0.740505,0 1.006845,0 L12.993155,0 C13.260811,0 13.503763,0.10294483 13.683932,0.27091553 L7,6 Z M14,9.1856084 L9.167358,5.07885766 L14,0.875422 L14,9.1856084 Z M0,9.1856079 L0,0.87815189 L4.832642,5.07885742 L0,9.1856079 Z" id="Shape"></path>
                            </g>
                        </g>
                    </g>
                </g>
            </g>
        </g>
    </g>
</svg>