<?xml version="1.0" encoding="UTF-8"?>
<svg width="16px" height="16px" viewBox="0 0 16 16" version="1.1" xmlns="http://www.w3.org/2000/svg" xmlns:xlink="http://www.w3.org/1999/xlink">
    <!-- Generator: Sketch 48.2 (47327) - http://www.bohemiancoding.com/sketch -->
    <title>Shape</title>
    <desc>Created with Sketch.</desc>
    <defs></defs>
    <g id="01-01-02-sign-up-(filling)" stroke="none" stroke-width="1" fill="none" fill-rule="evenodd" transform="translate(-834.000000, -353.000000)">
        <g id="Oval-3-+-alicia-jones-421542-unsplash22-Mask" transform="translate(180.000000, 88.000000)" fill="#919FBF" fill-rule="nonzero">
            <g id="Stacked-Group-2" transform="translate(490.000000, 24.000000)">
                <g id="Group-5" transform="translate(0.000000, 205.000000)">
                    <g id="Group">
                        <g transform="translate(0.000000, 24.000000)" id="Shape">
                            <path d="M172,12 C167.581741,12 164,15.5817412 164,20 C164,24.4182588 167.581741,28 172,28 C176.418259,28 180,24.4184471 180,20 C180,15.5815529 176.418259,12 172,12 Z M171.960094,24.4737882 C171.960094,24.4737882 171.588894,24.7205647 171.335153,24.7194353 C171.312565,24.7297882 171.2992,24.7358118 171.2992,24.7358118 L171.299765,24.7194353 C171.246494,24.7169882 171.192847,24.7094588 171.138824,24.6959059 L171.058635,24.6761412 C170.615529,24.5662118 170.380988,24.1268706 170.491294,23.6839529 L171.108141,21.1971765 L171.386541,20.0739765 C171.645553,19.0311529 170.565271,20.2957176 170.343718,19.8153412 C170.197459,19.4977882 171.184,18.8314353 171.904753,18.3290353 C171.904753,18.3290353 172.275576,18.0826353 172.529506,18.0835765 C172.552282,18.0730353 172.565647,18.0672 172.565647,18.0672 L172.564706,18.0835765 C172.618353,18.0860235 172.672,18.0935529 172.726024,18.1069176 L172.806212,18.1268706 C173.249318,18.2368 173.519247,18.6849882 173.409318,19.1279059 L172.792659,21.6148706 L172.513694,22.7380706 C172.255059,23.7808941 173.317459,22.5114353 173.538824,22.9923765 C173.685082,23.3095529 172.680659,23.9713882 171.960094,24.4737882 Z M173.523576,16.7008 C173.3696,17.3210353 172.742024,17.6992 172.121976,17.5452235 C171.501553,17.3912471 171.123388,16.7638588 171.277365,16.1434353 C171.431341,15.5230118 172.058918,15.1450353 172.678965,15.2990118 C173.299388,15.4528 173.677365,16.0803765 173.523576,16.7008 Z"></path>
                        </g>
                    </g>
                </g>
            </g>
        </g>
    </g>
</svg>