<?xml version="1.0" encoding="UTF-8"?>
<svg width="24px" height="24px" viewBox="0 0 24 24" version="1.1" xmlns="http://www.w3.org/2000/svg" xmlns:xlink="http://www.w3.org/1999/xlink">
    <!-- Generator: Sketch 48.2 (47327) - http://www.bohemiancoding.com/sketch -->
    <title>Combined Shape</title>
    <desc>Created with Sketch.</desc>
    <defs></defs>
    <g id="home-page-3" stroke="none" stroke-width="1" fill="none" fill-rule="evenodd" transform="translate(-502.000000, -4319.000000)">
        <g id="Group-25" transform="translate(0.000000, 4167.000000)" fill="#415071">
            <g id="Group-12" transform="translate(438.000000, 152.000000)">
                <g id="Stacked-Group">
                    <g id="Group-22" transform="translate(64.000000, 0.000000)">
                        <path d="M12,0 C18.62775,0 24,5.37225 24,12 C24,18.627 18.62775,24 12,24 C5.37225,24 0,18.627 0,12 C0,5.37225 5.37225,0 12,0 Z M17.04,7.15294118 C16.416,6.51764706 15.528,6.18823529 14.52,6.18823529 L9.576,6.18823529 C7.488,6.18823529 6.096,7.55294118 6.096,9.6 L6.096,14.4235294 C6.096,15.4352941 6.432,16.3058824 7.104,16.9411765 C7.752,17.5529412 8.616,17.8588235 9.6,17.8588235 L14.496,17.8588235 C15.528,17.8588235 16.392,17.5294118 17.016,16.9411765 C17.664,16.3294118 18,15.4588235 18,14.4470588 L18,9.6 C18,8.61176471 17.664,7.76470588 17.04,7.15294118 Z M16.944,14.4470588 C16.944,15.1764706 16.68,15.7647059 16.248,16.1647059 C15.816,16.5647059 15.216,16.7764706 14.496,16.7764706 L9.6,16.7764706 C8.88,16.7764706 8.28,16.5647059 7.848,16.1647059 C7.416,15.7411765 7.2,15.1529412 7.2,14.4235294 L7.2,9.6 C7.2,8.89411765 7.416,8.30588235 7.848,7.88235294 C8.256,7.48235294 8.88,7.27058824 9.6,7.27058824 L14.544,7.27058824 C15.264,7.27058824 15.864,7.48235294 16.296,7.90588235 C16.704,8.32941176 16.944,8.91764706 16.944,9.6 L16.944,14.4470588 Z M12.048,8.98823529 C10.368,8.98823529 8.976,10.3294118 8.976,12 C8.976,13.6705882 10.344,15.0117647 12.048,15.0117647 C13.752,15.0117647 15.12,13.6470588 15.12,12 C15.12,10.3529412 13.728,8.98823529 12.048,8.98823529 Z M12.048,13.9294118 C10.968,13.9294118 10.08,13.0588235 10.08,12 C10.08,10.9411765 10.968,10.0705882 12.048,10.0705882 C13.128,10.0705882 14.016,10.9411765 14.016,12 C14.016,13.0588235 13.128,13.9294118 12.048,13.9294118 Z M15.24,9.6 C15.6243902,9.6 15.936,9.29450018 15.936,8.91764706 C15.936,8.54079394 15.6243902,8.23529412 15.24,8.23529412 C14.8556098,8.23529412 14.544,8.54079394 14.544,8.91764706 C14.544,9.29450018 14.8556098,9.6 15.24,9.6 Z" id="Combined-Shape"></path>
                    </g>
                </g>
            </g>
        </g>
    </g>
</svg>