<?xml version="1.0" encoding="UTF-8"?>
<svg width="287px" height="60px" viewBox="0 0 287 60" version="1.1" xmlns="http://www.w3.org/2000/svg" xmlns:xlink="http://www.w3.org/1999/xlink">
    <!-- Generator: Sketch 50.2 (55047) - http://www.bohemiancoding.com/sketch -->
    <title>Animal Registry - logo 1</title>
    <desc>Created with Sketch.</desc>
    <defs></defs>
    <g id="Page-1" stroke="none" stroke-width="1" fill="none" fill-rule="evenodd">
        <g id="back" transform="translate(-57.000000, -33.000000)" fill="#FFFFFF">
            <g id="Animal-Registry---logo-1" transform="translate(57.000000, 33.000000)">
                <g id="Group-4">
                    <path d="M18.2894924,9.46746716 C18.7876949,9.5285616 21.4130736,9.33916885 22.0203397,9.46746716 C22.852713,9.64202269 22.9870793,9.91171098 22.7907648,10.7408497 C22.7582468,10.8371057 22.7405937,10.9377595 22.7384143,11.0393397 C22.80298,11.7960379 22.4373988,12.3275595 21.8912084,12.800605 C21.4060935,13.220411 19.5485225,14.1368275 18.8723282,14.3332025 C18.5372848,14.4300808 15.6340468,14.2476184 17.9162935,15.4973326 C20.1985402,16.7470467 25.4938427,9.72348118 27.5518034,11.0393397 C29.3638212,12.1979425 22.0323126,16.0185361 22.7907648,16.0185361 C24.1884582,16.0185361 27.5518034,13.3396462 27.5518034,15.1187024 C27.5518034,16.672421 17.1881755,21.5662219 15.5326141,24.0438077 C11.5304687,30.0331109 14.0607808,35.970347 13.9204027,35.786686 C13.9762432,36.2606043 17.0148478,41.779777 15.1517836,43.1229719 C13.2887193,44.4661668 11.6488319,36.7009744 11.0543897,38.9876799 C10.6100442,40.6969918 15.8121916,48.4559765 12.2279872,46.7598554 C10.3912831,45.8906883 8.1129596,40.0193073 7.42325831,39.8358691 C6.36856169,39.5553539 5.29816771,38.9573846 4.28235652,37.8959482 C2.09859494,35.6141029 -1.29676067e-13,32.7695043 0,28.6577627 C1.57073979e-13,23.6744269 3.63511186,20.8656657 4.28235652,21.620856 C4.92960118,22.3760462 2.84734993,23.2403353 2.38387419,27.8113451 C1.92039844,32.382355 5.023458,34.19231 4.92960118,33.4332045 C3.64619415,23.0531239 10.7832999,13.9116509 10.9787418,12.800605 C11.0450525,12.4209467 11.3132826,11.4894464 11.3316839,11.0393397 C11.3728028,10.0335489 11.3173711,10.4342943 10.7299124,9.16891895 C10.5564476,8.75554222 10.3069969,7.25494147 10.3912831,6.96231948 C10.5064542,6.49101955 10.6818285,6.4150879 11.0543897,6.71270507 C11.6546757,7.19186 12.8978438,8.55078534 13.4745721,9.06223303 C13.6490738,9.21671467 12.5030146,7.61130627 12.5030146,7.61130627 C12.5901403,7.29138927 13.1244578,5.24852894 13.6381484,6.03573993 C14.151839,6.82295092 13.9003657,8.06504038 14.2864224,8.12216802 C14.7046349,8.184054 14.8778478,8.12216802 15.5326141,8.12216802 C17.2834898,8.12216802 17.6874614,8.97609335 18.2894924,9.46746716 Z M15.9253636,52.4440242 C15.5031178,52.7035455 14.6604494,53.0216089 14.0835002,53.0218595 C13.429625,53.0221435 12.8633012,52.9669408 12.8131175,52.4843127 C12.7167286,51.5573183 14.4300765,51.0580913 15.7157867,50.1649662 C17.0014969,49.2718412 15.4838711,47.6748456 16.5408303,45.9197418 C16.6598377,45.6705796 18.8207141,43.0811504 18.653877,39.7201414 C18.3735543,34.0729145 16.1407643,31.5892864 15.9666712,31.2065629 C15.8825346,31.0323417 15.5418182,30.4338528 16.0811851,30.1789578 C16.4691499,29.9872041 16.9543908,30.3165675 17.0682447,30.394903 C17.1915769,30.4782971 17.3070559,30.5727697 17.4280993,30.6602957 C17.4662835,30.6886097 17.5030381,30.7216499 17.5608354,30.7114587 C17.5933289,30.6647168 17.570757,30.6179907 17.5540715,30.5747006 C17.4794028,30.3865332 16.6667423,28.5970254 16.6293069,28.2777642 C16.5795198,27.9686831 16.7085927,27.4676887 17.0110243,27.3879725 C17.2922117,27.3227323 17.6409743,27.3626484 17.7657589,27.7537521 C17.8187625,27.9388325 17.8588091,28.1273531 17.8856146,28.3179769 C18.034887,29.3194697 18.9389214,30.9745597 19.3961125,30.9960467 C19.7733461,31.0137758 19.8913822,30.6858882 19.9172601,30.6090779 C20.0419878,30.2388623 19.9833873,29.552367 19.9809566,29.4801376 C19.9812519,28.8018378 20.6184186,28.6073088 20.7292309,28.5771639 C21.1909646,28.4556028 21.67318,28.5032272 22.1285984,28.6286895 C23.4473483,28.9919893 24.2804544,29.8256293 24.6303728,30.3246772 C24.8666887,30.6476374 24.9980092,31.0507518 25.2362596,31.3564959 C25.5049216,31.701267 26.7338922,31.8284088 27.3188691,31.9929606 C27.8424093,32.1357905 29.197598,32.5458383 29.8649729,33.4131968 C30.0671899,33.6760095 30.1846822,34.0243059 29.9979877,34.3559256 C29.6318423,35.0588433 27.7514204,34.0253627 29.7611435,34.9033444 C30.0494091,35.033032 30.5848653,35.3363698 30.6895181,35.4036699 C30.7684538,35.4537637 30.8417091,35.5120921 30.9080323,35.5776586 C31.0522246,35.72374 31.0473497,35.8714984 30.8974752,36.0097773 C30.8412989,36.0613942 30.1116556,36.8011797 28.5300679,36.4063361 C26.9484802,36.0114924 24.6745871,33.6545452 24.563015,34.5802174 C24.5426139,34.7494783 25.609859,37.9444851 24.6492359,42.339511 C23.8637879,45.9330785 21.6103147,48.8579242 21.5182064,48.9964355 C21.4879251,49.0388062 21.48006,49.0929259 21.497075,49.1418407 C21.5310296,49.2573994 21.9861182,51.0821388 21.0643761,51.325428 C19.2933901,51.792871 18.9061414,49.7381343 18.9091694,49.6697435 C18.7850411,49.8270119 18.6964219,50.008696 18.6493134,50.202492 C18.6199333,50.3225072 18.619654,50.9640154 18.1522888,51.1998601 C17.9434228,51.3487117 16.2920368,52.217905 15.9253636,52.4440242 Z M24.9418417,54.1792086 C24.1735545,51.1860117 24.2886984,48.4425516 25.2872735,45.9488285 C27.6572529,40.0303229 32.3226542,39.9315255 32.6414266,39.6373504 C33.7408756,38.6227379 35.2990706,36.4288267 36.0605149,36.4279056 C36.573041,36.4272857 34.4697193,38.3346022 35.1491553,39.197057 C36.3739462,40.7517681 37.1764595,40.7563412 37.2092841,41.136767 C37.3008999,42.1985642 33.3206197,40.424716 33.0953801,40.5090635 C31.4233952,41.1351875 28.1660124,42.2922733 27.6495864,46.3731472 C27.3729695,48.5590146 28.6969723,52.6283556 28.7881753,52.7535874 C28.8797137,52.8792797 29.5556987,52.4007833 30.8161303,51.3180983 L29.9947203,55.2206315 C30.6229059,58.3527015 30.4737793,59.9160383 29.5473405,59.910642 C27.2168831,59.8970676 26.5475833,56.8508474 25.2747171,56.3372768 C23.9443233,55.8004952 23.5438506,55.8657873 23.3883648,55.7345969 C23.0841166,55.4778888 23.6019422,54.9594261 24.9418417,54.1792086 Z M34.3886868,3.92680376 C34.4062866,3.83280614 34.3637271,3.76094449 34.3118877,3.70448176 C34.1618095,3.54118898 34.0558907,3.35158971 33.948692,3.15910313 C33.913279,3.09277727 33.885578,3.02259491 33.8661329,2.94993439 C33.8110936,2.75744781 33.7618142,2.56271556 33.7102948,2.36894574 C33.7012556,2.34375172 33.6946128,2.31775729 33.690455,2.29130949 C33.6846951,2.20789864 33.7429344,2.15143591 33.8242134,2.17068457 C33.8807148,2.18330073 33.9340637,2.20731428 33.9810116,2.24126298 C34.11605,2.34328086 34.2510884,2.4469028 34.3765269,2.56207394 C34.6482037,2.80749432 34.9115607,3.06253903 35.1835575,3.30763861 C35.3288358,3.43885029 35.476354,3.56974116 35.6680318,3.63614903 C35.7039611,3.65357092 35.7334341,3.68199543 35.7521908,3.7173142 C35.7900812,3.78984966 35.8602201,3.83990613 35.9409886,3.8520548 C35.9998679,3.86135832 36.0529873,3.87996536 36.075707,3.94508998 C36.1921856,3.95631836 36.2113854,4.03299218 36.2571449,4.0743768 C36.3064243,4.03331299 36.2734647,3.99994865 36.2517049,3.97171729 C36.1448262,3.8344102 36.0347475,3.6996696 35.9278687,3.56236251 C35.8401898,3.44975786 35.7534708,3.33779484 35.6696318,3.22069884 C35.567553,3.07986283 35.4673941,2.93710195 35.3688353,2.79369945 C35.222277,2.58036016 35.0632389,2.37343709 34.9374804,2.14790699 C34.8565213,2.00354206 34.8261217,1.83094576 34.7739623,1.67054029 C34.7643624,1.64134649 34.7621224,1.60990701 34.7522025,1.58103403 C34.713483,1.46778776 34.6651635,1.35646636 34.6347639,1.24193684 C34.5880445,1.06517001 34.5528449,0.885836681 34.5138053,0.707465788 C34.5134853,0.576574917 34.5563648,0.550268419 34.6088442,0.586840868 C34.6640358,0.624773274 34.713686,0.670230839 34.7563625,0.721902281 C34.9803598,1.00004538 35.2110771,1.27369713 35.4213147,1.56242699 C35.7733105,2.04620992 36.1112266,2.54122123 36.4581025,3.02917469 C36.5694612,3.18540963 36.6894598,3.33586997 36.8100984,3.48633031 C36.8782281,3.57573628 36.9800834,3.63305971 37.0916951,3.64481092 C37.2398533,3.6647012 37.3838516,3.71538933 37.5355298,3.75420746 C37.5809693,3.66855093 37.52273,3.60182225 37.4916904,3.53348952 C37.4606507,3.46515679 37.4152113,3.39554081 37.3636919,3.30378887 C37.4489762,3.33465566 37.5230153,3.39054992 37.5761694,3.46419435 C37.696168,3.61433388 37.8142466,3.76575665 37.9332852,3.9165378 L38.0158442,4.0217638 C38.1617625,3.94605241 38.1777623,4.12089438 38.2769611,4.15201305 C38.288481,4.06379003 38.2520014,3.99738217 38.2104019,3.92744538 C38.1553626,3.83633506 38.1080031,3.74009178 38.0616037,3.64384849 C37.9784046,3.47125219 37.9067255,3.29095644 37.8152066,3.12445555 C37.638568,2.81213837 37.5298416,2.46588638 37.4961703,2.10844724 C37.4641707,1.72571977 37.4609707,1.34042581 37.4468909,0.956415092 C37.4487044,0.901773078 37.4534043,0.847265762 37.4609707,0.793122314 C37.5032102,0.821032868 37.5345699,0.831298818 37.5480097,0.852793152 C37.6028201,0.934147462 37.65067,1.02000295 37.691048,1.10944192 C37.8766458,1.57397619 38.0689636,2.03626478 38.2350416,2.50753608 C38.6743965,3.74554556 39.0695918,4.99831236 39.3870281,6.27449835 C39.4449474,6.50804873 39.4737471,6.74865694 39.5233465,6.984453 C39.5396884,7.05298252 39.5678446,7.11812362 39.6065455,7.17693957 C39.8020632,7.48395566 39.9652613,7.80444581 40.0567802,8.15958354 C40.1300287,8.4554238 40.1505039,8.76192142 40.1172595,9.06491206 C40.1006197,9.23397944 40.1356284,9.59222171 40.0567802,10.2508623 C39.9779321,10.9095028 40.6119737,12.0118815 40.8295712,12.6740353 C40.8892294,12.8424687 40.9615425,13.0061238 41.0458886,13.1635929 C41.1476219,13.3647665 41.3165999,13.5237286 41.523323,13.6127282 C41.8404393,13.7567723 41.7582003,13.7801915 42.1853952,13.6740031 C42.6695495,13.5533782 43.1505039,13.4173543 43.6359382,13.3034664 C44.0519333,13.2043359 44.4772083,13.143061 44.9082433,13.1546102 C45.118212,13.1569432 45.3265107,13.1923434 45.525516,13.2595153 C45.696172,13.3152864 45.8501856,13.4130032 45.9735107,13.5437539 C46.0771895,13.6579626 46.0816695,13.7846829 45.9770307,13.89825 C45.94135,13.9332248 45.9304569,13.9864319 45.949511,14.0326698 C45.9671108,14.0878492 45.9872706,14.1423871 46.0064704,14.1972458 C46.0774555,14.3897886 46.0513568,14.6048443 45.9363912,14.7747055 C45.8661509,14.8721486 45.7869809,14.9627976 45.699914,15.0454699 C45.6679143,15.0804383 45.609995,15.1096321 45.5677555,15.0717764 C45.5336565,15.0377006 45.5140453,14.9917098 45.5130362,14.9434521 C45.519609,14.8725442 45.5327863,14.8024085 45.5523957,14.7339625 C45.5722355,14.6402857 45.5786354,14.5475713 45.5322359,14.4590275 C45.3184784,14.6476644 45.3194384,14.6495892 45.019602,14.7795177 C44.9426809,14.8086936 44.8878935,14.8777833 44.8768836,14.9594926 C44.854909,15.083686 44.7935166,15.1974442 44.7018457,15.2838325 C44.5738472,15.4137609 44.4410487,15.5404813 44.3111303,15.6688056 C44.2655361,15.7119885 44.2052148,15.7360867 44.1424923,15.7361759 C44.0623756,15.7378167 43.9828405,15.7502251 43.906015,15.7730692 C43.6445781,15.8648211 43.3761013,15.8895236 43.1021845,15.8802201 C43.0237854,15.8776536 42.9421863,15.8673876 42.8516274,15.9123012 C42.8697607,15.9433189 42.8912212,15.9722568 42.9156267,15.9985993 C42.9946657,16.0627615 43.0756248,16.1269237 43.1588238,16.187557 C43.5917787,16.4948939 44.0228137,16.8073637 44.4621685,17.1044347 C44.6935106,17.2556298 44.9324349,17.3948307 45.1780001,17.5214889 C45.7283936,17.8163142 46.2858271,18.0989487 46.8343006,18.3960196 C47.1944175,18.5873501 47.5120738,18.8499364 47.7680497,19.1678908 C47.809505,19.220563 47.861221,19.2642242 47.9200479,19.2962151 C48.5600404,19.6285753 49.1360336,20.0613493 49.7475464,20.4366981 C50.2160209,20.725428 50.7017752,20.9788686 51.2259291,21.1517857 C51.3475276,21.1918871 51.4732862,21.2204393 51.6140845,21.2586158 C51.5890604,21.2773333 51.5621387,21.2933553 51.5337655,21.3064166 C51.2844884,21.3846945 51.0467312,21.3898275 50.8208138,21.224289 C50.7452947,21.1691095 50.6435359,21.1495401 50.546257,21.1107219 C50.5215435,21.1888537 50.5529175,21.2738321 50.6224162,21.3170034 C50.8246538,21.4639348 51.0265714,21.6127911 51.2796884,21.6641208 C51.3625675,21.6901065 51.3660874,21.7003725 51.3817672,21.7218668 C51.3479955,21.7469025 51.3117532,21.7684023 51.2736085,21.786029 C50.9113728,21.9053707 50.5436971,21.9605502 50.1725014,21.8344714 C50.1101022,21.8132979 50.0921824,21.8607779 50.0205032,21.8822723 C50.0576228,21.8145812 50.0806625,21.7725549 50.1072222,21.7247541 L49.8435453,21.4854291 C49.9203444,21.6679706 49.9677038,21.8492288 50.0845025,21.9987267 C50.1945812,22.1392419 50.3104198,22.2755865 50.4230585,22.4141769 C50.4992176,22.5078537 50.5760167,22.6008888 50.6470559,22.6974529 C50.6966553,22.7641816 50.6931353,22.7667481 50.6947353,22.873899 C50.5187374,22.8774279 50.3411395,22.8995638 50.1664215,22.8678035 C49.9917007,22.8349161 49.8192052,22.7910931 49.6499476,22.7365919 C49.4851495,22.6846205 49.3401912,22.6002472 49.271392,22.4234804 C49.252217,22.3898028 49.2191961,22.3663241 49.1811531,22.3593182 C49.1093209,22.3530673 49.0371285,22.3521022 48.9651556,22.3564309 C48.9688693,22.4081114 48.9756008,22.4595293 48.9853154,22.5104201 C49.0336348,22.7009818 49.0873942,22.8899395 49.1341136,23.080822 C49.1540101,23.1588076 49.1653836,23.2387322 49.1680332,23.3191846 C49.1705932,23.4391679 49.1302737,23.4667576 49.0128351,23.4433384 C48.9778886,23.4362326 48.9425008,23.4315165 48.9069163,23.4292227 C48.7909249,23.4215556 48.678803,23.3843442 48.5811601,23.3211094 C48.4894218,23.2668358 48.3923841,23.222117 48.2915635,23.1876521 C48.1689409,23.1454121 48.0580653,23.0746053 47.9680473,22.9810498 C47.9184479,22.9300409 47.8592486,22.8880146 47.8131691,22.8344392 C47.7670897,22.7808638 47.7350901,22.7173432 47.6928506,22.6612013 C47.6045316,22.7645024 47.5821319,22.8594625 47.6803707,22.933249 C47.6054916,22.9653301 47.5827719,23.0153766 47.5786119,23.0891631 C47.568372,23.2643259 47.4896529,23.3294505 47.315255,23.3095602 C47.1296572,23.2887075 46.9446993,23.2582305 46.7607015,23.2258286 C46.5610238,23.1905394 46.4199055,23.0551571 46.2835871,22.9200957 C46.2515875,22.8880146 46.2471075,22.8264189 46.2247078,22.7628984 C46.1792683,22.8934684 46.1415088,23.009602 46.0989493,23.1234899 C46.0269501,23.3159765 45.950791,23.3692311 45.7440734,23.3509448 C45.5843711,23.3374304 45.4258022,23.3127752 45.269519,23.2771583 C45.0628014,23.2290367 44.9021633,23.1167528 44.842644,22.8973182 C44.830569,22.8716172 44.8154177,22.8474858 44.7975246,22.8254565 C44.7702392,22.856765 44.7448092,22.8896511 44.7213655,22.9239455 C44.6916058,22.9736712 44.6647261,23.0253217 44.6397664,23.0776139 C44.5725672,23.2197332 44.4525686,23.2944821 44.3063303,23.3198262 C44.0151337,23.3705143 43.7556168,23.3156556 43.564579,23.0657439 C43.4975232,22.9984724 43.4834125,22.9917771 43.4685802,22.9871452 C43.3197819,23.1276604 43.1226642,23.1350391 42.9361064,23.1542877 C42.7636284,23.1719323 42.6058703,23.0991082 42.6420299,22.8469508 C42.6562305,22.7591139 42.6798332,22.6730674 42.712429,22.5903021 C42.7514686,22.4857177 42.803308,22.3862663 42.8471475,22.2836068 C42.8657072,22.2409389 42.8791471,22.1960254 42.8935469,22.1520743 C42.8397876,22.161057 42.8129079,22.1864011 42.7895481,22.2143116 C42.6522698,22.3788876 42.5114714,22.541218 42.379633,22.7099646 C42.2177149,22.9175292 42.0001174,22.9050176 41.7822,22.8623498 C41.6734012,22.8408554 41.5978821,22.7513492 41.5639625,22.6435567 C41.5505227,22.6012096 41.5639625,22.5492383 41.5703625,22.5027207 C41.5792526,22.4658526 41.5909124,22.4297117 41.605242,22.3946074 C41.3463651,22.6002472 41.100288,22.5976807 40.8484509,22.5457093 C40.7670064,22.5232233 40.680846,22.5245591 40.6001339,22.5495591 C40.4340558,22.6082675 40.2740577,22.570091 40.1140596,22.5200445 C39.990861,22.3849831 39.8878222,22.3734339 39.7787035,22.3580349 C39.6385741,22.3349605 39.4997247,22.3046571 39.3627084,22.2672454 C39.2987091,22.2515257 39.2481497,22.2220111 39.2612696,22.1366754 C39.2705495,22.0786086 39.22479,22.0494148 39.1745506,22.0343367 C39.1191912,22.0179753 39.0622319,22.0057845 39.0068726,21.9891023 C38.8961539,21.9570212 38.8734341,21.9249401 38.8695942,21.8075233 C38.8651142,21.6711787 38.8638342,21.6791989 38.7275158,21.6567422 C38.631472,21.6400931 38.5381361,21.6104129 38.4500791,21.5685192 C38.4001451,21.5405763 38.3595231,21.4985119 38.3332805,21.4475734 C38.2934663,21.3713961 38.2223649,21.3165274 38.1387228,21.2974339 C38.0913633,21.2852431 38.0427239,21.2785061 37.9950444,21.2653528 C37.7940868,21.2143439 37.6702483,21.0892276 37.6305687,20.883267 C37.4744106,20.7523761 37.348012,20.7007255 37.2225735,20.6471501 C37.1099348,20.5990284 37.0510555,20.5111262 37.0766552,20.3905013 C37.1144148,20.2124512 37.0673753,20.1072252 36.8811375,20.051725 C36.753139,20.0138693 36.7150595,19.9038311 36.7364992,19.7687697 C36.7659389,19.6134972 36.752819,19.5859074 36.6565002,19.5345777 C36.6094607,19.5095544 36.5605013,19.489985 36.5115419,19.466245 C36.4675924,19.4453752 36.4248577,19.4220255 36.3835434,19.3963082 C36.2353851,19.3000649 36.2174653,19.2233911 36.3032243,19.0726099 C36.3205041,19.0405288 36.3384239,19.0122974 36.3579437,18.9786123 C36.2865845,18.9385109 36.2235452,18.8984096 36.156346,18.8666493 C36.0891468,18.834889 36.0654671,18.8451549 36.0283475,18.9122044 C35.8926691,19.1581595 35.582377,19.7105713 35.559873,19.7382926 C35.0737988,20.3584202 34.5544448,20.9480708 33.9614918,21.4684261 C33.6994255,21.7050648 33.4145027,21.9149485 33.1109418,22.0949699 C33.053094,22.1286459 32.9932501,22.1587512 32.9317439,22.1851178 C32.8645447,22.2133492 32.7912656,22.2287481 32.7243863,22.1918549 C32.6504672,22.1507911 32.1051936,22.5784321 31.8795963,22.7458954 C31.5743198,22.9723879 31.2517636,23.1712907 30.8946478,23.3085978 C30.8453891,23.3293038 30.794562,23.346039 30.7426496,23.3586443 C30.7103429,23.3665744 30.6762689,23.362589 30.6466507,23.3474159 C30.5896914,23.3085978 27.6412702,25.3012433 27.3782091,25.4031725 C27.3241298,25.4233836 27.2748503,25.4561064 27.221091,25.4779215 C27.1646864,25.5042126 27.0976226,25.4872921 27.0603504,25.437366 C27.0230782,25.3874398 27.0257911,25.3181622 27.0668528,25.2713192 C27.3638093,24.9947802 27.6429527,24.7381314 27.9222027,24.4814827 C27.982362,24.4263032 28.0434813,24.3720861 28.1042806,24.3172275 L27.9148428,24.3544415 C27.730845,24.421491 24.408324,26.3033681 24.2188862,26.3922327 C24.1574472,26.4170781 24.0928046,26.4330639 24.0268885,26.4397128 C23.9764043,26.4487354 23.9262347,26.4223327 23.9049699,26.3755506 C23.880218,26.330203 23.8914033,26.2735939 23.9315296,26.2411308 C24.0441683,26.1333383 24.1587269,26.0271499 24.2739256,25.9203198 C24.3523247,25.8484582 24.4339237,25.7801254 24.5116828,25.7076221 C24.5702421,25.6530843 24.6272014,25.5959799 24.6803208,25.5363091 C24.7011206,25.5128899 24.7273603,25.4721469 24.7193603,25.451615 C24.7006663,25.4232343 23.5334543,25.6466681 23.2454577,25.7525357 C22.821996,25.9110163 22.3993876,26.0683206 21.9776325,26.2244486 C21.7346021,26.3543112 20.6070886,26.4281636 20.5315695,26.3473192 C20.5603646,26.2585777 20.6205836,26.1834833 20.7008475,26.1362256 C20.8113594,26.0610097 20.9268218,25.9933779 21.0464435,25.9337939 C21.4915583,25.7175673 21.9446729,25.5167396 22.368348,25.2600909 C22.5584257,25.1445989 22.7453035,25.023974 22.9507411,24.895008 C22.9001817,24.8703055 22.8691421,24.8574731 22.8403424,24.8404701 C22.7533034,24.7888196 22.7443435,24.6967468 22.8246626,24.6325846 C22.8643394,24.6037213 22.9060479,24.5777748 22.9494611,24.5549484 C23.6006535,24.1744666 26.7398166,22.196667 26.8006159,22.1206348 C26.2427558,22.2981502 25.8469204,22.425833 25.6131099,22.5036831 C25.4825514,22.5473134 25.344633,22.5678453 25.2095946,22.5980015 C25.1548752,22.6101923 25.1052758,22.6117964 25.0751962,22.5466718 C25.0348766,22.4594112 25.0319967,22.3978155 25.093116,22.3541852 C25.2128294,22.2606215 25.3378364,22.1740721 25.4675116,22.0949699 C25.859187,21.8723271 27.9308426,20.6721733 28.0098817,20.6250141 C27.8313238,20.6038406 26.846268,20.6466241 26.7970959,20.586196 C26.7244568,20.5018227 26.7292567,20.4212992 26.8220557,20.358741 C26.9292544,20.2872002 27.0428531,20.2249629 27.1554917,20.1620839 C27.2918101,20.0860517 27.4300485,20.0141901 27.5673269,19.9400827 C27.5933408,19.9229345 27.6203777,19.9073996 27.648286,19.8935652 C28.1999595,19.6754137 30.4248933,18.5371764 30.4988125,18.4909796 C30.5989713,18.4268174 30.6997701,18.3649009 30.8133688,18.2936809 C30.5260122,18.3196666 28.6463542,18.6395151 28.4530765,18.5990929 C28.4223282,18.5933444 28.3925065,18.5834145 28.3644375,18.5695783 C28.2178793,18.4941878 28.2018795,18.3302534 28.3362779,18.2359349 C28.4066037,18.1882816 28.4816714,18.1480719 28.5602752,18.1159516 C28.8511677,17.9906969 31.6914385,17.2093399 32.0523942,17.0964144 C32.1461531,17.0672206 32.244392,17.0341771 32.3333509,16.9360089 C32.2481691,16.944219 32.1634696,16.9568545 32.0795939,16.9738646 C31.8821562,17.025836 30.4748277,16.7693132 30.4175334,16.681285 C30.3461743,16.5779839 30.3631341,16.4849487 30.4815327,16.4448473 C30.6161697,16.3972593 30.7560716,16.3662345 30.8981678,16.3524538 C31.2133641,16.3258265 33.7310945,16.1702332 33.9269322,16.1651002 C33.9886915,16.1634961 34.0504508,16.1651002 34.1214899,16.1651002 C34.033811,15.9751801 34.0117312,15.8439684 34.0066113,15.7085862 C34.0040513,15.6370454 33.9864515,15.5879613 33.9090124,15.5542761 C33.7936947,15.5072179 33.7171691,15.3961055 33.7141347,15.2713209 C33.7109348,15.2164622 33.693015,15.1818146 33.6315757,15.1689822 C33.4171782,15.1250311 33.2942996,14.9809869 33.2814998,14.7631563 C33.2779798,14.700919 33.2814998,14.63804 33.2834198,14.5754819 C33.2878396,14.5211341 33.2635589,14.4684327 33.2194205,14.4365708 C33.0216629,14.285148 32.9771834,14.0836787 33.0347827,13.8494867 C33.0485425,13.7939864 33.0639024,13.7391277 33.0786222,13.682665 C32.927264,13.6197861 32.9029442,13.5421498 32.9087042,13.4503979 C32.9176641,13.3134116 32.9330239,13.1764253 32.9471037,13.0221152 C32.925024,13.0118493 32.8904644,12.9948463 32.8552648,12.9794474 C32.753826,12.9345338 32.7234264,12.8941117 32.7330262,12.7834319 C32.7432566,12.6766124 32.7589571,12.5703908 32.7800657,12.4651874 C32.8038677,12.3722773 32.7711928,12.274003 32.6965467,12.2139924 C32.6040678,12.1334689 32.5784681,12.0285637 32.6005478,11.9095428 C32.621525,11.7767245 32.6687406,11.6494415 32.7394262,11.5351564 C32.7903056,11.457841 32.7864656,11.4539913 32.7096665,11.398491 C32.586468,11.3099472 32.5496684,11.2060044 32.5944679,11.060677 C32.6159076,10.9929859 32.6495072,10.9291445 32.6763869,10.8627367 C32.6943067,10.8184648 32.7103065,10.7732304 32.7301463,10.7202966 C32.6130276,10.6773079 32.6149476,10.5919722 32.6280675,10.4982954 C32.672227,10.1842215 32.8235852,9.94489652 33.1106218,9.80277727 C33.1915788,9.76198073 33.2627575,9.70408283 33.3192594,9.63306827 C33.2175006,9.62568962 33.1336615,9.62119827 33.0504625,9.61285718 C32.9751192,9.60855914 32.9002258,9.59836915 32.8264651,9.58238014 C32.7747659,9.56922027 32.7274249,9.54266836 32.6891868,9.50538551 C32.6238896,9.43223921 32.562779,9.35544231 32.5061489,9.27536405 C32.4662939,9.22489691 32.4559545,9.15709309 32.4789492,9.09699316 C32.5061167,9.01669319 32.5389458,8.93843179 32.5771881,8.86280116 C32.6341582,8.74788958 32.7497163,8.67386259 32.8776645,8.67031459 C33.011103,8.66133188 33.010783,8.65748215 33.0783022,8.59716969 C32.8274251,8.56284291 32.6779869,8.40051257 32.5387885,8.24106952 C32.3995902,8.08162648 32.4517495,7.7309801 32.6165476,7.59014409 C32.6836971,7.53703646 32.7675641,7.50973018 32.8530248,7.51314946 C32.926944,7.51122459 33.0008631,7.50480837 33.0856621,7.49999621 C33.061881,7.42897987 33.0036068,7.37503277 32.9311039,7.35691452 C32.7589459,7.3094345 32.6584671,7.18752634 32.6111077,7.0255168 C32.5074289,6.67551205 32.5947879,6.48591277 32.8197452,6.2613451 C32.9013443,6.17985912 33.0037431,6.16028965 33.1173417,6.19269155 C33.2011807,6.21643156 33.2875797,6.23183049 33.3826186,6.25300401 C33.3771787,6.14906126 33.3157394,6.09773151 33.2578201,6.04351446 C33.0972616,5.90240815 33.0113846,5.69440303 33.0255028,5.48081204 C33.0341427,5.31687764 33.1077418,5.18181622 33.2117406,5.05990806 C33.2531033,5.01096412 33.3174954,4.98805716 33.3803786,4.99991641 C33.4763775,5.01114479 33.5749364,5.02493967 33.6722152,5.03680967 C33.7154147,5.04226346 33.7589342,5.04579238 33.8110936,5.05124616 C33.8251734,4.97425153 33.8251734,4.91425988 33.7618142,4.86549662 C33.6491755,4.77919847 33.603416,4.6540822 33.5720564,4.52222889 C33.5637365,4.48790212 33.5688564,4.44844237 33.5554166,4.41668209 C33.4757375,4.22644119 33.5445367,4.04871192 33.5995761,3.87130346 C33.6434155,3.72982583 33.7102948,3.69261176 33.8536531,3.74041259 C33.9659443,3.78110008 34.0755033,3.82900017 34.1816492,3.88381509 C34.2450267,3.91801574 34.3169734,3.93295454 34.3886868,3.92680376 Z M57.6670717,17.6879573 C57.7553967,17.9020839 57.3699206,18.0819397 57.2268044,17.6879573 C57.0836881,17.2939749 54.2119499,9.67461315 42.1846074,3.40440782 C41.7296459,3.16722309 41.6993359,2.82140777 41.7988541,2.60661237 C41.8983723,2.39181697 42.3752867,2.2228183 42.9407492,2.48591207 C50.9935609,6.23265862 55.6009597,12.6790774 57.6670717,17.6879573 Z M7.96251045,47.27537 C7.94356609,48.3606915 6.68339297,49.097171 5.44940726,47.2315036 C1.35108915,41.0352418 0.197441177,34.6088282 0.628506594,34.889218 C1.05957201,35.1696077 1.37422761,39.7096403 4.77794935,43.5611437 C5.85090327,44.7752516 7.98145481,46.1900485 7.96251045,47.27537 Z M41.9723692,35.4196585 C41.7001539,35.388807 41.219257,35.2659008 40.960122,35.1548864 C40.8465273,35.106137 40.5979772,34.551795 41.2461484,34.6410029 C42.2450536,34.7784823 42.3738819,34.6974762 42.5644316,34.5690555 C42.6862529,34.4869542 42.755362,34.1421387 42.4200811,34.0002362 C42.0848002,33.8583336 40.3162109,34.2243485 38.5784458,33.4952939 C38.1129077,33.299984 37.1156571,33.1933166 36.7886561,33.496501 C36.6715147,33.6047682 36.3046391,33.945801 35.7357002,33.9461848 C35.1667613,33.9465685 33.7312652,33.6041686 34.1109304,33.1785112 C34.2234565,33.0523538 34.5852053,33.1105231 34.8247015,33.1000902 C35.1904171,33.0848768 35.2957426,32.9520674 35.1252179,32.6306557 C34.9049497,32.2153412 34.643535,31.9766959 34.3908786,31.5800924 C34.1731905,31.2418208 33.8769585,30.8088885 33.5107717,30.6384037 C32.8197594,30.3021353 32.1932548,29.8680166 31.6987209,29.2695316 C31.153836,28.6099453 31.0566915,28.0239482 31.1861635,27.1713572 C31.2151078,26.9805594 31.0854644,26.6784943 31.085627,26.4370237 C31.0857895,26.1955532 31.2175593,26.1040358 31.3412487,26.0430654 C31.5925408,25.9212563 31.8614683,25.8386699 32.1385642,25.7982134 C33.1466449,25.6467729 34.0246355,25.776098 35.0372041,25.8741939 C35.1573104,25.8738038 36.1858915,25.190532 36.5587954,25.0143688 C36.9062645,24.8501999 37.2075272,25.0137359 37.3090681,25.3850509 C37.3900884,25.6728637 37.4247654,25.9713285 37.4118143,26.2693874 C37.3963818,26.55552 37.5518122,27.0507782 37.889741,27.0168828 C40.4659944,26.7584757 43.4271339,27.7316746 44.7142556,28.5225884 C46.1007354,29.3768348 46.8403884,30.5713481 46.5443216,32.2416204 C46.3818688,33.1544385 46.0138846,33.9797011 45.348695,34.6382359 C44.3973521,35.5824256 43.4143792,35.5830886 41.9723692,35.4196585 Z M41.899212,50.721419 C41.5062872,49.7487931 38.1899452,47.9883217 37.5680714,48.2329566 C37.4967914,48.2603349 37.4222313,48.278191 37.3463098,48.2860655 C36.3768313,48.3913739 36.4158081,48.982098 36.3538285,50.0130848 C36.3280023,50.4427392 35.9724367,50.6621098 35.610551,50.5983981 C34.5501313,50.4117063 34.1502211,50.8660868 33.422441,50.7210433 C32.9411917,50.6262545 32.8651069,49.9126796 32.7791273,49.4838307 C32.6720986,48.8713056 31.9571837,48.4172416 31.7630861,47.7937291 C31.5689885,47.1702166 31.3682791,46.8165635 31.3215072,46.2413545 C31.2747353,45.6661455 31.3279219,45.8738552 31.1021856,45.7872024 C30.9776835,45.7310491 30.6223584,45.6868382 30.521855,45.5941861 C30.2626861,45.3755287 30.2542735,45.1750338 30.5681812,44.9875171 C30.7635839,44.8696162 31.1800407,44.6866466 31.4082268,44.5279617 C31.0340189,44.232855 30.7444421,44.3058636 30.4273178,43.9952108 C30.2759718,43.8464436 30.1414795,43.5720637 30.1704645,43.3814118 C30.1931834,43.2347639 31.6858419,43.2736245 32.8942549,43.1915493 C34.0719138,43.111563 35.5809764,42.6767381 36.7694572,42.9214274 C40.9489315,43.7819147 47.2230366,43.688827 50.7623637,36.9833174 C59.4350305,20.5523267 43.7494168,7.08566754 45.686646,7.18702136 C46.6756131,7.23876309 49.3372947,8.64687334 53.5726853,19.6135406 C55.402346,24.3510684 54.6535018,26.0713687 55.895761,27.8824821 C56.4728891,28.7238881 56.3198704,25.8683939 55.8332731,22.8156003 C55.2724771,19.2973027 54.2943748,18.1331953 54.7412687,17.9755854 C56.0172274,17.5255819 56.3865012,19.9351747 57.1781455,23.7058461 C57.8496836,26.9044413 57.7888359,28.4695927 58.005044,28.4507344 C58.3866961,28.4174457 58.6888227,29.0199618 58.3850302,25.5581505 C58.1599882,22.9937261 57.6655601,19.1638734 58.3847805,19.9364162 C58.6241592,20.1935423 63.0276136,31.6186372 57.1789992,42.9223319 C53.5054285,50.0222907 48.955876,54.1536792 44.2303132,56.4457989 C41.2098744,57.9108534 38.8485632,59.3632469 38.5071189,58.2528786 C38.1656746,57.1425104 40.5744823,56.2097126 42.4302584,55.4816081 C44.1532728,54.805592 44.5715164,54.0386696 44.2301672,53.1595645 C43.888818,52.2804594 41.769994,53.6405305 38.85993,55.2814037 C36.402665,56.666961 34.0160126,56.9280281 33.7315074,56.2764555 C33.3510046,55.4050297 35.684711,55.3284311 38.5492007,53.9604517 C41.1815665,52.7033266 42.1561457,51.3574198 41.899212,50.721419 Z M6.41611548,16.1484994 C5.86490083,16.1484994 5.41805307,15.700514 5.41805307,15.1478959 C5.41805307,14.5952779 5.86490083,14.1472924 6.41611548,14.1472924 C6.96733012,14.1472924 7.41417789,14.5952779 7.41417789,15.1478959 C7.41417789,15.700514 6.96733012,16.1484994 6.41611548,16.1484994 Z M27.9457474,30.0181048 C27.3157878,30.0181048 26.8051047,29.5061214 26.8051047,28.8745579 C26.8051047,28.2429944 27.3157878,27.7310111 27.9457474,27.7310111 C28.575707,27.7310111 29.0863902,28.2429944 29.0863902,28.8745579 C29.0863902,29.5061214 28.575707,30.0181048 27.9457474,30.0181048 Z M48.4773169,36.8793859 C47.8473573,36.8793859 47.3366742,36.3674025 47.3366742,35.735839 C47.3366742,35.1042755 47.8473573,34.5922922 48.4773169,34.5922922 C49.1072765,34.5922922 49.6179597,35.1042755 49.6179597,35.735839 C49.6179597,36.3674025 49.1072765,36.8793859 48.4773169,36.8793859 Z M35.0747646,59.4644361 C34.444805,59.4644361 33.9341219,58.9524528 33.9341219,58.3208893 C33.9341219,57.6893258 34.444805,57.1773424 35.0747646,57.1773424 C35.7047242,57.1773424 36.2154074,57.6893258 36.2154074,58.3208893 C36.2154074,58.9524528 35.7047242,59.4644361 35.0747646,59.4644361 Z M34.3618629,54.3184753 C33.8106482,54.3184753 33.3638005,53.8704899 33.3638005,53.3178718 C33.3638005,52.7652538 33.8106482,52.3172683 34.3618629,52.3172683 C34.9130775,52.3172683 35.3599253,52.7652538 35.3599253,53.3178718 C35.3599253,53.8704899 34.9130775,54.3184753 34.3618629,54.3184753 Z M28.0883278,40.0241397 C27.5371131,40.0241397 27.0902654,39.5761543 27.0902654,39.0235362 C27.0902654,38.4709182 27.5371131,38.0229327 28.0883278,38.0229327 C28.6395424,38.0229327 29.0863902,38.4709182 29.0863902,39.0235362 C29.0863902,39.5761543 28.6395424,40.0241397 28.0883278,40.0241397 Z M41.7760408,41.4535733 C40.5948665,41.4535733 39.6373356,40.4936045 39.6373356,39.3094229 C39.6373356,38.1252414 40.5948665,37.1652726 41.7760408,37.1652726 C42.957215,37.1652726 43.9147459,38.1252414 43.9147459,39.3094229 C43.9147459,40.4936045 42.957215,41.4535733 41.7760408,41.4535733 Z M49.4753793,29.7322181 C48.2942051,29.7322181 47.3366742,28.7722493 47.3366742,27.5880677 C47.3366742,26.4038862 48.2942051,25.4439174 49.4753793,25.4439174 C50.6565536,25.4439174 51.6140845,26.4038862 51.6140845,27.5880677 C51.6140845,28.7722493 50.6565536,29.7322181 49.4753793,29.7322181 Z M19.5335071,25.5827609 C18.9822925,25.5827609 18.5354447,25.1347755 18.5354447,24.5821574 C18.5354447,24.0295394 18.9822925,23.5815539 19.5335071,23.5815539 C20.0847218,23.5815539 20.5315695,24.0295394 20.5315695,24.5821574 C20.5315695,25.1347755 20.0847218,25.5827609 19.5335071,25.5827609 Z M30.5121936,14.866109 C30.0397239,14.866109 29.6567115,14.4821215 29.6567115,14.0084489 C29.6567115,13.5347763 30.0397239,13.1507888 30.5121936,13.1507888 C30.9846633,13.1507888 31.3676757,13.5347763 31.3676757,14.0084489 C31.3676757,14.4821215 30.9846633,14.866109 30.5121936,14.866109 Z M42.0612015,7.1471678 C41.6674767,7.1471678 41.3482997,6.8271782 41.3482997,6.43245102 C41.3482997,6.03772385 41.6674767,5.71773424 42.0612015,5.71773424 C42.4549262,5.71773424 42.7741032,6.03772385 42.7741032,6.43245102 C42.7741032,6.8271782 42.4549262,7.1471678 42.0612015,7.1471678 Z M43.2018442,11.7213552 C42.6506296,11.7213552 42.2037818,11.2733698 42.2037818,10.7207517 C42.2037818,10.1681337 42.6506296,9.72014821 43.2018442,9.72014821 C43.7530589,9.72014821 44.1999066,10.1681337 44.1999066,10.7207517 C44.1999066,11.2733698 43.7530589,11.7213552 43.2018442,11.7213552 Z M20.1038285,58.3208893 C19.5526138,58.3208893 19.1057661,57.8729038 19.1057661,57.3202858 C19.1057661,56.7676677 19.5526138,56.3196823 20.1038285,56.3196823 C20.6550431,56.3196823 21.1018909,56.7676677 21.1018909,57.3202858 C21.1018909,57.8729038 20.6550431,58.3208893 20.1038285,58.3208893 Z M16.6819002,56.605569 C15.9731957,56.605569 15.3986771,56.0295877 15.3986771,55.3190788 C15.3986771,54.6085699 15.9731957,54.0325886 16.6819002,54.0325886 C17.3906048,54.0325886 17.9651233,54.6085699 17.9651233,55.3190788 C17.9651233,56.0295877 17.3906048,56.605569 16.6819002,56.605569 Z M23.6683371,59.1785494 C23.1958674,59.1785494 22.812855,58.7945619 22.812855,58.3208893 C22.812855,57.8472167 23.1958674,57.4632291 23.6683371,57.4632291 C24.1408068,57.4632291 24.5238192,57.8472167 24.5238192,58.3208893 C24.5238192,58.7945619 24.1408068,59.1785494 23.6683371,59.1785494 Z M10.1232044,51.5955603 C9.25700997,51.5955603 8.55482064,50.8915832 8.55482064,50.0231834 C8.55482064,49.1547836 9.25700997,48.4508065 10.1232044,48.4508065 C10.9893989,48.4508065 11.6915882,49.1547836 11.6915882,50.0231834 C11.6915882,50.8915832 10.9893989,51.5955603 10.1232044,51.5955603 Z M22.2425337,7.57189803 C20.3526549,7.57189803 18.8206054,6.03594794 18.8206054,4.14125748 C18.8206054,2.24656703 20.3526549,0.710616938 22.2425337,0.710616938 C24.1324124,0.710616938 25.6644619,2.24656703 25.6644619,4.14125748 C25.6644619,6.03594794 24.1324124,7.57189803 22.2425337,7.57189803 Z M53.89537,15.7237692 C53.4229003,15.7237692 53.0398879,15.3397816 53.0398879,14.866109 C53.0398879,14.3924364 53.4229003,14.0084489 53.89537,14.0084489 C54.3678397,14.0084489 54.7508521,14.3924364 54.7508521,14.866109 C54.7508521,15.3397816 54.3678397,15.7237692 53.89537,15.7237692 Z M30.0844526,3.14475383 C29.2182581,3.14475383 28.5160688,2.44077671 28.5160688,1.57237692 C28.5160688,0.703977125 29.2182581,0 30.0844526,0 C30.950647,0 31.6528364,0.703977125 31.6528364,1.57237692 C31.6528364,2.44077671 30.950647,3.14475383 30.0844526,3.14475383 Z M28.9438098,8.29071465 C28.3925952,8.29071465 27.9457474,7.84272921 27.9457474,7.29011116 C27.9457474,6.73749311 28.3925952,6.28950767 28.9438098,6.28950767 C29.4950245,6.28950767 29.9418722,6.73749311 29.9418722,7.29011116 C29.9418722,7.84272921 29.4950245,8.29071465 28.9438098,8.29071465 Z M48.0495759,17.1532027 C47.4983613,17.1532027 47.0515135,16.7052173 47.0515135,16.1525992 C47.0515135,15.5999812 47.4983613,15.1519957 48.0495759,15.1519957 C48.6007906,15.1519957 49.0476383,15.5999812 49.0476383,16.1525992 C49.0476383,16.7052173 48.6007906,17.1532027 48.0495759,17.1532027 Z" id="logo---grey"></path>
                </g>
                <path d="M82.9341237,36.0393443 L74.4128866,36.0393443 L72.6672165,40.8196721 L68.3474227,40.8196721 L76.3952577,19.8983607 L81.1292784,19.8983607 L89.1179381,40.8196721 L84.6797938,40.8196721 L82.9341237,36.0393443 Z M75.7739175,32.3213115 L81.5730928,32.3213115 L78.6735052,24.4131148 L75.7739175,32.3213115 Z M94.3056357,40.8196721 L90.3704811,40.8196721 L90.3704811,26.3016393 L94.1872852,26.3016393 L94.1872852,28.1016393 C94.6409645,27.3540946 95.2573672,26.8032805 96.036512,26.4491803 C96.8156568,26.0950802 97.5997211,25.9180328 98.3887285,25.9180328 C99.296087,25.9180328 100.080151,26.0704903 100.740945,26.3754098 C101.401739,26.6803294 101.949104,27.088522 102.383058,27.6 C102.817012,28.111478 103.137542,28.7213079 103.344656,29.4295082 C103.551771,30.1377085 103.655326,30.885242 103.655326,31.6721311 L103.655326,40.8196721 L99.7201718,40.8196721 L99.7201718,32.3508197 C99.7201718,31.524586 99.5081293,30.8360683 99.0840378,30.2852459 C98.6599463,29.7344235 97.9745065,29.4590164 97.0276976,29.4590164 C96.1597895,29.4590164 95.4891433,29.7491774 95.0157388,30.3295082 C94.5423344,30.909839 94.3056357,31.6229466 94.3056357,32.4688525 L94.3056357,40.8196721 Z M106.564777,40.8196721 L106.564777,26.3016393 L110.499931,26.3016393 L110.499931,40.8196721 L106.564777,40.8196721 Z M106.091375,21.5508197 C106.091375,20.8622916 106.328073,20.2819696 106.801478,19.8098361 C107.274882,19.3377026 107.846904,19.1016393 108.51756,19.1016393 C109.207942,19.1016393 109.784895,19.3377026 110.248436,19.8098361 C110.711978,20.2819696 110.943746,20.8622916 110.943746,21.5508197 C110.943746,22.2000032 110.711978,22.7606534 110.248436,23.2327869 C109.784895,23.7049204 109.207942,23.9409836 108.51756,23.9409836 C107.846904,23.9409836 107.274882,23.7049204 106.801478,23.2327869 C106.328073,22.7606534 106.091375,22.2000032 106.091375,21.5508197 Z M113.616495,40.8196721 L113.616495,26.3016393 L117.374124,26.3016393 L117.374124,28.0721311 C117.571376,27.718031 117.827799,27.4032801 118.143402,27.1278689 C118.459005,26.8524576 118.809122,26.6262304 119.193763,26.4491803 C119.578404,26.2721303 119.982764,26.1344267 120.406856,26.0360656 C120.830947,25.9377044 121.240239,25.8885246 121.634742,25.8885246 C122.640727,25.8885246 123.518484,26.0950799 124.268041,26.5081967 C125.017598,26.9213135 125.579758,27.5213075 125.954536,28.3081967 C126.526566,27.4229464 127.197213,26.7983625 127.966495,26.4344262 C128.735777,26.07049 129.603672,25.8885246 130.570206,25.8885246 C131.240862,25.8885246 131.891784,25.9918022 132.52299,26.1983607 C133.154196,26.4049191 133.716355,26.734424 134.209485,27.1868852 C134.702614,27.6393465 135.097112,28.2147506 135.39299,28.9131148 C135.688867,29.6114789 135.836804,30.4426181 135.836804,31.4065574 L135.836804,40.8196721 L132.02,40.8196721 L132.02,32.2032787 C132.02,31.4163895 131.81782,30.7622977 131.413454,30.2409836 C131.009087,29.7196695 130.353235,29.4590164 129.445876,29.4590164 C128.597693,29.4590164 127.93691,29.7393415 127.463505,30.3 C126.990101,30.8606585 126.753402,31.5344223 126.753402,32.3213115 L126.753402,40.8196721 L122.847835,40.8196721 L122.847835,32.2032787 C122.847835,31.4163895 122.640724,30.7622977 122.226495,30.2409836 C121.812266,29.7196695 121.161345,29.4590164 120.273711,29.4590164 C119.405803,29.4590164 118.735157,29.7344235 118.261753,30.2852459 C117.788348,30.8360683 117.551649,31.5147501 117.551649,32.3213115 L117.551649,40.8196721 L113.616495,40.8196721 Z M137.858625,36.8655738 C137.858625,36.2163902 137.972044,35.6409861 138.198883,35.1393443 C138.425723,34.6377024 138.73639,34.2000019 139.130893,33.8262295 C139.525397,33.4524571 139.984001,33.1573781 140.506718,32.9409836 C141.029436,32.7245891 141.596526,32.5672136 142.208007,32.4688525 L145.78811,31.9377049 C146.202339,31.8786882 146.48835,31.7557386 146.646151,31.5688525 C146.803953,31.3819663 146.882852,31.160657 146.882852,30.904918 C146.882852,30.3934401 146.680672,29.9508215 146.276306,29.5770492 C145.87194,29.2032768 145.255537,29.0163934 144.427079,29.0163934 C143.559171,29.0163934 142.893456,29.2524567 142.429914,29.7245902 C141.966372,30.1967237 141.705017,30.7475378 141.645842,31.3770492 L138.154502,30.6393443 C138.213677,30.0688496 138.391201,29.4983635 138.687079,28.9278689 C138.982957,28.3573742 139.387317,27.8459039 139.900172,27.3934426 C140.413027,26.9409813 141.044223,26.5721326 141.79378,26.2868852 C142.543337,26.0016379 143.411232,25.8590164 144.397491,25.8590164 C145.541552,25.8590164 146.517934,26.0114739 147.326667,26.3163934 C148.135399,26.621313 148.791252,27.0245877 149.294244,27.5262295 C149.797236,28.0278714 150.162147,28.6131114 150.388986,29.2819672 C150.615826,29.950823 150.729244,30.6491767 150.729244,31.3770492 L150.729244,38.5180328 C150.729244,38.9114774 150.748969,39.329506 150.788419,39.7721311 C150.82787,40.2147563 150.867319,40.5639331 150.90677,40.8196721 L147.297079,40.8196721 C147.257629,40.6229498 147.22311,40.3524607 147.193522,40.0081967 C147.163935,39.6639327 147.149141,39.3540997 147.149141,39.0786885 C146.774362,39.6491832 146.236859,40.1508175 145.536615,40.5836066 C144.836371,41.0163956 143.94382,41.2327869 142.858935,41.2327869 C142.089653,41.2327869 141.39435,41.1098373 140.773007,40.8639344 C140.151664,40.6180316 139.624023,40.2934446 139.190069,39.8901639 C138.756115,39.4868832 138.425723,39.0245928 138.198883,38.5032787 C137.972044,37.9819646 137.858625,37.4360684 137.858625,36.8655738 Z M143.687388,38.3114754 C144.101617,38.3114754 144.501046,38.2573776 144.885687,38.1491803 C145.270328,38.0409831 145.610583,37.8540997 145.90646,37.5885246 C146.202338,37.3229495 146.439037,36.9786906 146.616564,36.5557377 C146.79409,36.1327848 146.882852,35.5967246 146.882852,34.947541 L146.882852,34.2983607 L143.598625,34.8 C143.085771,34.8786889 142.656754,35.0606543 142.311564,35.3459016 C141.966373,35.631149 141.79378,36.0590135 141.79378,36.6295082 C141.79378,37.0622972 141.951579,37.450818 142.267182,37.795082 C142.582785,38.139346 143.056182,38.3114754 143.687388,38.3114754 Z M153.609107,40.8196721 L153.609107,19.4557377 L157.544261,19.4557377 L157.544261,40.8196721 L153.609107,40.8196721 Z M173.511718,32.2622951 L170.37543,32.2622951 L170.37543,40.8196721 L167.446254,40.8196721 L167.446254,19.8983607 L175.346151,19.8983607 C176.33241,19.8983607 177.224962,20.0606541 178.023832,20.3852459 C178.822702,20.7098377 179.498279,21.1524562 180.050584,21.7131148 C180.602889,22.2737733 181.026974,22.9327831 181.322852,23.6901639 C181.61873,24.4475448 181.766667,25.2590121 181.766667,26.1245902 C181.766667,27.6393518 181.317925,28.9327815 180.42043,30.004918 C179.522934,31.0770545 178.275334,31.7606543 176.677595,32.0557377 L181.677904,40.8196721 L178.304914,40.8196721 L173.511718,32.2622951 Z M174.813574,29.6655738 C175.997085,29.6655738 176.953742,29.3459048 177.683574,28.7065574 C178.413406,28.0672099 178.778316,27.2065628 178.778316,26.1245902 C178.778316,25.0032731 178.413406,24.118036 177.683574,23.4688525 C176.953742,22.8196689 175.997085,22.495082 174.813574,22.495082 L170.37543,22.495082 L170.37543,29.6655738 L174.813574,29.6655738 Z M196.432268,32.2622951 C196.392818,31.2393391 196.047632,30.378692 195.396701,29.6803279 C194.74577,28.9819637 193.789113,28.6327869 192.526701,28.6327869 C191.934945,28.6327869 191.407305,28.7360645 190.943763,28.942623 C190.480221,29.1491814 190.085723,29.4245884 189.760258,29.7688525 C189.434792,30.1131165 189.173437,30.5016372 188.976186,30.9344262 C188.778934,31.3672153 188.670447,31.8098338 188.650722,32.2622951 L196.432268,32.2622951 Z M199.243093,36.7770492 C199.045841,37.4065605 198.754899,37.9918006 198.370258,38.5327869 C197.985617,39.0737732 197.522082,39.5458996 196.979639,39.9491803 C196.437197,40.352461 195.820794,40.67213 195.130412,40.9081967 C194.440031,41.1442635 193.680623,41.2622951 192.852165,41.2622951 C191.905356,41.2622951 190.998011,41.0950836 190.130103,40.7606557 C189.262195,40.4262278 188.497856,39.9344295 187.837062,39.2852459 C187.176268,38.6360623 186.653559,37.839349 186.268918,36.895082 C185.884276,35.950815 185.691959,34.8786945 185.691959,33.6786885 C185.691959,32.5573714 185.879345,31.5393488 186.254124,30.6245902 C186.628902,29.7098315 187.126956,28.9229541 187.748299,28.2639344 C188.369642,27.6049147 189.094532,27.0934444 189.92299,26.7295082 C190.751447,26.365572 191.60948,26.1836066 192.497113,26.1836066 C193.581999,26.1836066 194.553449,26.365572 195.411495,26.7295082 C196.26954,27.0934444 196.984568,27.5999968 197.556598,28.2491803 C198.128628,28.8983639 198.567507,29.6803233 198.873247,30.595082 C199.178988,31.5098406 199.331856,32.5180273 199.331856,33.6196721 C199.331856,33.7967222 199.326924,33.9639336 199.317062,34.1213115 C199.307199,34.2786893 199.292406,34.4065569 199.27268,34.504918 L188.561959,34.504918 C188.581684,35.1344294 188.700033,35.7147514 188.91701,36.2459016 C189.133987,36.7770518 189.434792,37.2344243 189.819433,37.6180328 C190.204074,38.0016413 190.657747,38.2967203 191.180464,38.5032787 C191.703181,38.7098371 192.260409,38.8131148 192.852165,38.8131148 C194.015951,38.8131148 194.903571,38.5377077 195.515052,37.9868852 C196.126532,37.4360628 196.570342,36.7573811 196.846495,35.9508197 L199.243093,36.7770492 Z M206.511787,40.9672131 C206.610413,41.9704968 207.009842,42.801636 207.710086,43.4606557 C208.41033,44.1196754 209.302881,44.4491803 210.387766,44.4491803 C211.88688,44.4491803 212.986543,44.0655776 213.686787,43.2983607 C214.387031,42.5311437 214.737148,41.3803355 214.737148,39.8459016 L214.737148,37.8098361 C214.40182,38.4590196 213.859385,39.0098338 213.109828,39.4622951 C212.360271,39.9147564 211.452926,40.1409836 210.387766,40.1409836 C209.440957,40.1409836 208.568131,39.9688542 207.769261,39.6245902 C206.970391,39.2803261 206.28002,38.8081997 205.698127,38.2081967 C205.116234,37.6081937 204.662562,36.8852501 204.337096,36.0393443 C204.011631,35.1934384 203.8489,34.2688575 203.8489,33.2655738 C203.8489,32.3016345 204.006699,31.4016435 204.322302,30.5655738 C204.637905,29.729504 205.081715,29.0016424 205.653746,28.3819672 C206.225776,27.762292 206.911216,27.2704936 207.710086,26.9065574 C208.508956,26.5426211 209.401507,26.3606557 210.387766,26.3606557 C211.492377,26.3606557 212.409584,26.5573751 213.139416,26.9508197 C213.869248,27.3442643 214.411682,27.8950784 214.766735,28.6032787 L214.766735,26.6262295 L217.518385,26.6262295 L217.518385,39.757377 C217.518385,40.6622996 217.400036,41.5426187 217.163333,42.3983607 C216.926631,43.2541026 216.527202,44.0114721 215.965034,44.6704918 C215.402867,45.3295115 214.668115,45.8606537 213.760756,46.2639344 C212.853398,46.6672151 211.729079,46.8688525 210.387766,46.8688525 C209.500133,46.8688525 208.676619,46.7360669 207.917199,46.4704918 C207.15778,46.2049167 206.487133,45.8360679 205.905241,45.3639344 C205.323348,44.8918009 204.84995,44.3360688 204.485034,43.6967213 C204.120118,43.0573739 203.898213,42.3541022 203.819313,41.5868852 L206.511787,40.9672131 Z M210.801993,37.8098361 C212.005229,37.8098361 212.981611,37.3967254 213.731168,36.5704918 C214.480725,35.7442582 214.855498,34.6426298 214.855498,33.2655738 C214.855498,31.8885177 214.480725,30.7868894 213.731168,29.9606557 C212.981611,29.1344221 212.005229,28.7213115 210.801993,28.7213115 C209.559307,28.7213115 208.5632,29.1344221 207.813643,29.9606557 C207.064086,30.7868894 206.689313,31.8885177 206.689313,33.2655738 C206.689313,34.6623021 207.059154,35.7688484 207.798849,36.5852459 C208.538543,37.4016434 209.539581,37.8098361 210.801993,37.8098361 Z M223.929038,40.8196721 L223.929038,26.6262295 L226.680687,26.6262295 L226.680687,40.8196721 L223.929038,40.8196721 Z M223.307698,21.2557377 C223.307698,20.685243 223.500015,20.2081986 223.884656,19.8245902 C224.269297,19.4409817 224.737764,19.2491803 225.290069,19.2491803 C225.862099,19.2491803 226.340428,19.4409817 226.725069,19.8245902 C227.10971,20.2081986 227.302027,20.685243 227.302027,21.2557377 C227.302027,21.8065601 227.10971,22.2737686 226.725069,22.657377 C226.340428,23.0409855 225.862099,23.2327869 225.290069,23.2327869 C224.737764,23.2327869 224.269297,23.0409855 223.884656,22.657377 C223.500015,22.2737686 223.307698,21.8065601 223.307698,21.2557377 Z M234.570722,36.2459016 C234.669348,36.9934464 234.994808,37.6229483 235.547113,38.1344262 C236.099419,38.6459042 236.878552,38.9016393 237.884536,38.9016393 C238.673543,38.9016393 239.275153,38.714756 239.689381,38.3409836 C240.10361,37.9672112 240.310722,37.5245927 240.310722,37.0131148 C240.310722,36.5606535 240.152923,36.1770508 239.83732,35.8622951 C239.521717,35.5475394 239.068044,35.3213122 238.476289,35.1836066 L236.050103,34.652459 C234.925768,34.4163923 234.052941,33.9442658 233.431598,33.2360656 C232.810255,32.5278653 232.499588,31.6721362 232.499588,30.6688525 C232.499588,30.0590133 232.632731,29.4836093 232.899021,28.942623 C233.165311,28.4016366 233.52529,27.9245922 233.978969,27.5114754 C234.432648,27.0983586 234.970152,26.7737717 235.591495,26.5377049 C236.212838,26.3016382 236.868691,26.1836066 237.559072,26.1836066 C238.525606,26.1836066 239.339258,26.3213101 240.000052,26.5967213 C240.660845,26.8721325 241.198348,27.2114734 241.612577,27.6147541 C242.026806,28.0180348 242.337473,28.4360634 242.544588,28.8688525 C242.751702,29.3016415 242.894708,29.6754083 242.973608,29.9901639 L240.517835,30.904918 C240.478385,30.727868 240.409348,30.5016407 240.310722,30.2262295 C240.212096,29.9508183 240.054297,29.6901652 239.83732,29.4442623 C239.620343,29.1983594 239.324469,28.9868861 238.949691,28.8098361 C238.574912,28.632786 238.111377,28.5442623 237.559072,28.5442623 C236.848966,28.5442623 236.276944,28.7360637 235.84299,29.1196721 C235.409036,29.5032806 235.192062,29.9409811 235.192062,30.4327869 C235.192062,31.3377094 235.734496,31.9081955 236.819381,32.1442623 L239.127216,32.6459016 C240.429079,32.9213129 241.410392,33.4278652 242.071186,34.1655738 C242.731979,34.9032824 243.062371,35.8032734 243.062371,36.8655738 C243.062371,37.3770517 242.953884,37.888522 242.736907,38.4 C242.51993,38.911478 242.199401,39.3836044 241.775309,39.8163934 C241.351218,40.2491825 240.813715,40.5983593 240.162784,40.8639344 C239.511852,41.1295095 238.742582,41.2622951 237.854948,41.2622951 C236.868689,41.2622951 236.02545,41.1245915 235.325206,40.8491803 C234.624962,40.5737691 234.043078,40.2295103 233.579536,39.8163934 C233.115994,39.4032766 232.760946,38.9557401 232.514381,38.4737705 C232.267817,37.9918009 232.114949,37.5442644 232.055773,37.1311475 L234.570722,36.2459016 Z M252.461375,26.6262295 L255.538488,26.6262295 L255.538488,29.1344262 L252.461375,29.1344262 L252.461375,36.5114754 C252.461375,37.160659 252.609311,37.6475394 252.905189,37.9721311 C253.201067,38.2967229 253.713914,38.4590164 254.443746,38.4590164 C254.621272,38.4590164 254.818521,38.4491804 255.035498,38.4295082 C255.252475,38.409836 255.420137,38.3803281 255.538488,38.3409836 L255.538488,40.7016393 C255.420137,40.7409838 255.193301,40.7950816 254.857973,40.8639344 C254.522644,40.9327872 254.118284,40.9672131 253.64488,40.9672131 C252.421918,40.9672131 251.455399,40.6180363 250.745292,39.9196721 C250.035185,39.221308 249.680137,38.2229573 249.680137,36.9245902 L249.680137,29.1344262 L246.958076,29.1344262 L246.958076,26.6262295 L247.727354,26.6262295 C248.496636,26.6262295 249.053864,26.4196742 249.399055,26.0065574 C249.744246,25.5934406 249.916838,25.0721343 249.916838,24.442623 L249.916838,22.1409836 L252.461375,22.1409836 L252.461375,26.6262295 Z M268.813471,29.4295082 C268.399242,29.3704915 267.994882,29.3409836 267.600378,29.3409836 C266.436592,29.3409836 265.494729,29.6803245 264.774759,30.3590164 C264.05479,31.0377083 263.694811,32.1540906 263.694811,33.7081967 L263.694811,40.8196721 L260.913574,40.8196721 L260.913574,26.6262295 L263.635636,26.6262295 L263.635636,29.104918 C263.892063,28.5540956 264.192868,28.1065591 264.538058,27.7622951 C264.883249,27.4180311 265.243228,27.142624 265.618007,26.9360656 C265.992785,26.7295072 266.377421,26.5868856 266.771924,26.5081967 C267.166428,26.4295078 267.541201,26.3901639 267.896254,26.3901639 C268.093506,26.3901639 268.275961,26.3999999 268.443625,26.4196721 C268.611289,26.4393444 268.73457,26.4590163 268.813471,26.4786885 L268.813471,29.4295082 Z M274.691546,46.7508197 L278.242062,39.2557377 L272.117423,26.6262295 L275.312887,26.6262295 L279.751031,36.4229508 L284.011649,26.6262295 L287,26.6262295 L277.739072,46.7508197 L274.691546,46.7508197 Z" id="Animal-Registry"></path>
                <path d="M253.039243,46.036652 C253.039243,45.8218403 253.114998,45.6395357 253.26651,45.4897328 C253.418023,45.3399299 253.602407,45.2650296 253.81967,45.2650296 C253.928302,45.2650296 254.031214,45.2848146 254.128411,45.3243852 C254.225607,45.3639558 254.309938,45.4190711 254.381406,45.4897328 C254.452874,45.5603946 254.508619,45.642361 254.548641,45.7356345 C254.588663,45.828908 254.608674,45.9292462 254.608674,46.036652 C254.608674,46.1440579 254.588663,46.244396 254.548641,46.3376695 C254.508619,46.430943 254.452874,46.5129094 254.381406,46.5835712 C254.309938,46.6542329 254.225607,46.7093483 254.128411,46.7489188 C254.031214,46.7884894 253.928302,46.8082744 253.81967,46.8082744 C253.602407,46.8082744 253.418023,46.7333741 253.26651,46.5835712 C253.114998,46.4337683 253.039243,46.2514637 253.039243,46.036652 Z M257.981949,43.4928419 C257.833296,43.4928419 257.69465,43.5182798 257.566007,43.5691562 C257.437365,43.6200327 257.324447,43.694933 257.22725,43.7938595 C257.130054,43.8927859 257.052869,44.0157355 256.995695,44.1627119 C256.938521,44.3096884 256.909934,44.4764476 256.909934,44.6629946 C256.909934,44.8495416 256.938521,45.0163008 256.995695,45.1632772 C257.052869,45.3102536 257.131483,45.4346165 257.231538,45.5363694 C257.331594,45.6381223 257.445941,45.7144358 257.574583,45.7653123 C257.703226,45.8161887 257.841872,45.8416266 257.990525,45.8416266 C258.133461,45.8416266 258.260673,45.8204284 258.372163,45.7780313 C258.483653,45.7356343 258.579419,45.6805189 258.659463,45.6126837 C258.739507,45.5448484 258.803828,45.4685349 258.852426,45.3837408 C258.901024,45.2989467 258.936758,45.2169803 258.959627,45.1378391 L259.963034,45.4685344 C259.917294,45.6437756 259.841539,45.8147744 259.735767,45.9815361 C259.629994,46.1482978 259.494207,46.2980985 259.328401,46.4309426 C259.162595,46.5637866 258.968205,46.6711909 258.745224,46.7531585 C258.522244,46.8351261 258.27068,46.8761093 257.990525,46.8761093 C257.681783,46.8761093 257.391627,46.820994 257.120049,46.7107617 C256.84847,46.6005294 256.612629,46.4464891 256.412518,46.2486362 C256.212408,46.0507833 256.055181,45.817603 255.940832,45.5490884 C255.826483,45.2805738 255.769309,44.9852121 255.769309,44.6629946 C255.769309,44.340777 255.825053,44.0440022 255.936544,43.7726611 C256.048034,43.50132 256.202402,43.2681397 256.399654,43.0731133 C256.596906,42.8780869 256.828459,42.7254598 257.09432,42.6152275 C257.360182,42.5049952 257.647479,42.4498798 257.956221,42.4498798 C258.242093,42.4498798 258.497945,42.490863 258.723784,42.5728306 C258.949623,42.6547983 259.145443,42.7607893 259.311249,42.8908069 C259.477054,43.0208245 259.611412,43.1706252 259.714326,43.3402133 C259.81724,43.5098015 259.891566,43.6822136 259.937306,43.8574547 L258.916747,44.1966294 C258.86529,44.0213883 258.766665,43.8602819 258.620871,43.7133055 C258.475076,43.5663291 258.262104,43.4928419 257.981949,43.4928419 Z M263.130483,45.8501059 C263.267701,45.8501059 263.402059,45.8246681 263.53356,45.7737916 C263.665062,45.7229152 263.779409,45.6480149 263.876605,45.5490884 C263.973802,45.450162 264.052416,45.3272124 264.112449,45.180236 C264.172482,45.0332595 264.202498,44.8608475 264.202498,44.6629946 C264.202498,44.4651417 264.172482,44.2927296 264.112449,44.1457532 C264.052416,43.9987768 263.973802,43.8758272 263.876605,43.7769007 C263.779409,43.6779743 263.665062,43.603074 263.53356,43.5521975 C263.402059,43.5013211 263.267701,43.4758832 263.130483,43.4758832 C262.993264,43.4758832 262.858906,43.5013211 262.727405,43.5521975 C262.595903,43.603074 262.481556,43.6779743 262.38436,43.7769007 C262.287163,43.8758272 262.208549,43.9987768 262.148516,44.1457532 C262.088483,44.2927296 262.058467,44.4651417 262.058467,44.6629946 C262.058467,44.8608475 262.088483,45.0332595 262.148516,45.180236 C262.208549,45.3272124 262.287163,45.450162 262.38436,45.5490884 C262.481556,45.6480149 262.595903,45.7229152 262.727405,45.7737916 C262.858906,45.8246681 262.993264,45.8501059 263.130483,45.8501059 Z M263.130483,42.4498798 C263.444942,42.4498798 263.737957,42.5049952 264.009535,42.6152275 C264.281114,42.7254598 264.515526,42.8780869 264.712777,43.0731133 C264.910029,43.2681397 265.064398,43.50132 265.175888,43.7726611 C265.287378,44.0440022 265.343123,44.340777 265.343123,44.6629946 C265.343123,44.9852121 265.287378,45.2805738 265.175888,45.5490884 C265.064398,45.817603 264.910029,46.0507833 264.712777,46.2486362 C264.515526,46.4464891 264.281114,46.6005294 264.009535,46.7107617 C263.737957,46.820994 263.444942,46.8761093 263.130483,46.8761093 C262.816023,46.8761093 262.523008,46.820994 262.25143,46.7107617 C261.979851,46.6005294 261.745439,46.4464891 261.548188,46.2486362 C261.350936,46.0507833 261.196567,45.817603 261.085077,45.5490884 C260.973587,45.2805738 260.917842,44.9852121 260.917842,44.6629946 C260.917842,44.340777 260.973587,44.0440022 261.085077,43.7726611 C261.196567,43.50132 261.350936,43.2681397 261.548188,43.0731133 C261.745439,42.8780869 261.979851,42.7254598 262.25143,42.6152275 C262.523008,42.5049952 262.816023,42.4498798 263.130483,42.4498798 Z M266.32366,46.7489188 L266.32366,42.5770703 L267.412827,42.5770703 L267.412827,43.0858323 C267.470002,42.9840794 267.544327,42.8936338 267.635807,42.8144926 C267.727286,42.7353514 267.828769,42.6703436 267.940259,42.6194672 C268.051749,42.5685907 268.168955,42.5290207 268.29188,42.500756 C268.414805,42.4724913 268.53344,42.4583592 268.647789,42.4583592 C268.939379,42.4583592 269.193801,42.5177142 269.411064,42.6364259 C269.628327,42.7551376 269.791272,42.9275497 269.899903,43.1536673 C270.065709,42.899285 270.260099,42.7198069 270.48308,42.6152275 C270.70606,42.5106481 270.957624,42.4583592 271.237779,42.4583592 C271.432172,42.4583592 271.620845,42.4880367 271.803803,42.5473925 C271.986761,42.6067484 272.149706,42.7014337 272.292642,42.8314513 C272.435578,42.9614689 272.549925,43.1268149 272.635687,43.3274943 C272.721449,43.5281736 272.764329,43.7670068 272.764329,44.0440008 L272.764329,46.7489188 L271.658009,46.7489188 L271.658009,44.2729437 C271.658009,44.0468261 271.599406,43.8588687 271.482198,43.7090658 C271.364991,43.5592629 271.174888,43.4843626 270.911886,43.4843626 C270.666036,43.4843626 270.474504,43.5649158 270.337286,43.7260245 C270.200067,43.8871333 270.131459,44.0807436 270.131459,44.3068612 L270.131459,46.7489188 L268.99941,46.7489188 L268.99941,44.2729437 C268.99941,44.0468261 268.939378,43.8588687 268.819312,43.7090658 C268.699245,43.5592629 268.510572,43.4843626 268.253287,43.4843626 C268.00172,43.4843626 267.80733,43.5635025 267.670111,43.7217849 C267.532892,43.8800672 267.464284,44.0750906 267.464284,44.3068612 L267.464284,46.7489188 L266.32366,46.7489188 Z" id=".com"></path>
            </g>
        </g>
    </g>
</svg>