<?xml version="1.0" encoding="UTF-8"?>
<svg width="314px" height="72px" viewBox="0 0 314 72" version="1.1" xmlns="http://www.w3.org/2000/svg" xmlns:xlink="http://www.w3.org/1999/xlink">
    <!-- Generator: Sketch 50.2 (55047) - http://www.bohemiancoding.com/sketch -->
    <title>Animal Registry - logo 1</title>
    <desc>Created with Sketch.</desc>
    <defs>
        <linearGradient x1="3.08868549%" y1="3.34176301%" x2="87.2572734%" y2="94.4068696%" id="linearGradient-1">
            <stop stop-color="#070CB2" offset="0%"></stop>
            <stop stop-color="#3AACEE" offset="100%"></stop>
        </linearGradient>
    </defs>
    <g id="For-Mike" stroke="none" stroke-width="1" fill="none" fill-rule="evenodd">
        <g id="front" transform="translate(-564.000000, -53.000000)">
            <g id="Animal-Registry---logo-1" transform="translate(564.000000, 53.000000)">
                <g id="Group-4" fill="url(#linearGradient-1)">
                    <path d="M21.913375,11.3609606 C22.5102914,11.4342739 25.655863,11.2070026 26.3834529,11.3609606 C27.3807528,11.5704272 27.5417425,11.8940532 27.3065302,12.8890197 C27.2675691,13.0045269 27.2464182,13.1253114 27.243807,13.2472076 C27.3211657,14.1552455 26.8831482,14.7930714 26.2287355,15.360726 C25.6474999,15.8644932 23.4218695,16.964193 22.611694,17.199843 C22.2102651,17.316097 18.7317791,17.0971421 21.4662304,18.5967991 C24.2006818,20.0964561 30.5451963,11.6681774 33.0109216,13.2472076 C35.1819729,14.6375311 26.3977981,19.2222433 27.3065302,19.2222433 C28.9811627,19.2222433 33.0109216,16.0075755 33.0109216,18.1424428 C33.0109216,20.0069052 20.593843,25.8794663 18.6102485,28.8525693 C13.8151174,36.0397331 16.8467859,43.1644164 16.6785932,42.9440232 C16.745498,43.5127251 20.3861722,50.1357323 18.1539601,51.7475663 C15.9217481,53.3594002 13.9569331,44.0411693 13.244708,46.7852159 C12.7123199,48.8363902 18.9452215,58.1471717 14.6508423,56.1118265 C12.4502134,55.068826 9.72046257,48.0231688 8.89410377,47.8030429 C7.6304294,47.4664247 6.34794741,46.7488616 5.13086325,45.4751379 C2.51441084,42.7369234 -1.55370102e-13,39.3234051 0,34.3893152 C1.88196639e-13,28.4093122 4.35537344,25.0387989 5.13086325,25.9450271 C5.90635306,26.8512554 3.41152425,27.8884023 2.85621536,33.3736142 C2.30090646,38.858826 6.01880668,41.030772 5.90635306,40.1198454 C4.36865157,27.6637486 12.9199044,16.6939811 13.1540713,15.360726 C13.2335208,14.905136 13.554898,13.7873357 13.5769454,13.2472076 C13.6262116,12.0402586 13.5597967,12.5211532 12.8559387,11.0027027 C12.6481036,10.5066507 12.3492267,8.70592976 12.4502134,8.35478337 C12.5882045,7.78922346 12.7983275,7.69810548 13.244708,8.05524609 C13.9639348,8.630232 15.4534244,10.2609424 16.1444257,10.8746796 C16.3535033,11.0600576 14.9803636,9.13356752 14.9803636,9.13356752 C15.0847525,8.74966713 15.7249397,6.29823473 16.3404131,7.24288791 C16.9558864,8.1875411 16.6545861,9.67804846 17.1171361,9.74660163 C17.6182134,9.8208648 17.8257467,9.74660163 18.6102485,9.74660163 C20.7080429,9.74660163 21.1920575,10.771312 21.913375,11.3609606 Z M19.0673733,62.9106582 C18.5606195,63.22175 17.5493635,63.6031204 16.8570568,63.6036042 C16.0724431,63.6041524 15.3929039,63.5381889 15.3328398,62.9599217 C15.2174734,61.8492312 17.2735535,61.2505142 18.8166177,60.1799663 C20.3596819,59.1094183 18.5391239,57.1963869 19.807974,55.093092 C19.9508554,54.7945089 22.5446094,51.6911774 22.3454833,47.6640821 C22.0109079,40.8976854 19.3324751,37.9225216 19.1236948,37.4639992 C19.022791,37.2552748 18.6141408,36.538276 19.2614319,36.2326902 C19.7270289,36.0028083 20.309186,36.3972959 20.4457794,36.491121 C20.5937446,36.5910042 20.7322829,36.7041642 20.8775003,36.8089991 C20.9233103,36.8429127 20.9674032,36.8824897 21.0367599,36.8702602 C21.0757652,36.8142439 21.048695,36.758264 21.0286871,36.7063993 C20.9391487,36.4809616 19.9645708,34.3370386 19.919752,33.954513 C19.8601086,33.5841889 20.0151482,32.9838583 20.3780745,32.8882464 C20.7155043,32.8099864 21.1339872,32.8577029 21.2835973,33.3262821 C21.3471399,33.548028 21.3951335,33.7738998 21.427238,34.002296 C21.606038,35.2022335 22.6903022,37.1850685 23.2388991,37.2106687 C23.6915525,37.2317917 23.8332936,36.8388805 23.86437,36.7468384 C24.014154,36.3032078 23.944055,35.4806704 23.9411613,35.3941262 C23.9417313,34.5813899 24.7063575,34.3481033 24.8393356,34.3119485 C25.3934289,34.1661476 25.9720451,34.2230576 26.5184818,34.3732412 C28.1007922,34.8081262 29.1002076,35.8067255 29.5199313,36.4045716 C29.8033945,36.7914661 29.9608434,37.2744345 30.2466333,37.6407002 C30.568903,38.0537181 32.0435584,38.205668 32.7454455,38.4026473 C33.3736189,38.5736191 34.999639,39.0645058 35.8001756,40.1035591 C36.0427411,40.418396 36.1836144,40.8356861 35.9594861,41.2330909 C35.5199085,42.0754407 33.2638365,40.8377263 35.6751122,41.8890815 C36.0209735,42.0443809 36.6633944,42.4076689 36.7889506,42.4882742 C36.883653,42.5482714 36.9715366,42.618137 37.0510999,42.6966774 C37.2240761,42.8716657 37.2181796,43.0487109 37.0382946,43.2144438 C36.9708697,43.2763088 36.0951034,44.162949 34.1974125,43.6903519 C32.2997215,43.2177548 29.5719269,40.3943927 29.4377523,41.5035652 C29.4132182,41.7063794 30.6928363,45.5342851 29.5387446,50.800694 C28.5951082,55.1067428 25.8901364,58.6119987 25.7795675,58.7779917 C25.7432182,58.8287697 25.7337633,58.8936182 25.7541648,58.9522224 C25.7948716,59.0906736 26.3403721,61.2769247 25.2342559,61.5687261 C23.1090234,62.1293777 22.6450002,59.6675232 22.6486554,59.5855766 C22.4996583,59.7740545 22.3932625,59.9917759 22.3366732,60.2239965 C22.3013806,60.3678076 22.3008414,61.1364604 21.7399543,61.4191973 C21.4892796,61.5976172 19.5074325,62.6396065 19.0673733,62.9106582 Z M29.8736975,65.0163774 C28.9553352,61.4271439 29.0957941,58.1366528 30.2950742,55.1449044 C33.1413989,48.0444045 38.7342887,47.921785 39.1166877,47.568682 C40.4355855,46.3508265 42.305463,43.7181648 43.2182701,43.7163867 C43.8326781,43.7151898 41.3095655,46.0046042 42.1232989,47.0383949 C43.5901821,48.9019661 44.5522171,48.9067411 44.5912302,49.3629786 C44.7001186,50.6363719 39.9301963,48.5124141 39.6601084,48.6137762 C37.655208,49.3662013 33.7492905,50.7568417 33.1265988,55.6517249 C32.793062,58.2736057 34.3766547,63.1530292 34.4858766,63.3031463 C34.5955,63.4538153 35.4062823,62.8793292 36.9182235,61.5796882 L35.9300798,66.2609469 C36.6803678,70.0168627 36.5002148,71.8919942 35.3896208,71.8863415 C32.5959207,71.872122 31.7962698,68.2192071 30.2708341,67.6043782 C28.6764557,66.9617618 28.1963183,67.0404245 28.0100406,66.8832178 C27.6455402,66.5756021 28.2667591,65.953322 29.8736975,65.0163774 Z M41.2024661,4.71216451 C41.2235531,4.59936737 41.1725609,4.51313339 41.11045,4.44537811 C40.9306352,4.24942678 40.8037297,4.02190765 40.6752906,3.79092376 C40.6328609,3.71133273 40.5996712,3.62711389 40.5763733,3.53992126 C40.5104285,3.30893737 40.4513848,3.07525867 40.3896574,2.84273489 C40.3788272,2.81250206 40.3708682,2.78130875 40.3658865,2.74957139 C40.3589853,2.64947837 40.4287642,2.58172309 40.5261479,2.60482148 C40.5938445,2.61996088 40.6577639,2.64877714 40.714014,2.68951558 C40.875809,2.81193704 41.0376039,2.93628337 41.1878969,3.07448873 C41.5134038,3.36899319 41.8289422,3.67504684 42.1548325,3.96916633 C42.3288963,4.12662035 42.5056438,4.28368939 42.7353007,4.36337883 C42.7783491,4.38428511 42.8136618,4.41839451 42.8361349,4.46077704 C42.881533,4.54781959 42.9655692,4.60788736 43.0623411,4.62246576 C43.1328868,4.63362998 43.1965313,4.65595843 43.2237527,4.73410798 C43.3633104,4.74758204 43.3863144,4.83959062 43.4411407,4.88925216 C43.5001843,4.83997559 43.4606941,4.79993838 43.4346229,4.76606075 C43.3065672,4.60129224 43.1746774,4.43960352 43.0466217,4.27483501 C42.94157,4.13970943 42.8376685,4.0053538 42.7372177,3.8648386 C42.6149129,3.69583539 42.4949086,3.52452234 42.3768213,3.35243934 C42.201224,3.0964322 42.010674,2.84812451 41.8599977,2.57748839 C41.7629974,2.40425047 41.7265743,2.19713492 41.6640801,2.00464834 C41.6525781,1.96961579 41.6498943,1.93188842 41.6380089,1.89724083 C41.5916174,1.76134531 41.533724,1.62775963 41.4973009,1.49032421 C41.4413245,1.27820401 41.3991505,1.06300402 41.3523756,0.848958946 C41.3519922,0.691889901 41.4033679,0.660322102 41.4662455,0.704209042 C41.5323728,0.749727929 41.5918606,0.804277007 41.6429931,0.866282738 C41.9113733,1.20005446 42.187805,1.52843656 42.439699,1.87491239 C42.8614394,2.4554519 43.2663101,3.04946547 43.6819161,3.63500963 C43.8153394,3.82249156 43.9591145,4.00304396 44.1036565,4.18359637 C44.1852855,4.29088354 44.3073224,4.35967165 44.4410488,4.37377311 C44.6185631,4.39764144 44.7910933,4.4584672 44.9728251,4.50504895 C45.0272679,4.40226112 44.957489,4.32218671 44.9202992,4.24018742 C44.8831094,4.15818814 44.8286665,4.07464897 44.7669391,3.96454665 C44.8691217,4.00158679 44.9578309,4.06865991 45.0215169,4.15703322 C45.165292,4.33720066 45.3067668,4.51890798 45.4493917,4.69984537 L45.548309,4.82611656 C45.7231395,4.7352629 45.7423095,4.94507326 45.8611636,4.98241566 C45.8749661,4.87654804 45.8312584,4.7968586 45.7814164,4.71293445 C45.7154715,4.60360208 45.6587283,4.48811013 45.6031352,4.37261819 C45.5034511,4.16550263 45.4175694,3.94914772 45.307917,3.74934666 C45.0962792,3.37456605 44.9660097,2.95906366 44.9256668,2.53013669 C44.8873268,2.07086372 44.8834928,1.60851097 44.8666232,1.14769811 C44.8687961,1.08212769 44.8744272,1.01671891 44.8834928,0.951746777 C44.9341016,0.985239441 44.9716749,0.997558582 44.9877777,1.02335178 C45.0534482,1.12097695 45.1107791,1.22400354 45.1591576,1.3313303 C45.3815298,1.88877142 45.6119534,2.44351773 45.8109382,3.00904329 C46.3373469,4.49465468 46.8108463,5.99797483 47.1911794,7.52939802 C47.2605749,7.80965847 47.2950809,8.09838833 47.354508,8.3813436 C47.3740879,8.46357902 47.4078229,8.54174835 47.4541921,8.61232749 C47.6884497,8.98074679 47.8839839,9.36533497 47.9936364,9.79150025 C48.0813983,10.1465086 48.1059304,10.5143057 48.066099,10.8778945 C48.0461622,11.0807753 48.0881075,11.5106661 47.9936364,12.3010347 C47.8991652,13.0914034 48.6588359,14.4142578 48.9195482,15.2088424 C48.9910271,15.4109624 49.0776684,15.6073486 49.1787268,15.7963114 C49.3006176,16.0377198 49.5030768,16.2284743 49.7507601,16.3352739 C50.1307099,16.5081268 50.032176,16.5362298 50.5440154,16.4088037 C51.1241002,16.2640538 51.7003509,16.1008252 52.2819692,15.9641597 C52.7803896,15.845203 53.2899287,15.7716732 53.806369,15.7855322 C54.057941,15.7883318 54.3075119,15.8308121 54.5459482,15.9114184 C54.750418,15.9783437 54.9349479,16.0956038 55.0827087,16.2525046 C55.2069304,16.3895551 55.212298,16.5416195 55.0869261,16.6779 C55.0441756,16.7198698 55.0311242,16.7837183 55.0539537,16.8392037 C55.0750407,16.9054191 55.0991949,16.9708645 55.1221989,17.0366949 C55.2072491,17.2677463 55.1759792,17.5258131 55.0382343,17.7296466 C54.9540765,17.8465784 54.8592198,17.9553571 54.7549014,18.0545639 C54.7165614,18.096526 54.6471659,18.1315586 54.5965571,18.0861317 C54.5557016,18.0452408 54.5322047,17.9900518 54.5309956,17.9321425 C54.5388708,17.847053 54.554659,17.7628903 54.5781538,17.680755 C54.6019247,17.5683429 54.6095927,17.4570856 54.5539996,17.350833 C54.2978882,17.5771972 54.2990384,17.5795071 53.9397923,17.7354212 C53.8476301,17.7704323 53.7819871,17.8533399 53.7687957,17.9513911 C53.7424671,18.1004232 53.6689104,18.2369331 53.5590757,18.340599 C53.4057156,18.4965131 53.2466045,18.6485775 53.0909439,18.8025668 C53.0363157,18.8543862 52.9640424,18.883304 52.8888919,18.8834111 C52.7929009,18.88538 52.6976068,18.9002701 52.6055591,18.927683 C52.292321,19.0377854 51.9706481,19.0674283 51.6424574,19.0562641 C51.5485243,19.0531843 51.4507572,19.0408651 51.3422549,19.0947614 C51.3639811,19.1319827 51.3896938,19.1667082 51.418935,19.1983192 C51.5136349,19.2753138 51.6106352,19.3523084 51.7103193,19.4250684 C52.2290599,19.7938726 52.7455002,20.1688365 53.2719089,20.5253216 C53.5490891,20.7067558 53.8353539,20.8737969 54.1295754,21.0257867 C54.789024,21.379577 55.4569074,21.7187384 56.1140556,22.0752235 C56.5455261,22.3048201 56.9261228,22.6199237 57.2328178,23.0014689 C57.2824871,23.0646756 57.3444501,23.117069 57.414933,23.1554582 C58.1817337,23.5542904 58.8718543,24.0736191 59.6045323,24.5240377 C60.1658304,24.8705136 60.7478322,25.1746423 61.3758419,25.3821429 C61.5215341,25.4302645 61.6722104,25.4645271 61.8409065,25.5103389 C61.8109241,25.5327999 61.7786682,25.5520264 61.7446731,25.5676999 C61.4460042,25.6616334 61.1611377,25.667793 60.8904571,25.4691468 C60.7999746,25.4029314 60.6780533,25.3794481 60.5614996,25.3328663 C60.5318893,25.4266245 60.5694798,25.5285985 60.6527489,25.580404 C60.8950579,25.7567218 61.1369835,25.9353493 61.4402532,25.996945 C61.5395539,26.0281278 61.5437713,26.040447 61.5625579,26.0662402 C61.5220946,26.0962831 61.4786712,26.1220827 61.4329686,26.1432348 C60.9989594,26.2864448 60.5584324,26.3526602 60.113688,26.2013657 C60.0389249,26.1759575 60.0174545,26.2329335 59.9315728,26.2587267 C59.9760473,26.1774974 60.0036521,26.1270659 60.0354743,26.0697049 L59.7195524,25.782515 C59.8115685,26.0015647 59.8683118,26.2190745 60.0082529,26.398472 C60.1401426,26.5670902 60.2789335,26.7307038 60.4138905,26.8970122 C60.5051397,27.0094244 60.5971558,27.1210666 60.6822707,27.2369435 C60.7416978,27.3170179 60.7374804,27.3200977 60.7393974,27.4486787 C60.5285272,27.4529134 60.31574,27.4794766 60.1064034,27.4413643 C59.8970633,27.4018993 59.6903896,27.3493117 59.4875952,27.2839102 C59.2901441,27.2215446 59.1164637,27.1202966 59.0340326,26.9081764 C59.0110583,26.8677633 58.9714947,26.8395889 58.9259137,26.8311818 C58.8398488,26.8236807 58.753352,26.8225227 58.6671185,26.8277171 C58.671568,26.8897336 58.6796333,26.9514351 58.6912727,27.0125042 C58.7491662,27.2411782 58.8135774,27.4679274 58.8695539,27.6969864 C58.8933927,27.7905692 58.9070197,27.8864786 58.9101943,27.9830215 C58.9132615,28.1270014 58.8649531,28.1601091 58.7242452,28.1320061 C58.6823744,28.1234791 58.6399748,28.1178198 58.5973396,28.1150673 C58.4583657,28.1058667 58.324028,28.061213 58.2070381,27.9853313 C58.0971228,27.920203 57.980858,27.8665405 57.8600608,27.8251825 C57.7131417,27.7744945 57.5802972,27.6895264 57.472443,27.5772598 C57.413016,27.516049 57.3420869,27.4656176 57.2868773,27.401327 C57.2316676,27.3370365 57.1933276,27.2608118 57.1427187,27.1934415 C57.0369002,27.3174029 57.0100622,27.431355 57.1277661,27.5198988 C57.0380504,27.5583961 57.010829,27.6184519 57.0058448,27.7069957 C56.993576,27.9171911 56.8992595,27.9953406 56.6903063,27.9714723 C56.4679341,27.946449 56.2463287,27.9098766 56.0258735,27.8709943 C55.7866317,27.8286472 55.6175522,27.6661886 55.4542236,27.5041149 C55.4158836,27.4656176 55.410516,27.3917027 55.383678,27.315478 C55.3292351,27.4721621 55.2839939,27.6115224 55.2330016,27.7481879 C55.1467366,27.9791717 55.0554873,28.0430773 54.8078106,28.0211338 C54.6164648,28.0049165 54.4264771,27.9753302 54.2392279,27.93259 C53.9915513,27.874844 53.7990843,27.7401034 53.7277719,27.4767818 C53.7133043,27.4459407 53.6951509,27.416983 53.6737124,27.3905478 C53.6410208,27.428118 53.610552,27.4675814 53.5824632,27.5087346 C53.5468069,27.5684054 53.5146013,27.6303861 53.4846961,27.6931367 C53.404182,27.8636798 53.2604069,27.9533785 53.0851929,27.9837914 C52.7362986,28.0446172 52.4253609,27.9787868 52.1964709,27.6788927 C52.1161286,27.5981669 52.099222,27.5901325 52.0814508,27.5845743 C51.9031697,27.7531925 51.666995,27.7620469 51.4434726,27.7851453 C51.2368199,27.8063188 51.0478035,27.7189299 51.0911277,27.416341 C51.108142,27.3109367 51.1364214,27.2076809 51.1754758,27.1083625 C51.2222506,26.9828612 51.2843615,26.8635196 51.3368873,26.7403281 C51.3591246,26.6891267 51.3752274,26.6352305 51.3924804,26.5824892 C51.3280691,26.5932684 51.2958635,26.6236813 51.2678753,26.6571739 C51.1033965,26.8546652 50.9347004,27.0494616 50.7767394,27.2519575 C50.5827389,27.5010351 50.3220266,27.4860211 50.060931,27.4348197 C49.9305749,27.4090265 49.8400924,27.301619 49.799452,27.172268 C49.7833492,27.1214516 49.799452,27.0590859 49.80712,27.0032648 C49.8177717,26.9590231 49.8317417,26.915654 49.8489106,26.8735289 C49.5387397,27.1202966 49.2439049,27.1172169 48.9421688,27.0548512 C48.8445868,27.027868 48.7413546,27.0294709 48.6446501,27.0594709 C48.4456654,27.129921 48.2539652,27.0841092 48.062265,27.0240534 C47.9146559,26.8619797 47.791201,26.8481206 47.6604615,26.8296419 C47.4925667,26.8019526 47.3262057,26.7655885 47.162041,26.7206945 C47.0853609,26.7018308 47.0247837,26.6664133 47.0405031,26.5640104 C47.0516217,26.4943303 46.9967955,26.4592977 46.9366016,26.441204 C46.8702733,26.4215704 46.8020281,26.4069414 46.7356998,26.3869228 C46.6030433,26.3484255 46.5758219,26.3099282 46.5712211,26.169028 C46.5658535,26.0054144 46.5643199,26.0150387 46.4009913,25.9880906 C46.2859173,25.9681117 46.1740878,25.9324954 46.0685832,25.882223 C46.0087553,25.8486916 45.9600844,25.7982143 45.9286421,25.7370881 C45.8809392,25.6456753 45.7957497,25.5798328 45.6955347,25.5569207 C45.6387914,25.5422917 45.5805146,25.5342073 45.5233879,25.5184234 C45.2826125,25.4572126 45.1342366,25.3070731 45.086695,25.0599203 C44.8995956,24.9028513 44.7481525,24.8408706 44.5978595,24.7765801 C44.4629026,24.7188341 44.3923569,24.6133515 44.423029,24.4686016 C44.4682702,24.2549415 44.4119104,24.1286703 44.1887714,24.0620699 C44.0354112,24.0166431 43.9897866,23.8845973 44.0154744,23.7225236 C44.0507472,23.5361966 44.0350278,23.5030889 43.9196243,23.4414932 C43.8632645,23.4114653 43.8046042,23.387982 43.745944,23.3594939 C43.6932863,23.3344502 43.6420842,23.3064306 43.5925838,23.2755698 C43.4150695,23.1600779 43.393599,23.0680693 43.4963503,22.8871319 C43.5170539,22.8486346 43.5385244,22.8147569 43.5619118,22.7743348 C43.4764135,22.7262131 43.4008836,22.6780915 43.3203696,22.6399791 C43.2398555,22.6018668 43.2114839,22.6141859 43.1670094,22.6946453 C43.0044477,22.9897914 42.6326743,23.6526856 42.6057113,23.6859512 C42.0233262,24.4301043 41.4010675,25.1376849 40.6906266,25.7621114 C40.3766344,26.0460777 40.035257,26.2979382 39.6715485,26.5139639 C39.6022387,26.5543751 39.5305374,26.5905014 39.4568443,26.6221414 C39.3763302,26.656019 39.2885316,26.6744977 39.2084009,26.6302258 C39.1198354,26.5809493 38.4665212,27.0941185 38.196224,27.2950745 C37.8304601,27.5668655 37.4439925,27.8055489 37.0161177,27.9703174 C36.9570989,27.9951645 36.8962009,28.0152468 36.8340026,28.0303732 C36.7952947,28.0398893 36.7544692,28.0351068 36.7189825,28.0168991 C36.6507372,27.9703174 33.1181154,30.361492 32.8029314,30.4838071 C32.7381367,30.5080604 32.6790931,30.5473276 32.6146818,30.5735058 C32.5471012,30.6050551 32.4667494,30.5847506 32.4220921,30.5248392 C32.3774348,30.4649278 32.3806852,30.3817947 32.4298828,30.3255831 C32.7856784,29.9937362 33.1201313,29.6857577 33.4547119,29.3777792 C33.5267912,29.3115638 33.6000207,29.2465034 33.6728667,29.1806729 L33.4458937,29.2253298 C33.2254385,29.3057892 29.2445928,31.5640417 29.0176198,31.6706793 C28.9440073,31.7004938 28.8665563,31.7196767 28.7875796,31.7276553 C28.7270924,31.7384825 28.6669822,31.7067992 28.641504,31.6506607 C28.6118478,31.5962436 28.6252493,31.5283127 28.6733263,31.4893569 C28.8082832,31.3600059 28.9455405,31.2325798 29.0835646,31.1043838 C29.1774977,31.0181498 29.2752648,30.9361505 29.3684311,30.8491466 C29.4385934,30.7837011 29.5068386,30.7151759 29.5704831,30.6435709 C29.5954041,30.6154679 29.6268429,30.5665763 29.6172579,30.541938 C29.5948598,30.5078812 28.1963762,30.7760017 27.8513159,30.9030428 C27.3439495,31.0932196 26.8376054,31.2819847 26.3322838,31.4693383 C26.0410993,31.6251735 24.6901801,31.7137963 24.5996976,31.616783 C24.6341982,31.5102933 24.7063489,31.4201799 24.8025164,31.3634707 C24.9349251,31.2732116 25.0732653,31.1920535 25.2165888,31.1205526 C25.7498987,30.8610807 26.2927935,30.6200876 26.8004156,30.312109 C27.0281554,30.1735187 27.2520612,30.0287688 27.4982042,29.8740096 C27.437627,29.8443667 27.4004371,29.8289677 27.3659311,29.8085642 C27.2616462,29.7465835 27.250911,29.6360962 27.3471445,29.5591016 C27.3946829,29.5244656 27.4446555,29.4933298 27.4966706,29.4659381 C28.2768903,29.0093599 32.0380477,26.6360004 32.1108937,26.5447618 C31.4424991,26.7577803 30.9682329,26.9109996 30.6880951,27.0044197 C30.5316677,27.0567761 30.3664222,27.0814144 30.2046272,27.1176018 C30.1390658,27.1322308 30.0796387,27.1341557 30.0435991,27.0560061 C29.9952907,26.9512934 29.9918401,26.8773786 30.0650695,26.8250222 C30.208503,26.7127458 30.3582789,26.6088866 30.5136479,26.5139639 C30.9829299,26.2467926 33.4650638,24.806608 33.5597636,24.750017 C33.3458263,24.7246087 32.1655913,24.7759489 32.1066763,24.7034352 C32.0196445,24.6021873 32.0253955,24.505559 32.1365816,24.4304892 C32.2650207,24.3446402 32.4011278,24.2699554 32.5360847,24.1945007 C32.6994133,24.1032621 32.8650422,24.0170281 33.029521,23.9280993 C33.0606892,23.9075214 33.0930833,23.8888795 33.1265213,23.8722782 C33.7875034,23.6104964 36.453286,22.2446117 36.5418515,22.1891756 C36.6618558,22.1121809 36.7826269,22.0378811 36.918734,21.9524171 C36.5744405,21.9835999 34.3223469,22.3674181 34.0907731,22.3189115 C34.0539323,22.3120133 34.0182018,22.3000974 33.9845712,22.283494 C33.8089739,22.1930253 33.7898038,21.996304 33.950832,21.8831219 C34.0350922,21.825938 34.1250338,21.7776863 34.2192122,21.739142 C34.5677421,21.5888363 37.9707846,20.6512078 38.4032602,20.5156973 C38.5155965,20.4806647 38.6333004,20.4410125 38.7398857,20.3232107 C38.6378259,20.3330628 38.536344,20.3482254 38.4358492,20.3686375 C38.1992912,20.4310032 36.5131144,20.1231759 36.4444678,20.017542 C36.3589695,19.8935807 36.3792898,19.7819385 36.5211479,19.7338168 C36.6824619,19.6767112 36.850084,19.6394814 37.0203351,19.6229446 C37.3979845,19.5909918 40.4145784,19.4042798 40.6492194,19.3981202 C40.7232157,19.3961954 40.7972119,19.3981202 40.8823268,19.3981202 C40.7772751,19.1702161 40.7508205,19.0127621 40.7446861,18.8503034 C40.7416189,18.7644544 40.7205318,18.7055535 40.627749,18.6651314 C40.4895821,18.6086615 40.3978937,18.4753266 40.3942582,18.325585 C40.3904242,18.2597546 40.3689537,18.2181775 40.2953409,18.2027786 C40.0384626,18.1500373 39.8912369,17.9771843 39.8759009,17.7157876 C39.8716835,17.6411028 39.8759009,17.565648 39.8782013,17.4905783 C39.8834968,17.425361 39.8544052,17.3621192 39.8015212,17.3238849 C39.5645798,17.1421776 39.5112872,16.9004144 39.5802992,16.619384 C39.5967854,16.5527837 39.6151887,16.4869533 39.6328251,16.419198 C39.4514767,16.3437433 39.4223383,16.2505798 39.4292395,16.1404774 C39.4399747,15.9760939 39.4583779,15.8117104 39.4752475,15.6265383 C39.4487929,15.6142191 39.4073857,15.5938156 39.3652116,15.5753369 C39.2436737,15.5214406 39.2072507,15.472934 39.2187527,15.3401183 C39.2310101,15.2119349 39.2498216,15.0844689 39.2751126,14.9582249 C39.3036307,14.8467327 39.2644815,14.7288036 39.1750451,14.6567909 C39.0642424,14.5601627 39.0335703,14.4342764 39.060025,14.2914514 C39.0851586,14.1320694 39.1417295,13.9793298 39.2264207,13.8421877 C39.2873814,13.7494092 39.2827806,13.7447895 39.1907645,13.6781892 C39.0431553,13.5719366 38.9990643,13.4472053 39.0527404,13.2728124 C39.0784282,13.1915831 39.1186852,13.1149735 39.1508908,13.035284 C39.1723613,12.9821577 39.1915313,12.9278765 39.2153021,12.8643559 C39.0749776,12.8127695 39.077278,12.7103667 39.0929974,12.5979545 C39.1459066,12.2210658 39.327255,11.9338758 39.6711651,11.7633327 C39.7681629,11.7143769 39.853445,11.6448994 39.9211421,11.5596819 C39.7992208,11.5508275 39.6987699,11.5454379 39.5990858,11.5354286 C39.5088141,11.530271 39.4190812,11.518043 39.3307056,11.4988562 C39.2687627,11.4830643 39.2120415,11.451202 39.1662269,11.4064626 C39.0879917,11.3186871 39.0147726,11.2265308 38.9469219,11.1304369 C38.89917,11.0698763 38.886782,10.9885117 38.9143328,10.9163918 C38.9468833,10.8200318 38.9862171,10.7261181 39.0320367,10.6353614 C39.100295,10.4974675 39.2387497,10.4086351 39.3920497,10.4043775 C39.5519276,10.3935983 39.5515442,10.3889786 39.6324417,10.3166036 C39.3318558,10.2754115 39.1528078,10.0806151 38.9860287,9.88928343 C38.8192495,9.69795177 38.8817438,9.27717612 39.079195,9.10817291 C39.1596495,9.04444375 39.2601339,9.01167622 39.3625278,9.01577935 C39.4510933,9.01346951 39.5396588,9.00577005 39.6412599,8.99999545 C39.6127668,8.91477585 39.5429462,8.85003933 39.4560775,8.82829743 C39.2498081,8.7713214 39.1294204,8.6250316 39.0726772,8.43062016 C38.9484555,8.01061446 39.0531238,7.78309532 39.3226542,7.51361412 C39.4204213,7.41583094 39.5431094,7.39234758 39.6792165,7.43122986 C39.7796674,7.45971788 39.8831855,7.47819659 39.9970554,7.50360482 C39.9905376,7.37887352 39.9169247,7.31727781 39.8475293,7.25221735 C39.6551577,7.08288978 39.552265,6.83328364 39.5691806,6.57697444 C39.5795324,6.38025317 39.6677145,6.21817947 39.7923196,6.07188967 C39.841878,6.01315695 39.9190286,5.98566859 39.9943716,5.99989969 C40.1093917,6.01337375 40.227479,6.0299276 40.3440327,6.04417161 C40.3957918,6.05071615 40.4479342,6.05495085 40.5104285,6.0614954 C40.5272981,5.96910184 40.5272981,5.89711186 40.4513848,5.83859594 C40.3164279,5.73503817 40.2616016,5.58489864 40.2240284,5.42667467 C40.21406,5.38548255 40.2201944,5.33813085 40.2040916,5.30001851 C40.1086249,5.07172943 40.191056,4.8584543 40.2570008,4.64556415 C40.3095267,4.47579099 40.3896574,4.43113411 40.5614207,4.48849511 C40.6959613,4.53732009 40.8272284,4.5948002 40.9544061,4.6605781 C41.0303411,4.70161888 41.1165434,4.71954545 41.2024661,4.71216451 Z M69.0932335,21.2255487 C69.1990593,21.4825007 68.7372049,21.6983276 68.5657315,21.2255487 C68.3942581,20.7527699 64.9535133,11.6095358 50.5430715,4.08528938 C49.9979639,3.80066771 49.9616482,3.38568932 50.080885,3.12793485 C50.2001218,2.87018037 50.7715321,2.66738196 51.4490354,2.98309449 C61.0974323,7.47919034 66.6177418,15.2148928 69.0932335,21.2255487 Z M9.54002247,56.7303201 C9.51728924,58.0327059 8.00740062,58.9165218 6.52897266,56.6777621 C1.61881198,49.2423844 0.23678795,41.5307292 0.753255874,41.8671827 C1.2697238,42.2036363 1.64657814,47.6516626 5.72459072,52.273354 C7.01010109,53.7302481 9.56275569,55.4279343 9.54002247,56.7303201 Z M50.286667,42.5011773 C49.9604916,42.464294 49.3843023,42.3170608 49.0738404,42.183987 C48.937746,42.1255506 48.6401862,41.4605411 49.4168338,41.5672585 C50.6137356,41.7317221 50.7681481,41.6344627 50.9965436,41.4802821 C51.1425602,41.3817121 51.2255422,40.9679482 50.8238513,40.7978504 C50.4221604,40.6277527 48.3027122,41.0677903 46.2207398,40.1938841 C45.6629905,39.9597693 44.468056,39.8322749 44.0760675,40.1962145 C43.9356457,40.3261775 43.4958574,40.7355496 42.8141083,40.7362904 C42.1323592,40.7370312 40.4123996,40.326907 40.8675551,39.8159912 C41.0024552,39.6645647 41.4359034,39.7341814 41.7228925,39.7215454 C42.1611301,39.7031112 42.2874052,39.5437068 42.083227,39.1581422 C41.8194883,38.6599321 41.5063576,38.3737203 41.2037995,37.8979766 C40.9431146,37.4922057 40.5883587,36.9728941 40.1496478,36.7685169 C39.3217864,36.3653829 38.5712714,35.8448105 37.9789756,35.1269568 C37.3263752,34.3358149 37.2102574,33.6327491 37.3658215,32.6096966 C37.4005989,32.3807519 37.2453985,32.0183804 37.2457123,31.7286497 C37.246026,31.4389191 37.4039684,31.3290462 37.5522131,31.2558294 C37.8533919,31.1095519 38.1756834,31.0103274 38.5077422,30.9616487 C39.7157813,30.7794447 40.7677974,30.9341839 41.9810911,31.0513862 C42.1250125,31.050859 43.3578789,30.2305224 43.8048095,30.0189677 C44.2212562,29.821817 44.5821731,30.0178886 44.7036647,30.4633641 C44.800608,30.8086589 44.8420137,31.1667574 44.8263478,31.5243923 C44.8077143,31.8677186 44.9937196,32.4618819 45.3986702,32.4210457 C48.4858741,32.1097241 52.033673,33.2759661 53.5756174,34.2243166 C55.2365894,35.2486083 56.1223132,36.681491 55.7667188,38.6857277 C55.5716048,39.7810604 55.1302494,40.7714402 54.3328406,41.5619168 C53.1923988,42.6952798 52.0145203,42.6965597 50.286667,42.5011773 Z M50.1954698,60.8325811 C49.7239288,59.6672257 45.7442632,57.5578256 44.9980228,57.8509125 C44.9124878,57.8837131 44.8230163,57.9051049 44.7319108,57.9145372 C43.5685406,58.0406801 43.6153318,58.7484519 43.5409898,59.9837171 C43.5100124,60.4985026 43.083341,60.761328 42.6490762,60.6849807 C41.3765671,60.4612632 40.8966898,61.0056621 40.0233494,60.8318559 C39.4458475,60.7182699 39.3545227,59.8633043 39.2513332,59.3494802 C39.1228789,58.6155855 38.2649668,58.0715297 38.0320295,57.3244677 C37.7990923,56.5774057 37.5582296,56.153673 37.5020847,55.4644901 C37.4459398,54.7753073 37.5097704,55.0241745 37.2388842,54.920345 C37.0894799,54.8530614 36.6630886,54.800079 36.5424816,54.6890654 C36.2314719,54.4270747 36.2213703,54.1868533 36.5980532,53.9621921 C36.8325326,53.8209366 37.3322746,53.6017268 37.6060926,53.4116073 C37.1570338,53.0580158 36.8095441,53.145481 36.4289851,52.773265 C36.2473651,52.595016 36.0859656,52.2662659 36.1207413,52.0378391 C36.1479993,51.8621349 37.9391899,51.9087438 39.3892821,51.8104455 C40.8024695,51.7146489 42.6133297,51.1937164 44.0395139,51.4869272 C49.0549087,52.5180477 56.5838281,52.4067192 60.830801,44.37269 C71.237463,24.6863327 52.4142984,8.55087101 54.7389757,8.67237002 C55.9257373,8.73439598 59.1197995,10.4215966 64.2026216,23.5613446 C66.3983672,29.2376289 65.4998104,31.2987664 66.9905796,33.4687754 C67.6831602,34.4769169 67.4994453,31.0556281 66.9154296,27.397936 C66.2423605,23.1825022 65.0686006,21.787706 65.6048679,21.5988816 C67.1360031,21.0597555 67.5792095,23.9467987 68.5293046,28.4646193 C69.3352538,32.2970083 69.2622875,34.1722778 69.5217363,34.14969 C69.9797176,34.1098179 70.342289,34.8317268 69.9776258,30.6839798 C69.7074923,27.6114312 69.1140545,23.0227128 69.9771436,23.9483511 C70.2644063,24.2564321 75.5489199,37.9454463 68.5309527,51.4886732 C64.1229004,59.9953038 58.663574,64.9451408 52.9929758,67.6912693 C49.3684985,69.4465128 46.5349735,71.1866079 46.1252045,69.8562194 C45.7154355,68.5258309 48.6059731,67.4082862 50.8328798,66.5359747 C52.9004741,65.7260682 53.4023413,64.8072008 52.9926939,63.7538982 C52.5830465,62.7005955 50.0405032,64.3300832 46.5484812,66.2959858 C43.5998095,67.9559986 40.7358365,68.2687163 40.3944093,67.4880314 C39.9377779,66.4439283 42.7382217,66.3522282 46.1755634,64.7132894 C49.33436,63.207162 50.5038109,61.5946079 50.1954698,60.8325811 Z M7.68740551,19.3781993 C7.02697311,19.3781993 6.49158687,18.8406167 6.49158687,18.1774751 C6.49158687,17.5143334 7.02697311,16.9767509 7.68740551,16.9767509 C8.3478379,16.9767509 8.88322414,17.5143334 8.88322414,18.1774751 C8.88322414,18.8406167 8.3478379,19.3781993 7.68740551,19.3781993 Z M33.4829218,36.0217257 C32.7281419,36.0217257 32.1162719,35.4073457 32.1162719,34.6494695 C32.1162719,33.8915933 32.7281419,33.2772133 33.4829218,33.2772133 C34.2377017,33.2772133 34.8495716,33.8915933 34.8495716,34.6494695 C34.8495716,35.4073457 34.2377017,36.0217257 33.4829218,36.0217257 Z M58.0826194,44.255263 C57.3278395,44.255263 56.7159695,43.640883 56.7159695,42.8830068 C56.7159695,42.1251306 57.3278395,41.5107506 58.0826194,41.5107506 C58.8373993,41.5107506 59.4492693,42.1251306 59.4492693,42.8830068 C59.4492693,43.640883 58.8373993,44.255263 58.0826194,44.255263 Z M42.0244834,71.3573234 C41.2697036,71.3573234 40.6578336,70.7429433 40.6578336,69.9850671 C40.6578336,69.227191 41.2697036,68.6128109 42.0244834,68.6128109 C42.7792633,68.6128109 43.3911333,69.227191 43.3911333,69.9850671 C43.3911333,70.7429433 42.7792633,71.3573234 42.0244834,71.3573234 Z M41.1703273,65.1821704 C40.5098949,65.1821704 39.9745086,64.6445878 39.9745086,63.9814462 C39.9745086,63.3183045 40.5098949,62.780722 41.1703273,62.780722 C41.8307597,62.780722 42.3661459,63.3183045 42.3661459,63.9814462 C42.3661459,64.6445878 41.8307597,65.1821704 41.1703273,65.1821704 Z M33.653753,48.0289676 C32.9933206,48.0289676 32.4579344,47.4913851 32.4579344,46.8282435 C32.4579344,46.1651018 32.9933206,45.6275193 33.653753,45.6275193 C34.3141854,45.6275193 34.8495716,46.1651018 34.8495716,46.8282435 C34.8495716,47.4913851 34.3141854,48.0289676 33.653753,48.0289676 Z M50.0535514,49.7442879 C48.6383391,49.7442879 47.4910829,48.5923254 47.4910829,47.1713075 C47.4910829,45.7502897 48.6383391,44.5983271 50.0535514,44.5983271 C51.4687637,44.5983271 52.6160199,45.7502897 52.6160199,47.1713075 C52.6160199,48.5923254 51.4687637,49.7442879 50.0535514,49.7442879 Z M59.278438,35.6786617 C57.8632258,35.6786617 56.7159695,34.5266991 56.7159695,33.1056813 C56.7159695,31.6846634 57.8632258,30.5327009 59.278438,30.5327009 C60.6936503,30.5327009 61.8409065,31.6846634 61.8409065,33.1056813 C61.8409065,34.5266991 60.6936503,35.6786617 59.278438,35.6786617 Z M23.403879,30.6993131 C22.7434466,30.6993131 22.2080604,30.1617305 22.2080604,29.4985889 C22.2080604,28.8354472 22.7434466,28.2978647 23.403879,28.2978647 C24.0643114,28.2978647 24.5996976,28.8354472 24.5996976,29.4985889 C24.5996976,30.1617305 24.0643114,30.6993131 23.403879,30.6993131 Z M36.557884,17.8393308 C35.9917991,17.8393308 35.5328966,17.3785458 35.5328966,16.8101387 C35.5328966,16.2417315 35.9917991,15.7809465 36.557884,15.7809465 C37.1239689,15.7809465 37.5828714,16.2417315 37.5828714,16.8101387 C37.5828714,17.3785458 37.1239689,17.8393308 36.557884,17.8393308 Z M50.3952139,8.57660137 C49.9234765,8.57660137 49.5410577,8.19261384 49.5410577,7.71894123 C49.5410577,7.24526861 49.9234765,6.86128109 50.3952139,6.86128109 C50.8669513,6.86128109 51.2493701,7.24526861 51.2493701,7.71894123 C51.2493701,8.19261384 50.8669513,8.57660137 50.3952139,8.57660137 Z M51.7618638,14.0656262 C51.1014314,14.0656262 50.5660451,13.5280437 50.5660451,12.864902 C50.5660451,12.2017604 51.1014314,11.6641779 51.7618638,11.6641779 C52.4222962,11.6641779 52.9576824,12.2017604 52.9576824,12.864902 C52.9576824,13.5280437 52.4222962,14.0656262 51.7618638,14.0656262 Z M24.0872039,69.9850671 C23.4267715,69.9850671 22.8913853,69.4474846 22.8913853,68.7843429 C22.8913853,68.1212013 23.4267715,67.5836188 24.0872039,67.5836188 C24.7476363,67.5836188 25.2830226,68.1212013 25.2830226,68.7843429 C25.2830226,69.4474846 24.7476363,69.9850671 24.0872039,69.9850671 Z M19.9872543,67.9266828 C19.138127,67.9266828 18.4497732,67.2355053 18.4497732,66.3828946 C18.4497732,65.5302839 19.138127,64.8391063 19.9872543,64.8391063 C20.8363817,64.8391063 21.5247354,65.5302839 21.5247354,66.3828946 C21.5247354,67.2355053 20.8363817,67.9266828 19.9872543,67.9266828 Z M28.3579848,71.0142593 C27.7918999,71.0142593 27.3329974,70.5534743 27.3329974,69.9850671 C27.3329974,69.41666 27.7918999,68.955875 28.3579848,68.955875 C28.9240697,68.955875 29.3829722,69.41666 29.3829722,69.9850671 C29.3829722,70.5534743 28.9240697,71.0142593 28.3579848,71.0142593 Z M12.1290176,61.9146724 C11.0911952,61.9146724 10.249874,61.0698999 10.249874,60.0278201 C10.249874,58.9857404 11.0911952,58.1409678 12.1290176,58.1409678 C13.1668399,58.1409678 14.0081611,58.9857404 14.0081611,60.0278201 C14.0081611,61.0698999 13.1668399,61.9146724 12.1290176,61.9146724 Z M26.6496724,9.08627764 C24.3853328,9.08627764 22.5497228,7.24313753 22.5497228,4.96950898 C22.5497228,2.69588043 24.3853328,0.852740325 26.6496724,0.852740325 C28.9140121,0.852740325 30.749622,2.69588043 30.749622,4.96950898 C30.749622,7.24313753 28.9140121,9.08627764 26.6496724,9.08627764 Z M64.5742063,18.868523 C64.0081214,18.868523 63.5492189,18.407738 63.5492189,17.8393308 C63.5492189,17.2709237 64.0081214,16.8101387 64.5742063,16.8101387 C65.1402912,16.8101387 65.5991937,17.2709237 65.5991937,17.8393308 C65.5991937,18.407738 65.1402912,18.868523 64.5742063,18.868523 Z M36.0453903,3.7737046 C35.0075679,3.7737046 34.1662467,2.92893205 34.1662467,1.8868523 C34.1662467,0.84477255 35.0075679,0 36.0453903,0 C37.0832126,0 37.9245338,0.84477255 37.9245338,1.8868523 C37.9245338,2.92893205 37.0832126,3.7737046 36.0453903,3.7737046 Z M34.6787404,9.94885758 C34.018308,9.94885758 33.4829218,9.41127505 33.4829218,8.74813339 C33.4829218,8.08499173 34.018308,7.5474092 34.6787404,7.5474092 C35.3391728,7.5474092 35.874559,8.08499173 35.874559,8.74813339 C35.874559,9.41127505 35.3391728,9.94885758 34.6787404,9.94885758 Z M57.5701257,20.5838433 C56.9096933,20.5838433 56.3743071,20.0462607 56.3743071,19.3831191 C56.3743071,18.7199774 56.9096933,18.1823949 57.5701257,18.1823949 C58.2305581,18.1823949 58.7659443,18.7199774 58.7659443,19.3831191 C58.7659443,20.0462607 58.2305581,20.5838433 57.5701257,20.5838433 Z" id="logo---grey"></path>
                </g>
                <path d="M97.3667028,43.2472131 L87.1570665,43.2472131 L85.0655091,48.9836066 L79.8897907,48.9836066 L89.5322249,23.8780328 L95.2042451,23.8780328 L104.775779,48.9836066 L99.4582602,48.9836066 L97.3667028,43.2472131 Z M88.7877723,38.7855738 L95.735997,38.7855738 L92.2618846,29.2957377 L88.7877723,38.7855738 Z M112.491486,48.975794 L107.776619,48.975794 L107.776619,31.5541547 L112.349685,31.5541547 L112.349685,33.7141547 C112.893257,32.817101 113.631794,32.156124 114.565318,31.7312038 C115.498843,31.3062837 116.438262,31.0938268 117.383603,31.0938268 C118.470746,31.0938268 119.410165,31.2767758 120.201888,31.6426792 C120.993612,32.0085827 121.649433,32.4984139 122.16937,33.1121874 C122.689308,33.725961 123.073347,34.457757 123.321499,35.3075973 C123.569651,36.1574376 123.693726,37.0544778 123.693726,37.9987448 L123.693726,48.975794 L118.978859,48.975794 L118.978859,38.813171 C118.978859,37.8216907 118.724802,36.9954694 118.216681,36.3344825 C117.70856,35.6734956 116.887307,35.3430071 115.752898,35.3430071 C114.713022,35.3430071 113.909494,35.6912003 113.342289,36.3875973 C112.775084,37.0839942 112.491486,37.9397233 112.491486,38.9548104 L112.491486,48.975794 Z M126.679459,48.9780323 L126.679459,31.556393 L131.394326,31.556393 L131.394326,48.9780323 L126.679459,48.9780323 Z M126.112257,25.8554094 C126.112257,25.0291757 126.395855,24.3327893 126.96306,23.766229 C127.530265,23.1996688 128.215627,22.916393 129.019167,22.916393 C129.846341,22.916393 130.537612,23.1996688 131.093,23.766229 C131.648388,24.3327893 131.926078,25.0291757 131.926078,25.8554094 C131.926078,26.6344297 131.648388,27.3072098 131.093,27.87377 C130.537612,28.4403302 129.846341,28.7236061 129.019167,28.7236061 C128.215627,28.7236061 127.530265,28.4403302 126.96306,27.87377 C126.395855,27.3072098 126.112257,26.6344297 126.112257,25.8554094 Z M134.374687,49.0187095 L134.374687,31.5970701 L138.876853,31.5970701 L138.876853,33.7216603 C139.113188,33.2967401 139.42042,32.919039 139.798556,32.5885455 C140.176693,32.2580521 140.596182,31.9865794 141.057036,31.7741193 C141.51789,31.5616592 142.00237,31.396415 142.510491,31.2783816 C143.018612,31.1603482 143.509,31.1013324 143.981671,31.1013324 C145.186981,31.1013324 146.238658,31.3491988 147.136732,31.844939 C148.034807,32.3406792 148.708352,33.060672 149.157389,34.004939 C149.842762,32.9426386 150.64629,32.1931379 151.567998,31.7564144 C152.489706,31.3196909 153.529566,31.1013324 154.687609,31.1013324 C155.491149,31.1013324 156.271044,31.2252656 157.027317,31.4731357 C157.78359,31.7210058 158.457136,32.1164117 159.047975,32.6593652 C159.638813,33.2023187 160.111477,33.8928036 160.46598,34.7308406 C160.820483,35.5688776 160.997731,36.5662447 160.997731,37.7229718 L160.997731,49.0187095 L156.424665,49.0187095 L156.424665,38.6790373 C156.424665,37.7347703 156.182425,36.9498601 155.697938,36.3242832 C155.21345,35.6987063 154.427647,35.3859226 153.340504,35.3859226 C152.324262,35.3859226 151.532551,35.7223127 150.965346,36.3951029 C150.398141,37.0678932 150.114543,37.8764097 150.114543,38.8206767 L150.114543,49.0187095 L145.435126,49.0187095 L145.435126,38.6790373 C145.435126,37.7347703 145.186978,36.9498601 144.690674,36.3242832 C144.194369,35.6987063 143.414474,35.3859226 142.350965,35.3859226 C141.31109,35.3859226 140.507562,35.7164111 139.940357,36.377398 C139.373152,37.0383849 139.089554,37.852803 139.089554,38.8206767 L139.089554,49.0187095 L134.374687,49.0187095 Z M163.997062,44.2384813 C163.997062,43.459461 164.132953,42.7689761 164.404739,42.1670059 C164.676524,41.5650356 165.048747,41.039795 165.521417,40.5912682 C165.994088,40.1427413 166.54356,39.7886465 167.169848,39.5289731 C167.796137,39.2692996 168.475591,39.0804491 169.208231,38.9624157 L173.497696,38.3250386 C173.994,38.2542186 174.336681,38.1066791 174.525749,37.8824157 C174.714818,37.6581523 174.80935,37.3925812 174.80935,37.0856944 C174.80935,36.4719208 174.56711,35.9407786 174.082623,35.4922518 C173.598135,35.0437249 172.859598,34.8194649 171.86699,34.8194649 C170.827114,34.8194649 170.029495,35.1027407 169.474107,35.6693009 C168.918718,36.2358612 168.605579,36.8968381 168.534678,37.6522518 L164.351563,36.7670059 C164.422464,36.0824123 164.635163,35.397829 164.989666,34.7132354 C165.344169,34.0286418 165.828649,33.4148774 166.443121,32.8719239 C167.057593,32.3289704 167.813854,31.8863518 168.711929,31.544055 C169.610003,31.2017582 170.649863,31.0306124 171.83154,31.0306124 C173.202285,31.0306124 174.372127,31.2135614 175.341102,31.5794649 C176.310077,31.9453683 177.095881,32.4292979 177.698536,33.0312682 C178.301191,33.6332384 178.738405,34.3355264 179.01019,35.1381534 C179.281976,35.9407804 179.417867,36.7788048 179.417867,37.6522518 L179.417867,46.2214321 C179.417867,46.6935656 179.4415,47.1951999 179.488767,47.7263501 C179.536034,48.2575003 179.5833,48.6765125 179.630568,48.9833993 L175.305652,48.9833993 C175.258385,48.7473325 175.217027,48.4227456 175.181577,48.0096288 C175.146126,47.596512 175.128402,47.2247124 175.128402,46.894219 C174.679364,47.5788126 174.03536,48.1807738 173.19637,48.7001206 C172.357379,49.2194675 171.287978,49.479137 169.988133,49.479137 C169.066425,49.479137 168.233356,49.3315975 167.488899,49.0365141 C166.744443,48.7414306 166.112255,48.3519263 165.592318,47.8679895 C165.07238,47.3840526 164.676524,46.8293041 164.404739,46.2037272 C164.132953,45.5781503 163.997062,44.9230749 163.997062,44.2384813 Z M170.980737,45.9735632 C171.477041,45.9735632 171.955613,45.9086459 172.416467,45.7788091 C172.877321,45.6489724 173.284993,45.4247124 173.639496,45.1060223 C173.993999,44.7873321 174.277597,44.3742215 174.490299,43.866678 C174.703001,43.3591345 174.80935,42.7158622 174.80935,41.9368419 L174.80935,41.1578255 L170.874386,41.7597927 C170.259915,41.8542194 169.745893,42.0725779 169.332306,42.4148747 C168.918719,42.7571715 168.711929,43.270609 168.711929,43.9552026 C168.711929,44.4745494 168.900994,44.9407743 169.279131,45.3538911 C169.657267,45.7670079 170.224464,45.9735632 170.980737,45.9735632 Z M182.626675,49.0411648 L182.626675,23.4044435 L187.341542,23.4044435 L187.341542,49.0411648 L182.626675,49.0411648 Z M198.606902,38.7501094 L194.849189,38.7501094 L194.849189,49.0189618 L191.339626,49.0189618 L191.339626,23.913388 L200.80481,23.913388 C201.986487,23.913388 203.055888,24.1081402 204.013046,24.4976503 C204.970205,24.8871605 205.779641,25.4183027 206.44138,26.091093 C207.103119,26.7638832 207.611232,27.554695 207.965735,28.463552 C208.320238,29.372409 208.497487,30.3461697 208.497487,31.3848635 C208.497487,33.2025775 207.959832,34.7546931 206.884507,36.0412569 C205.809181,37.3278207 204.314382,38.1481404 202.400066,38.5022405 L208.391137,49.0189618 L204.349823,49.0189618 L198.606902,38.7501094 Z M200.166708,35.6340438 C201.58472,35.6340438 202.730929,35.2504411 203.60537,34.4832241 C204.479811,33.7160072 204.917025,32.6832306 204.917025,31.3848635 C204.917025,30.039283 204.479811,28.9769985 203.60537,28.1979782 C202.730929,27.4189579 201.58472,27.0294536 200.166708,27.0294536 L194.849189,27.0294536 L194.849189,35.6340438 L200.166708,35.6340438 Z M223.487165,38.7147541 C223.439898,37.487207 223.026317,36.4544304 222.24641,35.6163934 C221.466504,34.7783565 220.320294,34.3593443 218.807748,34.3593443 C218.098742,34.3593443 217.466555,34.4832774 216.911166,34.7311475 C216.355778,34.9790176 215.883115,35.3095061 215.493161,35.722623 C215.103208,36.1357398 214.790068,36.6019646 214.553733,37.1213115 C214.317398,37.6406583 214.187415,38.1718006 214.163782,38.7147541 L223.487165,38.7147541 Z M226.854927,44.132459 C226.618591,44.8878726 226.270002,45.5901607 225.809148,46.2393443 C225.348294,46.8885278 224.792914,47.4550795 224.142992,47.9390164 C223.49307,48.4229532 222.754533,48.806556 221.927359,49.0898361 C221.100185,49.3731162 220.190308,49.5147541 219.1977,49.5147541 C218.06329,49.5147541 216.976164,49.3141004 215.936288,48.9127869 C214.896412,48.5114734 213.980627,47.9213154 213.188903,47.1422951 C212.39718,46.3632748 211.7709,45.4072188 211.310047,44.2740984 C210.849193,43.1409779 210.618769,41.8544334 210.618769,40.4144262 C210.618769,39.0688457 210.843284,37.8472186 211.292321,36.7495082 C211.741359,35.6517978 212.338096,34.7075449 213.082553,33.9167213 C213.827009,33.1258977 214.695529,32.5121333 215.688137,32.0754098 C216.680746,31.6386863 217.708789,31.4203279 218.772298,31.4203279 C220.072142,31.4203279 221.236077,31.6386863 222.264135,32.0754098 C223.292194,32.5121333 224.148897,33.1199961 224.83427,33.8990164 C225.519642,34.6780367 226.04548,35.616388 226.4118,36.7140984 C226.77812,37.8118088 226.961277,39.0216327 226.961277,40.3436066 C226.961277,40.5560666 226.955369,40.7567204 226.943552,40.9455738 C226.931735,41.1344272 226.91401,41.2878683 226.890377,41.4059016 L214.057431,41.4059016 C214.081065,42.1613153 214.222864,42.8577017 214.482833,43.495082 C214.742802,44.1324622 215.103208,44.6813092 215.564062,45.1416393 C216.024916,45.6019695 216.568479,45.9560643 217.194767,46.2039344 C217.821056,46.4518045 218.488693,46.5757377 219.1977,46.5757377 C220.592078,46.5757377 221.655571,46.2452492 222.388211,45.5842623 C223.12085,44.9232754 223.652597,44.1088573 223.983467,43.1409836 L226.854927,44.132459 Z M233.15263,49.1647229 C233.270798,50.3686634 233.74937,51.3660305 234.58836,52.1568541 C235.427351,52.9476777 236.496752,53.3430836 237.796596,53.3430836 C239.592745,53.3430836 240.910295,52.8827603 241.749286,51.9621 C242.588276,51.0414396 243.007765,49.6604698 243.007765,47.8191492 L243.007765,45.3758705 C242.605995,46.1548908 241.956082,46.8158678 241.058008,47.3588213 C240.159934,47.9017748 239.072807,48.1732475 237.796596,48.1732475 C236.662187,48.1732475 235.616419,47.9666922 234.65926,47.5535754 C233.702102,47.1404586 232.874941,46.5739069 232.177752,45.8539033 C231.480562,45.1338997 230.936999,44.2663674 230.547046,43.2512803 C230.157092,42.2361933 229.962119,41.1266962 229.962119,39.9227557 C229.962119,38.7660286 230.151184,37.6860394 230.529321,36.6827557 C230.907457,35.679472 231.439204,34.8060381 232.124576,34.0624279 C232.809949,33.3188176 233.631202,32.7286595 234.58836,32.2919361 C235.545518,31.8552126 236.61492,31.6368541 237.796596,31.6368541 C239.120074,31.6368541 240.219017,31.8729173 241.093458,32.3450508 C241.967899,32.8171843 242.617811,33.4781613 243.043215,34.3280016 L243.043215,31.9555426 L246.340077,31.9555426 L246.340077,47.7129197 C246.340077,48.7988267 246.198278,49.8552096 245.914675,50.8821 C245.631073,51.9089904 245.152501,52.8178337 244.478945,53.6086574 C243.805389,54.399481 242.925053,55.0368517 241.837911,55.5207885 C240.750768,56.0047254 239.403677,56.2466902 237.796596,56.2466902 C236.733087,56.2466902 235.746402,56.0873475 234.836511,55.7686574 C233.92662,55.4499672 233.123092,55.0073487 232.425902,54.4407885 C231.728713,53.8742283 231.161517,53.2073497 230.724296,52.4401328 C230.287076,51.6729158 230.021203,50.8289898 229.926669,49.9083295 L233.15263,49.1647229 Z M237.854236,45.5430836 C239.295882,45.5430836 240.465724,45.0473508 241.363799,44.0558705 C242.261873,43.0643901 242.710903,41.7424361 242.710903,40.0899688 C242.710903,38.4375016 242.261873,37.1155476 241.363799,36.1240672 C240.465724,35.1325868 239.295882,34.6368541 237.854236,34.6368541 C236.365323,34.6368541 235.171848,35.1325868 234.273773,36.1240672 C233.375699,37.1155476 232.926669,38.4375016 232.926669,40.0899688 C232.926669,41.7660428 233.369791,43.0938984 234.256048,44.0735754 C235.142306,45.0532524 236.34169,45.5430836 237.854236,45.5430836 Z M249.343744,48.9836066 L249.343744,31.9514754 L252.640606,31.9514754 L252.640606,48.9836066 L249.343744,48.9836066 Z M248.599291,25.5068852 C248.599291,24.8222917 248.829715,24.2498384 249.290569,23.7895082 C249.751423,23.329178 250.312711,23.0990164 250.97445,23.0990164 C251.659822,23.0990164 252.232927,23.329178 252.693781,23.7895082 C253.154635,24.2498384 253.385058,24.8222917 253.385058,25.5068852 C253.385058,26.1678722 253.154635,26.7285223 252.693781,27.1888525 C252.232927,27.6491826 251.659822,27.8793443 250.97445,27.8793443 C250.312711,27.8793443 249.751423,27.6491826 249.290569,27.1888525 C248.829715,26.7285223 248.599291,26.1678722 248.599291,25.5068852 Z M258.679558,43.4865541 C258.797725,44.3836078 259.187673,45.1390101 259.849412,45.7527836 C260.511151,46.3665572 261.444661,46.6734394 262.649972,46.6734394 C263.595313,46.6734394 264.316125,46.4491793 264.812429,46.0006525 C265.308734,45.5521257 265.556882,45.0209834 265.556882,44.4072099 C265.556882,43.8642563 265.367817,43.4039331 264.98968,43.0262263 C264.611543,42.6485195 264.06798,42.3770468 263.358974,42.2118 L260.452064,41.574423 C259.104952,41.2911429 258.059184,40.7245912 257.314728,39.8747509 C256.570271,39.0249105 256.198049,37.9980356 256.198049,36.7940951 C256.198049,36.0622882 256.357573,35.3718033 256.676626,34.7226197 C256.995678,34.0734361 257.426984,33.5009828 257.970555,33.0052427 C258.514126,32.5095025 259.158131,32.1199982 259.902587,31.8367181 C260.647043,31.553438 261.432847,31.4118 262.26002,31.4118 C263.418064,31.4118 264.392932,31.5770443 265.184656,31.9075377 C265.976379,32.2380312 266.620383,32.6452402 267.116688,33.1291771 C267.612992,33.6131139 267.985214,34.1147483 268.233367,34.6340951 C268.481519,35.153442 268.652859,35.6019621 268.747393,35.9796689 L265.805033,37.0773738 C265.757766,36.8649137 265.67505,36.593441 265.556882,36.2629476 C265.438714,35.9324541 265.249649,35.6196704 264.98968,35.3245869 C264.729711,35.0295035 264.375213,34.7757355 263.926176,34.5632754 C263.477139,34.3508154 262.921759,34.2445869 262.26002,34.2445869 C261.409213,34.2445869 260.723851,34.4747486 260.203913,34.9350787 C259.683975,35.3954089 259.42401,35.9206495 259.42401,36.5108164 C259.42401,37.5967235 260.073923,38.2813068 261.373767,38.5645869 L264.138877,39.1665541 C265.69869,39.4970476 266.874441,40.1049104 267.666165,40.9901607 C268.457888,41.875411 268.853744,42.9554002 268.853744,44.2301607 C268.853744,44.8439342 268.723761,45.4576986 268.463792,46.0714722 C268.203824,46.6852457 267.819784,47.2517974 267.311663,47.7711443 C266.803542,48.2904912 266.159538,48.7095034 265.379631,49.0281935 C264.599725,49.3468836 263.678031,49.5062263 262.614522,49.5062263 C261.432845,49.5062263 260.422526,49.340982 259.583536,49.0104886 C258.744545,48.6799951 258.047367,48.2668845 257.491978,47.7711443 C256.93659,47.2754041 256.511193,46.7383603 256.215774,46.1599968 C255.920355,45.5816332 255.737198,45.0445894 255.666297,44.5488492 L258.679558,43.4865541 Z M277.021047,31.9414582 L280.70786,31.9414582 L280.70786,34.9512943 L277.021047,34.9512943 L277.021047,43.8037533 C277.021047,44.5827736 277.198295,45.16703 277.552799,45.5565402 C277.907302,45.9460503 278.521764,46.1408025 279.396205,46.1408025 C279.608907,46.1408025 279.845239,46.1289993 280.105208,46.1053926 C280.365176,46.0817859 280.566058,46.0463765 280.70786,45.9991631 L280.70786,48.83195 C280.566058,48.8791633 280.294277,48.9440807 279.892507,49.0267041 C279.490737,49.1093275 279.006256,49.1506385 278.439052,49.1506385 C276.973772,49.1506385 275.815747,48.7316263 274.964939,47.8935893 C274.114132,47.0555524 273.688735,45.8575316 273.688735,44.299491 L273.688735,34.9512943 L270.427323,34.9512943 L270.427323,31.9414582 L271.349026,31.9414582 C272.270734,31.9414582 272.938372,31.6935918 273.351959,31.1978516 C273.765545,30.7021115 273.972336,30.0765439 273.972336,29.3211303 L273.972336,26.5591631 L277.021047,26.5591631 L277.021047,31.9414582 Z M293.178361,35.343184 C292.682057,35.272364 292.197577,35.2369545 291.724906,35.2369545 C290.330527,35.2369545 289.202043,35.6441636 288.339419,36.4585939 C287.476795,37.2730242 287.045489,38.6126829 287.045489,40.4776102 L287.045489,49.0113807 L283.713177,49.0113807 L283.713177,31.9792496 L286.974589,31.9792496 L286.974589,34.9536758 C287.281825,34.2926889 287.642231,33.7556451 288.055818,33.3425283 C288.469405,32.9294115 288.90071,32.598923 289.349747,32.3510529 C289.798785,32.1031828 290.259632,31.9320369 290.732302,31.8376102 C291.204973,31.7431835 291.654004,31.6959709 292.079407,31.6959709 C292.315743,31.6959709 292.534349,31.7077741 292.735235,31.7313807 C292.93612,31.7549874 293.083827,31.7785937 293.178361,31.8022004 L293.178361,35.343184 Z M299.252748,56.1009836 L303.506763,47.1068852 L296.168587,31.9514754 L299.9972,31.9514754 L305.314719,43.707541 L310.419537,31.9514754 L314,31.9514754 L302.904111,56.1009836 L299.252748,56.1009836 Z" id="Animal-Registry" fill="#102147"></path>
                <path d="M252.060201,59.8534483 C252.060201,59.368133 252.230092,58.9562597 252.56988,58.6178161 C252.909668,58.2793725 253.323178,58.1101533 253.810421,58.1101533 C254.054043,58.1101533 254.284839,58.1548527 254.502816,58.2442529 C254.720793,58.3336531 254.909918,58.4581729 255.070195,58.6178161 C255.230473,58.7774593 255.355487,58.9626426 255.445243,59.1733716 C255.534998,59.3841007 255.579875,59.6107906 255.579875,59.8534483 C255.579875,60.0961059 255.534998,60.3227959 255.445243,60.5335249 C255.355487,60.7442539 255.230473,60.9294373 255.070195,61.0890805 C254.909918,61.2487237 254.720793,61.3732435 254.502816,61.4626437 C254.284839,61.5520439 254.054043,61.5967433 253.810421,61.5967433 C253.323178,61.5967433 252.909668,61.427524 252.56988,61.0890805 C252.230092,60.7506369 252.060201,60.3387636 252.060201,59.8534483 Z M263.144931,54.1063218 C262.811554,54.1063218 262.50062,54.1637925 262.212121,54.2787356 C261.923622,54.3936787 261.670387,54.562898 261.45241,54.7863985 C261.234433,55.0098989 261.061336,55.2876739 260.933114,55.6197318 C260.804892,55.9517897 260.740782,56.328542 260.740782,56.75 C260.740782,57.171458 260.804892,57.5482103 260.933114,57.8802682 C261.061336,58.2123261 261.237638,58.4932939 261.462026,58.7231801 C261.686415,58.9530663 261.942855,59.1254784 262.231354,59.2404215 C262.519853,59.3553646 262.830787,59.4128352 263.164164,59.4128352 C263.484719,59.4128352 263.770008,59.364943 264.020041,59.2691571 C264.270074,59.1733712 264.484842,59.0488513 264.664353,58.8955939 C264.843864,58.7423364 264.988111,58.5699243 265.0971,58.3783525 C265.206088,58.1867807 265.286226,58.0015973 265.337515,57.8227969 L267.587798,58.5699234 C267.485221,58.9658385 267.315329,59.3521693 267.078119,59.7289272 C266.840908,60.1056852 266.536386,60.4441237 266.164542,60.7442529 C265.792698,61.0443821 265.35675,61.2870361 264.856685,61.4722222 C264.356619,61.6574083 263.792451,61.75 263.164164,61.75 C262.471766,61.75 261.821049,61.6254802 261.211995,61.3764368 C260.602941,61.1273934 260.074033,60.7793764 259.625257,60.3323755 C259.17648,59.8853745 258.823875,59.3585599 258.567431,58.7519157 C258.310987,58.1452716 258.182767,57.477973 258.182767,56.75 C258.182767,56.022027 258.307782,55.3515356 258.557814,54.7385057 C258.807847,54.1254759 259.154041,53.5986612 259.596407,53.158046 C260.038772,52.7174307 260.558063,52.3726066 261.154295,52.1235632 C261.750527,51.8745198 262.394833,51.75 263.087231,51.75 C263.728341,51.75 264.302125,51.8425917 264.808602,52.0277778 C265.315079,52.2129639 265.754232,52.4524251 266.126076,52.7461686 C266.497919,53.0399121 266.799236,53.3783506 267.030036,53.7614943 C267.260835,54.1446379 267.427521,54.5341615 267.530099,54.9300766 L265.241349,55.6963602 C265.125949,55.300445 264.90477,54.936464 264.577804,54.6044061 C264.250838,54.2723483 263.773218,54.1063218 263.144931,54.1063218 Z M274.691258,59.4319923 C274.99899,59.4319923 275.300307,59.3745216 275.595218,59.2595785 C275.890128,59.1446354 276.146568,58.9754162 276.364545,58.7519157 C276.582523,58.5284152 276.758825,58.2506402 276.893458,57.9185824 C277.028091,57.5865245 277.095407,57.197001 277.095407,56.75 C277.095407,56.302999 277.028091,55.9134755 276.893458,55.5814176 C276.758825,55.2493598 276.582523,54.9715848 276.364545,54.7480843 C276.146568,54.5245838 275.890128,54.3553646 275.595218,54.2404215 C275.300307,54.1254784 274.99899,54.0680077 274.691258,54.0680077 C274.383525,54.0680077 274.082208,54.1254784 273.787297,54.2404215 C273.492387,54.3553646 273.235947,54.5245838 273.01797,54.7480843 C272.799992,54.9715848 272.62369,55.2493598 272.489057,55.5814176 C272.354424,55.9134755 272.287108,56.302999 272.287108,56.75 C272.287108,57.197001 272.354424,57.5865245 272.489057,57.9185824 C272.62369,58.2506402 272.799992,58.5284152 273.01797,58.7519157 C273.235947,58.9754162 273.492387,59.1446354 273.787297,59.2595785 C274.082208,59.3745216 274.383525,59.4319923 274.691258,59.4319923 Z M274.691258,51.75 C275.396478,51.75 276.053606,51.8745198 276.66266,52.1235632 C277.271714,52.3726066 277.797416,52.7174307 278.239782,53.158046 C278.682147,53.5986612 279.028341,54.1254759 279.278374,54.7385057 C279.528407,55.3515356 279.653421,56.022027 279.653421,56.75 C279.653421,57.477973 279.528407,58.1452716 279.278374,58.7519157 C279.028341,59.3585599 278.682147,59.8853745 278.239782,60.3323755 C277.797416,60.7793764 277.271714,61.1273934 276.66266,61.3764368 C276.053606,61.6254802 275.396478,61.75 274.691258,61.75 C273.986037,61.75 273.328909,61.6254802 272.719855,61.3764368 C272.110801,61.1273934 271.585099,60.7793764 271.142733,60.3323755 C270.700368,59.8853745 270.354174,59.3585599 270.104141,58.7519157 C269.854108,58.1452716 269.729094,57.477973 269.729094,56.75 C269.729094,56.022027 269.854108,55.3515356 270.104141,54.7385057 C270.354174,54.1254759 270.700368,53.5986612 271.142733,53.158046 C271.585099,52.7174307 272.110801,52.3726066 272.719855,52.1235632 C273.328909,51.8745198 273.986037,51.75 274.691258,51.75 Z M281.852416,61.4626437 L281.852416,52.0373563 L284.295032,52.0373563 L284.295032,53.1867816 C284.423254,52.9568954 284.58994,52.7525552 284.795095,52.5737548 C285.00025,52.3949544 285.22784,52.2480849 285.477873,52.1331418 C285.727906,52.0181987 285.990757,51.9287998 286.266434,51.8649425 C286.542111,51.8010852 286.808168,51.7691571 287.064612,51.7691571 C287.718543,51.7691571 288.289122,51.9032554 288.776366,52.1714559 C289.263609,52.4396565 289.629036,52.8291801 289.872658,53.3400383 C290.244501,52.7653228 290.680449,52.3598352 291.180515,52.1235632 C291.68058,51.8872913 292.244748,51.7691571 292.873036,51.7691571 C293.30899,51.7691571 293.732116,51.8362062 294.142426,51.9703065 C294.552737,52.1044068 294.918164,52.3183255 295.238718,52.612069 C295.559273,52.9058125 295.815713,53.2793719 296.008046,53.7327586 C296.200379,54.1861453 296.296544,54.7257312 296.296544,55.3515326 L296.296544,61.4626437 L293.815462,61.4626437 L293.815462,55.8687739 C293.815462,55.3579157 293.684037,54.9332712 293.421182,54.5948276 C293.158327,54.256384 292.731995,54.0871648 292.142174,54.0871648 C291.59082,54.0871648 291.161283,54.2691553 290.85355,54.6331418 C290.545818,54.9971283 290.391954,55.4345441 290.391954,55.9454023 L290.391954,61.4626437 L287.853172,61.4626437 L287.853172,55.8687739 C287.853172,55.3579157 287.718541,54.9332712 287.449275,54.5948276 C287.180009,54.256384 286.756883,54.0871648 286.179885,54.0871648 C285.615708,54.0871648 285.17976,54.2659625 284.872028,54.6235632 C284.564295,54.981164 284.410431,55.4217726 284.410431,55.9454023 L284.410431,61.4626437 L281.852416,61.4626437 Z" id=".com" fill="#102147"></path>
            </g>
        </g>
    </g>
</svg>