<?xml version="1.0" encoding="UTF-8"?>
<svg width="582px" height="122px" viewBox="0 0 582 122" version="1.1" xmlns="http://www.w3.org/2000/svg" xmlns:xlink="http://www.w3.org/1999/xlink">
    <!-- Generator: Sketch 51 (57462) - http://www.bohemiancoding.com/sketch -->
    <title>Animal Registry - logo 1</title>
    <desc>Created with Sketch.</desc>
    <defs>
        <linearGradient x1="3.08868549%" y1="3.34176301%" x2="87.2572734%" y2="94.4068696%" id="linearGradient-1">
            <stop stop-color="#070CB2" offset="0%"></stop>
            <stop stop-color="#3AACEE" offset="100%"></stop>
        </linearGradient>
    </defs>
    <g id="logo" stroke="none" stroke-width="1" fill="none" fill-rule="evenodd">
        <g id="3" transform="translate(-314.000000, -184.000000)">
            <g id="Animal-Registry---logo-1" transform="translate(314.000000, 184.000000)">
                <g id="Group-4" fill="url(#linearGradient-1)">
                    <path d="M37.0887964,19.2505166 C38.0990885,19.3747419 43.4230273,18.9896433 44.6544867,19.2505166 C46.3424354,19.6054461 46.6149134,20.1538123 46.2168123,21.8397278 C46.1508699,22.0354483 46.1150716,22.2401109 46.110652,22.4466574 C46.2415831,23.9852771 45.5002304,25.0660376 44.3926246,26.0278968 C43.4088726,26.8815024 39.6419515,28.7448826 38.2707143,29.1441784 C37.5912884,29.3411643 31.7038859,28.9701575 36.3319959,31.5112429 C40.9601058,34.0523284 51.6983152,19.7710784 55.8716013,22.4466574 C59.5461462,24.8024832 44.6787662,32.5710234 46.2168123,32.5710234 C49.0511591,32.5710234 55.8716013,27.1239473 55.8716013,30.7413615 C55.8716013,33.9005894 34.8554638,43.8513179 31.4981931,48.8890757 C23.3823441,61.0673255 28.5134997,73.1397055 28.2288305,72.7662616 C28.3420682,73.7298954 34.5039771,84.9522131 30.7259165,87.6833762 C26.9478559,90.4145392 23.62237,74.6253146 22.4169157,79.2749492 C21.5158388,82.75055 32.0651411,98.5271521 24.7968243,95.0783727 C21.0722186,93.3110663 16.4520644,81.3725916 15.0534367,80.9996005 C12.9146443,80.4292196 10.7440195,79.2133488 8.68408187,77.0550947 C4.2556873,72.4153425 -2.62966799e-13,66.6313254 0,58.2707841 C3.18526327e-13,48.1380013 7.37155089,42.4268537 8.68408187,43.9624071 C9.99661285,45.4979605 5.77406851,47.2553483 4.83419783,56.5497351 C3.89432715,65.8441218 10.1869427,69.5243637 9.99661285,67.9808491 C7.39402437,46.8746852 21.8671795,28.2870235 22.2635113,26.0278968 C22.397981,25.2559249 22.941918,23.3618744 22.9792336,22.4466574 C23.0626175,20.4015494 22.9502091,21.2163984 21.7589164,18.6434685 C21.4071516,17.8029358 20.9012968,14.7517143 21.0722186,14.1567163 C21.3057713,13.1984064 21.6614082,13.0440121 22.4169157,13.649167 C23.6342204,14.6234487 26.1552095,17.3865968 27.324742,18.4265405 C27.6786097,18.7406532 25.3545452,15.4763227 25.3545452,15.4763227 C25.5312252,14.8258249 26.6147541,10.6720088 27.6564542,12.2726712 C28.6981544,13.8733335 28.188198,16.3989154 28.9710725,16.515075 C29.8191551,16.6409098 30.1704091,16.515075 31.4981931,16.515075 C35.0487494,16.515075 35.867953,18.2513898 37.0887964,19.2505166 Z M32.2551808,106.57111 C31.3964416,107.097824 29.6828576,107.743656 28.5098223,107.744702 C27.1803834,107.745889 26.0290032,107.634464 25.9274219,106.655722 C25.7323123,104.775831 29.2163036,103.76178 31.8312032,101.949287 C34.4461027,100.136794 31.3620041,96.8994415 33.512619,93.3390355 C33.7548136,92.8336137 38.1506572,87.5801327 37.8145867,80.7640305 C37.2499152,69.311495 32.7125948,64.2766841 32.3589914,63.5006685 C32.1880901,63.1474195 31.4959149,61.9339787 32.5927768,61.4165381 C33.3817536,61.027292 34.3680229,61.6948009 34.5994339,61.8535621 C34.8501113,62.0225733 35.0848113,62.2140597 35.3308312,62.3914529 C35.4084399,62.4488392 35.4831373,62.5158117 35.6006585,62.4950896 C35.6667668,62.4002649 35.620918,62.3055234 35.587034,62.2177451 C35.4353956,61.8362039 33.78479,58.2077707 33.7089756,57.5603315 C33.6080387,56.9335493 33.8709334,55.9173925 34.4859022,55.7554425 C35.0576645,55.6228704 35.7667204,55.7034964 36.0200635,56.4965534 C36.127656,56.8718543 36.2089015,57.2541439 36.2632237,57.6407115 C36.5657847,59.6716389 38.4022942,63.0273822 39.3318208,63.0705319 C40.0987837,63.1061351 40.3390773,62.441056 40.391763,62.2852575 C40.6457011,61.5343293 40.5271973,60.1421448 40.5223226,59.995663 C40.5235562,58.6200442 41.8192052,58.224937 42.0445334,58.1636984 C42.9834295,57.9167367 43.9638102,58.0128707 44.8896356,58.2668881 C47.5705376,59.0024432 49.2636046,60.6923201 49.9745818,61.7040821 C50.4547506,62.3588374 50.7213708,63.1762466 51.2054887,63.7960853 C51.7514021,64.4950438 54.2499879,64.7517449 55.4391911,65.0849164 C56.5035033,65.3740924 59.2584479,66.2044203 60.614524,67.9628342 C61.0254199,68.4956399 61.2639764,69.201889 60.8840855,69.8746009 C60.1389939,71.3004874 56.3167437,69.2063037 60.4020302,70.985009 C60.9880018,71.2477513 62.0763913,71.8624324 62.2891055,71.9988219 C62.4495482,72.1003404 62.5984341,72.2185645 62.7332191,72.351474 C63.02625,72.647598 63.0162007,72.9472625 62.7113515,73.2278374 C62.5970873,73.3325709 61.1129088,74.833566 57.8976427,74.0342841 C54.6823766,73.2350022 50.0613685,68.4571435 49.8336596,70.3345471 C49.7920226,70.6778339 51.9589294,77.1564365 50.0017178,86.070618 C48.401415,93.3592468 43.8169933,99.2930521 43.6295922,99.5740445 C43.5679857,99.6600022 43.5519441,99.7697664 43.5864928,99.8689516 C43.6554203,100.103277 44.5789889,103.803496 42.7047045,104.297756 C39.1035549,105.247402 38.3181311,101.080677 38.3243514,100.941975 C38.0718307,101.261037 37.8914834,101.629583 37.7955228,102.022652 C37.7356761,102.266075 37.7345094,103.567079 36.7840569,104.045818 C36.3592583,104.34789 33.0009004,106.11219 32.2551808,106.57111 Z M50.5492111,110.168286 C48.9975417,104.089758 49.2383778,98.5162645 51.2717193,93.4478051 C56.0975732,81.4185204 65.5674769,81.2057082 66.2152723,80.6072795 C68.4495242,78.5432936 71.6179818,74.0824338 73.1635338,74.0785862 C74.2038407,74.0759963 69.9296502,77.9560692 71.3065039,79.706337 C73.7885004,82.8614717 75.4173984,82.8686784 75.4830369,83.6414083 C75.6662389,85.7981555 67.5918277,82.2050082 67.1344265,82.3769406 C63.7390721,83.6532185 57.1243616,86.012233 56.0655474,94.3036542 C55.4984072,98.7448467 58.1752526,107.008062 58.3600479,107.262227 C58.5455226,107.517327 59.9188523,106.543532 62.480037,104.340842 L60.8026412,112.270765 C62.0695773,118.63177 61.762828,121.807994 59.8823931,121.799436 C55.1521578,121.77791 53.8015469,115.591411 51.2192665,114.551424 C48.520279,113.464434 47.707246,113.598111 47.3919876,113.332008 C46.7751029,112.811309 47.8275107,111.756735 50.5492111,110.168286 Z M69.7359433,7.98450097 C69.7716334,7.79337249 69.6853281,7.6472538 69.5802043,7.53244625 C69.2758645,7.2004176 69.0610745,6.81489907 68.8436889,6.4235097 C68.7718759,6.28864712 68.7157017,6.14594298 68.6762696,5.99819992 C68.5646567,5.60681055 68.4647242,5.21085497 68.3602493,4.81685634 C68.341919,4.7656285 68.3284482,4.71277316 68.3200168,4.65899596 C68.3083363,4.4893939 68.4264384,4.37458635 68.5912621,4.41372529 C68.7058398,4.43937815 68.8140247,4.48820571 68.9092291,4.55723473 C69.18307,4.76467109 69.456911,4.97536904 69.7112846,5.20955034 C70.2622111,5.70857179 70.7962659,6.2271627 71.3478413,6.72553183 C71.6424474,6.99232892 71.941596,7.25847369 72.3302944,7.39350302 C72.4031546,7.42892754 72.4629221,7.48672404 72.5009583,7.55853887 C72.5777954,7.70602764 72.7200282,7.80780913 72.8838165,7.83251143 C73.0032164,7.85142858 73.1109358,7.88926289 73.1570086,8.02168296 C73.3932126,8.04451401 73.4321474,8.20041744 73.5249418,8.28456615 C73.6248743,8.20106975 73.5580364,8.13322893 73.5139103,8.07582516 C73.2971736,7.79663407 73.0739478,7.52266151 72.8572111,7.24347043 C72.6794092,7.01450765 72.503554,6.7868495 72.333539,6.5487543 C72.126536,6.26238774 71.9234264,5.9721073 71.7235615,5.68052222 C71.4263596,5.24673233 71.1038503,4.82598876 70.8488278,4.36741088 C70.684653,4.07386886 70.6230063,3.72292305 70.5172336,3.39676525 C70.4977662,3.33740453 70.4932238,3.2734776 70.4731076,3.21476919 C70.3945892,2.98450178 70.2966034,2.75814826 70.2349568,2.52527158 C70.1402156,2.16584568 70.0688352,1.80120125 69.9896679,1.43851377 C69.989019,1.172369 70.0759733,1.11887912 70.1823949,1.1932431 C70.2943165,1.27037232 70.3950008,1.36280271 70.4815434,1.46786797 C70.935782,2.03342561 71.4036477,2.58985083 71.8299831,3.17693488 C72.5437865,4.16062683 73.2290378,5.16714983 73.9324587,6.15932188 C74.1582802,6.47699958 74.4016223,6.78293561 74.6462622,7.08887163 C74.7844208,7.27066378 74.9909706,7.38722141 75.217305,7.41111554 C75.5177513,7.45155911 75.8097618,7.55462498 76.1173462,7.63355517 C76.2094918,7.4593869 76.0913897,7.32370525 76.0284453,7.18476202 C75.9655008,7.0458188 75.8733552,6.90426631 75.7688804,6.71770404 C75.9418263,6.78046651 76.0919683,6.89411818 76.1997581,7.04386185 C76.4431002,7.34914556 76.6825488,7.65703853 76.9239441,7.96362687 L77.0913635,8.17758639 C77.3872675,8.02363991 77.4197131,8.37915192 77.6208759,8.44242653 C77.6442367,8.26303974 77.5702607,8.1280104 77.4859021,7.9858056 C77.3742892,7.80054797 77.2782502,7.60485328 77.184158,7.4091586 C77.0154408,7.0582128 76.8700844,6.69161142 76.6844955,6.35305962 C76.3262947,5.7180147 76.1058112,5.01396897 76.03753,4.28717606 C75.9726388,3.50896353 75.9661497,2.72553248 75.9375975,1.94471069 C75.9412752,1.83360526 75.9508059,1.72277372 75.9661497,1.61268204 C76.0518061,1.6694335 76.1153995,1.6903076 76.1426538,1.73401274 C76.2538025,1.89943317 76.3508361,2.074006 76.4327176,2.25586524 C76.8090867,3.20041825 77.1990829,4.14040505 77.5358684,5.09865669 C78.4268249,7.61594265 79.2282315,10.1632351 79.8719525,12.7581466 C79.9894056,13.2330324 80.0478077,13.7222691 80.1483891,14.2017211 C80.1815285,14.3410645 80.2386256,14.473518 80.3171062,14.5931105 C80.7135916,15.2173765 81.0445369,15.8690398 81.2301258,16.5911532 C81.3786645,17.1926951 81.4201855,17.8159069 81.3527702,18.4319879 C81.3190267,18.7757582 81.3900199,19.5041841 81.2301258,20.8434199 C81.0702316,22.1826557 82.3559885,24.4241591 82.7972488,25.7705385 C82.9182282,26.1130197 83.0648702,26.4457851 83.2359135,26.7659722 C83.4422159,27.1750252 83.784882,27.4982482 84.2040906,27.679214 C84.8471626,27.9721037 84.6803921,28.0197228 85.54669,27.8038063 C86.5284942,27.5585356 87.5038093,27.2819538 88.4882092,27.0503818 C89.3317951,26.8488162 90.1941995,26.724224 91.0682842,26.7477073 C91.4940746,26.7524512 91.9164781,26.8244317 92.320036,26.9610145 C92.6661049,27.0744157 92.9784252,27.2731065 93.2285131,27.5389662 C93.4387607,27.7711905 93.4478454,28.0288552 93.2356511,28.2597749 C93.1632951,28.3308905 93.1412054,28.4390782 93.1798447,28.5330952 C93.2155348,28.6452935 93.2564163,28.7561871 93.295351,28.8677331 C93.4393,29.2592368 93.3863752,29.6965167 93.1532393,30.0419012 C93.0108007,30.2400356 92.850254,30.4243551 92.6736931,30.5924556 C92.6088019,30.663558 92.4913488,30.7229187 92.4056924,30.6459454 C92.3365438,30.576658 92.2967748,30.4831433 92.2947284,30.3850192 C92.3080572,30.2408398 92.3347791,30.0982307 92.3745446,29.9590571 C92.4147771,29.7685809 92.4277554,29.5800617 92.3336631,29.4000226 C91.9001897,29.7835842 91.9021365,29.7874981 91.2941057,30.0516859 C91.1381194,30.1110104 91.0270175,30.2514926 91.0046908,30.417635 C90.9601291,30.6701615 90.835633,30.9014699 90.6497358,31.0771261 C90.3901709,31.3413139 90.1208724,31.5989786 89.857414,31.8599048 C89.7649548,31.94771 89.6426308,31.9967096 89.5154372,31.9968911 C89.3529707,32.0002273 89.1916836,32.0254577 89.0358911,32.0719074 C88.5057298,32.2584696 87.9612924,32.3086979 87.4058236,32.2897808 C87.2468401,32.2845623 87.0813674,32.2636882 86.8977253,32.3550124 C86.9344972,32.4180818 86.9780165,32.4769221 87.0275077,32.5304853 C87.187789,32.6609484 87.3519638,32.7914115 87.520681,32.9146992 C88.3986593,33.5396175 89.2727441,34.1749729 90.1637006,34.7790172 C90.6328333,35.0864473 91.1173419,35.3694892 91.6153173,35.6270275 C92.7314463,36.2265055 93.8618514,36.8011956 94.974087,37.4052398 C95.7043589,37.7942785 96.3485259,38.328204 96.8676129,38.9747112 C96.9516791,39.0818115 97.0565526,39.1705892 97.1758462,39.2356375 C98.4736707,39.9114364 99.6417128,40.7914102 100.881784,41.5546195 C101.831792,42.1417035 102.81684,42.6570329 103.879759,43.008631 C104.126345,43.0901704 104.381368,43.1482265 104.666889,43.2258521 C104.616143,43.263911 104.56155,43.2964892 104.504012,43.3230471 C103.99851,43.4822121 103.516368,43.4926492 103.058236,43.1560543 C102.905092,43.043856 102.698738,43.0040648 102.501469,42.9251346 C102.451353,43.0840025 102.514976,43.2567918 102.65591,43.3445735 C103.066023,43.6433341 103.475486,43.9460085 103.988776,44.050379 C104.156844,44.1032166 104.163982,44.1240907 104.195779,44.1677958 C104.127294,44.2187018 104.053799,44.2624179 103.976447,44.298259 C103.241878,44.5409204 102.496278,44.6531187 101.74354,44.3967586 C101.617002,44.3537058 101.580663,44.4502485 101.435306,44.4939536 C101.51058,44.356315 101.557302,44.2708617 101.611161,44.1736667 L101.076458,43.6870392 C101.232197,44.0582068 101.328236,44.4267651 101.565089,44.7307442 C101.788314,45.0164584 102.023221,45.2936926 102.251638,45.5754929 C102.406079,45.7659691 102.561818,45.9551406 102.705876,46.1514876 C102.806458,46.2871693 102.79932,46.2923878 102.802564,46.5102612 C102.445663,46.5174367 102.085516,46.5624465 101.73121,46.4978672 C101.376898,46.430996 101.027099,46.3418893 100.683866,46.2310701 C100.349676,46.125395 100.055719,45.953836 99.9162026,45.5944101 C99.8773182,45.5259323 99.8103559,45.4781923 99.7332094,45.463947 C99.5875428,45.4512368 99.4411455,45.4492746 99.2951936,45.4580761 C99.3027245,45.5631598 99.3163751,45.6677095 99.3360751,45.7711876 C99.4340608,46.1586631 99.5430781,46.542877 99.6378193,46.9310048 C99.6781669,47.0895755 99.7012308,47.2520887 99.706604,47.4156753 C99.7117953,47.6596413 99.6300323,47.7157405 99.3918815,47.6681214 C99.3210145,47.6536729 99.2492525,47.6440835 99.1770916,47.6394195 C98.9418756,47.6238298 98.7145065,47.5481664 98.5164989,47.4195892 C98.3304652,47.3092328 98.1336849,47.2183047 97.9292334,47.1482259 C97.6805701,47.0623379 97.4557283,46.9183641 97.2731831,46.7281346 C97.1726017,46.6244164 97.0525529,46.5389631 96.9591096,46.4300264 C96.8656662,46.3210897 96.800775,46.1919312 96.7151186,46.077776 C96.5360188,46.2878216 96.4905949,46.480907 96.689811,46.6309396 C96.5379655,46.6961712 96.4918927,46.7979324 96.4834569,46.947965 C96.4626917,47.3041293 96.3030593,47.4365494 95.9494021,47.3961058 C95.573033,47.3537053 95.1979617,47.2917353 94.8248372,47.2258514 C94.419916,47.1540967 94.1337457,46.8788195 93.857309,46.6041947 C93.7924178,46.5389631 93.7833331,46.4137185 93.7379092,46.28456 C93.6457637,46.5500525 93.569192,46.7861907 93.4828867,47.0177628 C93.3368814,47.4091521 93.1824403,47.5174365 92.763243,47.4802545 C92.4393867,47.4527751 92.1178289,47.4026429 91.8009062,47.3302219 C91.3817089,47.2323746 91.0559549,47.0040641 90.9352572,46.5578802 C90.9107705,46.5056217 90.8800456,46.4565545 90.8437606,46.4117615 C90.7884293,46.4754222 90.7368604,46.5422907 90.6893195,46.6120224 C90.6289707,46.7131314 90.574462,46.8181542 90.5238469,46.9244816 C90.3875753,47.2134574 90.1442332,47.365447 89.8476803,47.4169799 C89.2571702,47.5200458 88.7309024,47.4084998 88.3435017,46.9003459 C88.2075209,46.7635606 88.1789062,46.7499467 88.1488281,46.7405286 C87.8470839,47.0262429 87.4473539,47.0412461 87.0690381,47.0803851 C86.7192744,47.1162624 86.3993607,46.9681868 86.4726878,46.4554667 C86.5014848,46.276865 86.5493481,46.1019037 86.6154484,45.9336142 C86.6946157,45.7209593 86.7997395,45.5187415 86.8886405,45.3100005 C86.9262774,45.2232425 86.9535317,45.1319183 86.9827328,45.0425511 C86.8737155,45.0608159 86.8192069,45.1123488 86.7718363,45.1691003 C86.4934529,45.5037382 86.2079316,45.8338099 85.9405797,46.1769279 C85.6122301,46.5989761 85.1709698,46.5735358 84.7290606,46.4867778 C84.5084304,46.4430727 84.3552871,46.2610766 84.2865024,46.0418986 C84.2592481,45.9557929 84.2865024,45.8501178 84.2994807,45.755532 C84.3175088,45.6805669 84.3411535,45.6070804 84.3702121,45.5357017 C83.8452421,45.953836 83.3462286,45.9486175 82.8355347,45.8429423 C82.6703753,45.7972207 82.4956528,45.7999368 82.3319788,45.8507701 C81.9951933,45.9701439 81.6707372,45.8925183 81.3462811,45.7907571 C81.0964498,45.5161322 80.8875001,45.4926488 80.666221,45.4613377 C80.3820561,45.4144197 80.1004869,45.3528027 79.8226351,45.2767324 C79.6928527,45.2447689 79.5903245,45.1847559 79.6169299,45.0112399 C79.6357484,44.8931708 79.5429539,44.8338101 79.4410747,44.8031512 C79.3288129,44.7698831 79.2133065,44.7450952 79.1010447,44.7111747 C78.8765211,44.6459432 78.8304483,44.5807116 78.8226614,44.3419641 C78.8135766,44.06473 78.8109809,44.0810379 78.5345443,44.0353758 C78.3397795,44.0015225 78.1505059,43.9411728 77.9719374,43.855989 C77.8706776,43.7991719 77.7883012,43.7136409 77.7350844,43.610066 C77.6543463,43.4551721 77.5101615,43.3436056 77.3405458,43.3047823 C77.2445068,43.2799943 77.1458721,43.2662957 77.0491842,43.2395507 C76.6416673,43.1358325 76.3905383,42.8814294 76.3100732,42.4626428 C75.993404,42.196498 75.7370837,42.0914752 75.4827101,41.9825385 C75.2542929,41.8846912 75.1348931,41.7059567 75.1868061,41.460686 C75.2633777,41.0986509 75.1679876,40.8846913 74.7903207,40.7718407 C74.5307558,40.6948675 74.4535352,40.4711232 74.4970124,40.1964984 C74.5567123,39.8807776 74.5301069,39.8246785 74.3347843,39.720308 C74.2393942,39.6694273 74.1401106,39.6296361 74.0408271,39.5813647 C73.951703,39.5389295 73.8650424,39.4914518 73.7812622,39.4391599 C73.4808158,39.2434653 73.4444767,39.0875618 73.6183852,38.7809735 C73.6534265,38.7157419 73.6897655,38.6583381 73.7293492,38.589845 C73.5846418,38.5083056 73.456806,38.4267661 73.3205345,38.3621869 C73.1842629,38.2976076 73.1362434,38.3184817 73.0609696,38.4548157 C72.7858308,38.9549243 72.1565973,40.0781616 72.1109621,40.1345284 C71.1252644,41.3954545 70.0720798,42.5944106 68.8696454,43.6524665 C68.3382078,44.1336317 67.7604201,44.5603953 67.1448367,44.9264389 C67.0275286,44.9949134 66.9061727,45.0561274 66.7814458,45.1097396 C66.6451743,45.1671434 66.4965734,45.1984545 66.3609507,45.1234382 C66.211052,45.0399418 65.1053055,45.9094785 64.6478224,46.2499873 C64.0287601,46.7105221 63.3746566,47.1149578 62.6504705,47.3941489 C62.55058,47.436251 62.447509,47.4702792 62.3422372,47.4959101 C62.2767233,47.5120347 62.2076254,47.503931 62.1475635,47.4730791 C62.0320571,47.3941489 56.0530288,51.4458615 55.5195739,51.6531175 C55.4099077,51.6942134 55.3099753,51.7607496 55.200958,51.8051071 C55.0865765,51.8585656 54.9505797,51.8241607 54.8749963,51.7226441 C54.7994129,51.6211276 54.8049144,51.4802632 54.8881823,51.3850158 C55.4903729,50.8227197 56.0564406,50.3008672 56.6227247,49.7790148 C56.7447202,49.6668165 56.8686625,49.5565751 56.9919558,49.4450292 L56.6077997,49.5206978 C56.2346752,49.6570317 49.4970194,53.4835151 49.1128634,53.6642066 C48.9882728,53.7147256 48.8571855,53.74723 48.723516,53.7607493 C48.6211403,53.7790954 48.5194027,53.7254097 48.4762805,53.6302861 C48.4260868,53.5380794 48.4487691,53.4229742 48.5301402,53.3569659 C48.7585573,53.1377879 48.9908679,52.9218714 49.2244763,52.7046503 C49.3834598,52.5585316 49.5489324,52.4195884 49.7066181,52.272165 C49.825369,52.1612714 49.9408754,52.0451592 50.0485948,51.9238285 C50.0907741,51.8762095 50.1439849,51.7933654 50.1277621,51.7516172 C50.0898528,51.6939098 47.7228933,52.1482251 47.1388723,52.3634892 C46.2801451,52.6857331 45.4231484,53.0055852 44.567882,53.3230455 C44.0750469,53.5870995 41.7885909,53.7372659 41.6354476,53.5728824 C41.6938404,53.3924414 41.815957,53.2397493 41.9787222,53.1436587 C42.2028263,52.9907197 42.4369697,52.8532018 42.6795474,52.7320475 C43.5821843,52.2923868 44.5010441,51.8840372 45.3602039,51.3621848 C45.7456577,51.1273511 46.1246225,50.8820805 46.5412242,50.6198496 C46.438696,50.5696213 46.3757515,50.5435287 46.3173494,50.5089559 C46.1408453,50.4039331 46.1226758,50.2167185 46.2855527,50.0862554 C46.3660123,50.0275667 46.4505919,49.9748088 46.5386285,49.928395 C47.8591649,49.1547487 54.224994,45.1332229 54.3482873,44.9786241 C53.217017,45.3395721 52.4143125,45.5991937 51.940174,45.757489 C51.6754178,45.8462039 51.3957366,45.8879521 51.1218957,45.9492698 C51.0109317,45.9740578 50.9103503,45.9773193 50.8493525,45.8448993 C50.7675896,45.6674694 50.7617494,45.5422248 50.8856916,45.4535099 C51.1284555,45.2632638 51.3819539,45.08728 51.6449189,44.9264389 C52.4391875,44.4737319 56.6402453,42.0334191 56.8005267,41.9375287 C56.4384336,41.8944759 54.440864,41.981469 54.3411493,41.8585986 C54.1938462,41.6870395 54.2035799,41.5233083 54.3917644,41.3961068 C54.60915,41.2506404 54.8395139,41.1240912 55.067931,40.9962373 C55.3443676,40.8416385 55.6246977,40.6955198 55.903081,40.5448349 C55.9558339,40.5099668 56.0106614,40.4783791 56.0672558,40.4502491 C57.1859805,40.0066745 61.6978673,37.6922587 61.8477661,37.5983253 C62.0508756,37.4678621 62.255283,37.3419652 62.4856468,37.1971512 C61.9029236,37.2499887 58.0912131,37.9003474 57.6992701,37.8181556 C57.6369164,37.806467 57.5764418,37.7862762 57.5195214,37.7581426 C57.2223196,37.6048484 57.189874,37.2715151 57.4624172,37.0797344 C57.6050292,36.9828393 57.757257,36.9010796 57.9166557,36.8357683 C58.5065491,36.5810838 64.266262,34.9923244 64.998235,34.7627093 C65.1883663,34.7033486 65.3875823,34.6361601 65.5679799,34.4365515 C65.3952419,34.4532452 65.2234819,34.4789375 65.0533925,34.5135247 C64.6530137,34.6191999 61.7991279,34.0976036 61.6829424,33.9186129 C61.5382349,33.7085673 61.5726273,33.5193957 61.8127248,33.4378563 C62.0857519,33.3410939 62.3694553,33.2780101 62.6576085,33.2499894 C63.2967871,33.1958472 68.4024286,32.8794741 68.7995629,32.8690371 C68.924803,32.8657755 69.050043,32.8690371 69.1941015,32.8690371 C69.0162996,32.4828662 68.9715246,32.2160691 68.961142,31.9407919 C68.9559507,31.7953256 68.9202606,31.6955213 68.7632238,31.6270281 C68.5293739,31.5313431 68.3741895,31.3054145 68.3680363,31.0516858 C68.3615471,30.9401398 68.325208,30.8696897 68.2006169,30.8435971 C67.7658457,30.7542298 67.5166634,30.4613401 67.4907069,30.0184178 C67.4835689,29.8918686 67.4907069,29.7640147 67.4946004,29.6368132 C67.5035631,29.5263061 67.454325,29.4191465 67.3648179,29.3543605 C66.9637902,29.0464676 66.8735914,28.6368133 66.9903956,28.1606229 C67.0182988,28.0477723 67.0494466,27.9362264 67.0792965,27.8214188 C66.7723611,27.693565 66.7230437,27.5357046 66.7347241,27.3491423 C66.7528937,27.0706036 66.7840415,26.7920648 66.8125936,26.478301 C66.7678187,26.4574269 66.6977362,26.4228542 66.6263558,26.391543 C66.4206506,26.3002188 66.359004,26.218027 66.3784713,25.9929782 C66.3992172,25.7757786 66.4310559,25.5597946 66.4738614,25.3458811 C66.5221288,25.1569638 66.4558682,24.9571394 66.3044953,24.8351179 C66.1169597,24.6713867 66.0650467,24.4580795 66.1098217,24.2160704 C66.1523609,23.9460065 66.2481081,23.6871977 66.3914496,23.4548181 C66.4946266,23.29761 66.4868397,23.2897823 66.3311007,23.1769316 C66.0812695,22.9968925 66.0066446,22.7855423 66.0974923,22.4900433 C66.1409694,22.3524047 66.2091052,22.2225939 66.2636139,22.0875646 C66.2999529,21.997545 66.3323986,21.9055685 66.3726311,21.7979364 C66.1351292,21.7105261 66.1390227,21.5370102 66.1656281,21.346534 C66.255178,20.707917 66.5621135,20.2212896 67.1441878,19.9323138 C67.3083583,19.8493608 67.4526999,19.7316351 67.5672786,19.5872388 C67.3609245,19.5722356 67.1909095,19.5631031 67.0221923,19.5461429 C66.8694056,19.5374036 66.7175311,19.5166839 66.5679537,19.484173 C66.4631141,19.4574146 66.3671125,19.4034257 66.2895704,19.3276172 C66.1571558,19.1788864 66.0332313,19.0227327 65.9183926,18.8599069 C65.8375716,18.7572904 65.8166046,18.6194226 65.863235,18.4972194 C65.9183273,18.3339428 65.9849005,18.1748113 66.0624511,18.021029 C66.1779794,17.7873755 66.4123166,17.6368539 66.6717797,17.6296397 C66.9423761,17.6113748 66.9417272,17.603547 67.0786476,17.4809117 C66.5699004,17.4111139 66.2668584,17.0810422 65.9845816,16.7568414 C65.7023048,16.4326405 65.8080775,15.7196595 66.1422673,15.433293 C66.278438,15.3253075 66.4485098,15.2697847 66.6218134,15.2767372 C66.7717121,15.2728233 66.9216109,15.259777 67.0935726,15.2499923 C67.0453475,15.1055924 66.9271748,14.9959 66.780148,14.9590595 C66.4310332,14.8625168 66.2272748,14.6146369 66.1312358,14.2852175 C65.9209882,13.5735412 66.0981412,13.1880226 66.5543265,12.7314017 C66.7197992,12.5657135 66.9274511,12.5259223 67.1578149,12.5918062 C67.3278299,12.6400775 67.5030362,12.6713887 67.6957632,12.7144415 C67.6847317,12.5030912 67.5601405,12.3987207 67.4426874,12.2884794 C67.1170949,12.0015632 66.9429472,11.5786195 66.9715771,11.1443178 C66.9890977,10.8109845 67.1383476,10.5363597 67.349244,10.2884797 C67.4331225,10.1889604 67.5637014,10.1423829 67.6912208,10.1664967 C67.8858945,10.1893277 68.0857594,10.2173773 68.2830288,10.241513 C68.3706319,10.2526024 68.458884,10.2597778 68.5646567,10.2708672 C68.5932088,10.1143115 68.5932088,9.99232843 68.4647242,9.89317646 C68.2363071,9.71770356 68.1435126,9.46330047 68.0799192,9.19519875 C68.0630475,9.12540098 68.0734301,9.04516616 68.0461758,8.98058691 C67.8845966,8.59376375 68.0241128,8.2323809 68.1357257,7.87165037 C68.2246267,7.58397918 68.3602493,7.50831057 68.650962,7.6055056 C68.8786744,7.68823683 69.1008465,7.78563368 69.316097,7.89709068 C69.4446185,7.966632 69.5905175,7.99700757 69.7359433,7.98450097 Z M116.941588,35.9655131 C117.1207,36.400904 116.339003,36.7666107 116.048781,35.9655131 C115.758559,35.1644156 109.935034,19.6717134 85.5450924,6.9222959 C84.6224875,6.44002028 84.5610226,5.73686246 84.7628331,5.30011182 C84.9646436,4.86336118 85.9317662,4.51973054 87.0784532,5.05468788 C103.408545,12.6730725 112.751772,25.7807906 116.941588,35.9655131 Z M16.1464414,96.1262221 C16.1079212,98.3330425 13.5523759,99.8306697 11.0501833,96.0372666 C2.73989168,83.4386017 0.401048527,70.3716813 1.27516913,70.9417656 C2.14928973,71.5118498 2.78693988,80.743212 9.68889942,88.5742715 C11.8646015,91.0428535 16.1849616,93.9194018 16.1464414,96.1262221 Z M85.108497,72.0128903 C84.5564101,71.9505655 83.5811898,71.7014026 83.0557496,71.4760942 C82.8254172,71.3771549 82.3220875,70.2505824 83.6366373,70.4309972 C85.6625071,70.709037 85.9239253,70.5441718 86.3106011,70.2828273 C86.5578086,70.1157459 86.6984805,69.4146641 86.0186391,69.1266727 C85.3387978,68.8386813 81.7510576,69.5853177 78.2274217,68.1057225 C77.2834583,67.7093468 75.2608997,67.4939429 74.5972087,68.1107652 C74.3594554,68.3310329 73.6148323,69.0248556 72.460859,69.0264586 C71.3068858,69.0280615 68.3957798,68.3340666 69.1664661,67.4681907 C69.3948841,67.2115601 70.1285312,67.3292904 70.614314,67.3077348 C71.3561129,67.2762782 71.5699357,67.0061353 71.2245272,66.352978 C70.7783601,65.5089961 70.2484807,65.0242277 69.736594,64.2183304 C69.2955489,63.5309666 68.6953308,62.651279 67.9528446,62.305227 C66.5517582,61.6226201 65.2816535,60.7409983 64.2794614,59.5250423 C63.1752311,58.184945 62.9790415,56.9938013 63.2428813,55.2603658 C63.3018647,54.8724477 63.0393473,54.2585614 63.0400262,53.7676711 C63.0407051,53.2767808 63.3081047,53.0905429 63.5590707,52.9664161 C64.0689401,52.7184247 64.6145222,52.5501444 65.1766115,52.4674988 C67.2215099,52.1581745 69.0021417,52.419812 71.0557818,52.6177685 C71.2993927,52.6168018 73.3866411,51.226278 74.1432528,50.8676133 C74.8482581,50.5333687 75.4590696,50.8653883 75.6644868,51.6200947 C75.8284031,52.2050775 75.8983064,52.811782 75.8716068,53.4177302 C75.8398913,53.9994367 76.1544328,55.0060316 76.8398993,54.9366362 C82.0656601,54.4075895 88.0703001,56.3817407 90.6798114,57.9877426 C93.490758,59.7223505 94.9892605,62.1496291 94.3863357,65.5455849 C94.0555141,67.4015047 93.307942,69.0797286 91.9577926,70.4194384 C90.0268284,72.3402752 88.0330741,72.3430447 85.108497,72.0128903 Z M84.9497399,103.036338 C84.1507009,101.063936 77.4073101,97.4936019 76.1428576,97.9896321 C75.9979243,98.045145 75.8463207,98.0813478 75.6919478,98.0973092 C73.7206866,98.3107693 73.7999954,99.5086884 73.6740686,101.599396 C73.6215964,102.470679 72.8986345,102.915502 72.1627947,102.786268 C70.0065919,102.407579 69.1934851,103.328969 67.713653,103.034769 C66.7351045,102.842503 66.5803311,101.395454 66.405465,100.525794 C66.1877818,99.2836585 64.7340795,98.3628048 64.3393554,97.0983801 C63.9446312,95.8339554 63.5364886,95.1167715 63.4413311,93.9503144 C63.3461735,92.7838573 63.4543393,93.205072 62.9953342,93.0293294 C62.7421749,92.9154456 62.0196769,92.8257575 61.8153113,92.6378609 C61.2883142,92.1944261 61.2711895,91.7878463 61.90945,91.4076157 C62.3067574,91.1685458 63.1535347,90.7975459 63.6174975,90.4757741 C62.8565807,89.8772987 62.267782,90.0253235 61.6229335,89.395328 C61.3151827,89.093632 61.0416892,88.5372107 61.1006071,88.150595 C61.1467883,87.8532133 64.1818618,87.93216 66.6389583,87.7658369 C69.0335217,87.6037467 72.1019052,86.7221194 74.5185042,87.2184322 C83.0168436,88.963792 95.7741713,88.7756194 102.970158,75.1780129 C120.603001,41.8588237 88.7076635,14.5486115 92.6467027,14.7543291 C94.6576057,14.8593491 100.069821,17.7150759 108.68282,39.9545233 C112.403578,49.5618176 110.881093,53.0503023 113.407191,56.7231344 C114.580764,58.4294566 114.269354,52.6388533 113.27965,46.4481194 C112.13903,39.3133939 110.150113,36.952635 111.058781,36.6330641 C113.653186,35.7206342 114.404271,40.6070253 116.014306,48.2535556 C117.38007,54.7399749 117.256496,57.9139023 117.696117,57.8756807 C118.472139,57.8082117 119.08652,59.0300685 118.468479,52.0099147 C118.01065,46.8095579 117.004949,39.0430437 118.467436,40.6097334 C118.954197,41.1311761 127.908969,64.3002737 116.017872,87.2222104 C108.548961,101.619698 99.2986053,109.997209 89.6901872,114.644894 C83.5487729,117.615556 78.7475823,120.560605 78.0532071,118.308883 C77.3588318,116.057161 82.2566479,114.165792 86.029987,112.689463 C89.5333822,111.31875 90.3837372,109.763567 89.6895773,107.980818 C88.9954174,106.198069 84.6872751,108.955923 78.770306,112.283133 C73.7740032,115.092638 68.9211722,115.621822 68.3426167,114.300487 C67.5688454,112.533307 72.3140371,112.378197 78.1383645,109.604377 C83.4907174,107.055333 85.4722321,104.326094 84.9497399,103.036338 Z M13.0110774,32.8352821 C11.8932832,32.8352821 10.987132,31.9243784 10.987132,30.8007217 C10.987132,29.677065 11.8932832,28.7661612 13.0110774,28.7661612 C14.1288715,28.7661612 15.0350227,29.677065 15.0350227,30.8007217 C15.0350227,31.9243784 14.1288715,32.8352821 13.0110774,32.8352821 Z M56.6704704,61.036813 C55.3929913,61.036813 54.3573899,59.9957802 54.3573899,58.7116011 C54.3573899,57.427422 55.3929913,56.3863892 56.6704704,56.3863892 C57.9479494,56.3863892 58.9835508,57.427422 58.9835508,58.7116011 C58.9835508,59.9957802 57.9479494,61.036813 56.6704704,61.036813 Z M98.305918,74.9880846 C97.0284389,74.9880846 95.9928376,73.9470518 95.9928376,72.6628727 C95.9928376,71.3786936 97.0284389,70.3376608 98.305918,70.3376608 C99.583397,70.3376608 100.618998,71.3786936 100.618998,72.6628727 C100.618998,73.9470518 99.583397,74.9880846 98.305918,74.9880846 Z M71.127223,120.91102 C69.849744,120.91102 68.8141426,119.869987 68.8141426,118.585808 C68.8141426,117.301629 69.849744,116.260596 71.127223,116.260596 C72.4047021,116.260596 73.4403034,117.301629 73.4403034,118.585808 C73.4403034,119.869987 72.4047021,120.91102 71.127223,120.91102 Z M69.6815477,110.447566 C68.5637536,110.447566 67.6576024,109.536663 67.6576024,108.413006 C67.6576024,107.289349 68.5637536,106.378446 69.6815477,106.378446 C70.7993419,106.378446 71.7054931,107.289349 71.7054931,108.413006 C71.7054931,109.536663 70.7993419,110.447566 69.6815477,110.447566 Z M56.9596054,81.3824174 C55.8418113,81.3824174 54.93566,80.4715137 54.93566,79.347857 C54.93566,78.2242003 55.8418113,77.3132965 56.9596054,77.3132965 C58.0773996,77.3132965 58.9835508,78.2242003 58.9835508,79.347857 C58.9835508,80.4715137 58.0773996,81.3824174 56.9596054,81.3824174 Z M84.7165705,84.2889323 C82.3212973,84.2889323 80.3795447,82.3369957 80.3795447,79.9291599 C80.3795447,77.5213242 82.3212973,75.5693876 84.7165705,75.5693876 C87.1118437,75.5693876 89.0535963,77.5213242 89.0535963,79.9291599 C89.0535963,82.3369957 87.1118437,84.2889323 84.7165705,84.2889323 Z M100.329863,60.4555101 C97.9345901,60.4555101 95.9928376,58.5035735 95.9928376,56.0957377 C95.9928376,53.6879019 97.9345901,51.7359653 100.329863,51.7359653 C102.725137,51.7359653 104.666889,53.6879019 104.666889,56.0957377 C104.666889,58.5035735 102.725137,60.4555101 100.329863,60.4555101 Z M39.6115022,52.0182805 C38.4937081,52.0182805 37.5875569,51.1073768 37.5875569,49.9837201 C37.5875569,48.8600634 38.4937081,47.9491596 39.6115022,47.9491596 C40.7292964,47.9491596 41.6354476,48.8600634 41.6354476,49.9837201 C41.6354476,51.1073768 40.7292964,52.0182805 39.6115022,52.0182805 Z M61.8749013,30.227755 C60.916792,30.227755 60.140091,29.4469804 60.140091,28.4838461 C60.140091,27.5207118 60.916792,26.7399371 61.8749013,26.7399371 C62.8330106,26.7399371 63.6097116,27.5207118 63.6097116,28.4838461 C63.6097116,29.4469804 62.8330106,30.227755 61.8749013,30.227755 Z M85.2948406,14.5325745 C84.4964162,14.5325745 83.8491653,13.881929 83.8491653,13.0793171 C83.8491653,12.2767052 84.4964162,11.6260596 85.2948406,11.6260596 C86.093265,11.6260596 86.7405159,12.2767052 86.7405159,13.0793171 C86.7405159,13.881929 86.093265,14.5325745 85.2948406,14.5325745 Z M87.607921,23.8334222 C86.4901269,23.8334222 85.5839757,22.9225185 85.5839757,21.7988618 C85.5839757,20.6752051 86.4901269,19.7643014 87.607921,19.7643014 C88.7257152,19.7643014 89.6318664,20.6752051 89.6318664,21.7988618 C89.6318664,22.9225185 88.7257152,23.8334222 87.607921,23.8334222 Z M40.7680425,118.585808 C39.6502483,118.585808 38.7440971,117.674904 38.7440971,116.551248 C38.7440971,115.427591 39.6502483,114.516687 40.7680425,114.516687 C41.8858366,114.516687 42.7919878,115.427591 42.7919878,116.551248 C42.7919878,117.674904 41.8858366,118.585808 40.7680425,118.585808 Z M33.8288012,115.09799 C32.3916373,115.09799 31.2265857,113.926828 31.2265857,112.482127 C31.2265857,111.037425 32.3916373,109.866263 33.8288012,109.866263 C35.2659651,109.866263 36.4310167,111.037425 36.4310167,112.482127 C36.4310167,113.926828 35.2659651,115.09799 33.8288012,115.09799 Z M47.9964188,120.329717 C47.0383095,120.329717 46.2616085,119.548943 46.2616085,118.585808 C46.2616085,117.622674 47.0383095,116.841899 47.9964188,116.841899 C48.9545281,116.841899 49.7312291,117.622674 49.7312291,118.585808 C49.7312291,119.548943 48.9545281,120.329717 47.9964188,120.329717 Z M20.5285888,104.910973 C18.7720551,104.910973 17.3481032,103.479553 17.3481032,101.713806 C17.3481032,99.9480601 18.7720551,98.5166399 20.5285888,98.5166399 C22.2851224,98.5166399 23.7090743,99.9480601 23.7090743,101.713806 C23.7090743,103.479553 22.2851224,104.910973 20.5285888,104.910973 Z M45.1050682,15.3961927 C41.2726311,15.3961927 38.165827,12.2730941 38.165827,8.42055688 C38.165827,4.56801962 41.2726311,1.44492111 45.1050682,1.44492111 C48.9375054,1.44492111 52.0443095,4.56801962 52.0443095,8.42055688 C52.0443095,12.2730941 48.9375054,15.3961927 45.1050682,15.3961927 Z M109.29305,31.971664 C108.334941,31.971664 107.55824,31.1908893 107.55824,30.227755 C107.55824,29.2646207 108.334941,28.4838461 109.29305,28.4838461 C110.251159,28.4838461 111.02786,29.2646207 111.02786,30.227755 C111.02786,31.1908893 110.251159,31.971664 109.29305,31.971664 Z M61.0074962,6.3943328 C59.2509625,6.3943328 57.8270106,4.96291264 57.8270106,3.1971664 C57.8270106,1.43142015 59.2509625,0 61.0074962,0 C62.7640298,0 64.1879817,1.43142015 64.1879817,3.1971664 C64.1879817,4.96291264 62.7640298,6.3943328 61.0074962,6.3943328 Z M58.6944157,16.8577865 C57.5766216,16.8577865 56.6704704,15.9468827 56.6704704,14.823226 C56.6704704,13.6995693 57.5766216,12.7886656 58.6944157,12.7886656 C59.8122099,12.7886656 60.7183611,13.6995693 60.7183611,14.823226 C60.7183611,15.9468827 59.8122099,16.8577865 58.6944157,16.8577865 Z M97.4385128,34.8781789 C96.3207187,34.8781789 95.4145675,33.9672752 95.4145675,32.8436185 C95.4145675,31.7199617 96.3207187,30.809058 97.4385128,30.809058 C98.556307,30.809058 99.4624582,31.7199617 99.4624582,32.8436185 C99.4624582,33.9672752 98.556307,34.8781789 97.4385128,34.8781789 Z" id="logo---grey"></path>
                </g>
                <path d="M168.18,73.28 L150.9,73.28 L147.36,83 L138.6,83 L154.92,40.46 L164.52,40.46 L180.72,83 L171.72,83 L168.18,73.28 Z M153.66,65.72 L165.42,65.72 L159.54,49.64 L153.66,65.72 Z M191.24,83 L183.26,83 L183.26,53.48 L191,53.48 L191,57.14 C191.920005,55.6199924 193.169992,54.5000036 194.75,53.78 C196.330008,53.0599964 197.919992,52.7 199.52,52.7 C201.360009,52.7 202.949993,53.0099969 204.29,53.63 C205.630007,54.2500031 206.739996,55.0799948 207.62,56.12 C208.500004,57.1600052 209.149998,58.3999928 209.57,59.84 C209.990002,61.2800072 210.2,62.799992 210.2,64.4 L210.2,83 L202.22,83 L202.22,65.78 C202.22,64.0999916 201.790004,62.7000056 200.93,61.58 C200.069996,60.4599944 198.68001,59.9 196.76,59.9 C194.999991,59.9 193.640005,60.4899941 192.68,61.67 C191.719995,62.8500059 191.24,64.2999914 191.24,66.02 L191.24,83 Z M216.1,83 L216.1,53.48 L224.08,53.48 L224.08,83 L216.1,83 Z M215.14,43.82 C215.14,42.419993 215.619995,41.2400048 216.58,40.28 C217.540005,39.3199952 218.699993,38.84 220.06,38.84 C221.460007,38.84 222.629995,39.3199952 223.57,40.28 C224.510005,41.2400048 224.98,42.419993 224.98,43.82 C224.98,45.1400066 224.510005,46.2799952 223.57,47.24 C222.629995,48.2000048 221.460007,48.68 220.06,48.68 C218.699993,48.68 217.540005,48.2000048 216.58,47.24 C215.619995,46.2799952 215.14,45.1400066 215.14,43.82 Z M230.4,83 L230.4,53.48 L238.02,53.48 L238.02,57.08 C238.420002,56.3599964 238.939997,55.7200028 239.58,55.16 C240.220003,54.5999972 240.929996,54.1400018 241.71,53.78 C242.490004,53.4199982 243.309996,53.140001 244.17,52.94 C245.030004,52.739999 245.859996,52.64 246.66,52.64 C248.70001,52.64 250.479992,53.0599958 252,53.9 C253.520008,54.7400042 254.659996,55.959992 255.42,57.56 C256.580006,55.759991 257.939992,54.4900037 259.5,53.75 C261.060008,53.0099963 262.81999,52.64 264.78,52.64 C266.140007,52.64 267.459994,52.8499979 268.74,53.27 C270.020006,53.6900021 271.159995,54.3599954 272.16,55.28 C273.160005,56.2000046 273.959997,57.3699929 274.56,58.79 C275.160003,60.2100071 275.46,61.8999902 275.46,63.86 L275.46,83 L267.72,83 L267.72,65.48 C267.72,63.879992 267.310004,62.5500053 266.49,61.49 C265.669996,60.4299947 264.340009,59.9 262.5,59.9 C260.779991,59.9 259.440005,60.4699943 258.48,61.61 C257.519995,62.7500057 257.04,64.119992 257.04,65.72 L257.04,83 L249.12,83 L249.12,65.48 C249.12,63.879992 248.700004,62.5500053 247.86,61.49 C247.019996,60.4299947 245.700009,59.9 243.9,59.9 C242.139991,59.9 240.780005,60.4599944 239.82,61.58 C238.859995,62.7000056 238.38,64.0799918 238.38,65.72 L238.38,83 L230.4,83 Z M279.56,74.96 C279.56,73.6399934 279.789998,72.4700051 280.25,71.45 C280.710002,70.4299949 281.339996,69.5400038 282.14,68.78 C282.940004,68.0199962 283.869995,67.4200022 284.93,66.98 C285.990005,66.5399978 287.139994,66.220001 288.38,66.02 L295.64,64.94 C296.480004,64.8199994 297.059998,64.5700019 297.38,64.19 C297.700002,63.8099981 297.86,63.3600026 297.86,62.84 C297.86,61.7999948 297.450004,60.9000038 296.63,60.14 C295.809996,59.3799962 294.560008,59 292.88,59 C291.119991,59 289.770005,59.4799952 288.83,60.44 C287.889995,61.4000048 287.360001,62.5199936 287.24,63.8 L280.16,62.3 C280.280001,61.1399942 280.639997,59.9800058 281.24,58.82 C281.840003,57.6599942 282.659995,56.6200046 283.7,55.7 C284.740005,54.7799954 286.019992,54.0300029 287.54,53.45 C289.060008,52.8699971 290.81999,52.58 292.82,52.58 C295.140012,52.58 297.119992,52.8899969 298.76,53.51 C300.400008,54.1300031 301.729995,54.9499949 302.75,55.97 C303.770005,56.9900051 304.509998,58.1799932 304.97,59.54 C305.430002,60.9000068 305.66,62.3199926 305.66,63.8 L305.66,78.32 C305.66,79.120004 305.7,79.9699955 305.78,80.87 C305.86,81.7700045 305.94,82.4799974 306.02,83 L298.7,83 C298.62,82.599998 298.55,82.0500035 298.49,81.35 C298.43,80.6499965 298.4,80.0200028 298.4,79.46 C297.639996,80.6200058 296.550007,81.6399956 295.13,82.52 C293.709993,83.4000044 291.900011,83.84 289.7,83.84 C288.139992,83.84 286.730006,83.5900025 285.47,83.09 C284.209994,82.5899975 283.140004,81.9300041 282.26,81.11 C281.379996,80.2899959 280.710002,79.3500053 280.25,78.29 C279.789998,77.2299947 279.56,76.1200058 279.56,74.96 Z M291.38,77.9 C292.220004,77.9 293.029996,77.7900011 293.81,77.57 C294.590004,77.3499989 295.279997,76.9700027 295.88,76.43 C296.480003,75.8899973 296.959998,75.1900043 297.32,74.33 C297.680002,73.4699957 297.86,72.3800066 297.86,71.06 L297.86,69.74 L291.2,70.76 C290.159995,70.9200008 289.290004,71.2899971 288.59,71.87 C287.889997,72.4500029 287.54,73.3199942 287.54,74.48 C287.54,75.3600044 287.859997,76.1499965 288.5,76.85 C289.140003,77.5500035 290.099994,77.9 291.38,77.9 Z M311.5,83 L311.5,39.56 L319.48,39.56 L319.48,83 L311.5,83 Z M351.86,65.6 L345.5,65.6 L345.5,83 L339.56,83 L339.56,40.46 L355.58,40.46 C357.58001,40.46 359.389992,40.7899967 361.01,41.45 C362.630008,42.1100033 363.999994,43.0099943 365.12,44.15 C366.240006,45.2900057 367.099997,46.6299923 367.7,48.17 C368.300003,49.7100077 368.6,51.3599912 368.6,53.12 C368.6,56.2000154 367.690009,58.8299891 365.87,61.01 C364.049991,63.1900109 361.520016,64.579997 358.28,65.18 L368.42,83 L361.58,83 L351.86,65.6 Z M354.5,60.32 C356.900012,60.32 358.839993,59.6700065 360.32,58.37 C361.800007,57.0699935 362.54,55.320011 362.54,53.12 C362.54,50.8399886 361.800007,49.0400066 360.32,47.72 C358.839993,46.3999934 356.900012,45.74 354.5,45.74 L345.5,45.74 L345.5,60.32 L354.5,60.32 Z M398.34,65.6 C398.26,63.5199896 397.560007,61.7700071 396.24,60.35 C394.919993,58.9299929 392.980013,58.22 390.42,58.22 C389.219994,58.22 388.150005,58.4299979 387.21,58.85 C386.269995,59.2700021 385.470003,59.8299965 384.81,60.53 C384.149997,61.2300035 383.620002,62.0199956 383.22,62.9 C382.819998,63.7800044 382.6,64.6799954 382.56,65.6 L398.34,65.6 Z M404.04,74.78 C403.639998,76.0600064 403.050004,77.2499945 402.27,78.35 C401.489996,79.4500055 400.550005,80.4099959 399.45,81.23 C398.349994,82.0500041 397.100007,82.6999976 395.7,83.18 C394.299993,83.6600024 392.760008,83.9 391.08,83.9 C389.15999,83.9 387.320009,83.5600034 385.56,82.88 C383.799991,82.1999966 382.250007,81.2000066 380.91,79.88 C379.569993,78.5599934 378.510004,76.9400096 377.73,75.02 C376.949996,73.0999904 376.56,70.9200122 376.56,68.48 C376.56,66.1999886 376.939996,64.1300093 377.7,62.27 C378.460004,60.4099907 379.469994,58.8100067 380.73,57.47 C381.990006,56.1299933 383.459992,55.0900037 385.14,54.35 C386.820008,53.6099963 388.559991,53.24 390.36,53.24 C392.560011,53.24 394.529991,53.6099963 396.27,54.35 C398.010009,55.0900037 399.459994,56.1199934 400.62,57.44 C401.780006,58.7600066 402.669997,60.3499907 403.29,62.21 C403.910003,64.0700093 404.22,66.1199888 404.22,68.36 C404.22,68.7200018 404.21,69.0599984 404.19,69.38 C404.17,69.7000016 404.14,69.959999 404.1,70.16 L382.38,70.16 C382.42,71.4400064 382.659998,72.6199946 383.1,73.7 C383.540002,74.7800054 384.149996,75.7099961 384.93,76.49 C385.710004,77.2700039 386.629995,77.8699979 387.69,78.29 C388.750005,78.7100021 389.879994,78.92 391.08,78.92 C393.440012,78.92 395.239994,78.3600056 396.48,77.24 C397.720006,76.1199944 398.619997,74.7400082 399.18,73.1 L404.04,74.78 Z M418.78,83.3 C418.980001,85.3400102 419.789993,87.0299933 421.21,88.37 C422.630007,89.7100067 424.439989,90.38 426.64,90.38 C429.680015,90.38 431.909993,89.6000078 433.33,88.04 C434.750007,86.4799922 435.46,84.1400156 435.46,81.02 L435.46,76.88 C434.779997,78.2000066 433.680008,79.3199954 432.16,80.24 C430.639992,81.1600046 428.800011,81.62 426.64,81.62 C424.71999,81.62 422.950008,81.2700035 421.33,80.57 C419.709992,79.8699965 418.310006,78.9100061 417.13,77.69 C415.949994,76.4699939 415.030003,75.0000086 414.37,73.28 C413.709997,71.5599914 413.38,69.6800102 413.38,67.64 C413.38,65.6799902 413.699997,63.8500085 414.34,62.15 C414.980003,60.4499915 415.879994,58.9700063 417.04,57.71 C418.200006,56.4499937 419.589992,55.4500037 421.21,54.71 C422.830008,53.9699963 424.63999,53.6 426.64,53.6 C428.880011,53.6 430.739993,53.999996 432.22,54.8 C433.700007,55.600004 434.799996,56.7199928 435.52,58.16 L435.52,54.14 L441.1,54.14 L441.1,80.84 C441.1,82.6800092 440.860002,84.4699913 440.38,86.21 C439.899998,87.9500087 439.090006,89.4899933 437.95,90.83 C436.809994,92.1700067 435.320009,93.2499959 433.48,94.07 C431.639991,94.8900041 429.360014,95.3 426.64,95.3 C424.839991,95.3 423.170008,95.0300027 421.63,94.49 C420.089992,93.9499973 418.730006,93.2000048 417.55,92.24 C416.369994,91.2799952 415.410004,90.1500065 414.67,88.85 C413.929996,87.5499935 413.480001,86.1200078 413.32,84.56 L418.78,83.3 Z M427.48,76.88 C429.920012,76.88 431.899992,76.0400084 433.42,74.36 C434.940008,72.6799916 435.7,70.440014 435.7,67.64 C435.7,64.839986 434.940008,62.6000084 433.42,60.92 C431.899992,59.2399916 429.920012,58.4 427.48,58.4 C424.959987,58.4 422.940008,59.2399916 421.42,60.92 C419.899992,62.6000084 419.14,64.839986 419.14,67.64 C419.14,70.4800142 419.889993,72.7299917 421.39,74.39 C422.890008,76.0500083 424.919987,76.88 427.48,76.88 Z M454.1,83 L454.1,54.14 L459.68,54.14 L459.68,83 L454.1,83 Z M452.84,43.22 C452.84,42.0599942 453.229996,41.0900039 454.01,40.31 C454.790004,39.5299961 455.739994,39.14 456.86,39.14 C458.020006,39.14 458.989996,39.5299961 459.77,40.31 C460.550004,41.0900039 460.94,42.0599942 460.94,43.22 C460.94,44.3400056 460.550004,45.2899961 459.77,46.07 C458.989996,46.8500039 458.020006,47.24 456.86,47.24 C455.739994,47.24 454.790004,46.8500039 454.01,46.07 C453.229996,45.2899961 452.84,44.3400056 452.84,43.22 Z M475.68,73.7 C475.880001,75.2200076 476.539994,76.4999948 477.66,77.54 C478.780006,78.5800052 480.35999,79.1 482.4,79.1 C484.000008,79.1 485.219996,78.7200038 486.06,77.96 C486.900004,77.1999962 487.32,76.3000052 487.32,75.26 C487.32,74.3399954 487.000003,73.5600032 486.36,72.92 C485.719997,72.2799968 484.800006,71.8200014 483.6,71.54 L478.68,70.46 C476.399989,69.9799976 474.630006,69.0200072 473.37,67.58 C472.109994,66.1399928 471.48,64.4000102 471.48,62.36 C471.48,61.1199938 471.749997,59.9500055 472.29,58.85 C472.830003,57.7499945 473.559995,56.7800042 474.48,55.94 C475.400005,55.0999958 476.489994,54.4400024 477.75,53.96 C479.010006,53.4799976 480.339993,53.24 481.74,53.24 C483.70001,53.24 485.349993,53.5199972 486.69,54.08 C488.030007,54.6400028 489.119996,55.3299959 489.96,56.15 C490.800004,56.9700041 491.429998,57.8199956 491.85,58.7 C492.270002,59.5800044 492.559999,60.3399968 492.72,60.98 L487.74,62.84 C487.66,62.4799982 487.520001,62.0200028 487.32,61.46 C487.119999,60.8999972 486.800002,60.3700025 486.36,59.87 C485.919998,59.3699975 485.320004,58.9400018 484.56,58.58 C483.799996,58.2199982 482.860006,58.04 481.74,58.04 C480.299993,58.04 479.140004,58.4299961 478.26,59.21 C477.379996,59.9900039 476.94,60.879995 476.94,61.88 C476.94,63.7200092 478.039989,64.8799976 480.24,65.36 L484.92,66.38 C487.560013,66.9400028 489.549993,67.9699925 490.89,69.47 C492.230007,70.9700075 492.9,72.7999892 492.9,74.96 C492.9,76.0000052 492.680002,77.0399948 492.24,78.08 C491.799998,79.1200052 491.150004,80.0799956 490.29,80.96 C489.429996,81.8400044 488.340007,82.5499973 487.02,83.09 C485.699993,83.6300027 484.140009,83.9 482.34,83.9 C480.33999,83.9 478.630007,83.6200028 477.21,83.06 C475.789993,82.4999972 474.610005,81.8000042 473.67,80.96 C472.729995,80.1199958 472.010003,79.2100049 471.51,78.23 C471.009998,77.2499951 470.700001,76.3400042 470.58,75.5 L475.68,73.7 Z M511.96,54.14 L518.2,54.14 L518.2,59.24 L511.96,59.24 L511.96,74.24 C511.96,75.5600066 512.259997,76.5499967 512.86,77.21 C513.460003,77.8700033 514.499993,78.2 515.98,78.2 C516.340002,78.2 516.739998,78.1800002 517.18,78.14 C517.620002,78.0999998 517.959999,78.0400004 518.2,77.96 L518.2,82.76 C517.959999,82.8400004 517.500003,82.9499993 516.82,83.09 C516.139997,83.2300007 515.320005,83.3 514.36,83.3 C511.879988,83.3 509.920007,82.5900071 508.48,81.17 C507.039993,79.7499929 506.32,77.7200132 506.32,75.08 L506.32,59.24 L500.8,59.24 L500.8,54.14 L502.36,54.14 C503.920008,54.14 505.049996,53.7200042 505.75,52.88 C506.450003,52.0399958 506.8,50.9800064 506.8,49.7 L506.8,45.02 L511.96,45.02 L511.96,54.14 Z M545.12,59.84 C544.279996,59.7199994 543.460004,59.66 542.66,59.66 C540.299988,59.66 538.390007,60.3499931 536.93,61.73 C535.469993,63.1100069 534.74,65.3799842 534.74,68.54 L534.74,83 L529.1,83 L529.1,54.14 L534.62,54.14 L534.62,59.18 C535.140003,58.0599944 535.749996,57.1500035 536.45,56.45 C537.150003,55.7499965 537.879996,55.1900021 538.64,54.77 C539.400004,54.3499979 540.179996,54.0600008 540.98,53.9 C541.780004,53.7399992 542.539996,53.66 543.26,53.66 C543.660002,53.66 544.029998,53.6799998 544.37,53.72 C544.710002,53.7600002 544.959999,53.7999998 545.12,53.84 L545.12,59.84 Z M557.04,95.06 L564.24,79.82 L551.82,54.14 L558.3,54.14 L567.3,74.06 L575.94,54.14 L582,54.14 L563.22,95.06 L557.04,95.06 Z" id="Animal-Registry" fill="#102147"></path>
                <path d="M513.131845,93.6078591 C513.131845,93.1710753 513.285466,92.8003893 513.592714,92.4957901 C513.899962,92.1911909 514.273871,92.0388936 514.714453,92.0388936 C514.934744,92.0388936 515.143438,92.0791231 515.34054,92.1595832 C515.537643,92.2400434 515.708655,92.3521112 515.853584,92.4957901 C515.998512,92.639469 516.111554,92.806134 516.192714,92.9957901 C516.273874,93.1854462 516.314453,93.3894672 516.314453,93.6078591 C516.314453,93.826251 516.273874,94.0302719 516.192714,94.2199281 C516.111554,94.4095842 515.998512,94.5762492 515.853584,94.7199281 C515.708655,94.8636069 515.537643,94.9756748 515.34054,95.0561349 C515.143438,95.1365951 514.934744,95.1768246 514.714453,95.1768246 C514.273871,95.1768246 513.899962,95.0245273 513.592714,94.7199281 C513.285466,94.4153288 513.131845,94.0446429 513.131845,93.6078591 Z M523.155033,88.4354453 C522.853582,88.4354453 522.572426,88.4871689 522.311555,88.5906177 C522.050684,88.6940665 521.821701,88.8463638 521.624598,89.0475143 C521.427496,89.2486647 521.270976,89.4986622 521.155033,89.7975143 C521.03909,90.0963663 520.98112,90.4354434 520.98112,90.8147556 C520.98112,91.1940679 521.03909,91.5331449 521.155033,91.831997 C521.270976,92.1308491 521.430394,92.3837201 521.633294,92.5906177 C521.836193,92.7975153 522.068075,92.9526862 522.328946,93.0561349 C522.589817,93.1595837 522.870973,93.2113074 523.172424,93.2113074 C523.462281,93.2113074 523.720249,93.1682043 523.946337,93.081997 C524.172425,92.9957897 524.366626,92.8837218 524.528946,92.7457901 C524.691266,92.6078584 524.821699,92.4526875 524.92025,92.2802729 C525.018802,92.1078582 525.091265,91.9411932 525.137642,91.7802729 L527.172424,92.4526867 C527.07967,92.8090103 526.926049,93.156708 526.711555,93.4957901 C526.497061,93.8348723 526.221701,94.1394669 525.885468,94.4095832 C525.549234,94.6796995 525.155035,94.8980881 524.702859,95.0647556 C524.250683,95.2314231 523.740543,95.3147556 523.172424,95.3147556 C522.546334,95.3147556 521.957934,95.2026878 521.407207,94.9785487 C520.856479,94.7544097 520.378223,94.4411944 519.972424,94.0388936 C519.566625,93.6365927 519.247788,93.1624595 519.015903,92.6164798 C518.784017,92.0705 518.668076,91.4699313 518.668076,90.8147556 C518.668076,90.1595799 518.781119,89.5561377 519.007207,89.0044108 C519.233295,88.4526839 519.546335,87.9785507 519.946337,87.581997 C520.346339,87.1854433 520.8159,86.8751016 521.355033,86.6509625 C521.894166,86.4268235 522.476769,86.3147556 523.102859,86.3147556 C523.682572,86.3147556 524.201407,86.3980881 524.659381,86.5647556 C525.117354,86.7314231 525.514452,86.9469382 525.850685,87.2113074 C526.186919,87.4756765 526.45938,87.7802712 526.668076,88.1251005 C526.876773,88.4699298 527.027496,88.820501 527.12025,89.1768246 L525.050685,89.8664798 C524.946337,89.5101562 524.746339,89.1825732 524.450685,88.8837212 C524.155031,88.5848691 523.723152,88.4354453 523.155033,88.4354453 Z M533.595613,93.2285487 C533.873875,93.2285487 534.146336,93.1768251 534.413004,93.0733763 C534.679672,92.9699275 534.911554,92.8176302 535.108656,92.6164798 C535.305759,92.4153293 535.465177,92.1653318 535.586917,91.8664798 C535.708657,91.5676277 535.769526,91.2170565 535.769526,90.8147556 C535.769526,90.4124548 535.708657,90.0618836 535.586917,89.7630315 C535.465177,89.4641794 535.305759,89.2141819 535.108656,89.0130315 C534.911554,88.8118811 534.679672,88.6595837 534.413004,88.5561349 C534.146336,88.4526862 533.873875,88.4009625 533.595613,88.4009625 C533.31735,88.4009625 533.044889,88.4526862 532.778221,88.5561349 C532.511553,88.6595837 532.279672,88.8118811 532.082569,89.0130315 C531.885467,89.2141819 531.726048,89.4641794 531.604308,89.7630315 C531.482569,90.0618836 531.4217,90.4124548 531.4217,90.8147556 C531.4217,91.2170565 531.482569,91.5676277 531.604308,91.8664798 C531.726048,92.1653318 531.885467,92.4153293 532.082569,92.6164798 C532.279672,92.8176302 532.511553,92.9699275 532.778221,93.0733763 C533.044889,93.1768251 533.31735,93.2285487 533.595613,93.2285487 Z M533.595613,86.3147556 C534.233297,86.3147556 534.827494,86.4268235 535.378221,86.6509625 C535.928949,86.8751016 536.404306,87.1854433 536.804308,87.581997 C537.20431,87.9785507 537.517351,88.4526839 537.743439,89.0044108 C537.969527,89.5561377 538.082569,90.1595799 538.082569,90.8147556 C538.082569,91.4699313 537.969527,92.0705 537.743439,92.6164798 C537.517351,93.1624595 537.20431,93.6365927 536.804308,94.0388936 C536.404306,94.4411944 535.928949,94.7544097 535.378221,94.9785487 C534.827494,95.2026878 534.233297,95.3147556 533.595613,95.3147556 C532.957928,95.3147556 532.363731,95.2026878 531.813004,94.9785487 C531.262277,94.7544097 530.786919,94.4411944 530.386917,94.0388936 C529.986915,93.6365927 529.673875,93.1624595 529.447787,92.6164798 C529.221699,92.0705 529.108656,91.4699313 529.108656,90.8147556 C529.108656,90.1595799 529.221699,89.5561377 529.447787,89.0044108 C529.673875,88.4526839 529.986915,87.9785507 530.386917,87.581997 C530.786919,87.1854433 531.262277,86.8751016 531.813004,86.6509625 C532.363731,86.4268235 532.957928,86.3147556 533.595613,86.3147556 Z M540.070975,95.0561349 L540.070975,86.5733763 L542.279671,86.5733763 L542.279671,87.6078591 C542.395613,87.4009615 542.546336,87.2170553 542.731845,87.0561349 C542.917353,86.8952146 543.123148,86.763032 543.349236,86.6595832 C543.575324,86.5561344 543.813003,86.4756755 544.062279,86.4182039 C544.311556,86.3607324 544.552133,86.331997 544.784018,86.331997 C545.375326,86.331997 545.891263,86.4526855 546.331845,86.694066 C546.772426,86.9354465 547.102858,87.2860177 547.323149,87.7457901 C547.659382,87.2285462 548.053581,86.8636073 548.505758,86.6509625 C548.957934,86.4383178 549.468074,86.331997 550.036192,86.331997 C550.430397,86.331997 550.813002,86.3923412 551.184018,86.5130315 C551.555035,86.6337218 551.885466,86.8262486 552.175323,87.0906177 C552.465179,87.3549868 552.697061,87.6911904 552.870975,88.0992384 C553.044889,88.5072864 553.131845,88.9929137 553.131845,89.5561349 L553.131845,95.0561349 L550.888366,95.0561349 L550.888366,90.0216522 C550.888366,89.5618798 550.769527,89.1796997 550.531845,88.8751005 C550.294162,88.5705012 549.908659,88.4182039 549.375323,88.4182039 C548.87677,88.4182039 548.488368,88.5819954 548.210105,88.9095832 C547.931843,89.2371711 547.792714,89.6308453 547.792714,90.0906177 L547.792714,95.0561349 L545.497062,95.0561349 L545.497062,90.0216522 C545.497062,89.5618798 545.375324,89.1796997 545.131845,88.8751005 C544.888365,88.5705012 544.50576,88.4182039 543.984018,88.4182039 C543.473871,88.4182039 543.079672,88.5791218 542.80141,88.9009625 C542.523148,89.2228032 542.384018,89.619351 542.384018,90.0906177 L542.384018,95.0561349 L540.070975,95.0561349 Z" id=".com" fill="#102147"></path>
            </g>
        </g>
    </g>
</svg>