<?xml version="1.0" encoding="UTF-8"?>
<svg width="22px" height="22px" viewBox="0 0 22 22" version="1.1" xmlns="http://www.w3.org/2000/svg" xmlns:xlink="http://www.w3.org/1999/xlink">
    <!-- Generator: Sketch 48.2 (47327) - http://www.bohemiancoding.com/sketch -->
    <title>Combined Shape</title>
    <desc>Created with Sketch.</desc>
    <defs></defs>
    <g id="05-05-00---Vet-clinics" stroke="none" stroke-width="1" fill="none" fill-rule="evenodd" transform="translate(-870.000000, -219.000000)">
        <g id="Group-4" transform="translate(313.000000, 195.000000)" stroke="#637396" stroke-width="2">
            <path d="M559,25 C558.447715,25 558,25.4477153 558,26 L558,32 C558,32.5522847 558.447715,33 559,33 L565,33 C565.552285,33 566,32.5522847 566,32 L566,26 C566,25.4477153 565.552285,25 565,25 L559,25 Z M571,25 C570.447715,25 570,25.4477153 570,26 L570,32 C570,32.5522847 570.447715,33 571,33 L577,33 C577.552285,33 578,32.5522847 578,32 L578,26 C578,25.4477153 577.552285,25 577,25 L571,25 Z M559,37 C558.447715,37 558,37.4477153 558,38 L558,44 C558,44.5522847 558.447715,45 559,45 L565,45 C565.552285,45 566,44.5522847 566,44 L566,38 C566,37.4477153 565.552285,37 565,37 L559,37 Z M571,37 C570.447715,37 570,37.4477153 570,38 L570,44 C570,44.5522847 570.447715,45 571,45 L577,45 C577.552285,45 578,44.5522847 578,44 L578,38 C578,37.4477153 577.552285,37 577,37 L571,37 Z" id="Combined-Shape"></path>
        </g>
    </g>
</svg>