<?xml version="1.0" encoding="UTF-8"?>
<svg width="27px" height="36px" viewBox="0 0 27 36" version="1.1" xmlns="http://www.w3.org/2000/svg" xmlns:xlink="http://www.w3.org/1999/xlink">
    <!-- Generator: Sketch 50.2 (55047) - http://www.bohemiancoding.com/sketch -->
    <title>Group 24</title>
    <desc>Created with Sketch.</desc>
    <defs></defs>
    <g id="Page-1" stroke="none" stroke-width="1" fill="none" fill-rule="evenodd">
        <g id="04-01---Product" transform="translate(-1126.000000, -607.000000)">
            <g id="Group-13" transform="translate(71.000000, 146.000000)">
                <g id="Stacked-Group" transform="translate(689.000000, 0.000000)">
                    <g id="Stacked-Group-2" transform="translate(0.000000, 192.000000)">
                        <g id="Stacked-Group-4" transform="translate(0.000000, 252.000000)">
                            <g id="Group-5" transform="translate(304.000000, 0.000000)">
                                <g id="Group-23" transform="translate(1.000000, 0.000000)">
                                    <g id="Group-24" transform="translate(61.000000, 17.000000)">
                                        <path d="M13.5,0 C19.3497716,3.94775442 23.8497716,5.92163163 27,5.92163163 C27,5.92163163 27,12.3934344 27,20.3040302 C27,26.0093914 22.5,31.2413814 13.5,36 L13.5,0 Z" id="Rectangle-7" fill="#E0EDFF"></path>
                                        <path d="M1,6.86239094 C1,7.36194236 1,8.1876847 1,10.0318852 C1,14.3983027 1,14.3983027 1,20.3040302 C1,25.5349304 5.10559253,30.4024377 13.4964896,34.8680773 C21.891212,30.3344625 26,25.4648214 26,20.3040302 C26,16.1611507 26,16.1611507 26,12.613469 C26,9.76952207 26,9.76952207 26,7.76194986 C26,7.37414516 26,7.0862222 26,6.86673885 C22.8171964,6.52885373 18.6687687,4.63193065 13.493093,1.19859872 C8.21054881,4.61875673 4.0702655,6.5129925 1,6.86239093 Z" id="Rectangle-7" stroke="#2380FF" stroke-width="2"></path>
                                        <text id="$" font-family="NexaBold, Nexa Bold" font-size="14" font-weight="bold" letter-spacing="0.2296875" fill="#2380FF">
                                            <tspan x="8.59272863" y="22.1379347">$</tspan>
                                        </text>
                                    </g>
                                </g>
                            </g>
                        </g>
                    </g>
                </g>
            </g>
        </g>
    </g>
</svg>