<svg xmlns="http://www.w3.org/2000/svg" xmlns:xlink="http://www.w3.org/1999/xlink" width="50" height="52" viewBox="0 0 50 52">
    <defs>
        <path id="a" d="M12.842 12.308c.584 0 1.202.232 1.854.688.64.448 1.175.992 1.604 1.632.437.65.66 1.255.66 1.814 0 .24-.048.448-.145.62a.93.93 0 0 1-.434.396c-.16.072-.326.123-.495.15-.162.027-.345.04-.55.04-.34 0-.786-.105-1.347-.313-.513-.19-.899-.283-1.147-.283-.265 0-.674.093-1.22.281-.591.205-1.065.308-1.43.308-.941 0-1.468-.413-1.468-1.2 0-.42.137-.88.405-1.377.262-.485.588-.927.979-1.327.39-.4.83-.737 1.317-1.008.5-.28.973-.421 1.417-.421zm0 .464c-.356 0-.751.119-1.185.361a5.27 5.27 0 0 0-1.21.926c-.36.369-.661.777-.902 1.223-.235.435-.35.822-.35 1.16 0 .503.295.735.998.735.301 0 .728-.093 1.273-.282.592-.204 1.047-.308 1.376-.308.317 0 .751.105 1.312.313.513.19.91.283 1.182.283.18 0 .339-.01.473-.033.128-.02.253-.059.375-.114a.463.463 0 0 0 .22-.2.794.794 0 0 0 .085-.394c0-.457-.191-.977-.581-1.558a5.71 5.71 0 0 0-1.484-1.509c-.578-.405-1.106-.603-1.582-.603zm-.118-3.035c0 .295-.048.575-.144.84-.1.276-.267.515-.497.715-.244.212-.539.32-.874.32-.407 0-.778-.152-1.103-.447-.31-.281-.54-.614-.69-.995a2.989 2.989 0 0 1-.221-1.096c0-.294.048-.574.144-.839.1-.276.266-.516.497-.716.244-.212.539-.319.874-.319.412 0 .784.151 1.107.447.307.28.536.612.686.99.147.373.221.74.221 1.1zm-.47 0c0-.3-.063-.61-.19-.93a2.187 2.187 0 0 0-.567-.82 1.132 1.132 0 0 0-.787-.323.823.823 0 0 0-.563.204 1.247 1.247 0 0 0-.365.524c-.078.213-.117.44-.117.682 0 .296.063.605.19.928.124.315.313.588.57.821.24.218.498.324.784.324a.823.823 0 0 0 .563-.204c.171-.148.292-.322.365-.523.078-.214.117-.44.117-.683zm-1.883 2.857c0 .347-.098.655-.294.916-.211.28-.516.423-.892.423-.355 0-.686-.123-.985-.362a2.333 2.333 0 0 1-.658-.828 2.203 2.203 0 0 1-.23-.948c0-.347.099-.655.295-.918.21-.282.516-.427.892-.427.355 0 .686.123.985.363.285.229.505.506.658.83.152.323.23.64.23.951zm-.47 0c0-.24-.061-.491-.185-.754a1.861 1.861 0 0 0-.53-.667 1.075 1.075 0 0 0-.687-.258c-.23 0-.394.077-.514.238-.135.18-.202.392-.202.642 0 .24.06.49.185.751.122.259.298.48.529.664.217.175.444.259.688.259.23 0 .394-.077.514-.236.134-.18.202-.39.202-.639zm4.809-.983c-.335 0-.63-.107-.874-.319-.23-.2-.397-.44-.498-.716a2.443 2.443 0 0 1-.143-.839c0-.36.074-.727.221-1.1.15-.378.379-.71.685-.99A1.604 1.604 0 0 1 15.21 7.2c.335 0 .63.107.874.32.23.2.397.439.497.715.096.265.144.545.144.839 0 .356-.074.721-.221 1.096-.15.381-.38.714-.69.995-.325.295-.696.446-1.103.446zm0-.464c.285 0 .544-.106.785-.324.256-.233.445-.506.569-.821.127-.323.19-.632.19-.928 0-.242-.04-.469-.117-.682a1.247 1.247 0 0 0-.365-.524.823.823 0 0 0-.563-.204c-.29 0-.55.106-.788.324a2.187 2.187 0 0 0-.567.819c-.126.32-.189.63-.189.93 0 .242.039.47.116.683.074.201.194.375.365.523a.823.823 0 0 0 .564.204zm2.71-.464c.376 0 .681.144.892.427.196.262.294.57.294.917 0 .311-.077.628-.229.948-.153.323-.373.6-.658.828-.3.24-.63.362-.985.362-.376 0-.68-.143-.892-.423a1.485 1.485 0 0 1-.294-.916c0-.31.076-.628.228-.95.153-.325.374-.602.66-.831.298-.24.629-.362.984-.362zm0 .464c-.244 0-.471.084-.688.258-.23.185-.406.406-.529.667a1.766 1.766 0 0 0-.185.754c0 .25.067.46.202.639.12.16.283.236.514.236.244 0 .47-.084.688-.258.23-.185.406-.406.53-.665.123-.26.184-.51.184-.75 0-.25-.068-.462-.203-.643-.12-.16-.283-.238-.513-.238z"/>
        <filter id="b" width="122.1%" height="123.9%" x="-11.1%" y="-12%" filterUnits="objectBoundingBox">
            <feGaussianBlur in="SourceAlpha" result="shadowBlurInner1" stdDeviation=".5"/>
            <feOffset dy="1" in="shadowBlurInner1" result="shadowOffsetInner1"/>
            <feComposite in="shadowOffsetInner1" in2="SourceAlpha" k2="-1" k3="1" operator="arithmetic" result="shadowInnerInner1"/>
            <feColorMatrix in="shadowInnerInner1" values="0 0 0 0 0.229120283 0 0 0 0 0.308873638 0 0 0 0 0.487988946 0 0 0 0.218721694 0"/>
        </filter>
        <path id="c" d="M15.805 15.385c.72 0 1.48.29 2.283.86a7.666 7.666 0 0 1 1.974 2.04c.537.814.81 1.569.81 2.267 0 .3-.057.56-.177.775a1.152 1.152 0 0 1-.534.495c-.198.09-.4.154-.609.188-.199.033-.425.05-.678.05-.417 0-.966-.132-1.657-.391-.63-.238-1.106-.355-1.412-.355-.325 0-.83.117-1.5.353-.729.255-1.312.384-1.76.384-1.16 0-1.807-.516-1.807-1.499 0-.527.168-1.1.498-1.722a7.39 7.39 0 0 1 1.204-1.659c.481-.5 1.022-.92 1.622-1.26.616-.349 1.197-.526 1.743-.526zm0 .58c-.438 0-.924.149-1.458.451a6.497 6.497 0 0 0-1.49 1.158c-.443.46-.813.97-1.11 1.529-.289.543-.43 1.027-.43 1.45 0 .628.363.918 1.228.918.37 0 .896-.116 1.568-.352.727-.256 1.288-.385 1.692-.385.39 0 .925.132 1.616.391.631.237 1.119.354 1.453.354.223 0 .418-.014.584-.041.156-.026.31-.074.461-.143a.573.573 0 0 0 .27-.251c.068-.122.105-.284.105-.492 0-.571-.236-1.22-.715-1.947a7.086 7.086 0 0 0-1.826-1.886c-.712-.506-1.362-.754-1.948-.754zm-.145-3.793c0 .368-.058.718-.177 1.048a2.14 2.14 0 0 1-.611.895c-.301.265-.664.4-1.076.4-.502 0-.958-.19-1.358-.56a3.287 3.287 0 0 1-.85-1.243 3.787 3.787 0 0 1-.271-1.37c0-.368.059-.717.177-1.048a2.14 2.14 0 0 1 .612-.895c.3-.265.663-.399 1.075-.399.507 0 .966.19 1.364.56.377.35.659.763.843 1.237.181.466.272.924.272 1.375zm-.579 0c0-.376-.077-.764-.233-1.164a2.735 2.735 0 0 0-.697-1.023c-.293-.273-.612-.405-.97-.405-.273 0-.5.084-.693.255a1.56 1.56 0 0 0-.45.654c-.094.267-.142.551-.142.853 0 .37.077.757.233 1.16.152.394.385.736.7 1.027.297.273.615.405.967.405.273 0 .5-.084.693-.255.21-.185.36-.402.45-.654.094-.267.142-.551.142-.853zm-2.316 3.57c0 .434-.121.819-.363 1.145-.26.35-.635.53-1.098.53-.437 0-.844-.154-1.212-.453a2.91 2.91 0 0 1-.81-1.035A2.789 2.789 0 0 1 9 14.744c0-.434.12-.819.362-1.147.26-.353.635-.534 1.098-.534.437 0 .844.153 1.212.453.352.286.623.633.811 1.039.187.402.282.799.282 1.188zm-.58 0c0-.3-.075-.614-.227-.942a2.321 2.321 0 0 0-.651-.834c-.267-.217-.547-.323-.847-.323-.283 0-.484.097-.632.298-.166.226-.249.49-.249.803 0 .3.075.612.227.939.151.323.368.599.652.83.267.218.546.323.846.323.284 0 .486-.096.633-.295.166-.224.248-.487.248-.798zm5.92-1.228c-.413 0-.776-.134-1.077-.399a2.14 2.14 0 0 1-.611-.895 3.096 3.096 0 0 1-.177-1.048c0-.45.09-.91.272-1.375.184-.474.466-.887.843-1.238.398-.37.857-.559 1.364-.559.412 0 .775.134 1.075.399.284.25.489.55.612.895.118.33.177.68.177 1.048 0 .445-.09.902-.272 1.37a3.287 3.287 0 0 1-.849 1.244c-.4.369-.856.558-1.358.558zm0-.58c.35 0 .67-.132.965-.405.316-.291.549-.633.701-1.027a3.21 3.21 0 0 0 .233-1.16c0-.302-.048-.586-.143-.853a1.56 1.56 0 0 0-.45-.654 1.004 1.004 0 0 0-.692-.255c-.358 0-.677.132-.97.405a2.735 2.735 0 0 0-.697 1.023c-.156.4-.233.788-.233 1.164 0 .302.048.586.143.853.09.252.238.469.449.654.194.171.42.255.693.255zm3.335-.58c.463 0 .839.18 1.098.533.241.328.362.714.362 1.147 0 .389-.095.784-.282 1.185a2.91 2.91 0 0 1-.81 1.035c-.368.3-.775.452-1.212.452-.463 0-.838-.178-1.098-.529a1.876 1.876 0 0 1-.363-1.144c0-.389.095-.785.282-1.188.188-.406.46-.753.81-1.039.369-.3.776-.453 1.213-.453zm0 .58c-.3 0-.58.105-.847.322-.284.231-.5.508-.65.834a2.235 2.235 0 0 0-.228.943c0 .312.082.574.248.798.147.2.349.295.633.295.3 0 .579-.105.846-.323.284-.23.5-.507.652-.83.152-.326.227-.639.227-.94 0-.311-.083-.576-.25-.802-.147-.2-.348-.297-.631-.297z"/>
        <filter id="d" width="118%" height="119.1%" x="-9%" y="-9.6%" filterUnits="objectBoundingBox">
            <feGaussianBlur in="SourceAlpha" result="shadowBlurInner1" stdDeviation=".5"/>
            <feOffset dy="1" in="shadowBlurInner1" result="shadowOffsetInner1"/>
            <feComposite in="shadowOffsetInner1" in2="SourceAlpha" k2="-1" k3="1" operator="arithmetic" result="shadowInnerInner1"/>
            <feColorMatrix in="shadowInnerInner1" values="0 0 0 0 0.229120283 0 0 0 0 0.308873638 0 0 0 0 0.487988946 0 0 0 0.218721694 0"/>
        </filter>
    </defs>
    <g fill="none" fill-rule="evenodd">
        <path fill="#2380FF" d="M37 35.993c8.667-10.75 13-18.48 13-23.193C50 5.73 44.18 0 37 0S24 5.73 24 12.8c0 4.713 4.333 12.444 13 23.193z"/>
        <g fill-rule="nonzero" transform="translate(24)">
            <use fill="#FFF" fill-rule="evenodd" xlink:href="#a"/>
            <use fill="#000" filter="url(#b)" xlink:href="#a"/>
            <use stroke="#FFF" stroke-width=".5" xlink:href="#a"/>
        </g>
        <g>
            <path fill="#2380FF" stroke="#F4F4F4" stroke-width="2" d="M17 49.991C27.667 36.555 33 26.891 33 21c0-8.837-7.163-16-16-16S1 12.163 1 21c0 5.891 5.333 15.555 16 28.991z"/>
            <g fill-rule="nonzero" transform="translate(1 5)">
                <use fill="#FFF" fill-rule="evenodd" xlink:href="#c"/>
                <use fill="#000" filter="url(#d)" xlink:href="#c"/>
                <use stroke="#FFF" stroke-width=".5" xlink:href="#c"/>
            </g>
        </g>
    </g>
</svg>
