<svg xmlns="http://www.w3.org/2000/svg" width="40" height="40" viewBox="0 0 40 40">
    <g fill="none" fill-rule="nonzero">
        <path fill="#E0EDFF" d="M1.497 27.607A17.114 17.114 0 0 0 14.854 34C24.324 34 32 26.324 32 16.854 32 8.586 26.148 1.684 18.36.066A20.27 20.27 0 0 1 20 0c11.045 0 20 8.954 20 20s-8.955 20-20 20c-8.353 0-15.51-5.12-18.503-12.393z"/>
        <path fill="#2380FF" d="M20 0c11.045 0 20 8.954 20 20s-8.955 20-20 20S0 31.046 0 20 8.955 0 20 0zm0 36.364c9.037 0 16.364-7.327 16.364-16.364S29.037 3.636 20 3.636 3.636 10.963 3.636 20 10.963 36.364 20 36.364zm7.402-21.287c.71.71.71 1.862 0 2.572l-7.714 7.713c-.71.71-1.862.71-2.572 0l-3.856-3.856a1.819 1.819 0 0 1 2.57-2.571l2.572 2.57 6.428-6.428a1.82 1.82 0 0 1 2.572 0z"/>
    </g>
</svg>
