<?xml version="1.0" encoding="UTF-8"?>
<svg width="65px" height="70px" viewBox="0 0 65 70" version="1.1" xmlns="http://www.w3.org/2000/svg" xmlns:xlink="http://www.w3.org/1999/xlink">
    <!-- Generator: Sketch 48.2 (47327) - http://www.bohemiancoding.com/sketch -->
    <title>Group 37</title>
    <desc>Created with Sketch.</desc>
    <defs></defs>
    <g id="home-page-3" stroke="none" stroke-width="1" fill="none" fill-rule="evenodd" transform="translate(-161.000000, -791.000000)">
        <g id="Group-7" transform="translate(130.000000, 554.000000)">
            <g id="Group-6" transform="translate(0.000000, 190.000000)">
                <g id="Group-5">
                    <g id="Group-27" transform="translate(23.000000, 41.000000)">
                        <g id="Group-37" transform="translate(5.000000, 5.000000)">
                            <g id="Group-34" transform="translate(27.178606, 29.383022) rotate(40.000000) translate(-27.178606, -29.383022) translate(16.678606, 0.883022)">
                                <path d="M2.46655593,0.00398209088 L9.3812632,0.370468684 L9.3812632,48.8028509 L9.3812632,52.0438173 C9.3812632,54.0747501 8.20942801,55.92336 6.37267218,56.789972 L6.39298706,34.8856281 L5.85725179,32.3217343 C5.14839512,28.9293271 5.03271522,25.4397464 5.51534535,22.0078413 C6.99387147,11.49428 7.12457713,5.25344414 5.90746235,3.2853337 C4.50702837,1.02079072 3.36005956,-0.0729931525 2.46655593,0.00398209088 Z" id="Rectangle-15" fill="#E0EDFF"></path>
                                <path d="M2.3812632,33.6654243 C0.580826217,29.111684 -0.344002989,24.258409 -0.344002989,19.3604986 L-0.344002989,5.37046868 C-0.344002989,2.05676019 2.34228851,-0.629531316 5.65599701,-0.629531316 L10.3812632,-0.629531316 L10.3812632,52.3704687 C10.3812632,54.5796077 8.5904022,56.3704687 6.3812632,56.3704687 C4.1721242,56.3704687 2.3812632,54.5796077 2.3812632,52.3704687 L2.3812632,33.6654243 Z" id="Rectangle-15" stroke="#2380FF" stroke-width="2"></path>
                                <path d="M14,6 L18.8929188,6 C20.2479549,6 21.3464286,7.09847378 21.3464286,8.45350985 C21.3464286,9.80854592 20.2479549,10.9070197 18.8929188,10.9070197 L14,10.9070197 L14,6 Z" id="Rectangle-15" stroke="#2380FF" stroke-width="2"></path>
                                <path d="M14,15 L18.8929188,15 C20.2479549,15 21.3464286,16.0984738 21.3464286,17.4535098 C21.3464286,18.8085459 20.2479549,19.9070197 18.8929188,19.9070197 L14,19.9070197 L14,15 Z" id="Rectangle-15" stroke="#2380FF" stroke-width="2"></path>
                                <path d="M14,24 L18.8929188,24 C20.2479549,24 21.3464286,25.0984738 21.3464286,26.4535098 C21.3464286,27.8085459 20.2479549,28.9070197 18.8929188,28.9070197 L14,28.9070197 L14,24 Z" id="Rectangle-15" stroke="#2380FF" stroke-width="2"></path>
                            </g>
                            <g id="Group-36" transform="translate(23.000000, 25.000000)">
                                <g id="Group-35" transform="translate(23.000000, 18.500000) rotate(70.000000) translate(-23.000000, -18.500000) translate(17.000000, -3.000000)">
                                    <path d="M8.35846346,0.0856215258 L8.35846346,38.9434558" id="Path-4" stroke="#2380FF" stroke-width="2" stroke-linecap="round"></path>
                                    <polygon id="Rectangle-17" fill="#2380FF" points="9 14 11.714945 25.3412563 9 32"></polygon>
                                    <path d="M8.32445226,27.9846658 L8.32445226,39.4846658 C8.32445226,41.9699472 6.30973364,43.9846658 3.82445226,43.9846658 C1.33917089,43.9846658 -0.675547736,41.9699472 -0.675547736,39.4846658 L-0.675547736,35.9846658 C-0.675547736,31.5663878 2.90617427,27.9846658 7.32445226,27.9846658 L8.32445226,27.9846658 Z" id="Rectangle-16" stroke="#2380FF" stroke-width="2"></path>
                                </g>
                                <g id="Group-35" transform="translate(26.000000, 22.500000) scale(-1, 1) rotate(-22.000000) translate(-26.000000, -22.500000) translate(20.000000, 1.000000)">
                                    <path d="M8.35846346,0.0856215258 L8.35846346,38.9434558" id="Path-4" stroke="#2380FF" stroke-width="2" stroke-linecap="round"></path>
                                    <polygon id="Rectangle-17" fill="#2380FF" points="9 14 11.714945 25.3412563 9 32"></polygon>
                                    <path d="M8.32445226,27.9846658 L8.32445226,39.4846658 C8.32445226,41.9699472 6.30973364,43.9846658 3.82445226,43.9846658 C1.33917089,43.9846658 -0.675547736,41.9699472 -0.675547736,39.4846658 L-0.675547736,35.9846658 C-0.675547736,31.5663878 2.90617427,27.9846658 7.32445226,27.9846658 L8.32445226,27.9846658 Z" id="Rectangle-16" stroke="#2380FF" stroke-width="2"></path>
                                </g>
                            </g>
                        </g>
                    </g>
                </g>
            </g>
        </g>
    </g>
</svg>