<?xml version="1.0" encoding="UTF-8"?>
<svg width="67px" height="52px" viewBox="0 0 67 52" version="1.1" xmlns="http://www.w3.org/2000/svg" xmlns:xlink="http://www.w3.org/1999/xlink">
    <!-- Generator: Sketch 48.2 (47327) - http://www.bohemiancoding.com/sketch -->
    <title>Group 27</title>
    <desc>Created with Sketch.</desc>
    <defs></defs>
    <g id="home-page-3" stroke="none" stroke-width="1" fill="none" fill-rule="evenodd" transform="translate(-157.000000, -612.000000)">
        <g id="Group-7" transform="translate(130.000000, 554.000000)">
            <g id="Group-6">
                <g id="Group-5">
                    <g id="Group-27" transform="translate(23.000000, 41.000000)">
                        <rect id="Rectangle-6" x="0" y="0" width="80" height="80"></rect>
                        <path d="M20.2409639,33.8823529 C23.4348998,33.8823529 26.0240964,30.5113205 26.0240964,26.3529412 C26.0240964,22.1945619 22.9989863,18.3960136 19.8050504,18.3960136 C16.6111145,18.3960136 22.6153427,20.5209397 22.6153427,26.686955 C22.6153427,32.8529703 17.047028,33.8823529 20.2409639,33.8823529 Z" id="Oval-6" fill="#E0EDFF"></path>
                        <path d="M11.4842679,44.2352941 C14.4873145,44.2352941 16.9217648,41.5719421 16.9217648,38.2865308 C16.9217648,35.0011195 14.0774539,32 11.0744073,32 C8.07136073,32 13.7167393,33.6788407 13.7167393,38.5504252 C13.7167393,43.4220096 8.48122135,44.2352941 11.4842679,44.2352941 Z" id="Oval-6" fill="#E0EDFF"></path>
                        <path d="M41.9819985,23.6375414 C40.884277,20.6510493 38.6652488,18.3960136 36.1905925,18.3960136 C33.3872417,18.3960136 37.6699321,20.0330048 38.7593122,24.602633 C38.80184,24.7810249 41.9875521,23.6526506 41.9819985,23.6375414 Z" id="Oval-6" fill="#E0EDFF"></path>
                        <g id="Group-26" transform="translate(4.819277, 17.326719)">
                            <path d="M27.314522,22.1793576 L27.314522,24.3451981 C25.4459582,23.2116936 23.7188983,22.6545589 22.1341817,22.6545589 C20.7097458,22.6545589 19.1285307,23.1370779 17.3902248,24.1214826 C15.5989954,25.1358578 13.9850365,26.3903641 12.5461807,27.8868714 C11.1045696,29.3862443 9.901488,31.0434652 8.93530911,32.8604478 C7.99568748,34.6274871 7.53504056,36.1999402 7.53504056,37.5741968 C7.53504056,39.6205483 8.71778565,40.5624849 11.5306724,40.5624849 C12.7365373,40.5624849 14.4448206,40.1840125 16.6288929,39.4170656 C18.9959417,38.5858657 20.817862,38.1654418 22.1341817,38.1654418 C23.3908471,38.1654418 25.1042511,38.5837491 27.314522,39.4096484 L27.314522,41.4201069 C27.1224313,41.3517509 26.9267396,41.2801076 26.7274246,41.2051849 C24.6747508,40.4335829 23.129839,40.0533217 22.1341817,40.0533217 C21.0761787,40.0533217 19.435545,40.4319121 17.2518087,41.198741 C14.8850959,42.0298229 12.9869269,42.4503648 11.5306724,42.4503648 C7.76020995,42.4503648 5.65128042,40.7708161 5.65128042,37.5741968 C5.65128042,35.860128 6.19792191,33.9941259 7.2728771,31.9725802 C8.32127503,30.0009777 9.62742079,28.201788 11.1896876,26.5769249 C12.7547097,24.9491961 14.5133683,23.582217 16.4634959,22.4778575 C18.4665469,21.3435274 20.3568794,20.766679 22.1341817,20.766679 C23.7925176,20.766679 25.5191241,21.2415512 27.314522,22.1793576 Z M27.314522,17.4353008 C26.8861873,17.2312494 26.4848814,16.9650019 26.112973,16.6371374 C25.1907968,15.8241713 24.5238331,14.8501915 24.1225301,13.7263137 C23.7385967,12.6510806 23.5470018,11.5127381 23.5470018,10.3160297 C23.5470018,8.85090061 23.8439596,7.35936798 24.4331648,5.84548068 C25.0328928,4.30455619 25.9495501,2.95942015 27.1764229,1.81854313 C28.4697393,0.615879772 29.961267,-4.26325641e-14 31.610928,-4.26325641e-14 C32.9514046,-4.26325641e-14 34.1318372,0.436076878 35.1092315,1.29772176 C36.0314078,2.11068781 36.6983715,3.0846676 37.0996744,4.20854539 C37.3361394,4.87078246 37.4996438,5.55695902 37.5903614,6.26596688 C36.945907,6.44229787 36.3353825,6.63413175 35.7577997,6.83935974 C35.6967742,6.14382489 35.5527629,5.47953133 35.3260566,4.84462405 C35.0334166,4.02506463 34.5498959,3.31897019 33.8650464,2.715225 C33.2354149,2.16015865 32.4983735,1.88787991 31.610928,1.88787991 C30.4482939,1.88787991 29.4105821,2.3163706 28.4577147,3.20244817 C27.4384037,4.15031207 26.6841194,5.25717625 26.188148,6.53151128 C25.6816537,7.83288348 25.4307619,9.09303999 25.4307619,10.3160297 C25.4307619,11.298877 25.5861384,12.222031 25.896148,13.0902351 C26.182686,13.8927056 26.6522275,14.5863936 27.3145806,15.1817338 C27.3145416,15.1892585 27.314522,15.196776 27.314522,15.2042862 L27.314522,17.4353008 Z M21.6632416,10.3160297 C21.6632416,11.5127381 21.4716466,12.6510806 21.0877132,13.7263137 C20.6864103,14.8501915 20.0194466,15.8241713 19.0972704,16.6371374 C18.119876,17.4987822 16.9394434,17.9348591 15.5989668,17.9348591 C13.9676768,17.9348591 12.4823401,17.3193135 11.1809498,16.1189017 C9.94307899,14.9770807 9.02060123,13.6257739 8.42046225,12.0738453 C7.83190614,10.5518694 7.53504056,9.06572132 7.53504056,7.61882944 C7.53504056,6.422121 7.72663554,5.28377855 8.11056895,4.20854539 C8.5118719,3.0846676 9.1788356,2.11068781 10.1010118,1.29772176 C11.0784062,0.436076878 12.2588388,-4.26325641e-14 13.5993154,-4.26325641e-14 C15.2489764,-4.26325641e-14 16.7405041,0.615879772 18.0338205,1.81854313 C19.2606933,2.95942015 20.1773506,4.30455619 20.7770786,5.84548068 C21.3662838,7.35936798 21.6632416,8.85090061 21.6632416,10.3160297 Z M19.7794815,10.3160297 C19.7794815,9.09303999 19.5285896,7.83288348 19.0220954,6.53151128 C18.526124,5.25717625 17.7718396,4.15031207 16.7525287,3.20244817 C15.7996613,2.3163706 14.7619495,1.88787991 13.5993154,1.88787991 C12.7118698,1.88787991 11.9748285,2.16015865 11.345197,2.715225 C10.6603474,3.31897019 10.1768268,4.02506463 9.88418676,4.84462405 C9.57417721,5.71282809 9.4188007,6.63598213 9.4188007,7.61882944 C9.4188007,8.82373039 9.66978483,10.0801899 10.1769281,11.3916365 C10.6724886,12.6731304 11.4300832,13.7829053 12.4566579,14.7298253 C13.4197131,15.6181543 14.454485,16.0469792 15.5989668,16.0469792 C16.4864123,16.0469792 17.2234537,15.7747005 17.8530852,15.2196341 C18.5379347,14.6158889 19.0214554,13.9097945 19.3140954,13.0902351 C19.624105,12.222031 19.7794815,11.298877 19.7794815,10.3160297 Z M12.2444409,21.9308716 C12.2444409,23.3411174 11.8510387,24.5919008 11.0652454,25.6523523 C10.2203731,26.7925326 8.99904134,27.3742587 7.49418275,27.3742587 C6.07293731,27.3742587 4.74950292,26.8755823 3.5532411,25.9018094 C2.41061229,24.9716944 1.52929148,23.8470143 0.916742991,22.5355792 C0.308404044,21.2331565 0,19.9464622 0,18.6812709 C0,17.2720245 0.392794794,16.0186801 1.1769362,14.9514898 C2.02132889,13.8022996 3.2436691,13.2151593 4.75025816,13.2151593 C6.17150361,13.2151593 7.49493799,13.7138357 8.69119981,14.6876086 C9.83457763,15.6183333 10.7161951,16.7476057 11.3286731,18.0672954 C11.9363368,19.3766121 12.2444409,20.6662835 12.2444409,21.9308716 Z M10.3606808,21.9308716 C10.3606808,20.9533109 10.116846,19.9326601 9.62063206,18.8634812 C9.1292323,17.8046754 8.42599679,16.9038942 7.50354633,16.1530073 C6.63397987,15.4451687 5.72600431,15.1030393 4.75025816,15.1030393 C3.82831627,15.1030393 3.17406437,15.4173034 2.69380381,16.0709219 C2.15329197,16.8065405 1.88376014,17.6665727 1.88376014,18.6812709 C1.88376014,19.6582283 2.12729495,20.6742814 2.62283371,21.7352046 C3.11416293,22.7871154 3.81769512,23.6849141 4.74089459,24.4364107 C5.61046105,25.1442493 6.5184366,25.4863787 7.49418275,25.4863787 C8.41785512,25.4863787 9.07311542,25.1742752 9.55289641,24.5267964 C10.0917564,23.7995888 10.3606808,22.9445703 10.3606808,21.9308716 Z" id="Combined-Shape" fill="#2380FF" fill-rule="nonzero"></path>
                            <path d="M48.1927711,9.14691368 C53.3560838,8.76953192 56.8869169,8.98714808 58.7852706,9.79976213 C60.6836243,10.6123762 62.6146385,12.5073303 64.5783133,15.4846246 L64.5783133,44.2352941 C62.0674307,46.5806384 59.8893398,48.0819779 58.0440405,48.7393126 C56.1987412,49.3966473 52.9149847,49.8409337 48.1927711,50.0721716 L48.1927711,20.8639936 C55.2544375,19.203805 58.7852706,17.1507782 58.7852706,14.7049133 C58.7852706,12.2590483 55.2544375,10.4063818 48.1927711,9.14691368 Z" id="Rectangle-7" fill="#E0EDFF"></path>
                            <g id="if_data_115746" transform="translate(29.397590, 8.412294)" stroke="#2380FF" stroke-width="2">
                                <ellipse id="Oval-5" cx="18.0722892" cy="6.63900159" rx="17.121116" ry="6.63900159"></ellipse>
                                <path d="M35.1934052,22.7622912 C35.1934052,19.0956718 27.5280204,16.1232896 18.0722892,16.1232896 C8.61655787,16.1232896 0.951173114,19.0956718 0.951173114,22.7622912" id="Oval-5" transform="translate(18.072289, 19.442790) scale(1, -1) translate(-18.072289, -19.442790) "></path>
                                <path d="M35.1934052,32.2465791 C35.1934052,28.5799598 27.5280204,25.6075776 18.0722892,25.6075776 C8.61655787,25.6075776 0.951173114,28.5799598 0.951173114,32.2465791" id="Oval-5" transform="translate(18.072289, 28.927078) scale(1, -1) translate(-18.072289, -28.927078) "></path>
                                <path d="M35.1934052,41.7308671 C35.1934052,38.0642478 27.5280204,35.0918655 18.0722892,35.0918655 C8.61655787,35.0918655 0.951173114,38.0642478 0.951173114,41.7308671" id="Oval-5" transform="translate(18.072289, 38.411366) scale(1, -1) translate(-18.072289, -38.411366) "></path>
                                <path d="M0.951173114,6.67870698 L0.951173114,35.310364" id="Path-2"></path>
                                <path d="M35.1934052,6.67870698 L35.1934052,35.310364" id="Path-2"></path>
                            </g>
                        </g>
                    </g>
                </g>
            </g>
        </g>
    </g>
</svg>