<?xml version="1.0" encoding="UTF-8"?>
<svg width="14px" height="14px" viewBox="0 0 14 14" version="1.1" xmlns="http://www.w3.org/2000/svg" xmlns:xlink="http://www.w3.org/1999/xlink">
    <!-- Generator: Sketch 48.2 (47327) - http://www.bohemiancoding.com/sketch -->
    <title>Shape</title>
    <desc>Created with Sketch.</desc>
    <defs></defs>
    <g id="06-00---contact-us" stroke="none" stroke-width="1" fill="none" fill-rule="evenodd" transform="translate(-75.000000, -223.000000)">
        <g id="Stacked-Group-3" transform="translate(70.000000, 116.000000)" fill="#919FBF" fill-rule="nonzero">
            <g id="Stacked-Group" transform="translate(0.000000, 70.000000)">
                <g transform="translate(0.000000, 32.000000)" id="if_ic_local_phone_48px_352510">
                    <g>
                        <g>
                            <path d="M7.81944444,11.0627778 C8.93944444,13.2638889 10.74,15.0644444 12.945,16.1844444 L14.6561111,14.4694444 C14.87,14.2555556 15.1772222,14.1933333 15.4455556,14.2788889 C16.3166667,14.5666667 17.2538889,14.7222222 18.2222222,14.7222222 C18.6538889,14.7222222 19,15.0683333 19,15.5 L19,18.2222222 C19,18.6538889 18.6538889,19 18.2222222,19 C10.9188889,19 5,13.0811111 5,5.77777778 C5,5.34611111 5.35,5 5.77777778,5 L8.5,5 C8.93166667,5 9.27777778,5.34611111 9.27777778,5.77777778 C9.27777778,6.74611111 9.43333333,7.68333333 9.72111111,8.55444444 C9.80666667,8.82277778 9.74444444,9.13 9.53055556,9.34388889 L7.81944444,11.0627778 Z" id="Shape"></path>
                        </g>
                    </g>
                </g>
            </g>
        </g>
    </g>
</svg>