<?xml version="1.0" encoding="UTF-8"?>
<svg width="14px" height="14px" viewBox="0 0 14 14" version="1.1" xmlns="http://www.w3.org/2000/svg" xmlns:xlink="http://www.w3.org/1999/xlink">
    <!-- Generator: Sketch 48.2 (47327) - http://www.bohemiancoding.com/sketch -->
    <title>Shape</title>
    <desc>Created with Sketch.</desc>
    <defs></defs>
    <g id="01-00-01-sign-in-(with-email)" stroke="none" stroke-width="1" fill="none" fill-rule="evenodd" transform="translate(-1036.000000, -35.000000)">
        <g id="Group-4" transform="translate(70.000000, 24.000000)" fill="#FFFFFF" fill-rule="nonzero">
            <g id="Group-18" transform="translate(955.000000, 0.000000)">
                <g id="Group-21">
                    <g id="if_ic_local_phone_48px_352510">
                        <path d="M13.8194444,17.0627778 C14.9394444,19.2638889 16.74,21.0644444 18.945,22.1844444 L20.6561111,20.4694444 C20.87,20.2555556 21.1772222,20.1933333 21.4455556,20.2788889 C22.3166667,20.5666667 23.2538889,20.7222222 24.2222222,20.7222222 C24.6538889,20.7222222 25,21.0683333 25,21.5 L25,24.2222222 C25,24.6538889 24.6538889,25 24.2222222,25 C16.9188889,25 11,19.0811111 11,11.7777778 C11,11.3461111 11.35,11 11.7777778,11 L14.5,11 C14.9316667,11 15.2777778,11.3461111 15.2777778,11.7777778 C15.2777778,12.7461111 15.4333333,13.6833333 15.7211111,14.5544444 C15.8066667,14.8227778 15.7444444,15.13 15.5305556,15.3438889 L13.8194444,17.0627778 Z" id="Shape"></path>
                    </g>
                </g>
            </g>
        </g>
    </g>
</svg>