<?xml version="1.0" encoding="UTF-8"?>
<svg width="14px" height="14px" viewBox="0 0 14 14" version="1.1" xmlns="http://www.w3.org/2000/svg" xmlns:xlink="http://www.w3.org/1999/xlink">
    <!-- Generator: Sketch 48.2 (47327) - http://www.bohemiancoding.com/sketch -->
    <title>Shape</title>
    <desc>Created with Sketch.</desc>
    <defs></defs>
    <g id="05-05-00---Vet-clinics" stroke="none" stroke-width="1" fill="none" fill-rule="evenodd" transform="translate(-515.000000, -558.000000)">
        <g id="Group-7" transform="translate(130.000000, 297.000000)" fill="#919FBF" fill-rule="nonzero">
            <g id="Group-6">
                <g id="Group-5" transform="translate(350.000000, 0.000000)">
                    <g id="Stacked-Group" transform="translate(30.000000, 196.000000)">
                        <g id="Group-12" transform="translate(0.000000, 60.000000)">
                            <g id="Group-18">
                                <g id="Group-21">
                                    <g id="if_ic_local_phone_48px_352510" transform="translate(2.000000, 2.000000)">
                                        <path d="M5.81944444,9.06277778 C6.93944444,11.2638889 8.74,13.0644444 10.945,14.1844444 L12.6561111,12.4694444 C12.87,12.2555556 13.1772222,12.1933333 13.4455556,12.2788889 C14.3166667,12.5666667 15.2538889,12.7222222 16.2222222,12.7222222 C16.6538889,12.7222222 17,13.0683333 17,13.5 L17,16.2222222 C17,16.6538889 16.6538889,17 16.2222222,17 C8.91888889,17 3,11.0811111 3,3.77777778 C3,3.34611111 3.35,3 3.77777778,3 L6.5,3 C6.93166667,3 7.27777778,3.34611111 7.27777778,3.77777778 C7.27777778,4.74611111 7.43333333,5.68333333 7.72111111,6.55444444 C7.80666667,6.82277778 7.74444444,7.13 7.53055556,7.34388889 L5.81944444,9.06277778 Z" id="Shape"></path>
                                    </g>
                                </g>
                            </g>
                        </g>
                    </g>
                </g>
            </g>
        </g>
    </g>
</svg>