<?xml version="1.0" encoding="UTF-8"?>
<svg width="18px" height="25px" viewBox="0 0 18 25" version="1.1" xmlns="http://www.w3.org/2000/svg" xmlns:xlink="http://www.w3.org/1999/xlink">
    <!-- Generator: Sketch 48.2 (47327) - http://www.bohemiancoding.com/sketch -->
    <title>if_94_171453 (1)</title>
    <desc>Created with Sketch.</desc>
    <defs></defs>
    <g id="05-05-00---Vet-clinics" stroke="none" stroke-width="1" fill="none" fill-rule="evenodd" transform="translate(-918.000000, -217.000000)">
        <g id="Group-4" transform="translate(313.000000, 195.000000)" fill-rule="nonzero" stroke="#919FBF" stroke-width="2">
            <g id="if_94_171453-(1)" transform="translate(606.000000, 23.000000)">
                <path d="M7.90866019,11.9376714 C5.72598058,11.9376714 3.95712621,10.1553571 3.95712621,7.9585 C3.95712621,5.76101429 5.72629126,3.97932857 7.90866019,3.97932857 C10.0914951,3.97917143 11.8601942,5.76085714 11.8601942,7.9585 C11.8601942,10.1553571 10.0910291,11.9376714 7.90866019,11.9376714 Z M8.05685437,0 C3.6921165,0 0.153631068,3.56305714 0.153631068,7.9585 C0.153631068,9.89104286 0.838368932,11.6629857 1.97623301,13.0412857 L8.06368932,21.8857571 L14.2401553,12.9122714 C14.3880388,12.7259 14.6082071,12.4011905 14.9006602,11.9381429 C15.5732816,10.7668 15.9600777,9.40877143 15.9600777,7.9585 C15.9600777,3.56305714 12.4219029,0 8.05685437,0 Z" id="Shape"></path>
            </g>
        </g>
    </g>
</svg>