<?xml version="1.0" encoding="UTF-8"?>
<svg width="11px" height="14px" viewBox="0 0 11 14" version="1.1" xmlns="http://www.w3.org/2000/svg" xmlns:xlink="http://www.w3.org/1999/xlink">
    <!-- Generator: Sketch 48.2 (47327) - http://www.bohemiancoding.com/sketch -->
    <title>Shape</title>
    <desc>Created with Sketch.</desc>
    <defs></defs>
    <g id="05-05-00---Vet-clinics" stroke="none" stroke-width="1" fill="none" fill-rule="evenodd" transform="translate(-517.000000, -601.000000)">
        <g id="Group-7" transform="translate(130.000000, 297.000000)" fill="#919FBF" fill-rule="nonzero">
            <g id="Group-6">
                <g id="Group-5" transform="translate(350.000000, 0.000000)">
                    <g id="Stacked-Group" transform="translate(30.000000, 196.000000)">
                        <g id="Group-12" transform="translate(0.000000, 60.000000)">
                            <g id="Group-19" transform="translate(0.000000, 36.000000)">
                                <g id="Group-20" transform="translate(0.000000, 7.000000)">
                                    <path d="M15.1468149,10.0909365 C15.1468149,11.496234 13.91562,12.6363545 12.3968689,12.6363545 C10.8779016,12.6363545 9.64692297,11.496234 9.64692297,10.0909365 C9.64692297,8.68523691 10.8781178,7.54551851 12.3968689,7.54551851 C13.9159443,7.54541799 15.1468149,8.68513639 15.1468149,10.0909365 M18,10.0909365 C18,7.27923575 15.5377184,5 12.5,5 C9.46249779,5 7,7.27923575 7,10.0909365 C7,11.327156 7.47652181,12.460642 8.26838257,13.3423205 L12.5047566,19 L16.8030741,13.2597919 C16.9574464,13.0809633 17.0988462,12.8924845 17.2264088,12.6943557 L17.2698665,12.6366561 L17.2627317,12.6366561 C17.7308214,11.8873651 18,11.018654 18,10.0909365" id="Shape"></path>
                                </g>
                            </g>
                        </g>
                    </g>
                </g>
            </g>
        </g>
    </g>
</svg>