<?xml version="1.0" encoding="UTF-8"?>
<svg width="38px" height="53px" viewBox="0 0 38 53" version="1.1" xmlns="http://www.w3.org/2000/svg" xmlns:xlink="http://www.w3.org/1999/xlink">
    <!-- Generator: Sketch 48.2 (47327) - http://www.bohemiancoding.com/sketch -->
    <title>Group 33</title>
    <desc>Created with Sketch.</desc>
    <defs></defs>
    <g id="home-page-3" stroke="none" stroke-width="1" fill="none" fill-rule="evenodd" transform="translate(-874.000000, -798.000000)">
        <g id="Group-7" transform="translate(130.000000, 554.000000)">
            <g id="Group-6" transform="translate(0.000000, 190.000000)">
                <g id="Group-5" transform="translate(700.000000, 0.000000)">
                    <g id="Group-27" transform="translate(23.000000, 41.000000)">
                        <g id="Group-33" transform="translate(23.000000, 15.000000)">
                            <path d="M30.8375914,39.5976881 C31.7321177,32.095626 32.4105996,21.7935492 32.8730369,8.69145774 L33.8958791,10.7539096 C33.9643653,10.8920047 34,11.0440627 34,11.1982075 L34,45 C34,47.209139 32.209139,49 30,49 L0,49 C12.0562618,49.1448762 20.1146169,48.749426 24.1750652,47.8136497 C28.7829409,46.7517124 30.5914718,41.6618023 30.8375914,39.5976881 Z" id="Rectangle-13" fill="#E0EDFF"></path>
                            <path d="M4,-1 L24.6709659,-1 C25.2754232,-1 25.847454,-0.726627993 26.2271457,-0.256305919 L34.5561798,10.0608263 C34.843363,10.4165587 35,10.8599454 35,11.3171322 L35,45 C35,47.7614237 32.7614237,50 30,50 L4,50 C1.23857625,50 -1,47.7614237 -1,45 L-1,4 C-1,1.23857625 1.23857625,-1 4,-1 Z" id="Rectangle-13" stroke="#2380FF" stroke-width="2"></path>
                            <rect id="Rectangle-14" fill="#2380FF" x="5" y="10" width="19" height="7" rx="1"></rect>
                            <rect id="Rectangle-14" fill="#2380FF" x="5" y="23" width="24" height="2" rx="1"></rect>
                            <rect id="Rectangle-14" fill="#2380FF" x="5" y="28" width="24" height="2" rx="1"></rect>
                            <rect id="Rectangle-14" fill="#2380FF" x="5" y="33" width="24" height="2" rx="1"></rect>
                            <rect id="Rectangle-14" fill="#2380FF" x="5" y="38" width="15" height="2" rx="1"></rect>
                        </g>
                    </g>
                </g>
            </g>
        </g>
    </g>
</svg>