<?xml version="1.0" encoding="UTF-8"?>
<svg width="45px" height="51px" viewBox="0 0 45 51" version="1.1" xmlns="http://www.w3.org/2000/svg" xmlns:xlink="http://www.w3.org/1999/xlink">
    <!-- Generator: Sketch 48.2 (47327) - http://www.bohemiancoding.com/sketch -->
    <title>Group 27</title>
    <desc>Created with Sketch.</desc>
    <defs></defs>
    <g id="home-page-3" stroke="none" stroke-width="1" fill="none" fill-rule="evenodd" transform="translate(-521.000000, -800.000000)">
        <g id="Group-7" transform="translate(130.000000, 554.000000)">
            <g id="Group-6" transform="translate(0.000000, 190.000000)">
                <g id="Group-5" transform="translate(350.000000, 0.000000)">
                    <g id="Group-27" transform="translate(23.000000, 41.000000)">
                        <rect id="Rectangle-6" x="0" y="0" width="80" height="80"></rect>
                        <g id="if_00-ELASTOFONT-STORE-READY_bag_2703085" transform="translate(19.000000, 16.000000)">
                            <path d="M40.019198,17.4361569 C40.019198,12.5676592 36.6176771,13.1159405 34.9108698,12.9390199 C33.7729983,12.8210728 32.6656131,15.2733717 31.5887143,20.2959166 L31.2405832,13.6630539 L36.9911093,13.6630539 C38.024735,13.6630539 38.8880825,14.45067 38.9827103,15.4799551 L41.8721043,46.9084506 C41.9226656,47.458416 41.5178186,47.9452392 40.9678531,47.9958005 C40.9374169,47.9985987 40.9068683,48 40.8763037,48 L0.989649799,48 C13.5746356,48.5359622 23.2459012,47.8257166 30.0034468,45.869263 C36.7609923,43.9128094 40.55674,40.7240674 41.3906898,36.3030371 L26.9477608,34.5456346 C29.9372861,34.6642936 32.9222076,33.5892783 35.9025252,31.3205885 C40.3730017,27.917554 40.019198,19.2647983 40.019198,17.4361569 Z" id="Rectangle-12" fill="#E0EDFF"></path>
                            <path d="M5.97099693,12.6630539 L36.9911093,12.6630539 C38.5415479,12.6630539 39.8365691,13.8444781 39.9785109,15.3884057 L42.8679048,46.8169012 C42.9690275,47.9168321 42.1593334,48.8904784 41.0594025,48.9916011 C40.99853,48.9971974 40.9374329,49 40.8763037,49 L2.08580246,49 C0.981232957,49 0.0858024571,48.1045695 0.0858024571,47 C0.0858024571,46.9388708 0.0886050424,46.8777737 0.094201386,46.8169012 L2.98359532,15.3884057 C3.12553706,13.8444781 4.42055825,12.6630539 5.97099693,12.6630539 Z" id="Rectangle-12" stroke="#2380FF" stroke-width="2"></path>
                            <path d="M13.1737274,19.9212089 C13.1737274,18.657047 13.1737274,15.0941374 13.1737274,9.23248026 C13.1737274,4.3386037 17.1409982,0.371332887 22.0348748,0.371332887 C26.9287514,0.371332887 30.8960222,4.3386037 30.8960222,9.23248026 L30.8960222,19.9212089" id="Rectangle-11" stroke="#2380FF" stroke-width="2" stroke-linecap="round" stroke-linejoin="round"></path>
                            <path d="M1.20600721,35.5293676 L41.9257119,35.5293676" id="Path-3" stroke="#2380FF" stroke-width="2"></path>
                        </g>
                    </g>
                </g>
            </g>
        </g>
    </g>
</svg>