<?xml version="1.0" encoding="UTF-8"?>
<svg width="78px" height="14px" viewBox="0 0 78 14" version="1.1" xmlns="http://www.w3.org/2000/svg" xmlns:xlink="http://www.w3.org/1999/xlink">
    <!-- Generator: Sketch 48.2 (47327) - http://www.bohemiancoding.com/sketch -->
    <title>PetPortal</title>
    <desc>Created with Sketch.</desc>
    <defs></defs>
    <g id="home-page-2" stroke="none" stroke-width="1" fill="none" fill-rule="evenodd" transform="translate(-70.000000, -4325.000000)">
        <g id="Group-25" transform="translate(0.000000, 4167.000000)" fill="#415071">
            <path d="M76.34625,158.4 C78.92025,158.4 80.63025,160.056 80.63025,162.54 C80.63025,164.97 78.84825,166.59 76.18425,166.59 L74.33025,166.59 C74.24025,166.59 74.18625,166.644 74.18625,166.734 L74.18625,170.658 C74.18625,170.874 74.06025,171 73.84425,171 L71.14425,171 C70.92825,171 70.80225,170.874 70.80225,170.658 L70.80225,158.742 C70.80225,158.526 70.92825,158.4 71.14425,158.4 L76.34625,158.4 Z M75.78825,163.89 C76.67025,163.89 77.26425,163.386 77.26425,162.612 C77.26425,161.82 76.67025,161.298 75.78825,161.298 L74.33025,161.298 C74.24025,161.298 74.18625,161.352 74.18625,161.442 L74.18625,163.746 C74.18625,163.836 74.24025,163.89 74.33025,163.89 L75.78825,163.89 Z M86.31375,168.282 C86.96175,168.246 87.55575,168.084 87.93375,167.778 C88.11375,167.634 88.27575,167.634 88.40175,167.814 L89.62575,169.506 C89.75175,169.686 89.73375,169.83 89.58975,169.974 C88.68975,170.802 87.37575,171.144 86.02575,171.144 C84.20775,171.144 82.80375,170.46 81.95775,169.308 C81.38175,168.498 81.05775,167.454 81.05775,166.248 C81.05775,165.69 81.12975,165.204 81.25575,164.736 C81.79575,162.81 83.54175,161.496 85.70175,161.496 C88.23975,161.496 89.75175,163.296 90.21975,165.96 C90.27375,166.248 90.30975,166.536 90.32775,166.824 C90.32775,167.04 90.20175,167.166 89.98575,167.166 L84.63975,167.166 C84.54975,167.166 84.49575,167.22 84.51375,167.328 C84.54975,167.418 84.56775,167.49 84.60375,167.562 C84.85575,168.102 85.50375,168.318 86.31375,168.282 Z M85.62975,164.394 C85.10775,164.394 84.78375,164.664 84.60375,165.114 C84.58575,165.15 84.56775,165.204 84.54975,165.258 C84.51375,165.366 84.58575,165.42 84.67575,165.42 L86.61975,165.42 C86.70975,165.42 86.78175,165.366 86.74575,165.258 C86.72775,165.204 86.70975,165.168 86.69175,165.114 C86.51175,164.682 86.18775,164.394 85.62975,164.394 Z M97.41525,163.998 C97.41525,164.214 97.28925,164.34 97.07325,164.34 L95.70525,164.34 C95.61525,164.34 95.56125,164.394 95.56125,164.484 L95.56125,167.148 C95.56125,167.67 95.72325,168.048 96.20925,168.048 L96.80325,168.048 C97.01925,168.048 97.14525,168.174 97.14525,168.39 L97.14525,170.568 C97.14525,170.784 97.03725,170.892 96.82125,170.91 C96.35325,170.946 95.93925,170.964 95.52525,170.964 C93.50925,170.964 92.33925,170.532 92.32125,168.552 L92.32125,164.484 C92.32125,164.394 92.26725,164.34 92.17725,164.34 L91.33125,164.34 C91.11525,164.34 90.98925,164.214 90.98925,163.998 L90.98925,161.982 C90.98925,161.766 91.11525,161.64 91.33125,161.64 L92.17725,161.64 C92.26725,161.64 92.32125,161.586 92.32125,161.496 L92.32125,159.462 C92.32125,159.246 92.44725,159.12 92.66325,159.12 L95.21925,159.12 C95.43525,159.12 95.56125,159.246 95.56125,159.462 L95.56125,161.496 C95.56125,161.586 95.61525,161.64 95.70525,161.64 L97.07325,161.64 C97.28925,161.64 97.41525,161.766 97.41525,161.982 L97.41525,163.998 Z M104.26875,158.4 C106.84275,158.4 108.55275,160.056 108.55275,162.54 C108.55275,164.97 106.77075,166.59 104.10675,166.59 L102.25275,166.59 C102.16275,166.59 102.10875,166.644 102.10875,166.734 L102.10875,170.658 C102.10875,170.874 101.98275,171 101.76675,171 L99.06675,171 C98.85075,171 98.72475,170.874 98.72475,170.658 L98.72475,158.742 C98.72475,158.526 98.85075,158.4 99.06675,158.4 L104.26875,158.4 Z M103.71075,163.89 C104.59275,163.89 105.18675,163.386 105.18675,162.612 C105.18675,161.82 104.59275,161.298 103.71075,161.298 L102.25275,161.298 C102.16275,161.298 102.10875,161.352 102.10875,161.442 L102.10875,163.746 C102.10875,163.836 102.16275,163.89 102.25275,163.89 L103.71075,163.89 Z M113.57025,171.144 C111.26625,171.144 109.62825,169.794 109.12425,167.742 C108.99825,167.292 108.94425,166.806 108.94425,166.302 C108.94425,165.726 109.01625,165.186 109.16025,164.7 C109.71825,162.738 111.33825,161.496 113.58825,161.496 C115.85625,161.496 117.42225,162.756 117.98025,164.664 C118.12425,165.168 118.19625,165.69 118.19625,166.266 C118.19625,166.752 118.14225,167.202 118.05225,167.634 C117.56625,169.758 115.92825,171.144 113.57025,171.144 Z M113.57025,168.246 C114.21825,168.246 114.57825,167.76 114.72225,167.094 C114.77625,166.842 114.79425,166.572 114.79425,166.284 C114.79425,165.978 114.75825,165.708 114.70425,165.456 C114.54225,164.808 114.18225,164.394 113.57025,164.394 C112.92225,164.394 112.58025,164.826 112.43625,165.456 C112.36425,165.708 112.34625,165.996 112.34625,166.284 C112.34625,166.572 112.36425,166.842 112.41825,167.094 C112.58025,167.778 112.94025,168.246 113.57025,168.246 Z M124.77975,161.514 C125.19375,161.514 125.49975,161.604 125.69775,161.712 C125.85975,161.802 125.91375,161.946 125.87775,162.144 L125.44575,164.79 C125.40975,165.006 125.28375,165.078 125.04975,165.024 C124.79775,164.97 124.41975,164.952 124.04175,165.024 C123.51975,165.132 122.90775,165.474 122.90775,166.212 L122.90775,170.658 C122.90775,170.874 122.78175,171 122.56575,171 L119.86575,171 C119.64975,171 119.52375,170.874 119.52375,170.658 L119.52375,161.982 C119.52375,161.766 119.64975,161.64 119.86575,161.64 L122.56575,161.64 C122.78175,161.64 122.90775,161.766 122.90775,161.982 L122.90775,162.234 C122.90775,162.36 122.97975,162.414 123.05175,162.324 C123.46575,161.82 124.02375,161.514 124.77975,161.514 Z M133.10925,163.998 C133.10925,164.214 132.98325,164.34 132.76725,164.34 L131.39925,164.34 C131.30925,164.34 131.25525,164.394 131.25525,164.484 L131.25525,167.148 C131.25525,167.67 131.41725,168.048 131.90325,168.048 L132.49725,168.048 C132.71325,168.048 132.83925,168.174 132.83925,168.39 L132.83925,170.568 C132.83925,170.784 132.73125,170.892 132.51525,170.91 C132.04725,170.946 131.63325,170.964 131.21925,170.964 C129.20325,170.964 128.03325,170.532 128.01525,168.552 L128.01525,164.484 C128.01525,164.394 127.96125,164.34 127.87125,164.34 L127.02525,164.34 C126.80925,164.34 126.68325,164.214 126.68325,163.998 L126.68325,161.982 C126.68325,161.766 126.80925,161.64 127.02525,161.64 L127.87125,161.64 C127.96125,161.64 128.01525,161.586 128.01525,161.496 L128.01525,159.462 C128.01525,159.246 128.14125,159.12 128.35725,159.12 L130.91325,159.12 C131.12925,159.12 131.25525,159.246 131.25525,159.462 L131.25525,161.496 C131.25525,161.586 131.30925,161.64 131.39925,161.64 L132.76725,161.64 C132.98325,161.64 133.10925,161.766 133.10925,161.982 L133.10925,163.998 Z M138.43275,161.496 C140.93475,161.496 142.89675,162.882 142.89675,164.61 L142.89675,170.658 C142.89675,170.874 142.77075,171 142.55475,171 L139.85475,171 C139.63875,171 139.51275,170.874 139.51275,170.658 L139.51275,170.334 C139.51275,170.208 139.44075,170.172 139.35075,170.28 C138.93675,170.874 138.23475,171.144 137.15475,171.144 C135.22875,171.144 133.98675,170.262 133.98675,168.498 C133.98675,166.698 135.26475,165.654 137.74875,165.654 L139.36875,165.654 C139.45875,165.654 139.51275,165.6 139.51275,165.51 L139.51275,165.24 C139.51275,164.736 139.11675,164.394 138.48675,164.394 C138.07275,164.394 137.73075,164.538 137.58675,164.754 C137.46075,164.916 137.38875,165.006 137.19075,164.988 L134.41875,164.628 C134.20275,164.61 134.09475,164.52 134.11275,164.358 C134.27475,162.738 136.03875,161.496 138.43275,161.496 Z M138.19875,168.804 C138.95475,168.804 139.51275,168.39 139.51275,167.67 L139.51275,167.49 C139.51275,167.4 139.45875,167.346 139.36875,167.346 L138.52275,167.346 C137.78475,167.346 137.38875,167.58 137.38875,168.084 C137.38875,168.48 137.64075,168.804 138.19875,168.804 Z M144.81825,171 C144.60225,171 144.47625,170.874 144.47625,170.658 L144.47625,158.742 C144.47625,158.526 144.60225,158.4 144.81825,158.4 L147.51825,158.4 C147.73425,158.4 147.86025,158.526 147.86025,158.742 L147.86025,170.658 C147.86025,170.874 147.73425,171 147.51825,171 L144.81825,171 Z" id="PetPortal"></path>
        </g>
    </g>
</svg>