<?xml version="1.0" encoding="UTF-8"?>
<svg width="108px" height="19px" viewBox="0 0 108 19" version="1.1" xmlns="http://www.w3.org/2000/svg" xmlns:xlink="http://www.w3.org/1999/xlink">
    <!-- Generator: Sketch 48.2 (47327) - http://www.bohemiancoding.com/sketch -->
    <title>PetPortal</title>
    <desc>Created with Sketch.</desc>
    <defs></defs>
    <g id="home-page-2" stroke="none" stroke-width="1" fill="none" fill-rule="evenodd" transform="translate(-69.000000, -41.000000)">
        <g id="Group-2" transform="translate(68.000000, 32.000000)" fill="#102147">
            <path d="M8.953125,9.5 C12.528125,9.5 14.903125,11.8 14.903125,15.25 C14.903125,18.625 12.428125,20.875 8.728125,20.875 L6.153125,20.875 C6.028125,20.875 5.953125,20.95 5.953125,21.075 L5.953125,26.525 C5.953125,26.825 5.778125,27 5.478125,27 L1.728125,27 C1.428125,27 1.253125,26.825 1.253125,26.525 L1.253125,9.975 C1.253125,9.675 1.428125,9.5 1.728125,9.5 L8.953125,9.5 Z M8.178125,17.125 C9.403125,17.125 10.228125,16.425 10.228125,15.35 C10.228125,14.25 9.403125,13.525 8.178125,13.525 L6.153125,13.525 C6.028125,13.525 5.953125,13.6 5.953125,13.725 L5.953125,16.925 C5.953125,17.05 6.028125,17.125 6.153125,17.125 L8.178125,17.125 Z M22.796875,23.225 C23.696875,23.175 24.521875,22.95 25.046875,22.525 C25.296875,22.325 25.521875,22.325 25.696875,22.575 L27.396875,24.925 C27.571875,25.175 27.546875,25.375 27.346875,25.575 C26.096875,26.725 24.271875,27.2 22.396875,27.2 C19.871875,27.2 17.921875,26.25 16.746875,24.65 C15.946875,23.525 15.496875,22.075 15.496875,20.4 C15.496875,19.625 15.596875,18.95 15.771875,18.3 C16.521875,15.625 18.946875,13.8 21.946875,13.8 C25.471875,13.8 27.571875,16.3 28.221875,20 C28.296875,20.4 28.346875,20.8 28.371875,21.2 C28.371875,21.5 28.196875,21.675 27.896875,21.675 L20.471875,21.675 C20.346875,21.675 20.271875,21.75 20.296875,21.9 C20.346875,22.025 20.371875,22.125 20.421875,22.225 C20.771875,22.975 21.671875,23.275 22.796875,23.225 Z M21.846875,17.825 C21.121875,17.825 20.671875,18.2 20.421875,18.825 C20.396875,18.875 20.371875,18.95 20.346875,19.025 C20.296875,19.175 20.396875,19.25 20.521875,19.25 L23.221875,19.25 C23.346875,19.25 23.446875,19.175 23.396875,19.025 C23.371875,18.95 23.346875,18.9 23.321875,18.825 C23.071875,18.225 22.621875,17.825 21.846875,17.825 Z M38.215625,17.275 C38.215625,17.575 38.040625,17.75 37.740625,17.75 L35.840625,17.75 C35.715625,17.75 35.640625,17.825 35.640625,17.95 L35.640625,21.65 C35.640625,22.375 35.865625,22.9 36.540625,22.9 L37.365625,22.9 C37.665625,22.9 37.840625,23.075 37.840625,23.375 L37.840625,26.4 C37.840625,26.7 37.690625,26.85 37.390625,26.875 C36.740625,26.925 36.165625,26.95 35.590625,26.95 C32.790625,26.95 31.165625,26.35 31.140625,23.6 L31.140625,17.95 C31.140625,17.825 31.065625,17.75 30.940625,17.75 L29.765625,17.75 C29.465625,17.75 29.290625,17.575 29.290625,17.275 L29.290625,14.475 C29.290625,14.175 29.465625,14 29.765625,14 L30.940625,14 C31.065625,14 31.140625,13.925 31.140625,13.8 L31.140625,10.975 C31.140625,10.675 31.315625,10.5 31.615625,10.5 L35.165625,10.5 C35.465625,10.5 35.640625,10.675 35.640625,10.975 L35.640625,13.8 C35.640625,13.925 35.715625,14 35.840625,14 L37.740625,14 C38.040625,14 38.215625,14.175 38.215625,14.475 L38.215625,17.275 Z M47.734375,9.5 C51.309375,9.5 53.684375,11.8 53.684375,15.25 C53.684375,18.625 51.209375,20.875 47.509375,20.875 L44.934375,20.875 C44.809375,20.875 44.734375,20.95 44.734375,21.075 L44.734375,26.525 C44.734375,26.825 44.559375,27 44.259375,27 L40.509375,27 C40.209375,27 40.034375,26.825 40.034375,26.525 L40.034375,9.975 C40.034375,9.675 40.209375,9.5 40.509375,9.5 L47.734375,9.5 Z M46.959375,17.125 C48.184375,17.125 49.009375,16.425 49.009375,15.35 C49.009375,14.25 48.184375,13.525 46.959375,13.525 L44.934375,13.525 C44.809375,13.525 44.734375,13.6 44.734375,13.725 L44.734375,16.925 C44.734375,17.05 44.809375,17.125 44.934375,17.125 L46.959375,17.125 Z M60.653125,27.2 C57.453125,27.2 55.178125,25.325 54.478125,22.475 C54.303125,21.85 54.228125,21.175 54.228125,20.475 C54.228125,19.675 54.328125,18.925 54.528125,18.25 C55.303125,15.525 57.553125,13.8 60.678125,13.8 C63.828125,13.8 66.003125,15.55 66.778125,18.2 C66.978125,18.9 67.078125,19.625 67.078125,20.425 C67.078125,21.1 67.003125,21.725 66.878125,22.325 C66.203125,25.275 63.928125,27.2 60.653125,27.2 Z M60.653125,23.175 C61.553125,23.175 62.053125,22.5 62.253125,21.575 C62.328125,21.225 62.353125,20.85 62.353125,20.45 C62.353125,20.025 62.303125,19.65 62.228125,19.3 C62.003125,18.4 61.503125,17.825 60.653125,17.825 C59.753125,17.825 59.278125,18.425 59.078125,19.3 C58.978125,19.65 58.953125,20.05 58.953125,20.45 C58.953125,20.85 58.978125,21.225 59.053125,21.575 C59.278125,22.525 59.778125,23.175 60.653125,23.175 Z M76.221875,13.825 C76.796875,13.825 77.221875,13.95 77.496875,14.1 C77.721875,14.225 77.796875,14.425 77.746875,14.7 L77.146875,18.375 C77.096875,18.675 76.921875,18.775 76.596875,18.7 C76.246875,18.625 75.721875,18.6 75.196875,18.7 C74.471875,18.85 73.621875,19.325 73.621875,20.35 L73.621875,26.525 C73.621875,26.825 73.446875,27 73.146875,27 L69.396875,27 C69.096875,27 68.921875,26.825 68.921875,26.525 L68.921875,14.475 C68.921875,14.175 69.096875,14 69.396875,14 L73.146875,14 C73.446875,14 73.621875,14.175 73.621875,14.475 L73.621875,14.825 C73.621875,15 73.721875,15.075 73.821875,14.95 C74.396875,14.25 75.171875,13.825 76.221875,13.825 Z M87.790625,17.275 C87.790625,17.575 87.615625,17.75 87.315625,17.75 L85.415625,17.75 C85.290625,17.75 85.215625,17.825 85.215625,17.95 L85.215625,21.65 C85.215625,22.375 85.440625,22.9 86.115625,22.9 L86.940625,22.9 C87.240625,22.9 87.415625,23.075 87.415625,23.375 L87.415625,26.4 C87.415625,26.7 87.265625,26.85 86.965625,26.875 C86.315625,26.925 85.740625,26.95 85.165625,26.95 C82.365625,26.95 80.740625,26.35 80.715625,23.6 L80.715625,17.95 C80.715625,17.825 80.640625,17.75 80.515625,17.75 L79.340625,17.75 C79.040625,17.75 78.865625,17.575 78.865625,17.275 L78.865625,14.475 C78.865625,14.175 79.040625,14 79.340625,14 L80.515625,14 C80.640625,14 80.715625,13.925 80.715625,13.8 L80.715625,10.975 C80.715625,10.675 80.890625,10.5 81.190625,10.5 L84.740625,10.5 C85.040625,10.5 85.215625,10.675 85.215625,10.975 L85.215625,13.8 C85.215625,13.925 85.290625,14 85.415625,14 L87.315625,14 C87.615625,14 87.790625,14.175 87.790625,14.475 L87.790625,17.275 Z M95.184375,13.8 C98.659375,13.8 101.384375,15.725 101.384375,18.125 L101.384375,26.525 C101.384375,26.825 101.209375,27 100.909375,27 L97.159375,27 C96.859375,27 96.684375,26.825 96.684375,26.525 L96.684375,26.075 C96.684375,25.9 96.584375,25.85 96.459375,26 C95.884375,26.825 94.909375,27.2 93.409375,27.2 C90.734375,27.2 89.009375,25.975 89.009375,23.525 C89.009375,21.025 90.784375,19.575 94.234375,19.575 L96.484375,19.575 C96.609375,19.575 96.684375,19.5 96.684375,19.375 L96.684375,19 C96.684375,18.3 96.134375,17.825 95.259375,17.825 C94.684375,17.825 94.209375,18.025 94.009375,18.325 C93.834375,18.55 93.734375,18.675 93.459375,18.65 L89.609375,18.15 C89.309375,18.125 89.159375,18 89.184375,17.775 C89.409375,15.525 91.859375,13.8 95.184375,13.8 Z M94.859375,23.95 C95.909375,23.95 96.684375,23.375 96.684375,22.375 L96.684375,22.125 C96.684375,22 96.609375,21.925 96.484375,21.925 L95.309375,21.925 C94.284375,21.925 93.734375,22.25 93.734375,22.95 C93.734375,23.5 94.084375,23.95 94.859375,23.95 Z M104.053125,27 C103.753125,27 103.578125,26.825 103.578125,26.525 L103.578125,9.975 C103.578125,9.675 103.753125,9.5 104.053125,9.5 L107.803125,9.5 C108.103125,9.5 108.278125,9.675 108.278125,9.975 L108.278125,26.525 C108.278125,26.825 108.103125,27 107.803125,27 L104.053125,27 Z" id="PetPortal"></path>
        </g>
    </g>
</svg>