<?xml version="1.0" encoding="UTF-8"?>
<svg width="51px" height="70px" viewBox="0 0 51 70" version="1.1" xmlns="http://www.w3.org/2000/svg" xmlns:xlink="http://www.w3.org/1999/xlink">
    <!-- Generator: Sketch 48.2 (47327) - http://www.bohemiancoding.com/sketch -->
    <title>Group 32</title>
    <desc>Created with Sketch.</desc>
    <defs></defs>
    <g id="home-page-3" stroke="none" stroke-width="1" fill="none" fill-rule="evenodd" transform="translate(-868.000000, -600.000000)">
        <g id="Group-7" transform="translate(130.000000, 554.000000)">
            <g id="Group-6">
                <g id="Group-5" transform="translate(700.000000, 0.000000)">
                    <g id="Group-27" transform="translate(23.000000, 41.000000)">
                        <g id="Group-32" transform="translate(16.000000, 6.000000)">
                            <path d="M15.8944459,11.7129131 C18.0834277,14.7156468 19.9742903,16.556539 21.5670335,17.2355898 C23.1597768,17.9146406 23.6286333,20.354466 22.973603,24.555066 L22.973603,48.5802031 C20.8669401,50.5400606 19.0394937,51.7946362 17.4912637,52.3439297 C15.9430337,52.8932233 13.1879196,53.2644856 9.22592131,53.4577167 L9.22592131,25.1215062 C4.66215629,23.2114174 2.60285585,22.2773156 3.04802,22.3192006 C7.67155875,22.7542249 11.5501074,21.8731538 13.1243021,19.0418221 C13.4440911,18.4666526 13.5980005,15.851522 11.6785392,15.2059666 C9.75907786,14.5604112 7.66779683,13.0261239 7.13356079,11.7129131 C6.91859093,11.1844936 9.83888596,11.1844936 15.8944459,11.7129131 Z" id="Rectangle-7" fill="#E0EDFF"></path>
                            <path d="M23.3913043,54.2903226 C23.3913043,51.5645301 18.1793149,49.3548387 11.75,49.3548387 C5.32068514,49.3548387 0.108695652,51.5645301 0.108695652,54.2903226" id="Oval-9" stroke="#2380FF" stroke-width="2" transform="translate(11.750000, 51.822581) scale(1, -1) translate(-11.750000, -51.822581) "></path>
                            <path d="M23.3913043,46.6129032 C23.3913043,43.8871108 18.1793149,41.6774194 11.75,41.6774194 C5.32068514,41.6774194 0.108695652,43.8871108 0.108695652,46.6129032" id="Oval-9" stroke="#2380FF" stroke-width="2" transform="translate(11.750000, 44.145161) scale(1, -1) translate(-11.750000, -44.145161) "></path>
                            <path d="M23.3913043,24.6774194 C23.3913043,21.9516269 18.1793149,19.7419355 11.75,19.7419355 C5.32068514,19.7419355 0.108695652,21.9516269 0.108695652,24.6774194" id="Oval-9" stroke="#2380FF" stroke-width="2" transform="translate(11.750000, 22.209677) scale(1, -1) translate(-11.750000, -22.209677) "></path>
                            <path d="M17.8478261,11.516129 C17.8478261,10.0017999 15.1177364,8.77419355 11.75,8.77419355 C8.38226365,8.77419355 5.65217391,10.0017999 5.65217391,11.516129" id="Oval-9" stroke="#2380FF" stroke-width="2" transform="translate(11.750000, 10.145161) scale(1, -1) translate(-11.750000, -10.145161) "></path>
                            <ellipse id="Oval-9" stroke="#2380FF" stroke-width="2" cx="11.7419132" cy="3.14982468" rx="6.09782609" ry="2.74193548"></ellipse>
                            <path d="M0.108695652,49.4720697 L0.108695652,19.7738572" id="Path-5" stroke="#2380FF" stroke-width="2"></path>
                            <path d="M5.65217391,8.88341902 L5.65217391,3.29032258" id="Path-5" stroke="#2380FF" stroke-width="2"></path>
                            <path d="M0.102957985,19.8316332 C0.25672138,17.2776872 3.27162586,16.560641 5.47620739,13.2624448 C6.22579023,12.1410204 6.53711364,11.0000749 6.41017764,9.83960808" id="Path-5" stroke="#2380FF" stroke-width="2"></path>
                            <path d="M17.0675522,19.9208312 C17.2213156,17.3668851 20.2362201,16.649839 22.4408016,13.3516427 C23.1903845,12.2302184 23.5017079,11.0892729 23.3747719,9.92880604" id="Path-5" stroke="#2380FF" stroke-width="2" transform="translate(20.234949, 14.924819) scale(-1, 1) translate(-20.234949, -14.924819) "></path>
                            <path d="M7.86956522,11.0769674 L7.86956522,5.48387097" id="Path-5" stroke="#2380FF"></path>
                            <path d="M11.1956522,11.0769674 L11.1956522,5.48387097" id="Path-5" stroke="#2380FF"></path>
                            <path d="M13.4130435,11.0769674 L13.4130435,5.48387097" id="Path-5" stroke="#2380FF"></path>
                            <path d="M15.6304348,11.0769674 L15.6304348,5.48387097" id="Path-5" stroke="#2380FF"></path>
                            <path d="M17.8478261,8.88341902 L17.8478261,3.29032258" id="Path-5" stroke="#2380FF" stroke-width="2"></path>
                            <path d="M23.3913043,49.4618999 L23.3913043,19.7636875" id="Path-5" stroke="#2380FF" stroke-width="2"></path>
                            <path d="M16.3249231,37.1161205 C16.3249231,34.6165572 20.2849482,31.7892183 25.6086957,30.8562514 C29.1578606,30.2342735 29.1578606,39.3252004 25.6086957,58.1290323 L16.3249231,58.1290323 C16.3249231,45.1330452 16.3249231,38.1287413 16.3249231,37.1161205 Z" id="Rectangle-23" fill="#FFFFFF"></path>
                            <g id="if_data_115746" transform="translate(18.956522, 32.903226)">
                                <path d="M15.7693996,0.613875945 C20.1014856,0.298521609 23.0639003,0.480369823 24.6566436,1.15942059 C26.2493869,1.83847135 27.8695328,3.42196607 29.5170813,5.90990475 L29.5170813,29.9350418 C27.4104184,31.8948993 25.5829719,33.1494749 24.034742,33.6987684 C22.486512,34.248062 19.7313979,34.6193243 15.7693996,34.8125554 L15.7693996,10.4051071 C21.6942289,9.0177913 24.6566436,7.30220517 24.6566436,5.25834874 C24.6566436,3.21449232 21.6942289,1.66633472 15.7693996,0.613875945 Z" id="Rectangle-7" fill="#E0EDFF"></path>
                                <ellipse id="Oval-5" stroke="#2380FF" stroke-width="2" cx="15.1628842" cy="5.54779856" rx="14.3648377" ry="5.54779856"></ellipse>
                                <path d="M29.5277219,34.8718767 C29.5277219,31.8079121 23.096365,29.3240781 15.1628842,29.3240781 C7.22940343,29.3240781 0.798046537,31.8079121 0.798046537,34.8718767" id="Oval-5" stroke="#2380FF" stroke-width="2" transform="translate(15.162884, 32.097977) scale(1, -1) translate(-15.162884, -32.097977) "></path>
                                <path d="M0.798046537,5.58097787 L0.798046537,29.5066636" id="Path-2" stroke="#2380FF" stroke-width="2"></path>
                                <path d="M29.5277219,5.58097787 L29.5277219,29.5066636" id="Path-2" stroke="#2380FF" stroke-width="2"></path>
                            </g>
                        </g>
                    </g>
                </g>
            </g>
        </g>
    </g>
</svg>