<?xml version="1.0" encoding="UTF-8"?>
<svg width="24px" height="24px" viewBox="0 0 24 24" version="1.1" xmlns="http://www.w3.org/2000/svg" xmlns:xlink="http://www.w3.org/1999/xlink">
    <!-- Generator: Sketch 48.2 (47327) - http://www.bohemiancoding.com/sketch -->
    <title>Fill 184</title>
    <desc>Created with Sketch.</desc>
    <defs></defs>
    <g id="home-page-3" stroke="none" stroke-width="1" fill="none" fill-rule="evenodd" transform="translate(-470.000000, -4319.000000)">
        <g id="Group-25" transform="translate(0.000000, 4167.000000)" fill="#415071">
            <g id="Group-12" transform="translate(438.000000, 152.000000)">
                <g id="Stacked-Group">
                    <path d="M48.7715,9.55275 C48.776,9.6585 48.779,9.76425 48.779,9.8715 C48.779,13.12425 46.3025,16.87575 41.774,16.87575 C40.3835,16.87575 39.08975,16.4685 38,15.77025 C38.19275,15.79275 38.3885,15.804 38.58725,15.804 C39.74075,15.804 40.802,15.411 41.645,14.75025 C40.56725,14.73075 39.65825,14.019 39.34475,13.041 C39.4955,13.0695 39.64925,13.0845 39.80825,13.0845 C40.0325,13.0845 40.25,13.0545 40.457,12.99825 C39.3305,12.7725 38.48225,11.77725 38.48225,10.58475 L38.48225,10.55325 C38.81375,10.73775 39.194,10.84875 39.5975,10.8615 C38.93675,10.41975 38.50175,9.666 38.50175,8.8125 C38.50175,8.361 38.62325,7.938 38.8355,7.57425 C40.04975,9.06375 41.864,10.044 43.91,10.14675 C43.868,9.96675 43.84625,9.7785 43.84625,9.58575 C43.84625,8.226 44.94875,7.1235 46.30775,7.1235 C47.0165,7.1235 47.65625,7.42275 48.10475,7.90125 C48.66575,7.791 49.193,7.58625 49.6685,7.30425 C49.48475,7.87875 49.094,8.361 48.58625,8.66625 C49.08425,8.60625 49.55825,8.47425 50,8.2785 C49.67,8.772 49.25225,9.2055 48.7715,9.55275 M44,0 C37.37225,0 32,5.37225 32,12 C32,18.627 37.37225,24 44,24 C50.62775,24 56,18.627 56,12 C56,5.37225 50.62775,0 44,0" id="Fill-184"></path>
                </g>
            </g>
        </g>
    </g>
</svg>