<svg xmlns="http://www.w3.org/2000/svg" width="40" height="40" viewBox="0 0 40 40">
    <g fill="#FF2323" fill-rule="evenodd">
        <path fill-rule="nonzero" d="M1.497 27.607A17.114 17.114 0 0 0 14.854 34C24.324 34 32 26.324 32 16.854 32 8.586 26.148 1.684 18.36.066A20.27 20.27 0 0 1 20 0c11.045 0 20 8.954 20 20s-8.955 20-20 20c-8.353 0-15.51-5.12-18.503-12.393z" opacity=".1"/>
        <path fill-rule="nonzero" d="M20 0c11.045 0 20 8.954 20 20s-8.955 20-20 20S0 31.046 0 20 8.955 0 20 0zm0 36.364c9.037 0 16.364-7.327 16.364-16.364S29.037 3.636 20 3.636 3.636 10.963 3.636 20 10.963 36.364 20 36.364z"/>
        <path d="M22.359 19.884l3.896 3.896a1.75 1.75 0 0 1-2.475 2.475l-3.896-3.896-3.897 3.896a1.75 1.75 0 0 1-2.474-2.475l3.896-3.896-3.896-3.897a1.75 1.75 0 0 1 2.474-2.474l3.897 3.896 3.896-3.896a1.75 1.75 0 1 1 2.475 2.474l-3.896 3.897z"/>
    </g>
</svg>
