<?xml version="1.0" encoding="UTF-8"?>
<svg width="32px" height="32px" viewBox="0 0 32 32" version="1.1" xmlns="http://www.w3.org/2000/svg" xmlns:xlink="http://www.w3.org/1999/xlink">
    <!-- Generator: Sketch 50.2 (55047) - http://www.bohemiancoding.com/sketch -->
    <title>Group 7</title>
    <desc>Created with Sketch.</desc>
    <defs>
        <path d="M15.8052081,15.3847661 C16.524241,15.3847661 17.2850191,15.6751358 18.0879918,16.2455805 C18.8747421,16.8045007 19.5330572,17.4846049 20.0616142,18.2846362 C20.5993905,19.098622 20.8729163,19.8539352 20.8729163,20.5522785 C20.8729163,20.8528471 20.8151543,21.1123152 20.6950194,21.3274688 C20.5710629,21.5494669 20.3907567,21.7164645 20.1606793,21.8221852 C19.9633607,21.9128533 19.7603977,21.9756759 19.5523609,22.0102872 C19.353096,22.0434391 19.1273235,22.0597489 18.8744897,22.0597489 C18.4570143,22.0597489 17.9079404,21.9282049 17.2174119,21.6686346 C16.5863123,21.4314037 16.1113254,21.3144915 15.8052081,21.3144915 C15.4799225,21.3144915 14.9755057,21.43089 14.3041107,21.6666534 C13.576459,21.9221716 12.9928624,22.0514682 12.5451334,22.0514682 C11.3858955,22.0514682 10.7375,21.5350869 10.7375,20.5522785 C10.7375,20.0252838 10.9055662,19.451577 11.2360638,18.8300478 C11.5583963,18.2238738 11.959974,17.6707085 12.4402968,17.1711404 C12.9214666,16.6706912 13.4621705,16.2504101 14.061742,15.9108721 C14.6775849,15.5621196 15.2587722,15.3847661 15.8052081,15.3847661 Z M15.8052081,15.9651994 C15.3672619,15.9651994 14.8811134,16.113551 14.346667,16.4162087 C13.7959492,16.7280808 13.2997336,17.1137818 12.8573539,17.5738866 C12.414127,18.0348725 12.0442366,18.5443891 11.7471826,19.1030248 C11.4582936,19.6463054 11.3166666,20.1297599 11.3166666,20.5522785 C11.3166666,21.1814342 11.6803045,21.4710349 12.5451334,21.4710349 C12.9158795,21.4710349 13.4410953,21.3546727 14.1125937,21.118873 C14.8403486,20.8633185 15.4005024,20.7340582 15.8052081,20.7340582 C16.1959007,20.7340582 16.7301821,20.8655651 17.4208092,21.1251724 C18.0520074,21.3624404 18.5398529,21.4793156 18.8744897,21.4793156 C19.0972563,21.4793156 19.2917819,21.4652631 19.4575127,21.4376903 C19.6144715,21.4115769 19.7682088,21.363991 19.9192951,21.2945667 C20.0376227,21.2401951 20.125533,21.1587735 20.1896045,21.0440257 C20.2574977,20.9224334 20.2937497,20.759589 20.2937497,20.5522785 C20.2937497,19.980924 20.0584937,19.3312888 19.5787064,18.6050761 C19.0896997,17.8649087 18.4815906,17.2366721 17.7530559,16.7191093 C17.0407436,16.2130712 16.3913113,15.9651994 15.8052081,15.9651994 Z M15.6604165,12.1716885 C15.6604165,12.5396194 15.6015101,12.8896056 15.4834689,13.2201886 C15.3600873,13.5657276 15.1550277,13.8651801 14.8715024,14.1151285 C14.5710001,14.3800433 14.2080732,14.5141162 13.7959404,14.5141162 C13.2943963,14.5141162 12.8377259,14.3248652 12.4376103,13.9557956 C12.0570239,13.60474 11.7734059,13.1892774 11.5888917,12.7121332 C11.4079386,12.244198 11.3166666,11.7872781 11.3166666,11.3424277 C11.3166666,10.9744968 11.3755729,10.6245106 11.4936142,10.2939275 C11.6169958,9.94838858 11.8220554,9.64893612 12.1055807,9.39898772 C12.406083,9.1340729 12.7690099,9 13.1811427,9 C13.688335,9 14.1469088,9.18935374 14.5445421,9.55911552 C14.9217471,9.90988095 15.2035757,10.3234463 15.3879635,10.7972073 C15.5691161,11.2626556 15.6604165,11.721231 15.6604165,12.1716885 Z M15.0812498,12.1716885 C15.0812498,11.7956773 15.0041125,11.4082391 14.8483896,11.0081291 C14.695902,10.6163317 14.4639955,10.2760236 14.1506058,9.9846005 C13.8576444,9.71217379 13.5385974,9.58043328 13.1811427,9.58043328 C12.9082954,9.58043328 12.6816902,9.66414605 12.4881085,9.83480255 C12.2775498,10.0204255 12.1288902,10.2375159 12.0389173,10.4894915 C11.9436041,10.7564229 11.8958333,11.0402489 11.8958333,11.3424277 C11.8958333,11.7128774 11.9729989,12.099179 12.1289214,12.5023864 C12.2812826,12.8963848 12.514207,13.2375879 12.8298299,13.5287207 C13.1259235,13.8018397 13.4440667,13.9336829 13.7959404,13.9336829 C14.0687877,13.9336829 14.2953929,13.8499701 14.4889746,13.6793136 C14.6995333,13.4936907 14.8481929,13.2766002 14.9381658,13.0246247 C15.0334789,12.7576933 15.0812498,12.4738673 15.0812498,12.1716885 Z M12.7645832,15.7427 C12.7645832,16.1762835 12.6436308,16.5608399 12.4020367,16.8868783 C12.1422787,17.2374295 11.7667772,17.4162826 11.3041048,17.4162826 C10.8671394,17.4162826 10.4602463,17.2629634 10.0924526,16.9635745 C9.74114863,16.6776084 9.4701844,16.3318227 9.28185487,15.9286188 C9.09481958,15.5281858 9,15.1325885 9,14.7436023 C9,14.3103261 9.12076572,13.9249823 9.36185191,13.596872 C9.6214625,13.2435507 9.99727398,13.063033 10.4604785,13.063033 C10.8974438,13.063033 11.304337,13.2163522 11.6721306,13.5157411 C12.0236649,13.8018947 12.2947203,14.1490922 12.4830282,14.5548341 C12.6698559,14.9573867 12.7645832,15.3538993 12.7645832,15.7427 Z M12.1854166,15.7427 C12.1854166,15.4421466 12.110449,15.128345 11.9578868,14.7996233 C11.8068047,14.4740909 11.5905933,14.1971435 11.3069836,13.9662815 C11.0396333,13.7486548 10.760474,13.6434663 10.4604785,13.6434663 C10.1770252,13.6434663 9.97587383,13.7400875 9.82821655,13.9410441 C9.66203487,14.1672119 9.57916665,14.4316309 9.57916665,14.7436023 C9.57916665,15.0439703 9.65404202,15.3563582 9.80639662,15.6825417 C9.95745699,16.0059542 10.1737597,16.2819846 10.4575996,16.5130341 C10.7249499,16.7306608 11.0041092,16.8358493 11.3041048,16.8358493 C11.5880901,16.8358493 11.7895515,16.7398923 11.9370613,16.5408234 C12.1027351,16.3172416 12.1854166,16.0543641 12.1854166,15.7427 Z M18.1040592,14.5141162 C17.6919264,14.5141162 17.3289995,14.3800433 17.0284973,14.1151285 C16.7449719,13.8651801 16.5399123,13.5657276 16.4165307,13.2201886 C16.2984895,12.8896056 16.2395831,12.5396194 16.2395831,12.1716885 C16.2395831,11.721231 16.3308836,11.2626556 16.5120361,10.7972073 C16.696424,10.3234463 16.9782525,9.90988095 17.3554575,9.55911552 C17.7530908,9.18935374 18.2116646,9 18.7188569,9 C19.1309897,9 19.4939166,9.1340729 19.7944189,9.39898772 C20.0779442,9.64893612 20.2830038,9.94838858 20.4063854,10.2939275 C20.5244267,10.6245106 20.583333,10.9744968 20.583333,11.3424277 C20.583333,11.7872781 20.492061,12.244198 20.311108,12.7121332 C20.1265938,13.1892774 19.8429757,13.60474 19.4623893,13.9557956 C19.0622737,14.3248652 18.6056033,14.5141162 18.1040592,14.5141162 Z M18.1040592,13.9336829 C18.4559329,13.9336829 18.7740761,13.8018397 19.0701698,13.5287207 C19.3857926,13.2375879 19.618717,12.8963848 19.7710782,12.5023864 C19.9270007,12.099179 20.0041664,11.7128774 20.0041664,11.3424277 C20.0041664,11.0402489 19.9563955,10.7564229 19.8610823,10.4894915 C19.7711094,10.2375159 19.6224498,10.0204255 19.4118911,9.83480255 C19.2183094,9.66414605 18.9917042,9.58043328 18.7188569,9.58043328 C18.3614022,9.58043328 18.0423552,9.71217379 17.7493938,9.9846005 C17.4360042,10.2760236 17.2040976,10.6163317 17.05161,11.0081291 C16.8958871,11.4082391 16.8187498,11.7956773 16.8187498,12.1716885 C16.8187498,12.4738673 16.8665207,12.7576933 16.9618339,13.0246247 C17.0518067,13.2766002 17.2004664,13.4936907 17.411025,13.6793136 C17.6046068,13.8499701 17.8312119,13.9336829 18.1040592,13.9336829 Z M21.4395212,13.3532496 C21.9027256,13.3532496 22.2785371,13.5337673 22.5381477,13.8870887 C22.7792339,14.2151989 22.8999996,14.6005427 22.8999996,15.033819 C22.8999996,15.4228051 22.80518,15.8184024 22.6181447,16.2188354 C22.4298152,16.6220394 22.158851,16.967825 21.807547,17.2537911 C21.4397534,17.55318 21.0328602,17.7064992 20.5958948,17.7064992 C20.1332224,17.7064992 19.757721,17.5276462 19.4979629,17.1770949 C19.2563689,16.8510565 19.1354164,16.4665001 19.1354164,16.0329166 C19.1354164,15.6441159 19.2301437,15.2476033 19.4169714,14.8450507 C19.6052793,14.4393089 19.8763347,14.0921113 20.227869,13.8059577 C20.5956626,13.5065689 21.0025558,13.3532496 21.4395212,13.3532496 Z M21.4395212,13.9336829 C21.1395256,13.9336829 20.8603663,14.0388714 20.593016,14.2564981 C20.3094063,14.4873602 20.0931949,14.7643075 19.9421128,15.08984 C19.7895506,15.4185616 19.714583,15.7323632 19.714583,16.0329166 C19.714583,16.3445808 19.7972645,16.6074583 19.9629383,16.83104 C20.1104481,17.030109 20.3119095,17.126066 20.5958948,17.126066 C20.8958904,17.126066 21.1750497,17.0208774 21.4424,16.8032507 C21.7262399,16.5722013 21.9425426,16.2961709 22.093603,15.9727583 C22.2459576,15.6465749 22.320833,15.3341869 22.320833,15.033819 C22.320833,14.7218475 22.2379647,14.4574285 22.0717831,14.2312608 C21.9241258,14.0303042 21.7229744,13.9336829 21.4395212,13.9336829 Z" id="path-1"></path>
        <filter x="-9.0%" y="-9.6%" width="118.0%" height="119.1%" filterUnits="objectBoundingBox" id="filter-2">
            <feGaussianBlur stdDeviation="0.5" in="SourceAlpha" result="shadowBlurInner1"></feGaussianBlur>
            <feOffset dx="0" dy="1" in="shadowBlurInner1" result="shadowOffsetInner1"></feOffset>
            <feComposite in="shadowOffsetInner1" in2="SourceAlpha" operator="arithmetic" k2="-1" k3="1" result="shadowInnerInner1"></feComposite>
            <feColorMatrix values="0 0 0 0 0.229120283   0 0 0 0 0.308873638   0 0 0 0 0.487988946  0 0 0 0.218721694 0" type="matrix" in="shadowInnerInner1"></feColorMatrix>
        </filter>
    </defs>
    <g id="Page-1" stroke="none" stroke-width="1" fill="none" fill-rule="evenodd">
        <g id="06-00---contact-us" transform="translate(-880.000000, -387.000000)">
            <g id="Group-4" transform="translate(605.000000, 178.000000)">
                <g id="Group-7" transform="translate(275.000000, 209.000000)">
                    <circle id="Oval" fill="#2380FF" cx="16" cy="16" r="16"></circle>
                    <g id="Combined-Shape" fill-rule="nonzero">
                        <use fill="#FFFFFF" fill-rule="evenodd" xlink:href="#path-1"></use>
                        <use fill="black" fill-opacity="1" filter="url(#filter-2)" xlink:href="#path-1"></use>
                        <use stroke="#FFFFFF" stroke-width="0.5" xlink:href="#path-1"></use>
                    </g>
                </g>
            </g>
        </g>
    </g>
</svg>