<?xml version="1.0" standalone="no"?> 
<!DOCTYPE svg PUBLIC "-//W3C//DTD SVG 1.1//EN" "http://www.w3.org/Graphics/SVG/1.1/DTD/svg11.dtd" >
<svg xmlns="http://www.w3.org/2000/svg">
<defs>
  <font id="icons" horiz-adv-x="1499.8">
    <font-face font-family="icons"
      units-per-em="1000" ascent="1000"
      descent="0" />
    <missing-glyph horiz-adv-x="0" />
    <glyph glyph-name="angle-down"
      unicode="&#xE001;"
      horiz-adv-x="1000" d=" M21.2 741.2C-3.6 756 -7.2 751.6 13.2 730.8L481.6 258C492 247.6 508.4 247.6 518.8 258L986.8 730.8C1007.2 751.6 1004 756.4 978.8 741.2L500 453.6L21.2 741.2z" />
    <glyph glyph-name="angle-left"
      unicode="&#xE002;"
      horiz-adv-x="1000" d=" M741.2 978.8C756 1003.6 751.5999999999999 1007.2 730.8 986.8L258 518.8C247.6 508.4 247.6 492 258 481.6L730.8 13.6C751.6 -6.8 756.4000000000001 -3.6 741.2 21.6L453.6 500L741.2 978.8z" />
    <glyph glyph-name="angle-right"
      unicode="&#xE003;"
      horiz-adv-x="1000" d=" M258.8 21.2C244 -3.5999999999999 248.4 -7.1999999999999 269.2000000000001 13.2L742 481.2C752.4 491.6 752.4 508 742 518.4L269.2 986.4C248.4 1006.8 243.6 1003.6 258.8 978.4L546.4 500L258.8 21.2z" />
    <glyph glyph-name="angle-up"
      unicode="&#xE004;"
      horiz-adv-x="1000" d=" M978.8 258.8C1003.6 244 1007.2 248.4000000000001 986.8 269.2000000000001L518.8 742C508.4 752.4 492 752.4 481.6 742L13.6 269.2000000000001C-6.8 248.4 -3.6 243.5999999999999 21.6 258.8L500 546.4L978.8 258.8z" />
    <glyph glyph-name="bars"
      unicode="&#xE005;"
      horiz-adv-x="1000" d=" M933.2 264.8H66.8C30 264.8 0 234.8 0 197.6S30 130.4000000000001 66.8 130.4000000000001H933.6C970.4 130.4000000000001 1000.4 160.4000000000001 1000.4 197.6S970 264.8 933.2 264.8z M66.8 735.2H933.6C970.4 735.2 1000.4 765.2 1000.4 802.4S970.4 869.5999999999999 933.6 869.5999999999999H66.8C30 869.5999999999999 0 839.5999999999999 0 802.4S30 735.2 66.8 735.2z M933.2 567.2H66.8C30 567.2 0 537.2 0 500S30 432.8 66.8 432.8H933.6C970.4 432.8 1000.4 462.8 1000.4 500S970 567.2 933.2 567.2z" />
    <glyph glyph-name="checkbox"
      unicode="&#xE006;"
      horiz-adv-x="1000" d=" M374.8000000000002 100C343.6000000000002 100 312.4000000000002 113.6 287.6000000000002 140L37.6000000000002 406.4C-12.3999999999998 460 -12.3999999999998 540 37.6000000000002 592.8C87.6000000000002 646.4 168.8000000000002 646.4 212.8000000000002 592.8L375.2000000000002 419.2L787.6000000000001 859.1999999999999C837.6000000000001 912.8 912.8000000000002 912.8 962.8000000000002 859.1999999999999S1012.8000000000002 725.5999999999999 962.8000000000002 672.8L462.8000000000002 139.5999999999999C437.6000000000004 113.5999999999999 406 100 374.8000000000002 100z" />
    <glyph glyph-name="close"
      unicode="&#xE007;"
      horiz-adv-x="1000" d=" M452.3999999999996 500L0 952.4L47.6 1000L500 547.6L952.3999999999996 1000L999.9999999999995 952.4L547.6000000000004 500L1000 47.6L952.4 0L500 452.4L47.6000000000004 0L3e-13 47.6L452.3999999999996 500z" />
    <glyph glyph-name="diffco-txt"
      unicode="&#xE008;"
      horiz-adv-x="5999.2" d=" M376 971.6H0V17.2H376C675.2 17.2 882.8 205.6 882.8 493.2S675.5999999999999 971.6 376 971.6zM376 196H202.8000000000002V793.6H376C572 793.6 675.2 662.8 675.2 494C675.5999999999999 331.6 565.5999999999999 196 376 196z M1024.8 16.8L1206.3999999999999 17.6L1206.3999999999999 708.4L1024.8 708.4z M1114 1000C1054 1000 1005.2 951.2 1005.2 891.2C1005.6000000000003 831.2 1054 782.8 1114 782.4C1174 782.4 1222.8 831.2 1222.8 891.2C1222.8 951.6 1174.3999999999999 1000 1114 1000z M2162 842.8C2190 844 2217.6 833.6 2238 814L2306.7999999999997 921.2C2262.4 968.4 2192 985.6 2126.4 985.6C1988 985.6 1893.6 892.8 1893.6 745.2V708H1779.1999999999998V549.2H1893.6V17.2H2076.4V549.6H2216.4V708.4H2076.4V745.5999999999999C2076 810 2112 842.8 2162 842.8z M1694 842.8C1722 844 1749.6 833.6 1770 814L1838.7999999999995 921.2C1794.3999999999999 968.4 1724 985.6 1658.3999999999999 985.6C1520 985.6 1425.6 892.8 1425.6 745.2V708H1311.1999999999998V549.2H1425.6V17.2H1608.3999999999999V549.6H1748.3999999999999V708.4H1608.3999999999999V745.5999999999999C1608 810 1644 842.8 1694 842.8z M2653.2 564C2711.6 566.4 2766.7999999999997 538 2799.2 489.6L2918 601.2C2872.4 664 2786.4 725.6 2644.7999999999997 725.6C2431.6 725.6 2278.4 575.2 2278.4 363.6C2278.4 150.4000000000001 2431.2 0.4000000000001 2644.7999999999997 0.4000000000001C2786.3999999999996 0.4000000000001 2872.3999999999996 62.0000000000001 2918 126.4000000000001L2799.2 236C2766 188.4 2711.2 160.4 2653.2 161.6C2543.2 161.6 2465.6 243.2000000000001 2465.6 363.2000000000001C2465.2 483.6 2543.2 564 2653.2 564z M3356.8 725.6C3129.6 725.6 2992.4 559.6 2992.4 363.6C2992.4 166 3128.8 0.4000000000001 3357.2 0.4000000000001S3723.6 167.6000000000001 3723.6 363.6000000000002C3723.6 559.6 3584.8 725.6 3356.8 725.6zM3534.8 363.2000000000001C3534.8 254.4000000000001 3471.2 161.6 3358 161.6S3182 256 3182 363.2000000000001S3244.8 563.6 3358 563.6S3535.6 470.4 3535.6 363.2000000000001H3534.8z M4882.799999999999 405.2000000000001C4882.799999999999 271.6 4806.4 180.8000000000001 4659.6 180.8000000000001C4512.8 180.8000000000001 4435.2 272.4000000000001 4435.2 405.2000000000001V971.6H4229.2V397.6C4229.2 162.8 4369.2 0 4660 0S5090.8 161.6 5090.8 399.2000000000001V971.6H4883.200000000001V405.2000000000001H4882.799999999999z M5450.799999999999 714C5450.799999999999 771.2 5499.2 809.6 5586.4 809.6C5688.799999999999 810.8 5787.599999999999 773.2 5864 705.2L5977.199999999999 854C5882.799999999999 941.2 5756.799999999999 987.2 5605.199999999999 987.2C5380.4 987.2 5243.199999999999 855.2 5243.199999999999 696.4C5243.199999999999 337.2000000000001 5792.799999999999 453.2 5792.799999999999 284.4C5792.799999999999 230 5738.4 178.4 5626.799999999999 178.4C5512.4 178 5402.799999999999 224.4 5323.599999999999 307.2000000000001L5213.599999999999 152C5302.4 62 5434 0.4 5617.199999999999 0.8C5874.799999999999 0.8 5999.199999999999 132.4 5999.199999999999 306.8C5999.2 664 5450.799999999999 562.4 5450.799999999999 714z" />
    <glyph glyph-name="diffco"
      unicode="&#xE009;"
      horiz-adv-x="1000" d=" M401.2 781.6L395.2 780V499.6L492.8 442.8000000000001L589.5999999999999 498.8000000000001V780.8L583.5999999999999 782.4C523.6 795.2 461.6 794.8 401.2 781.6z M899.6 1000H100.4C44.8 1000 0 955.2 0 899.6V100C0 44.8 44.8 0 100.4 0H899.6C955.2 0 1000 44.8 1000 100.4V899.2C1000.4 954.8 955.2 1000 899.6 1000zM252 137.2000000000001H174V258.8000000000001H175.6L415.6 397.6000000000002L317.6 454.4000000000001V828.4C373.6 851.6 433.6 863.2 494.4 862C553.6 863.2 612.4000000000001 852 667.2 830V454.4L252 213.2000000000001V137.2000000000001zM826.8 137.2000000000001H749.1999999999999V205.2000000000001L538.8 326.8000000000001L616 371.6L826.4 249.6V137.2000000000001H826.8z" />
    <glyph glyph-name="done"
      unicode="&#xE00A;"
      horiz-adv-x="1000" d=" M500 1000C224 1000 0 776 0 500S224 0 500 0S1000 224 1000 500S776 1000 500 1000zM500 90.8C274 90.8 90.8 274 90.8 500S274 909.2 500 909.2S909.2 726 909.2 500S726 90.8 500 90.8z M620.8 623.2L460 462.4L395.6 526.8C378 544.4 349.2 544.4 331.2 526.8C313.6 509.2 313.6 480.4 331.2 462.4L428 366C445.6 348 474.4 348 492 366L685.2 558.8C702.8 576.4 702.8 605.2 685.2 623.2C667.2 640.8 638.4 640.8 620.8 623.2z" />
    <glyph glyph-name="facebook"
      unicode="&#xE00B;"
      horiz-adv-x="1000" d=" M681.6 674.4H750L714.8 488.4H583.2V0H368.8V488.4H250V674.4H369.2V814H369.6C369.2 818 369.2 821.6 369.2 825.6C369.2 918 442.8 993.6 536 999.6L536 1000H726V838L630.8 837.2C630.8 837.2 613.2 838.8 597.6 824.4S583.2 790.8 583.2 790.8V674.4H681.6z" />
    <glyph glyph-name="go-down"
      unicode="&#xE00C;"
      horiz-adv-x="1000" d=" M293.6 991.6L500 867.2L706.4 991.2C730.8 1005.6 734.4 1001.2 714.4 981.2L518 783.2C508 773.2 492 773.2 482 783.2L285.6 981.6C266 1001.6 269.6 1006 293.6 991.6zM293.6 603.6L500 479.6L706.4 603.6C730.8 618 734.4 613.6 714.4 593.6L518 395.2000000000001C508 385.2000000000001 492 385.2000000000001 482 395.2000000000001L285.6 593.6C266 613.6 269.6 618 293.6 603.6zM293.6 215.6L500 91.6L706.4 215.6C730.8 230 734.4 225.6 714.4 205.6L518 7.2C508 -2.8 492 -2.8 482 7.2L285.6 206C266 226 269.6 230.4 293.6 215.6z" />
    <glyph glyph-name="google-plus"
      unicode="&#xE00D;"
      horiz-adv-x="1000" d=" M786 825.6H642V755.2H786V611.2H856.4V755.2H1000.4V825.6H856.4V969.6H786V825.6zM294 525.2C191.6 528.4 102 589.2 77.2 682C46 798.8 128.8 922.8 262.8 958.8C300 968.8 336.8 970.8 371.6 966.4H636.8L562.8 908.4H501.2C530 882.8 551.2 850 561.6 811.6C586.4 718.8 539.2 621.6 452 567.6L459.6 568.4000000000001C459.6 568.4000000000001 377.6 544.4000000000001 432 479.2C514 413.2000000000001 590 381.2000000000001 598 255.2000000000001C598 252.8 598.4 250.8 598.4 248.4C598.8 243.2000000000001 598.8 237.5999999999999 598.8 232C599.6 230 598.8 227.6 596.8 224.8C582.4 134.4 470.8 51.6 326 31.2C161.2 8 16 74 1.2 178.8C-13.6 283.2 108 386.8 272.8 410C296 413.2 318.4 414.8 340.4 414.8C321.6 430.4 307.2 447.2 300.8 467.1999999999999C292 494 291.2 512.4 294 525.2zM442.8 341.6C407.6 360.4 363.2 371.6 315.2000000000001 371.6C200.8 371.6 108 308.4 108 230S200.8 88.4 315.2 88.4C406 88.4 483.2 128.4 511.2 184C514.8 198.8 520 231.6 508.8 265.2000000000001C493.6 296.8 469.2 320.8 442.8 341.6zM365.6 574.8C432.8 592.8 466.4 684.4 440.8 779.2C415.2 874 340.4 936.4 273.2000000000001 918.4S172.8 809.2 198 714S298.4 556.8 365.6 574.8z" />
    <glyph glyph-name="linkedin"
      unicode="&#xE00E;"
      horiz-adv-x="1000" d=" M216.8000000000002 0H3.6000000000002V714.4000000000001H216.8000000000002V0zM1000 0H786.4V381.2000000000001C786.4 481.2 751.2 530.4 681.2 530.4C625.6 530.4 590.4 502.4 573.2 447.2V0H359.6C359.6 0 362.8 643.2 359.6 714.4H528.4L540.8 571.2H545.6C588.4 646.4 668.4 692.4 754.8 691.2C828 691.2 886.8 670.4 931.6 620C977.2 568.8 999.6 500 999.6 403.2000000000001L1000 0zM0 892.4000000000001C0 951.6000000000003 49.2 1000.0000000000002 110 1000.0000000000002C171.2 1000.0000000000002 220.8 952.0000000000002 220.8 892.4000000000001C220.8 833.6000000000001 171.6 785.6000000000001 110.8 785.6000000000001C49.1999999999998 785.5999999999999 0 833.5999999999999 0 892.4000000000001z" />
    <glyph glyph-name="mail"
      unicode="&#xE00F;"
      horiz-adv-x="1000" d=" M941.6 162.8C889.2 106.8 824 64.4 751.2 39.2C676.4000000000001 12.8000000000001 598 -0.4 518.8000000000001 0C446.4000000000001 -0.8 374 11.6 306 37.2C245.2000000000001 60 189.2000000000001 94.8 142.4 140C96.8 184.8 60.8000000000001 238.4 37.2 298C12.0000000000001 362 -0.8 430 1e-13 498.8C-0.8 567.2 13.2 635.2 40.8000000000001 697.6C67.2000000000001 757.2 104.8000000000001 811.2 152.0000000000001 856.4000000000001C200.0000000000001 901.6 256.0000000000001 937.6 317.2000000000001 962C381.2000000000001 987.6 449.6 1000.4 518.8000000000001 1000C579.6 1000 640 991.2 698 973.2C754 956.4 806.4000000000001 929.2 852.4000000000001 892.8C897.6 856.4 934.4 810.4 959.6 758.4C987.6 699.1999999999999 1001.2 634.4 999.6 568.8C1000.4 520.4 992.8 472 977.2 426.4C964 388.4 944 353.2 917.2 322.8C893.6 296 864.4000000000001 274.8 832 260.4C800 246.8 765.6 239.5999999999999 730.8000000000001 239.5999999999999C699.6000000000001 238 669.2 247.2000000000001 643.6000000000001 265.2000000000001C622.8000000000001 280 610.8000000000001 304.4 611.2 329.6H604.4000000000001C588 305.2000000000001 566.8000000000001 284.4 542 268.4C511.2 248.4 475.2 238.4 438.8000000000001 239.2000000000001C384.8 236 332 258.4 296.4 299.6C261.6 344.4 243.6 400 246 456.8C246 494.8 252.4 532.4 264.8 568.4C276.8 604 295.2000000000001 637.2 319.2000000000001 666.4C342.4000000000001 694.8 370.8 718.4 403.2000000000001 735.5999999999999C436.8 753.1999999999999 474 762 512 761.5999999999999C542.4 762.8 572.4 755.1999999999999 599.2 740C620.4 728.4 636.4000000000001 710 645.6 687.5999999999999H646.8L657.6 741.5999999999999H778.4000000000001L725.6 488C724 475.6 721.2 461.6 718.4000000000001 446.4C715.2 432.4 714 417.6 713.6 403.2000000000001C713.2 390 716.4000000000001 376.4 722.4000000000001 364.8C730 353.6 743.6 347.6 757.2 349.6C794.8000000000001 350.8 828.4000000000001 372.4 844.8000000000001 406C870 452.4 882 504.8 879.6000000000001 557.6C880.4000000000001 606.8 871.2 655.2 852.4000000000001 700.8C835.2 740.8 809.6000000000001 776.8 776.8000000000001 805.5999999999999C743.2 834.4 704.4000000000001 856.4 662 869.5999999999999C614.8000000000001 884.4 566 891.5999999999999 516.8000000000001 891.2C462.8 891.6 409.6 881.2 360 860.8C314 842 272.8 813.6 238.4 777.6C204.4 741.6 178 698.8 160.4 652.8C122.4 551.2 122.8 439.2000000000001 161.6 337.6C180 291.6 208 250 243.6 216C280 181.6 322.8 155.6 370 138.8C484.4 100.4000000000001 608.8 103.2000000000001 721.1999999999999 147.2000000000001C774.8 171.2000000000001 824.3999999999999 203.5999999999999 867.1999999999999 244L941.6 162.8zM516.4 651.6C495.6 652 475.6 645.6 459.2 633.2C442.4 620 428.4 603.6 417.6 585.2C406 565.2 397.2 543.6 391.6 521.2C386 499.2 382.8 476.8 382.8 454C382.8 442.4 384 430.8 386 419.6C388.4 407.6 392.8 396 399.6 386C414.8 362 441.6 348.4 469.6 350.4C492 349.6 513.6 356 532 368.4C549.2 380.4 563.6 396 574 414C584.8 432.8 592.8 452.8 598 474C602.8 493.2 605.2 513.2 605.2 533.2C605.2 547.6 604 561.6 601.2 575.6C598.8 588.8 594 601.6 586.8 613.2C580 624.4 570.4 634 558.8 640.8C546.4 648.4 531.6 652.4 516.4 651.6L516.4 651.6z" />
    <glyph glyph-name="marker"
      unicode="&#xE010;"
      horiz-adv-x="1000" d=" M500 1000C267.2 1000 152 841.2 152 644.8S500 0 500 0S848 448.8 848 644.8S732.8 1000 500 1000zM500 522.8C400 524.8 320 606.8 321.2 706.8C322.4 806.8 404.4 887.1999999999999 504.4 886.4S685.5999999999999 804.4 685.5999999999999 704.4C684.4 603.2 601.6 522 500 522.8z" />
    <glyph glyph-name="phone-info"
      unicode="&#xE011;"
      horiz-adv-x="1000" d=" M641.2 449.6C646.8 449.6 668 440 704.8 421.2000000000001S760.8 390.8 763.2 386.8C764 384.8 764.4 381.6 764.4 377.2000000000001C764.4 362.8 760.8 346.8 753.2 328C746.4 311.2000000000001 730.8 297.2000000000001 706.8 285.6C682.8 274 660.8 268.4000000000001 640.4 268.4000000000001C615.5999999999999 268.4000000000001 574.4 281.6 516.8 308.4000000000001C474.4 328 437.6 353.6 406.4 385.2000000000001S343.2 456.4 310 504.8C278.8 550.8 263.2 592.8 263.6 630V635.2C264.8 674.4 280.8 708.4 311.6 737.2C322 746.8 333.2 751.6 345.6 751.6C348.4 751.6 352 751.2 357.2 750.8S366.4 750 369.6 750C378 750 383.6 748.8 386.8 746C390 743.1999999999999 393.6 737.1999999999999 396.8 728.4C400.4 719.5999999999999 407.6 700.8 418.4 671.5999999999999C429.2 642.4 434.8 626 434.8 623.2C434.8 614 427.2 601.5999999999999 412.4 586C397.6 570.4 390 560.4 390 556C390 552.8 391.2 549.5999999999999 393.2 546.4C408 513.6 430 484.4 459.6 456.8C484 434 516.8 412 558 391.6C563.2 388.4 568 387.2000000000001 572.4 387.2000000000001C578.8 387.2000000000001 590.8 397.6 607.6 418.4C624.4 439.2000000000001 635.6 449.6 641.2 449.6zM509.2 107.2000000000001C564.4 107.2000000000001 617.2 118 667.6 139.5999999999999C718 161.2000000000001 761.6 190 798 226C834.4 262 863.6 305.2000000000001 885.2 355.6S917.6 458.4 917.6 512.8S906.8 620 885.2 670S834.8 763.6 798 799.6S718 864.8 667.6 886C617.2 907.6 564 918.4 509.2 918.4S401.2 907.6 350.8 886S256.4 836 220 799.6S154.4 720.4 132.8 670S100.4 567.2 100.4 512.8C100.4 425.2000000000001 126.4 346 178.4 275.2000000000001L126.8 124.8000000000001L284.4 174.4000000000001C353.2 129.6 428 107.2000000000001 509.2 107.2000000000001zM509.2 1000C575.6 1000 639.2 987.2 699.6 961.2C760 935.2 812.4000000000001 900.8 856 857.2S934.8 762 960.8 702C986.8 642 1000 578.8 1000 513.2S986.8 384 960.8 324C934.8 264 900 212 856 168.8C812 125.2000000000001 760 90.8 699.6 64.8C639.2 38.8 575.6 26 509.2 26C424.4 26 345.2 46.4 271.6 86.8L0 0L88.4 261.6C41.6 338.4000000000001 18 422 18 512.8C18 578.8 31.2 641.6 57.2 701.6C83.2 761.6 118 813.6 162 856.8S258 934.8 318.4 960.8C379.2 987.2 442.8 1000 509.2 1000z" />
    <glyph glyph-name="phone"
      unicode="&#xE012;"
      horiz-adv-x="1000" d=" M201.2 566.8C281.6 409.2000000000001 409.6 281.2000000000001 567.2 200.8L689.6 323.2000000000001C704.4 338 726 343.2000000000001 746 336.8C810 315.6 876.8 305.2000000000001 944.4 305.2000000000001C959.2 305.2000000000001 973.2 299.6 983.6 288.8S1000 264.4000000000001 1000 249.6V55.2C1000 40.4000000000001 994.4 26.4000000000001 983.6 16C973.2 5.6 959.2 -0.4 944.4 -0.4C694 -0.4 453.6 99.2000000000001 276.4000000000001 276.4000000000001S0 694 0 944.4C0 975.2 24.8 1000 55.6 1000H250.0000000000001C264.8000000000001 1000 278.8000000000001 994.4 289.2000000000001 983.6C299.6 973.2 305.6 959.2 305.6 944.4C305.6 877.2 316.4000000000001 810 337.2000000000001 746C343.6 726 338.4000000000001 704.4000000000001 323.6 689.6L201.2 566.8z" />
    <glyph glyph-name="play"
      unicode="&#xE013;"
      horiz-adv-x="1000" d=" M500 50C748.4 50 950 251.6 950 500S748.4000000000001 950 500 950S50 748.3999999999996 50 500S251.5999999999999 50 500 50zM500 0C224 0 0 224 0 500S224 1000 500 1000S1000 776 1000 500S776 0 500 0zM333.2000000000001 334.3999999999997V666.3999999999996C333.2000000000001 704.7999999999996 374.0000000000001 728.7999999999996 404.8000000000001 709.5999999999997L691.6 543.5999999999997C725.2 524.3999999999996 725.2 473.9999999999997 691.6 454.3999999999996L404.8 288.3999999999997C374 272 333.2000000000001 296 333.2000000000001 334.3999999999997z" />
    <glyph glyph-name="radio"
      unicode="&#xE014;"
      horiz-adv-x="1000" d=" M0 500C0 223.8576250846032 223.8576250846032 0 500 0C776.1423749153968 0 1000 223.8576250846032 1000 500C1000 776.1423749153968 776.1423749153968 1000 500 1000C223.8576250846032 1000 0 776.1423749153968 0 500z" />
    <glyph glyph-name="select"
      unicode="&#xE015;"
      horiz-adv-x="1000" d=" M0 750L500 250L1000 750z" />
    <glyph glyph-name="twitter"
      unicode="&#xE016;"
      horiz-adv-x="1000" d=" M498 670C497.6 677.2 497.2 684.4 496.4 691.6L496.4 691.6C496 698.8 495.6 706.4 495.6 714C495.6 826 584 916.8 692.8 916.8C747.5999999999999 916.8 797.2 893.6 833.2 856.4000000000001C863.2 858.8 909.2 870 967.2 906.8C967.2 906.8 952.4 831.6 876.4 788C876.4 788 876.4 787.6 876.4 787.6C916.8 798.4000000000001 936 799.6 999.6 825.2C958.4 765.6 940.4 742.8000000000001 890 717.2C890 716.4000000000001 890 715.2 890 714.4000000000001C890 710.4000000000001 890 706 889.6 702C890 694.8000000000001 890 687.6 890 680.8000000000001C890 351.2000000000001 630 84.0000000000001 308.8 84.0000000000001C195.1999999999999 84.0000000000001 89.1999999999999 117.6000000000001 -0.4 175.6000000000001C11.2 174.8000000000002 22.8 174.4000000000001 34.8 174.4000000000001C140 174.4000000000001 237.6 211.2000000000002 315.6 272.8000000000002C172 265.2000000000001 112.4 394 112.4 417.6C159.6 411.2000000000001 197.2 413.2000000000001 197.2 417.6C52 472.4 39.2 582.4 39.2 633.2C78.4 610.4 126.8 604 131.6 604C75.6 632.4 -0.8 749.2 66 888.4C252.4 674 443.6 666.8 498 670z" />
    <glyph glyph-name="wrong"
      unicode="&#xE017;"
      horiz-adv-x="1000" d=" M500 1000C224 1000 0 776 0 500S224 0 500 0S1000 224 1000 500S776 1000 500 1000zM500 90.8C274 90.8 90.8 274 90.8 500S274 909.2 500 909.2S909.2 726 909.2 500S726 90.8 500 90.8z M668.8 657.2C651.2 674.8 622.4 674.8 604.4 657.2L500 552.8L395.6 657.2C378 674.8 349.2 674.8 331.2 657.2C313.6 639.6 313.6 610.8 331.2 592.8L435.6 488.8L331.2 384C313.6 366.4 313.6 337.6 331.2 319.6C348.8 302 377.6 302 395.6 319.6L500 424.4L604.4 320C622 302.4 650.8 302.4 668.8 320C686.4000000000001 337.6 686.4000000000001 366.4 668.8 384.4L564.4 488.8L668.8 593.2C686.4 610.8 686.4 639.6 668.8 657.2z" />
    <glyph glyph-name="youtube"
      unicode="&#xE018;"
      horiz-adv-x="1000" d=" M1000 540.8000000000002V459.6000000000001C1000 373.6000000000002 990 287.2000000000001 990 287.2000000000001S980 213.6000000000001 950 181.6000000000001C912 139.2000000000001 870 138.8000000000002 850 136.4000000000001C710 125.6000000000001 500 124.8000000000002 500 124.8000000000002S240 127.2000000000003 160 135.2000000000003C137.6 140.0000000000002 88 138.8000000000002 50 181.2000000000003C20 213.2000000000003 10 286.8000000000002 10 286.8000000000002S0 373.2000000000003 0 459.2000000000003V540.4000000000003C0 626.8000000000004 10 712.8000000000004 10 712.8000000000004S20 786.4000000000003 50 818.8000000000004C88 861.2000000000005 130 861.6000000000004 150 864.0000000000005C290 874.8000000000004 500 874.8000000000004 500 874.8000000000004S710 874.8000000000004 850 864.0000000000005C870 862.0000000000005 912 861.6000000000004 950 818.8000000000004C980 786.4000000000003 990 712.8000000000004 990 712.8000000000004S1000 628 1000 540.8000000000002zM375.2000000000008 688.3999999999996V313.1999999999996L687.6000000000008 500.7999999999995L375.2000000000008 688.3999999999996z" />
  </font>
</defs>
</svg>
