<svg width="22" height="24" viewBox="0 0 22 24" xmlns="http://www.w3.org/2000/svg" xmlns:xlink="http://www.w3.org/1999/xlink"><title>icons / Livrée</title><defs><path id="a" d="M0 .023V24h21.96V.023H0z"/></defs><g fill="none" fill-rule="evenodd"><mask id="b" fill="#fff"><use xlink:href="#a"/></mask><path d="M.136 4.159C-.33 2.803.44 1.335 1.852.888c1.411-.448 2.94.292 3.405 1.648l5.298 15.424a3.682 3.682 0 0 0-1.543-.056L3.882 2.97c-.215-.628-.923-.97-1.577-.763-.654.207-1.01.887-.795 1.515a.69.69 0 0 1-.46.878.73.73 0 0 1-.914-.442zm20.874 12.1l-8.68 2.75c.308.336.552.736.707 1.187.006.016.009.032.014.048l8.413-2.666a.69.69 0 0 0 .46-.878.73.73 0 0 0-.914-.442zm-8.66 4.155c.492 1.432-.318 2.975-1.808 3.448-1.49.472-3.098-.305-3.59-1.737-.492-1.432.318-2.976 1.809-3.448 1.49-.473 3.097.305 3.59 1.737zM11 20.84c-.245-.715-1.049-1.104-1.794-.868-.746.236-1.15 1.008-.904 1.724.246.716 1.049 1.105 1.794.869.746-.237 1.15-1.009.905-1.725zm7.817-15.045l2.947 8.58a.345.345 0 0 1-.23.439l-9.276 2.94a.365.365 0 0 1-.457-.222l-2.947-8.58a.345.345 0 0 1 .23-.438l9.276-2.94c.19-.06.394.039.457.22zm-3.983-.135L12.949.176a.234.234 0 0 0-.292-.141l-1.615.512-.008.014-.014-.008-.852.27.702 2.044-.962.305-.702-2.044-.852.27-.007.014-.015-.007-1.605.51a.22.22 0 0 0-.147.28L8.464 7.68c.04.117.17.18.292.141l5.93-1.879a.22.22 0 0 0 .148-.28z" fill="#2C3E50" mask="url(#b)"/><path d="M18.111 9.236c-.144-.462-.59-.818-.926-1.029a.724.724 0 0 0-.754-.009l-.6.358a.862.862 0 0 1-.88 0l-.6-.358a.724.724 0 0 0-.754.009c-.336.211-.782.567-.926 1.03-.242.772-.604 1.723.301 2.793 0 0-.483 2.021.664 2.972 0 0 .838.371.725-.357-.074-.473-.068-2.224 1.03-2.31 1.098.086 1.104 1.838 1.03 2.31-.113.728.724.357.724.357 1.147-.951.664-2.972.664-2.972.906-1.07.544-2.021.302-2.794z" fill="#FFF" mask="url(#b)" transform="rotate(-20 15.39 11.597)"/></g></svg>