<svg width="56" height="40" viewBox="0 0 56 40" xmlns="http://www.w3.org/2000/svg" xmlns:xlink="http://www.w3.org/1999/xlink"><title>Card-visa</title><defs><path id="a" d="M.007 39.993V.102H56v39.891z"/><path id="c" d="M.007 39.993H56V.102H.007z"/></defs><g fill="none" fill-rule="evenodd"><mask id="b" fill="#fff"><use xlink:href="#a"/></mask><path d="M56 36.58c0 1.889-1.482 3.42-3.31 3.42H3.31C1.482 40 0 38.469 0 36.58V3.522C0 1.633 1.482.102 3.31.102h49.38c1.828 0 3.31 1.531 3.31 3.42V36.58" fill="#FFFFFE" mask="url(#b)"/><path d="M12.43 20.28l-1.316-6.516c-.224-.898-.878-1.166-1.696-1.2H3.39l-.054.297c4.696 1.176 7.802 4.013 9.093 7.42" fill="#EB982E"/><path fill="#2191AD" d="M26.398 12.694h-3.895L20.07 27.443h3.889l2.44-14.749M14.803 27.428l6.126-14.724h-4.122l-3.811 10.06-.407-1.519c-.747-1.827-2.882-4.457-5.388-6.113l3.483 12.301 4.12-.005m22.704-4.806c.015-1.675-1.026-2.952-3.269-4.007-1.363-.681-2.194-1.136-2.184-1.827 0-.611.704-1.267 2.228-1.267a6.986 6.986 0 0 1 2.912.565l.352.167.528-3.195c-.772-.298-1.98-.616-3.489-.616-3.845 0-6.552 1.999-6.576 4.866-.025 2.12 1.935 3.301 3.41 4.008 1.515.72 2.023 1.18 2.013 1.827-.01.988-1.207 1.438-2.325 1.438-1.559 0-2.385-.222-3.665-.773l-.498-.236-.547 3.305c.908.41 2.589.768 4.333.783 4.09 0 6.748-1.973 6.777-5.038"/><mask id="d" fill="#fff"><use xlink:href="#c"/></mask><path d="M44.802 18.09c-.019.04.323-.853.519-1.408l.263 1.272s.743 3.523.9 4.26h-3.23c.322-.848 1.548-4.124 1.548-4.124zm-2.667 7.142l4.984.005c.117.514.474 2.211.474 2.211h3.61L48.052 12.71h-3.005c-.933 0-1.627.263-2.038 1.222l-5.78 13.517h4.09s.664-1.817.816-2.216zM52.69.102H3.31C1.482.102 0 1.633 0 3.522v3.55h56v-3.55c0-1.889-1.482-3.42-3.31-3.42" fill="#2191AD" mask="url(#d)"/><path d="M52.69 40H3.31C1.482 40 0 38.469 0 36.58v-3.55h56v3.55c0 1.89-1.482 3.42-3.31 3.42" fill="#EB982E" mask="url(#d)"/><path fill="#DCDBD6" mask="url(#d)" d="M.007 33.03h2.346V7.072H.007z"/><path d="M2.353 7.071H0v-3.55C0 1.634 1.482.102 3.31.102h2.354c-1.828 0-3.31 1.532-3.31 3.42v3.55" fill="#1D8097" mask="url(#d)"/><path d="M5.664 40H3.31c-.102 0-.202-.005-.302-.014C1.322 39.828 0 38.364 0 36.58v-3.55h2.353v3.55c0 1.889 1.483 3.42 3.31 3.42" fill="#CA8531" mask="url(#d)"/></g></svg>