<svg width="56" height="40" viewBox="0 0 56 40" xmlns="http://www.w3.org/2000/svg" xmlns:xlink="http://www.w3.org/1999/xlink"><title>Card-business</title><defs><path id="a" d="M.006 21.91V.007h37.919V21.91z"/></defs><g fill="none" fill-rule="evenodd"><path d="M52.69 40H3.31C1.482 40 0 38.465 0 36.571V3.43C0 1.535 1.482 0 3.31 0h49.38C54.518 0 56 1.535 56 3.429V36.57c0 1.895-1.482 3.43-3.31 3.43z" fill="#3C80AD"/><path d="M5.635 40H3.31C1.482 40 0 38.469 0 36.58V3.522C0 1.644 1.465.12 3.278.102h2.386c-1.828 0-3.31 1.531-3.31 3.42V36.58c0 1.879 1.466 3.404 3.28 3.42" fill="#34719A"/><path d="M46.925 19.958c0 6.026-5.057 10.952-11.378 10.952-6.26 0-11.377-4.926-11.377-10.952s5.056-10.95 11.317-10.95c6.381 0 11.438 4.924 11.438 10.95z" fill="#FFB600"/><path d="M35.547 9.007c6.261 0 11.378 4.925 11.378 10.951 0 6.026-5.057 10.952-11.378 10.952-6.26 0-11.377-4.926-11.377-10.952" fill="#F7981D"/><g transform="translate(9 9)"><mask id="b" fill="#fff"><use xlink:href="#a"/></mask><path d="M26.547.007c6.261 0 11.378 4.925 11.378 10.951 0 6.026-5.057 10.952-11.378 10.952" fill="#FF8500" mask="url(#b)"/><path d="M11.257.007C5.057.065 0 4.932 0 10.958 0 16.984 5.057 21.91 11.378 21.91c2.95 0 5.598-1.101 7.644-2.84.422-.347.783-.753 1.144-1.158H17.82a13.342 13.342 0 0 1-.843-1.101h4.033a7.29 7.29 0 0 0 .662-1.16h-5.357a6.766 6.766 0 0 1-.482-1.158h6.26c.362-1.101.603-2.26.603-3.477 0-.81-.12-1.564-.241-2.317H15.47c.06-.406.18-.754.3-1.16h6.261a6.75 6.75 0 0 0-.481-1.158h-5.297c.18-.406.42-.754.662-1.159h4.033a5.527 5.527 0 0 0-.903-1.159h-2.227c.36-.405.722-.753 1.144-1.1-1.987-1.797-4.696-2.84-7.646-2.84 0-.116 0-.116-.06-.116z" fill="#FF5050" mask="url(#b)"/><path d="M0 10.958C0 16.984 5.057 21.91 11.378 21.91c2.95 0 5.598-1.101 7.644-2.84.422-.347.783-.753 1.144-1.158H17.82a13.342 13.342 0 0 1-.843-1.101h4.033a7.29 7.29 0 0 0 .662-1.16h-5.357a6.766 6.766 0 0 1-.482-1.158h6.26c.362-1.101.603-2.26.603-3.477 0-.81-.12-1.564-.241-2.317H15.47c.06-.406.18-.754.3-1.16h6.261a6.75 6.75 0 0 0-.481-1.158h-5.297c.18-.406.42-.754.662-1.159h4.033a5.527 5.527 0 0 0-.903-1.159h-2.227c.36-.405.722-.753 1.144-1.1-1.987-1.797-4.696-2.84-7.646-2.84h-.06" fill="#E52836" mask="url(#b)"/></g><path d="M20.378 30.91c2.95 0 5.598-1.101 7.644-2.84.422-.347.783-.753 1.144-1.158H26.82a13.342 13.342 0 0 1-.843-1.101h4.033a7.29 7.29 0 0 0 .662-1.16h-5.357a6.766 6.766 0 0 1-.482-1.158h6.26c.362-1.101.603-2.26.603-3.477 0-.81-.12-1.564-.241-2.317H24.47c.06-.406.18-.754.3-1.16h6.261a6.75 6.75 0 0 0-.481-1.158h-5.297c.18-.406.42-.754.662-1.159h4.033a5.527 5.527 0 0 0-.903-1.159h-2.227c.36-.405.722-.753 1.144-1.1-1.987-1.797-4.696-2.84-7.646-2.84h-.06" fill="#CB2026"/><path d="M24.41 22.74l.181-.985c-.06 0-.18.058-.3.058-.422 0-.482-.232-.422-.348l.361-2.028h.662l.18-1.101h-.601l.12-.695h-1.204s-.722 3.824-.722 4.287c0 .696.422.986.963.986.361 0 .662-.116.783-.174zm.422-1.855c0 1.623 1.144 2.029 2.107 2.029.903 0 1.264-.174 1.264-.174l.24-1.101s-.661.29-1.263.29c-1.325 0-1.084-.928-1.084-.928h2.468s.181-.753.181-1.043c0-.753-.421-1.68-1.746-1.68-1.264-.116-2.167 1.159-2.167 2.607zm2.107-1.68c.662 0 .542.753.542.811h-1.325c0-.058.12-.81.783-.81zm7.645 3.535l.24-1.275s-.601.29-1.022.29c-.843 0-1.204-.638-1.204-1.333 0-1.39.722-2.144 1.565-2.144.602 0 1.083.347 1.083.347l.181-1.216s-.722-.29-1.385-.29c-1.384 0-2.769 1.159-2.769 3.36 0 1.45.723 2.435 2.167 2.435.482 0 1.144-.174 1.144-.174zm-16.795-4.578c-.843 0-1.445.232-1.445.232l-.18.985s.542-.232 1.324-.232c.421 0 .782.058.782.406 0 .231-.06.29-.06.29h-.541c-1.024 0-2.168.405-2.168 1.738 0 1.043.723 1.275 1.144 1.275.843 0 1.204-.522 1.264-.522l-.06.464h1.084l.481-3.187c0-1.39-1.204-1.449-1.625-1.449zm.24 2.608c0 .173-.12 1.1-.842 1.1a.46.46 0 0 1-.481-.463c0-.29.18-.695 1.083-.695.18.058.24.058.24.058zm2.529 2.086c.3 0 1.806.058 1.806-1.507 0-1.449-1.445-1.159-1.445-1.738 0-.29.241-.406.663-.406.18 0 .842.058.842.058l.18-1.043s-.42-.116-1.143-.116c-.903 0-1.806.348-1.806 1.507 0 1.332 1.505 1.216 1.505 1.738 0 .348-.421.406-.722.406-.542 0-1.084-.174-1.084-.174l-.18 1.043c.06.116.36.232 1.384.232zm24.019-5.621l-.24 1.565s-.482-.58-1.145-.58c-1.083 0-2.046 1.275-2.046 2.781 0 .927.481 1.913 1.505 1.913.722 0 1.144-.464 1.144-.464l-.06.406h1.203l.903-5.563-1.264-.058zm-.542 3.071c0 .637-.3 1.449-.963 1.449-.421 0-.662-.348-.662-.928 0-.927.421-1.506.963-1.506.422 0 .662.29.662.985zm-32.808 2.492l.723-4.173.12 4.173h.843l1.565-4.173-.662 4.173h1.264l.963-5.563h-1.986l-1.204 3.419-.06-3.419h-1.746l-.963 5.563zm18.662 0c.361-1.913.421-3.477 1.264-3.187.12-.753.3-1.043.421-1.333h-.24c-.542 0-.964.695-.964.695l.12-.637h-1.143l-.783 4.52h1.325v-.058zm7.464-4.636c-.843 0-1.445.232-1.445.232l-.18.985s.542-.232 1.324-.232c.422 0 .783.058.783.406 0 .231-.06.29-.06.29h-.542c-1.023 0-2.167.405-2.167 1.738 0 1.043.722 1.275 1.144 1.275.842 0 1.203-.522 1.264-.522l-.06.464h1.083l.482-3.187c.06-1.39-1.204-1.449-1.626-1.449zm.301 2.608c0 .173-.12 1.1-.843 1.1a.46.46 0 0 1-.481-.463c0-.29.18-.695 1.083-.695.181.058.181.058.241.058zm2.348 2.028c.361-1.913.421-3.477 1.264-3.187.12-.753.3-1.043.422-1.333h-.241c-.542 0-.964.695-.964.695l.121-.637H39.46l-.782 4.52h1.324v-.058z" fill="#FFF"/><path d="M22.545 21.928c0 .696.42.986.963.986.421 0 .782-.116.903-.174l.18-.985c-.06 0-.18.058-.3.058-.422 0-.482-.232-.422-.348l.361-2.028h.662l.18-1.101h-.601l.12-.695m.843 3.244c0 1.623.542 2.029 1.505 2.029.903 0 1.264-.174 1.264-.174l.24-1.101s-.661.29-1.263.29c-1.325 0-1.084-.928-1.084-.928h2.468s.181-.753.181-1.043c0-.753-.421-1.68-1.746-1.68-1.264-.116-1.565 1.159-1.565 2.607zm1.505-1.68c.662 0 .782.753.782.811h-1.565c0-.058.12-.81.783-.81zm7.645 3.535l.24-1.275s-.601.29-1.022.29c-.843 0-1.204-.638-1.204-1.333 0-1.39.722-2.144 1.565-2.144.602 0 1.083.347 1.083.347l.181-1.216s-.722-.29-1.385-.29c-1.384 0-2.167 1.159-2.167 3.36 0 1.45.12 2.435 1.565 2.435.482 0 1.144-.174 1.144-.174zm-18.42-3.303s.542-.232 1.324-.232c.421 0 .782.058.782.406 0 .231-.06.29-.06.29h-.541c-1.024 0-2.168.405-2.168 1.738 0 1.043.723 1.275 1.144 1.275.843 0 1.204-.522 1.264-.522l-.06.464h1.084l.481-3.187c0-1.333-1.204-1.391-1.685-1.391l-1.565 1.159zm2.467 1.333c0 .173-.722 1.1-1.444 1.1a.46.46 0 0 1-.481-.463c0-.29.18-.695 1.083-.695.18.058.842.058.842.058zm.603 1.97s.36.116 1.384.116c.301 0 1.806.058 1.806-1.507 0-1.449-1.445-1.159-1.445-1.738 0-.29.241-.406.662-.406.181 0 .843.058.843.058l.181-1.043s-.421-.116-1.144-.116c-.903 0-1.204.348-1.204 1.507 0 1.332.903 1.216.903 1.738 0 .348-.421.406-.722.406M44.336 18.8s-.481-.58-1.144-.58c-1.083 0-1.444 1.275-1.444 2.781 0 .927-.12 1.913.903 1.913.722 0 1.144-.464 1.144-.464l-.06.406h1.203l.903-5.563-1.505 1.507zm-.06 1.506c0 .637-.542 1.449-1.204 1.449-.421 0-.662-.348-.662-.928 0-.927.421-1.506.963-1.506.422 0 .903.29.903.985zm-33.049 2.492l.723-4.173.12 4.173h.843l1.565-4.173-.662 4.173h1.264l.963-5.563h-1.505l-1.685 3.419-.06-3.419h-.663l-2.046 5.563zm17.398 0h1.264c.361-1.913.421-3.477 1.264-3.187.12-.753.3-1.043.421-1.333h-.24c-.542 0-.964.695-.964.695l.12-.637m5.238 1.101s.542-.232 1.324-.232c.422 0 .783.058.783.406 0 .231-.06.29-.06.29h-.542c-1.023 0-2.167.405-2.167 1.738 0 1.043.722 1.275 1.144 1.275.842 0 1.203-.522 1.264-.522l-.06.464h1.083l.482-3.187c0-1.333-1.204-1.391-1.686-1.391l-1.565 1.159zm2.468 1.333c0 .173-.722 1.1-1.445 1.1a.46.46 0 0 1-.481-.463c0-.29.18-.695 1.083-.695.241.058.843.058.843.058zm.542 2.028h1.264c.361-1.913.421-3.477 1.264-3.187.12-.753.3-1.043.422-1.333h-.241c-.542 0-.964.695-.964.695l.121-.637" fill="#DCE5E5"/></g></svg>