<svg width="56" height="40" viewBox="0 0 56 40" xmlns="http://www.w3.org/2000/svg" xmlns:xlink="http://www.w3.org/1999/xlink"><title>Card-american-express</title><defs><path id="a" d="M.007 39.993V.102H56v39.891z"/></defs><g fill="none" fill-rule="evenodd"><mask id="b" fill="#fff"><use xlink:href="#a"/></mask><path d="M56 36.58c0 1.889-1.482 3.42-3.31 3.42H3.31C1.482 40 0 38.469 0 36.58V3.522C0 1.633 1.482.102 3.31.102h49.38c1.828 0 3.31 1.531 3.31 3.42V36.58" fill="#3C64A1" mask="url(#b)"/><path d="M5.664 40H3.31C1.482 40 0 38.469 0 36.58 0 38.469 1.482 40 3.31 40h2.354M0 3.522C0 1.644 1.465.12 3.278.102 1.465.12 0 1.644 0 3.522" fill="#DBDBD6" mask="url(#b)"/><path d="M5.635 40H3.31C1.482 40 0 38.469 0 36.58V3.522C0 1.644 1.465.12 3.278.102h2.386c-1.828 0-3.31 1.531-3.31 3.42V36.58c0 1.879 1.466 3.404 3.28 3.42" fill="#305A98" mask="url(#b)"/><path fill="#FFFFFE" d="M8.158 16.068h1.674l-.837-2.2-.837 2.2m8.899 7.385v1.021h2.814v1.1h-2.814v1.18h3.118l1.445-1.65-1.37-1.651h-3.193m21.979-9.585l-.913 2.2h1.75l-.837-2.2M25.194 27.381v-4.478l-1.977 2.2 1.977 2.278m3.726-3.221c-.075-.471-.38-.707-.836-.707h-1.597v1.414h1.673c.457 0 .76-.235.76-.707m5.324.55c.152-.078.229-.314.229-.55.076-.314-.077-.471-.229-.55-.151-.078-.38-.078-.608-.078h-1.521v1.257h1.521c.228 0 .456 0 .608-.079"/><path d="M47.478 18.425h-1.674l-2.433-4.165v3.458l-.008-.009v.72h-1.285v-.004h-1.293l-.456-1.179h-2.662l-.457 1.257h-1.445c-.608 0-1.369-.157-1.825-.628-.456-.471-.684-1.1-.684-2.121 0-.786.152-1.572.684-2.2.38-.472 1.065-.629 1.902-.629h1.217v1.179h-1.217c-.457 0-.684.078-.99.314-.227.236-.38.707-.38 1.257 0 .629.077 1.021.38 1.335.23.236.533.315.913.315h.533l1.749-4.321h1.901l2.13 5.264v-5.264h1.901l2.205 3.85v-3.85h1.294v5.421zm-16.124 0h1.293v-5.5h-1.293v5.5zm-1.268-2.296l.007.005a.894.894 0 0 1 .075.093c.146.198.263.491.27.921v.023l.001.012v.007c.002.043.003.087.003.135v1.1h-1.14v-.629c0-.314 0-.786-.23-1.1a.691.691 0 0 0-.223-.158c-.114-.076-.33-.077-.689-.077h-1.369v1.964h-1.293v-5.5h2.89c.685 0 1.141 0 1.522.236.372.23.597.614.606 1.221-.018.836-.537 1.295-.91 1.45 0 0 .253.053.48.297zm-5.424-2.026h-2.966v1.022h2.89v1.1h-2.89v1.1h2.966v1.178h-4.259v-5.578h4.259v1.178zm-5.248 4.322h-1.217v-4.322l-.076.18v-.002l-1.77 4.144h-1.12l-1.825-4.322v4.322H10.82l-.532-1.179H7.702l-.533 1.179H5.833l2.25-5.5h1.9l2.13 5.264v-5.264h2.015l.036.079h.003l.96 2.157.688 1.617.024-.082 1.522-3.77h2.053v5.499zm25.782-6.6v.943l-.456-.943h-3.575v.943l-.456-.943h-4.867c-.837 0-1.522.157-2.13.471v-.471H30.29v.471c-.38-.314-.837-.471-1.445-.471H16.6l-.837 1.964-.836-1.964h-3.879v.943l-.38-.943H7.322L5.8 15.517l-1.749 4.007-.032.08h3.96l.027-.08.457-1.178h.989l.456 1.257h4.41v-.943l.38.943h2.206l.38-.943v.943h10.572V17.56h.152c.152 0 .152 0 .152.236v1.728h5.476v-.471c.456.236 1.14.471 2.053.471h2.282l.456-1.256h1.065l.456 1.256h4.41v-1.178l.686 1.178h3.574v-7.7h-3.422z" fill="#FFFFFE"/><path d="M29.002 15.216a.425.425 0 0 0 .06-.085.872.872 0 0 0 .105-.592.456.456 0 0 0-.012-.072l-.003-.018a.436.436 0 0 0-.231-.267c-.153-.079-.38-.079-.609-.079h-1.521v1.258h1.521c.228 0 .456 0 .609-.08a.284.284 0 0 0 .063-.046v.001l.018-.02m21.594 12.087c-.304.315-.837.55-1.598.55h-2.433v-1.178h2.433c.229 0 .381 0 .533-.157a.612.612 0 0 0 .152-.393.611.611 0 0 0-.152-.393c-.076-.079-.228-.157-.456-.157-1.217-.079-2.662 0-2.662-1.729 0-.746.414-1.42 1.433-1.621.122-.018.251-.029.392-.029h2.51v1.336H48.39c-.228 0-.38 0-.532.078a.61.61 0 0 0-.152.393c0 .236.076.315.304.393.152.078.304.078.456.078h.685c.332 0 .584.043.814.126.21.08.908.401 1.064 1.243.013.088.023.18.023.282 0 .471-.152.864-.456 1.178zm-6.54.55H41.62v-1.178h2.434c.228 0 .38 0 .533-.158a.61.61 0 0 0 .152-.392.61.61 0 0 0-.152-.393c-.076-.079-.229-.157-.457-.157-1.217-.079-2.662 0-2.662-1.729 0-.785.457-1.65 1.826-1.65h2.51v1.336h-2.358c-.228 0-.38 0-.533.078-.151.079-.151.236-.151.393 0 .236.151.315.303.393.153.078.305.078.457.078h.684c.685 0 1.141.158 1.445.472.228.236.38.629.38 1.179 0 1.178-.684 1.728-1.977 1.728zm-3.195-4.4h-2.966v1.021h2.89v1.1h-2.89v1.1h2.966v1.18h-4.259v-5.58h4.26v1.179zm-5.248 2.279c.152.235.229.55.229 1.022v1.1h-1.293v-.708c0-.314 0-.864-.229-1.1-.151-.235-.456-.235-.912-.235h-1.369v2.042h-1.293v-5.578h2.89c.608 0 1.14 0 1.521.235.38.236.685.63.685 1.258 0 .864-.533 1.335-.913 1.493.38.156.608.314.684.47zm-7.605.079h-1.521v2.042h-2.5l-1.455-1.728-.005.005-.07-.084-1.674 1.807h-4.867v-5.5h4.943l1.35 1.529.285.32.038-.042 1.598-1.807h4.03c.783 0 1.658.2 1.99 1.022.04.163.064.344.064.55 0 1.571-1.065 1.886-2.206 1.886zm23.957.47c0-.55-.152-1.1-.38-1.492v-3.535h-.004v-.236H47.92c-.474 0-1.05.47-1.05.47v-.47h-3.498c-.533 0-1.217.157-1.521.47v-.47h-6.237v.47c-.456-.392-1.293-.47-1.673-.47h-4.107v.47c-.38-.392-1.293-.47-1.75-.47h-4.562l-1.065 1.178-.989-1.178h-6.844v7.935h6.693l1.1-1.136.953 1.136h4.259v-1.807h.38c.532 0 1.217 0 1.75-.236v2.122h3.422v-2.043h.151c.23 0 .23 0 .23.236v1.807h10.342c.685 0 1.369-.158 1.75-.472v.472h3.27c.684 0 1.369-.079 1.825-.393.7-.434 1.142-1.202 1.207-2.119l.01-.081-.005-.005c.003-.05.005-.1.005-.152z" fill="#FFFFFE"/></g></svg>