<svg width="33" height="16" viewBox="0 0 33 16" xmlns="http://www.w3.org/2000/svg"><title>icons / forward by email</title><g fill="#2C3E50" fill-rule="evenodd"><path d="M24.686 5.86h-2.933a1.7 1.7 0 1 0 0 3.4h2.933v3.8a2 2 0 0 1-2 2h-20a2 2 0 0 1-2-2V2.073l8.559 5.515-6.956 5.21.002.009c-.249.118-.413.35-.357.614.058.27.29.392.56.337v.004L10.07 8.12l2.616 1.685 2.57-1.687 7.504 5.644.001-.004c.268.055.502-.068.559-.337.056-.263-.108-.496-.357-.614l.002-.008-6.93-5.192 8.64-5.672V1.84c.007.072.01.145.01.219v3.8zm-.194-4.661L12.686 8.805.875 1.21A2 2 0 0 1 2.685.06h20a2 2 0 0 1 1.807 1.139z"/><path d="M27.482 4.75l1.928 1.955h-7.633a.849.849 0 0 0-.84.855c0 .47.377.851.84.851h7.633l-1.928 1.959a.862.862 0 0 0 0 1.206.833.833 0 0 0 1.19 0l3.359-3.412a.95.95 0 0 0 .105-.131c.014-.022.022-.044.035-.065.014-.027.03-.054.043-.083.01-.028.016-.056.027-.086.005-.025.016-.048.02-.073a.927.927 0 0 0 0-.333c-.006-.027-.015-.05-.023-.075-.008-.03-.014-.059-.024-.085-.013-.03-.03-.057-.043-.084-.013-.02-.02-.044-.035-.062a.791.791 0 0 0-.105-.132L28.67 3.543a.83.83 0 0 0-1.188 0 .862.862 0 0 0 0 1.206z"/></g></svg>