<svg width="18" height="17" viewBox="0 0 18 17" xmlns="http://www.w3.org/2000/svg"><title>hirurgie</title><path d="M14.707 6.22c.469-1.536-.024-6.163-5.696-6.163-5.67 0-6.164 4.627-5.696 6.162.469 1.535 1.43 2.29.469 3.046-.962.755-.025 2.149.666 1.912.69-.236.912-.307 1.849-.141.937.165.493 1.133.493 1.133.067.14.265.251.543.336v-.391h.184v.44c.17.04.36.073.562.096v-.358h.184v.377c.21.02.432.03.654.032v-.364h.184v.364c.223-.002.444-.013.655-.032v-.377h.184v.358c.202-.023.392-.055.562-.096v-.44h.184v.391c.277-.085.475-.197.543-.336 0 0-.444-.968.493-1.133.937-.166 1.159-.095 1.849.141.69.237 1.627-1.157.666-1.912-.962-.756 0-1.511.468-3.046zM9.17 9.836c-.061.357-.159.364-.159.364s-.097-.007-.159-.364c-.062-.358-.185-.415-.415.186-.23.6-.292 1.25.22 1.329.513.078.107-.49.354-.705.248.214-.159.783.354.705.512-.079.45-.73.22-1.33-.229-.6-.353-.543-.415-.185zm-1.08-1.38c0-.77-.652-1.393-1.455-1.393-.804 0-1.455.624-1.455 1.393 0 .77.651 1.393 1.455 1.393.803 0 1.455-.623 1.455-1.393zm-1.216 5.287v-.67c.154.057.307.107.461.151v.518h.184v-.468c.187.048.374.087.562.117v.44h.183v-.413c.219.028.437.043.655.047v.455h.184v-.455c.219-.004.437-.02.655-.048v.414h.184v-.44a6.31 6.31 0 0 0 .562-.117v.468h.184v-.518a6.77 6.77 0 0 0 .46-.15v.669c.82-.353.77-.962.826-1.516.087-.844.644-.86.644-.86s-.346 1.041-.134 2.083c.212 1.04-1.982 1.673-3.473 1.673-1.49 0-3.684-.632-3.472-1.673.211-1.042-.135-2.083-.135-2.083s.558.016.645.86c.056.554.005 1.163.825 1.516zm5.922-5.287c0 .77-.651 1.393-1.455 1.393-.803 0-1.455-.623-1.455-1.393s.652-1.393 1.455-1.393c.804 0 1.455.624 1.455 1.393zM2.026 6.805l1.325 1.986a.306.306 0 0 1-.1.433.336.336 0 0 1-.452-.096l-.745-1.117v.032c-.024 2.091-.049 4.27.678 5.5 1.16 1.962 4.09 2.805 6.28 2.805 2.19 0 5.12-.842 6.28-2.806.726-1.23.701-3.408.678-5.499v-.032l-.746 1.117a.336.336 0 0 1-.452.096.306.306 0 0 1-.1-.433l1.325-1.986a.33.33 0 0 1 .292-.17.33.33 0 0 1 .292.17l1.325 1.986a.306.306 0 0 1-.1.433.336.336 0 0 1-.452-.096l-.73-1.093v.003c.025 2.174.05 4.437-.762 5.814-1.29 2.184-4.402 3.125-6.85 3.125-2.45 0-5.56-.94-6.85-3.125-.814-1.377-.788-3.64-.764-5.814v-.003L.67 9.128a.336.336 0 0 1-.452.096.306.306 0 0 1-.1-.433l1.325-1.986a.33.33 0 0 1 .292-.17.33.33 0 0 1 .292.17z" fill="#99A3A4" fill-rule="evenodd"/></svg>