<svg width="16" height="15" viewBox="0 0 16 15" xmlns="http://www.w3.org/2000/svg"><title>orthodontie</title><path d="M13.276 8.882c-.567-.273-1.312-.274-2.158-.272h-.402c-.845-.002-1.591-.001-2.158.272-.233.112-.475.45-.567.45-.093 0-.333-.338-.566-.45-.567-.273-1.312-.274-2.158-.272h-.402c-.846-.002-1.592-.001-2.159.272-.628.302-.934.88-.934 1.765 0 .942.343 2.01.918 2.855.657.966 1.5 1.498 2.376 1.498.874 0 1.718-.532 2.375-1.498.22-.322.457-1.045.55-1.045.083 0 .331.723.55 1.045C9.2 14.468 10.043 15 10.918 15s1.718-.532 2.375-1.498c.575-.845.918-1.913.918-2.855 0-.886-.305-1.463-.934-1.765zm-5.744 2.136h-.795s-.114.008-.114-.101v-.082a.47.47 0 0 0-.475-.464H4.34a.47.47 0 0 0-.475.464v1.09a.47.47 0 0 0 .475.464h1.807a.47.47 0 0 0 .475-.464v-.103c0-.083.1-.086.1-.086H7.4c.058 0 .048.042.042.063-.385 1.282-1.337 2.483-2.377 2.483-1.354 0-2.558-2.032-2.558-3.634 0-1.2.625-1.32 2.161-1.32h.194a143.729 143.729 0 0 0 .6 0c1.535 0 2.16.12 2.16 1.32 0 .087-.003.175-.01.265-.003.035.002.105-.08.105zm3.385 3.264c-1.042 0-1.996-1.206-2.38-2.492-.005-.018-.008-.054.047-.054h.686s.09-.019.09.076v.113a.47.47 0 0 0 .475.464h1.806a.47.47 0 0 0 .475-.464v-1.09a.47.47 0 0 0-.475-.464H9.835a.47.47 0 0 0-.475.464v.085c0 .089-.1.098-.1.098h-.796c-.093 0-.09-.055-.092-.082a3.434 3.434 0 0 1-.013-.289c0-1.2.626-1.32 2.162-1.32l.193.001a143.694 143.694 0 0 0 .6 0c1.535 0 2.16.12 2.16 1.32 0 1.602-1.203 3.634-2.557 3.634zm3.888-12.345C13.97.71 12.905.034 11.803.034c-1.101 0-2.167.676-3.002 1.903-.336.495-.73 1.62-.81 1.62-.083 0-.473-1.125-.81-1.62C6.347.71 5.281.034 4.18.034c-1.102 0-2.168.676-3.002 1.903C.44 3.022 0 4.39 0 5.597c0 1.108.378 1.829 1.155 2.202.716.345 1.675.345 2.762.343h.779c.982 0 1.848-.025 2.508-.343.337-.162.675-.685.787-.685.112 0 .45.523.788.685.716.345 1.675.345 2.762.343h.779c.981 0 1.848-.025 2.508-.343.777-.374 1.155-1.094 1.155-2.203 0-1.207-.44-2.574-1.178-3.659zM4.696 7.424h-.253a120.304 120.304 0 0 0-.527 0h-.253c-2.035 0-2.927-.173-2.927-1.828 0-1.07.394-2.29 1.055-3.262C2.474 1.33 3.345.752 4.18.752c.834 0 1.705.577 2.388 1.582a6.32 6.32 0 0 1 .848 1.836c.011.039.036.116-.048.116h-1.17s-.094-.007-.094-.134v-.197a.51.51 0 0 0-.515-.502H3.236a.51.51 0 0 0-.515.502v1.42a.51.51 0 0 0 .515.503H5.59a.51.51 0 0 0 .515-.502v-.272c0-.097.113-.1.113-.1h1.3c.069 0 .074.044.076.066.02.178.03.354.03.526 0 1.655-.891 1.828-2.927 1.828zm7.624 0h-.253a120.3 120.3 0 0 0-.528 0h-.252c-2.036 0-2.928-.173-2.928-1.828 0-.178.011-.36.033-.545.001-.016.01-.046.059-.046h1.291s.137.01.137.118v.253c0 .277.23.502.514.502h2.354a.51.51 0 0 0 .514-.502V3.955a.51.51 0 0 0-.514-.503h-2.354a.51.51 0 0 0-.514.503v.222c0 .108-.111.11-.111.11H8.6c-.053 0-.053-.047-.046-.07.178-.66.474-1.314.86-1.883.684-1.005 1.555-1.582 2.39-1.582.834 0 1.704.577 2.388 1.582.66.972 1.055 2.191 1.055 3.262 0 1.655-.892 1.828-2.927 1.828z" fill="#99A3A4" fill-rule="evenodd"/></svg>