<svg width="28" height="38" viewBox="0 0 28 38" xmlns="http://www.w3.org/2000/svg"><title>Basket</title><g fill="none" fill-rule="evenodd"><path d="M27.989 36.351l-.076-26.184a.983.983 0 0 0-.972-.914h-5.572v-1.26C21.37 3.861 18.116.5 14.063.5h-.129C9.882.5 6.541 3.861 6.541 7.993v1.26H1.057a.983.983 0 0 0-.973.914l-.08 26.259c-.023.276.07.55.254.754.185.204.445.32.717.32h26.05a.985.985 0 0 0 .964-1.149zM8.493 7.993c0-3.035 2.464-5.504 5.441-5.504h.13c2.976 0 5.354 2.47 5.354 5.504v1.26H8.493v-1.26z" fill="#72B2E9"/><path d="M18.534 19.79c-.241-.725-.985-1.284-1.544-1.617a1.269 1.269 0 0 0-1.257-.013l-.998.561a1.511 1.511 0 0 1-1.47 0l-.998-.561a1.269 1.269 0 0 0-1.257.013c-.56.333-1.303.892-1.544 1.618-.403 1.214-1.006 2.708.503 4.39 0 0-.805 3.176 1.107 4.67 0 0 1.396.584 1.207-.56-.122-.744-.113-3.496 1.717-3.63 1.83.134 1.84 2.887 1.716 3.63-.188 1.144 1.208.56 1.208.56 1.911-1.494 1.107-4.67 1.107-4.67 1.51-1.681.906-3.176.503-4.39z" fill="#FFF"/></g></svg>