<svg width="24" height="20" viewBox="0 0 24 20" xmlns="http://www.w3.org/2000/svg"><title>icon_printer_blue</title><g fill="#72B2E9" fill-rule="evenodd"><path d="M22.232 5.146h-2.987V.286c0-.21-.168-.286-.373-.286H5.059c-.206 0-.374.076-.374.286v4.86H1.717C.784 5.146.02 5.871.02 6.824L0 14.238c0 .953.765 1.754 1.699 1.754h2.986v3.526c0 .21.168.476.374.476h13.813c.205 0 .392-.267.392-.476V16.01h2.968c.933 0 1.699-.82 1.699-1.792l.018-7.376a1.731 1.731 0 0 0-1.717-1.697zm-19.6 5.433a.757.757 0 0 1-.747-.763c0-.42.336-.762.747-.762.41 0 .747.343.747.762 0 .42-.336.763-.747.763zm1.68-.382a.379.379 0 0 1-.373-.38c0-.21.168-.382.373-.382s.373.171.373.381-.168.381-.373.381zm1.12-2.954H18.5V.763H5.432v6.48zm0 12.008H18.5v-6.862H5.432v6.862zm13.421-8.958h-1.848a.378.378 0 0 1-.373-.382c0-.21.168-.38.373-.38h1.867c.205 0 .373.17.373.38-.018.21-.168.382-.392.382zm1.643-.096a.378.378 0 0 1-.373-.38c0-.21.168-.382.373-.382s.373.171.373.381-.168.381-.373.381z"/><path d="M7.188 14.265h9.365a.53.53 0 0 0 .522-.533.529.529 0 0 0-.522-.532H7.188a.529.529 0 0 0-.521.532c0 .293.234.533.521.533zm0 2h9.365a.53.53 0 0 0 .522-.533.529.529 0 0 0-.522-.532H7.188a.529.529 0 0 0-.521.532c0 .293.234.533.521.533zm0 2h9.365a.53.53 0 0 0 .522-.533.529.529 0 0 0-.522-.532H7.188a.529.529 0 0 0-.521.532c0 .293.234.533.521.533z"/></g></svg>