<svg width="24" height="24" viewBox="0 0 24 24" xmlns="http://www.w3.org/2000/svg"><title>€</title><path d="M18.131 18.404a9.934 9.934 0 0 0 2.885-2.022L24 19.787c-1.18 1.28-2.601 2.303-4.262 3.067C18.076 23.618 16.404 24 14.72 24c-1.88 0-3.617-.376-5.213-1.13a11.757 11.757 0 0 1-4.065-3.134 11.478 11.478 0 0 1-2.328-4.601H0v-2.157h2.754a11.93 11.93 0 0 1-.033-1.045c0-.337.011-.596.033-.776H0V9h3.05a11.203 11.203 0 0 1 2.327-4.669 11.876 11.876 0 0 1 4.18-3.185C11.207.382 13.005 0 14.951 0c1.661 0 3.3.348 4.918 1.045 1.617.697 2.994 1.652 4.131 2.865l-2.984 3.775a9.27 9.27 0 0 0-2.82-2.241c-1.07-.55-2.13-.826-3.18-.826-1.464 0-2.776.399-3.934 1.197A6.83 6.83 0 0 0 8.557 9h7.87v2.157H8.065a5.598 5.598 0 0 0-.033.708c0 .247.022.618.065 1.113h8.328v2.157H8.754a6.935 6.935 0 0 0 2.525 2.916c1.114.73 2.36 1.095 3.737 1.095 1.006 0 2.044-.247 3.115-.742z" fill="#E74C3C" fill-rule="evenodd"/></svg>