<svg width="16" height="21" viewBox="0 0 16 21" xmlns="http://www.w3.org/2000/svg" xmlns:xlink="http://www.w3.org/1999/xlink"><title>icons / douille / mini / lined</title><defs><ellipse id="a" cx="8" cy="4.278" rx="8" ry="4.278"/></defs><g fill="none" fill-rule="evenodd"><path d="M8 20.25a5.65 5.65 0 0 1-5.65-5.65V5.533a2.45 2.45 0 0 1 2.45-2.45h6.4a2.45 2.45 0 0 1 2.45 2.45V14.6A5.65 5.65 0 0 1 8 20.25z" stroke="#99A3A4" stroke-width="1.5"/><use fill="#FFF" xlink:href="#a"/><ellipse stroke="#99A3A4" stroke-width="1.5" cx="8" cy="4.278" rx="7.25" ry="3.528"/><path d="M2.4 13.444C4.268 14.481 6.136 15 8.002 15s3.732-.519 5.598-1.556v1.167c-1.85 1.037-3.712 1.556-5.584 1.556-1.872 0-3.744-.519-5.616-1.556v-1.167zm0-3.111c1.868 1.037 3.736 1.556 5.602 1.556s3.732-.519 5.598-1.556V11.5c-1.85 1.037-3.712 1.556-5.584 1.556-1.872 0-3.744-.519-5.616-1.556v-1.167zM8.016 6.5c1.866 0 3.728-.489 5.584-1.467C11.75 4.011 9.888 3.5 8.016 3.5c-1.872 0-3.744.511-5.616 1.533C4.278 6.011 6.15 6.5 8.016 6.5z" fill="#99A3A4"/></g></svg>