<svg width="24" height="24" viewBox="0 0 24 24" xmlns="http://www.w3.org/2000/svg"><title>icon_Mon_compte_normal</title><g fill="none" fill-rule="evenodd"><path d="M12 12c2.758 0 5-2.138 5-4.766V4.765C17 2.138 14.758 0 12 0 9.243 0 7 2.138 7 4.765v2.47C7 9.861 9.243 12 12 12m11.97 5.933c-1.739-2.553-4.517-4.447-7.823-5.33a.241.241 0 0 0-.216.045c-1.538 1.307-3.45 2.327-3.927 2.574-.51-.281-2.659-1.489-3.936-2.574a.241.241 0 0 0-.216-.046c-3.307.884-6.085 2.778-7.822 5.332a.165.165 0 0 0 0 .19C2.497 21.747 7.083 24 12 24c4.916 0 9.502-2.252 11.97-5.877a.165.165 0 0 0 0-.19z" fill="#2C3E50"/><path d="M18.813 16.814c-.096-.33-.393-.584-.617-.735a.455.455 0 0 0-.503-.006l-.4.255a.542.542 0 0 1-.587 0l-.4-.255a.455.455 0 0 0-.502.006c-.224.15-.521.405-.618.735-.16.552-.402 1.231.202 1.996 0 0-.322 1.443.442 2.122 0 0 .559.266.483-.254-.049-.338-.045-1.59.687-1.65.732.06.736 1.312.686 1.65-.075.52.484.254.484.254.764-.679.442-2.122.442-2.122.604-.765.363-1.444.201-1.996z" fill="#FFF"/></g></svg>