<svg width="48" height="13" viewBox="0 0 48 13" xmlns="http://www.w3.org/2000/svg"><title>icon_Retainers</title><g fill="none" fill-rule="evenodd"><path d="M24.015 12.27a1.352 1.352 0 0 1-.332.155c-.39.126-1.062.259-2.22.315-1.128.055-2.734.04-5.019-.118-.266-.019-.446-.064-.61-.176-.162-.112-.26-.255-.367-.472a9.665 9.665 0 0 1-.198-.426 1.36 1.36 0 0 1-.23.242c-.327.267-.741.355-1.373.365-1.134.017-2.012-.102-2.684-.278-.708-.185-1.203-.438-1.538-.667l-.1.139c-.483.677-.92 1.289-1.93 1.526-1.731.407-2.888-1.161-3.407-3.224a10.858 10.858 0 0 1-.237-3.878c.165-1.286.6-2.404 1.333-2.98 1.02-.804 2.509-.599 4.474 1.527.25-.495.544-.883.869-1.17.503-.447 1.075-.658 1.667-.665.577-.007 1.16.183 1.704.54.406.268.792.632 1.135 1.078.503-1.542 1.27-2.481 2.158-2.954.693-.37 1.45-.453 2.208-.313.73.135 1.459.478 2.129.97 1.093.804 2.038 2.017 2.568 3.366.53-1.349 1.475-2.562 2.568-3.366.67-.492 1.399-.835 2.129-.97.758-.14 1.514-.057 2.207.313.888.473 1.655 1.412 2.158 2.954.343-.446.73-.81 1.135-1.077.543-.358 1.127-.548 1.705-.541.591.007 1.164.218 1.666.664.325.288.62.676.87 1.17 1.965-2.125 3.453-2.33 4.473-1.526.732.576 1.168 1.694 1.333 2.98a10.858 10.858 0 0 1-.237 3.878c-.52 2.063-1.675 3.631-3.407 3.224-1.01-.237-1.447-.85-1.93-1.526a30.55 30.55 0 0 0-.1-.139c-.335.23-.83.482-1.538.667-.672.176-1.55.295-2.684.278-.631-.01-1.046-.098-1.372-.365a1.358 1.358 0 0 1-.23-.242c-.064.143-.13.285-.199.426-.108.217-.204.36-.367.472-.164.112-.343.157-.61.176-2.285.159-3.89.173-5.019.118-1.157-.056-1.83-.189-2.22-.315a1.355 1.355 0 0 1-.331-.156zm.872-5.068v.002l.001 4.084v.043c.267.072.775.15 1.746.179 1.011.029 2.507 0 4.72-.152.062-.004.04.053.05.027.022-.058.048-.128.082-.202a8.8 8.8 0 0 0 .784-4.323 9.914 9.914 0 0 0-.098-.87l-.001-.012c-.319-2.02-.991-3.147-1.802-3.63a2.079 2.079 0 0 0-1.401-.258c-.516.077-1.046.314-1.547.668-1.337.945-2.431 2.683-2.534 4.44v.004zm.003 4.152c.004.006.003.004 0-.001zm8.698-4.544a10.523 10.523 0 0 1-.12 2.38c.009.475.029.942.168 1.265.107.25.318.419.729.426 3.142.055 3.73-.933 3.736-.944l.13-.251a2.65 2.65 0 0 0 .038-.485c.006-.62-.128-1.673-.66-3.438l-.002-.008h-.001l-.004-.014c-.25-.821-.584-1.363-.959-1.67a1.25 1.25 0 0 0-.85-.307c-.307.01-.627.137-.938.357-.533.378-1.018 1.021-1.354 1.84.039.272.069.556.087.849zm5.928 1.573c.087.883.008 1.443-.09 1.78.082.112.162.227.242.342.346.497.695 1 1.257 1.132.817.192 1.454-.888 1.806-2.287a9.9 9.9 0 0 0 .24-3.336c-.108-1-.389-1.834-.863-2.182-.59-.433-1.599-.048-3.145 1.874.324 1.127.487 2.002.553 2.677zM23.142 7.204V7.2c-.103-1.758-1.196-3.496-2.534-4.441-.5-.354-1.03-.591-1.546-.668-.489-.073-.97 0-1.402.257-.81.484-1.483 1.612-1.801 3.63v.002l-.002.01a9.353 9.353 0 0 0-.116 1.789 8.798 8.798 0 0 0 .802 3.405c.034.074.06.144.082.202.01.026-.012-.031.05-.027 2.213.152 3.71.18 4.72.152.971-.028 1.479-.107 1.746-.18v-.042l.001-4.084zm-.002 4.149c-.003.005-.005.007 0 0zm-8.715-3.54a10.523 10.523 0 0 1 .103-1.853c-.335-.818-.82-1.461-1.354-1.84-.31-.22-.631-.345-.938-.356a1.25 1.25 0 0 0-.85.306c-.374.308-.708.848-.957 1.667l-.002.006-.007.019v.001c-.532 1.765-.666 2.818-.66 3.438.002.146.009.26.018.347l.02-.01.145.42c.106.145.837.974 3.721.923.411-.007.622-.175.73-.426.139-.323.158-.79.167-1.266a10.047 10.047 0 0 1-.136-1.376zm-5.82 2.35c-.1-.337-.18-.897-.092-1.78.067-.675.229-1.55.553-2.677C7.52 3.784 6.51 3.399 5.921 3.832c-.474.348-.754 1.181-.863 2.182a9.9 9.9 0 0 0 .24 3.336c.352 1.4.99 2.479 1.807 2.287.561-.133.91-.635 1.256-1.132.08-.115.16-.23.243-.342z" fill="#2C3E50"/><path d="M3.753 8.195a7.084 7.084 0 0 1-.538-.736C2.563 6.441 2.176 5.55 1.988 4.79c-.22-.885-.17-1.589.046-2.098.171-.405.45-.674.771-.794.314-.118.677-.097 1.023.074.376.186.732.541 1 1.078.22.44.381 1.005.446 1.7l.012.12c.145 1.37.517 2.124 1.15 2.567.547.384 1.239.496 2.123.558.148.01.301.02.46.028h.85a15035.616 15035.616 0 0 0 13.273.011h.873v-.002h.873c2.462 0 4.925 0 7.388-.002l1.32-.001 4.564-.005h.351l.287-.001.101-.001.1-.002c.163-.005.32-.011.472-.02.895-.051 1.593-.182 2.138-.58.627-.456.993-1.221 1.134-2.55l.012-.12c.065-.695.226-1.26.446-1.701.267-.538.622-.893.998-1.08.346-.17.709-.192 1.023-.074.32.12.599.39.771.797.216.509.267 1.213.048 2.098-.189.76-.575 1.652-1.227 2.67-.173.27-.354.516-.538.735-.052.498-.137.99-.254 1.456-.102.404-.228.79-.379 1.146.442-.14.905-.424 1.353-.82a7.674 7.674 0 0 0 1.347-1.605c.855-1.335 1.331-2.536 1.525-3.582.223-1.203.071-2.2-.308-2.96-.392-.783-1.023-1.32-1.748-1.579a3.115 3.115 0 0 0-2.302.09c-.777.339-1.491 1.003-1.971 2.024a6.158 6.158 0 0 0-.459 1.43 7.87 7.87 0 0 0-.115.799c-.157 1.673-.696 1.677-1.814 1.686h-.03l-.337.004-.072.001h-.072l-.339.001h-.54l-4.218.005h-1.328c-2.212.002-4.608.003-7.19.003h-2.021l-7.19-.002-1.328-.001-4.218-.004h-.54l-.49-.001h-.33c-1.16-.002-1.691-.065-1.844-1.692a7.984 7.984 0 0 0-.115-.799 6.158 6.158 0 0 0-.46-1.43C6.01 1.345 5.297.68 4.52.342a3.117 3.117 0 0 0-2.303-.09A3.132 3.132 0 0 0 .47 1.831c-.38.759-.53 1.756-.308 2.96.194 1.045.67 2.246 1.526 3.581a7.692 7.692 0 0 0 1.347 1.606c.447.395.91.68 1.352.819a7.89 7.89 0 0 1-.379-1.146 10.416 10.416 0 0 1-.254-1.456z" fill="#72B2E9"/></g></svg>