<svg width="35" height="40" viewBox="0 0 35 40" xmlns="http://www.w3.org/2000/svg"><title>icons / calculator v2</title><defs><linearGradient x1="0%" y1="0%" x2="102%" y2="101%" id="a"><stop stop-color="#EEABFF" offset="0%"/><stop stop-color="#23F7E1" offset="100%"/></linearGradient></defs><path d="M5.516.136A5.516 5.516 0 0 0 0 5.652v28.832A5.516 5.516 0 0 0 5.516 40h23.822a5.516 5.516 0 0 0 5.516-5.516V5.652A5.516 5.516 0 0 0 29.338.136H5.516zm6.607 32.84c0 .749-.607 1.356-1.355 1.356h-4.47c-.75 0-1.357-.607-1.357-1.356v-4.272c0-.75.607-1.357 1.356-1.357h4.472c.748 0 1.355.607 1.355 1.357l-.001 4.272zm0-8.696c0 .748-.607 1.355-1.355 1.355h-4.47c-.75 0-1.357-.607-1.357-1.355v-4.34c0-.748.607-1.355 1.356-1.355h4.472c.748 0 1.355.607 1.355 1.355l-.001 4.34zm8.896 8.696c0 .749-.607 1.356-1.357 1.356h-4.47c-.75 0-1.356-.607-1.356-1.356v-4.272c0-.75.606-1.357 1.356-1.357h4.47c.75 0 1.357.607 1.357 1.357v4.272zm0-8.696c0 .748-.607 1.355-1.357 1.355h-4.47c-.75 0-1.356-.607-1.356-1.355v-4.34c0-.748.606-1.355 1.356-1.355h4.47c.75 0 1.357.607 1.357 1.355v4.34zm8.894 8.696c0 .749-.606 1.356-1.356 1.356h-4.472a1.356 1.356 0 0 1-1.357-1.356v-4.272c0-.75.608-1.357 1.357-1.357h4.472c.75 0 1.356.607 1.356 1.357v4.272zm0-8.696c0 .748-.606 1.355-1.356 1.355h-4.472a1.356 1.356 0 0 1-1.357-1.355v-4.34c0-.748.608-1.355 1.357-1.355h4.472c.75 0 1.356.607 1.356 1.355v4.34zm0-12.848c0 .748-.606 1.355-1.356 1.355H6.297a1.355 1.355 0 0 1-1.355-1.355V7.158c0-.749.607-1.355 1.356-1.355h22.26c.749 0 1.355.606 1.355 1.355v4.274z" fill="url(#a)" fill-rule="evenodd"/></svg>