<svg width="42" height="13" viewBox="0 0 42 13" xmlns="http://www.w3.org/2000/svg"><title>icon_Collage indirect</title><g fill="none" fill-rule="evenodd"><path d="M20.961 12.227a1.38 1.38 0 0 1-.342.164c-.401.134-1.095.274-2.288.334-1.162.058-2.817.043-5.172-.125-.275-.02-.46-.068-.629-.186-.167-.118-.267-.27-.378-.5-.071-.148-.14-.299-.204-.45-.07.096-.149.18-.238.256-.336.283-.763.376-1.414.386-1.17.019-2.074-.107-2.767-.294-.73-.196-1.24-.463-1.585-.705l-.102.146c-.498.716-.948 1.364-1.99 1.615-1.784.43-2.976-1.229-3.51-3.411a11.782 11.782 0 0 1-.245-4.102c.17-1.36.619-2.543 1.374-3.153 1.051-.85 2.585-.633 4.61 1.616.257-.524.561-.934.896-1.239.518-.471 1.108-.695 1.718-.702.595-.008 1.197.193 1.756.572.419.283.816.667 1.17 1.14.519-1.631 1.31-2.625 2.224-3.126.714-.39 1.494-.478 2.275-.33.753.142 1.504.505 2.194 1.026 1.127.85 2.1 2.133 2.647 3.56.546-1.427 1.52-2.71 2.647-3.56.69-.521 1.441-.884 2.194-1.027.781-.147 1.56-.06 2.275.331.914.5 1.705 1.495 2.224 3.125a4.947 4.947 0 0 1 1.17-1.14c.56-.378 1.161-.579 1.756-.571.61.007 1.2.23 1.718.702.335.305.639.715.896 1.239 2.025-2.249 3.559-2.466 4.61-1.616.755.61 1.204 1.792 1.374 3.153.163 1.306.075 2.8-.244 4.102-.535 2.182-1.727 3.842-3.512 3.41-1.04-.25-1.49-.898-1.989-1.614a32.305 32.305 0 0 0-.102-.146c-.346.242-.856.509-1.585.705-.693.187-1.597.313-2.767.294-.65-.01-1.078-.103-1.414-.386a1.425 1.425 0 0 1-.238-.256 11.18 11.18 0 0 1-.204.45c-.111.23-.21.382-.378.5-.17.118-.354.166-.629.186-2.355.168-4.01.183-5.172.125-1.193-.06-1.887-.2-2.288-.334a1.378 1.378 0 0 1-.342-.164zm.9-5.36v4.367c.276.077.799.16 1.8.19 1.042.03 2.583 0 4.864-.161.064-.005.041.057.052.029.022-.062.05-.135.084-.214.267-.597.46-1.186.59-1.76a9.549 9.549 0 0 0 .218-2.813c-.02-.31-.055-.618-.1-.921l-.002-.012c-.329-2.136-1.021-3.33-1.857-3.841a2.096 2.096 0 0 0-1.444-.273c-.532.082-1.078.333-1.594.707-1.379 1-2.506 2.839-2.612 4.698v.003zm.002 4.391c.004.007.003.005 0 0zm8.965-4.806a11.426 11.426 0 0 1-.124 2.517c.009.503.03.997.172 1.339.111.265.329.443.752.45 3.238.059 3.843-.987 3.85-.998l.135-.266c.019-.1.036-.26.039-.513.006-.655-.132-1.77-.68-3.637l-.003-.008h-.001l-.004-.015c-.257-.869-.602-1.442-.988-1.767-.277-.234-.576-.335-.876-.325-.316.012-.647.145-.967.378-.549.4-1.05 1.08-1.395 1.946.04.289.07.589.09.899zm6.11 1.664c.089.934.007 1.527-.095 1.883.086.119.168.24.25.362.357.526.717 1.057 1.295 1.197.843.203 1.5-.94 1.863-2.42.273-1.113.365-2.406.246-3.528-.111-1.059-.4-1.94-.889-2.308-.607-.458-1.648-.051-3.241 1.982.334 1.192.501 2.118.57 2.832zM20.061 6.87v-.006c-.106-1.86-1.233-3.698-2.612-4.698-.516-.374-1.062-.625-1.594-.707-.503-.077-.998 0-1.444.273-.836.512-1.528 1.705-1.856 3.84h-.001v.001l-.002.012c-.045.303-.08.61-.1.921-.021.32-.028.645-.018.97a9.514 9.514 0 0 0 .825 3.603c.036.079.063.153.085.214.01.028-.012-.034.052-.03 2.28.162 3.822.192 4.864.162 1.001-.03 1.524-.113 1.8-.19V6.87zm-.003 4.388c-.003.006-.004.008 0 .001zm-8.982-3.744a11.426 11.426 0 0 1 .107-1.96c-.346-.866-.846-1.546-1.396-1.946-.32-.233-.65-.366-.966-.378-.3-.01-.599.09-.876.325-.386.325-.73.896-.987 1.762l-.002.007-.006.02v.001c-.55 1.868-.687 2.982-.68 3.637 0 .155.008.275.018.368l.02-.012.15.445c.108.153.862 1.03 3.835.977.423-.008.64-.186.752-.451.143-.342.163-.836.172-1.34a10.894 10.894 0 0 1-.14-1.455zM5.08 9.999c-.102-.356-.184-.949-.094-1.883.069-.714.236-1.64.57-2.832-1.593-2.033-2.634-2.44-3.242-1.982-.488.368-.777 1.25-.888 2.308a10.743 10.743 0 0 0 .246 3.529c.363 1.48 1.02 2.622 1.863 2.419.578-.14.938-.671 1.295-1.197.082-.122.164-.243.25-.362z" fill="#2C3E50"/><path d="M6.02 7.735h.362l.88.002v.334c0 .17.14.31.313.31h2.642c.172 0 .313-.14.313-.31v-.33h.557l1.36.002h1.736v.52c0 .202.165.366.368.366h3.108a.368.368 0 0 0 .369-.365v-.518h3.832l2.096-.001v.519c0 .2.166.365.369.365h3.108a.368.368 0 0 0 .368-.365v-.52l1.674-.002 1.36-.001h.55v.33c0 .17.14.31.313.31h2.642c.172 0 .313-.14.313-.31v-.334l.886-.001h.361l.296-.001h1.262v.053c0 .127.104.23.232.23h1.959a.232.232 0 0 0 .231-.23V6.17a.232.232 0 0 0-.231-.23H37.69a.232.232 0 0 0-.232.23v.178h-.93l-.346.005-.149.001h-.349l-.557.001h-.474v-.468a.312.312 0 0 0-.313-.31h-2.642a.313.313 0 0 0-.313.31v.472h-.605l-1.369.001-1.61.001v-.667a.368.368 0 0 0-.368-.365h-3.108a.368.368 0 0 0-.369.365v.668h-5.929v-.668a.368.368 0 0 0-.369-.365H14.55a.368.368 0 0 0-.368.365v.667H12.51l-1.369-.002h-.611v-.472a.312.312 0 0 0-.313-.31H7.575a.313.313 0 0 0-.313.31v.469h-.468l-.557-.001-.505-.001H4.434v-.185a.232.232 0 0 0-.232-.23H2.244a.232.232 0 0 0-.232.23v1.62c0 .126.104.23.232.23h1.958a.232.232 0 0 0 .232-.23v-.054h1.587z" fill="#72B2E9"/></g></svg>