<svg width="24" height="21" viewBox="0 0 24 21" xmlns="http://www.w3.org/2000/svg" xmlns:xlink="http://www.w3.org/1999/xlink"><title>icon_download</title><defs><path id="a" d="M11.963 21H.032V.021h23.862V21H11.963z"/></defs><g fill="none" fill-rule="evenodd"><mask id="b" fill="#fff"><use xlink:href="#a"/></mask><path d="M15.183 16.205l-1.956 1.928V10.5a.849.849 0 0 0-.854-.841.847.847 0 0 0-.852.841v7.633l-1.958-1.928a.862.862 0 0 0-1.207 0 .833.833 0 0 0 0 1.19l3.413 3.359a.95.95 0 0 0 .13.104c.022.015.045.023.066.035.026.015.054.03.083.043.027.01.056.017.085.027.025.006.048.017.073.02a.927.927 0 0 0 .333 0c.027-.006.05-.014.075-.022.03-.008.06-.015.086-.025.03-.012.056-.028.083-.043.021-.012.044-.02.063-.035a.791.791 0 0 0 .131-.104l3.412-3.361a.83.83 0 0 0 0-1.188.862.862 0 0 0-1.206 0z" fill="#2C3E50" mask="url(#b)"/><path d="M20.41 6.714c-.058-.008-1.05-.141-2 0a.425.425 0 0 1-.486-.35.423.423 0 0 1 .36-.48 8.341 8.341 0 0 1 1.741-.052C19.738 2.576 16.994 0 13.69 0c-2.005 0-4.02.999-5.242 2.574a3.751 3.751 0 0 1 1.364 2.885.42.42 0 0 1-.424.42.421.421 0 0 1-.427-.42 2.932 2.932 0 0 0-1.67-2.633l-.089-.043a3.217 3.217 0 0 0-.356-.135c-.015-.005-.032-.007-.046-.01a3.211 3.211 0 0 0-.335-.074c-.034-.007-.067-.01-.1-.017a3.054 3.054 0 0 0-.392-.026c-1.646 0-2.985 1.318-2.985 2.938 0 .035.001.07.003.103l.007.088-.004.068a2.085 2.085 0 0 0-.006.161v.265l-.244.115C1.154 7.01 0 8.821 0 10.566c0 2.51 2.075 4.555 4.627 4.555h6.04V10.5c0-.927.764-1.68 1.706-1.68.944 0 1.706.753 1.706 1.68v4.62h1.004c.025 0 .05-.002.075-.004l.084-.004.116.004c.025.002.048.005.073.005h4.183c2.359 0 4.28-1.892 4.28-4.213 0-2.02-1.498-3.823-3.483-4.194z" fill="#2C3E50" mask="url(#b)"/></g></svg>