<svg width="40" height="40" viewBox="0 0 40 40" xmlns="http://www.w3.org/2000/svg"><title>icons / circle arrows</title><defs><linearGradient x1="0%" y1="0%" x2="102%" y2="101%" id="a"><stop stop-color="#EEABFF" offset="0%"/><stop stop-color="#23F7E1" offset="100%"/></linearGradient></defs><path d="M38.22 12.77c3.079 6.587 2.076 14.62-3.025 20.256l2.913 2.912h-9.784v-9.784l2.811 2.812c3.355-3.882 3.99-9.287 1.923-13.752l5.162-2.444zM27.23 38.257c-6.589 3.081-14.622 2.079-20.257-3.022L4.06 38.147v-9.784h9.783l-2.811 2.812c3.88 3.355 9.288 3.992 13.751 1.923l2.446 5.16zM8.824 11.072C5.469 14.953 4.832 20.36 6.9 24.824L1.74 27.27C-1.338 20.683-.335 12.649 4.763 7.012L1.851 4.1h9.785v9.784l-2.812-2.812zm27.075.603h-9.785l2.812-2.812c-3.881-3.354-9.286-3.99-13.751-1.923l-2.446-5.16c6.587-3.078 14.62-2.076 20.258 3.022l2.912-2.911v9.784zm-8.103 8.344a7.816 7.816 0 0 1-15.633 0 7.816 7.816 0 1 1 15.633 0z" fill="url(#a)" fill-rule="evenodd"/></svg>