<svg width="48" height="25" viewBox="0 0 48 25" xmlns="http://www.w3.org/2000/svg"><title>icon_Dental-Model</title><g fill="#2C3E50" fill-rule="evenodd"><path d="M24.045 10.643l9.078.451 8.176 1.656c-.033.736.046 1.5.177 2.228a1.832 1.832 0 0 1-.884 1.982.515.515 0 0 0-.219.704.537.537 0 0 0 .72.214c.006-.002 1.823-.929 1.435-3.08-.15-.832-.227-1.704-.124-2.48l5.384-6.239a.513.513 0 0 0-.002-.737.532.532 0 0 0-.203-.123v-.001L35.09.775 24.012.005l-11.077.77L.441 5.218a.532.532 0 0 0-.202.124.513.513 0 0 0-.002.737l5.384 6.24c.103.775.026 1.647-.124 2.48-.388 2.15 1.43 3.077 1.435 3.08a.54.54 0 0 0 .72-.215.515.515 0 0 0-.248-.72 1.832 1.832 0 0 1-.855-1.966c.13-.727.21-1.492.177-2.228l8.15-1.656 9.169-.45zm-.567-1.082l-7.683.371-2.027-8.14 9.71-.74V9.56zm8.752.371l-7.683-.371V1.05l9.71.74-2.027 8.141zM6.59 11.703L1.597 5.935l11.116-3.98 2.015 8.081-8.136 1.667zm34.844 0l-8.136-1.667 2.015-8.082 11.116 3.98-4.995 5.77z"/><path d="M24.012 24.373a1.143 1.143 0 0 1-.28.134c-.331.108-.902.222-1.883.27-.956.047-2.318.035-4.255-.101-.226-.016-.378-.055-.517-.151-.138-.096-.22-.218-.311-.405a8.83 8.83 0 0 1-.169-.366 1.161 1.161 0 0 1-.195.208c-.277.23-.628.305-1.164.313-.962.015-1.705-.087-2.276-.238-.6-.16-1.02-.375-1.304-.572l-.084.119c-.41.58-.78 1.105-1.636 1.309-1.469.35-2.449-.996-2.889-2.766a9.418 9.418 0 0 1-.201-3.325c.14-1.104.51-2.062 1.13-2.557.865-.689 2.127-.513 3.793 1.31.212-.425.462-.757.737-1.004a2.122 2.122 0 0 1 1.413-.57c.49-.006.985.157 1.445.464.345.23.672.541.963.924.426-1.322 1.077-2.128 1.83-2.534.587-.316 1.228-.388 1.87-.268.62.116 1.238.41 1.806.832.927.69 1.728 1.73 2.177 2.887.45-1.157 1.251-2.197 2.178-2.887.568-.422 1.186-.716 1.805-.832.643-.12 1.284-.048 1.872.268.752.406 1.403 1.212 1.83 2.534.29-.383.617-.694.962-.924.46-.307.955-.47 1.445-.464.501.007.987.188 1.413.57.275.247.525.58.737 1.004 1.666-1.823 2.928-1.999 3.793-1.31.62.495.99 1.453 1.13 2.557a9.418 9.418 0 0 1-.201 3.325c-.44 1.77-1.42 3.115-2.889 2.766-.856-.204-1.226-.729-1.636-1.31l-.084-.118c-.285.197-.705.413-1.304.572-.57.151-1.314.253-2.277.238-.535-.008-.886-.084-1.163-.313a1.162 1.162 0 0 1-.195-.208 9 9 0 0 1-.169.366c-.09.187-.173.309-.31.405-.14.096-.292.135-.518.15-1.937.137-3.299.15-4.255.102-.982-.048-1.552-.162-1.882-.27a1.14 1.14 0 0 1-.282-.134zm.74-4.346v.002l.001 3.503v.036c.227.063.657.13 1.48.154.858.025 2.126 0 4.002-.13.053-.004.034.046.043.023.018-.05.04-.11.07-.173a7.636 7.636 0 0 0 .665-3.708 8.597 8.597 0 0 0-.084-.747l-.001-.01c-.27-1.731-.84-2.699-1.528-3.114a1.746 1.746 0 0 0-1.188-.22c-.437.066-.886.27-1.311.573-1.134.81-2.062 2.3-2.149 3.808v.003zm.003 3.561c.003.007.002.004 0 0zm7.375-3.897a9.13 9.13 0 0 1-.102 2.04c.007.409.024.81.142 1.086.091.215.27.36.618.366 2.664.047 3.162-.8 3.167-.81l.111-.216c.016-.08.03-.21.032-.416.006-.53-.108-1.434-.56-2.948l-.001-.007h-.001l-.003-.012c-.212-.704-.495-1.169-.813-1.433a1.052 1.052 0 0 0-.72-.263c-.261.01-.533.118-.796.306-.452.325-.864.876-1.148 1.578.033.234.058.477.074.729zm5.026 1.35c.074.757.006 1.237-.078 1.526.07.096.138.195.206.293.293.427.59.857 1.066.97.693.166 1.233-.76 1.532-1.96.224-.903.3-1.952.203-2.862-.092-.858-.33-1.573-.732-1.871-.5-.371-1.355-.041-2.666 1.607.275.966.412 1.717.469 2.296zm-13.883-1.012v-.005c-.087-1.507-1.015-2.998-2.149-3.808-.425-.304-.874-.507-1.311-.574a1.75 1.75 0 0 0-1.188.221c-.688.415-1.258 1.383-1.528 3.114v.001l-.002.009a8.597 8.597 0 0 0-.097 1.534 7.622 7.622 0 0 0 .68 2.92c.028.064.05.124.07.174.008.023-.01-.027.042-.023 1.876.13 3.144.155 4.002.13.823-.024 1.253-.091 1.48-.154V20.03zm-.002 3.558c-.003.005-.004.008 0 .001zm-7.39-3.036a9.13 9.13 0 0 1 .088-1.589c-.284-.702-.696-1.253-1.148-1.578-.263-.188-.535-.296-.795-.306a1.052 1.052 0 0 0-.721.263c-.317.264-.6.727-.812 1.43l-.001.005-.006.016c-.451 1.515-.565 2.418-.56 2.95.002.125.008.223.016.298l.017-.01.123.361c.09.124.709.835 3.155.792.348-.006.527-.15.618-.366.118-.277.135-.677.142-1.085a8.711 8.711 0 0 1-.116-1.18zm-4.935 2.016c-.083-.289-.15-.77-.077-1.527.057-.579.194-1.33.47-2.296-1.312-1.648-2.168-1.978-2.668-1.607-.401.298-.64 1.013-.73 1.871a8.587 8.587 0 0 0 .202 2.861c.299 1.2.84 2.127 1.532 1.962.476-.114.772-.544 1.066-.97.067-.1.135-.198.205-.294z"/></g></svg>