<svg width="14" height="16" viewBox="0 0 14 16" xmlns="http://www.w3.org/2000/svg"><title>Dentaire</title><path d="M13.347 2.604C13.01 1.55 11.97.735 11.187.252a1.719 1.719 0 0 0-1.76-.02l-1.398.817c-.633.37-1.425.37-2.057 0L4.574.233a1.719 1.719 0 0 0-1.76.02C2.03.734.99 1.548.653 2.603.09 4.37-.756 6.544 1.356 8.99c0 0-1.126 4.62 1.55 6.792 0 0 1.955.85 1.69-.815-.17-1.08-.158-5.083 2.404-5.279 2.562.196 2.575 4.2 2.403 5.28-.264 1.663 1.69.814 1.69.814 2.677-2.173 1.55-6.792 1.55-6.792 2.114-2.445 1.268-4.619.704-6.385z" fill="#99A3A4" fill-rule="evenodd"/></svg>