<svg width="24" height="24" viewBox="0 0 24 24" xmlns="http://www.w3.org/2000/svg"><title>icon_Scan_pas_ok</title><g fill="none" fill-rule="evenodd"><path d="M11.999 0C5.372 0 0 5.373 0 12c0 6.628 5.372 12 11.999 12C18.629 24 24 18.627 24 12S18.629 0 11.999 0z" fill="#E74C3C"/><path d="M17.994 16.44a.443.443 0 0 0-.084-.242.366.366 0 0 0-.544-.069l-1.63 1.41-1.629-1.41a.363.363 0 0 0-.481 0l-1.63 1.41-1.628-1.41a.362.362 0 0 0-.482 0l-1.629 1.41-1.629-1.41a.366.366 0 0 0-.544.069.443.443 0 0 0-.084.242v2c0 .233.173.422.387.422h11.22c.213 0 .387-.189.387-.422v-2zm-.387-11.348H6.387c-.214 0-.387.19-.387.422v8.208a.43.43 0 0 0 .147.327l1.87 1.618a.36.36 0 0 0 .48 0l1.63-1.41 1.629 1.41c.141.122.34.122.481 0l1.63-1.41 1.629 1.41c.161.146.38.094.481 0l1.87-1.618a.435.435 0 0 0 .147-.312V5.514c0-.233-.174-.422-.387-.422z" fill="#FFF"/><path d="M15.519 11.553H8.475c-.214 0-.387.189-.387.422 0 .233.173.422.387.422h7.044c.214 0 .387-.19.387-.422 0-.233-.173-.422-.387-.422zm0-3.821H8.475c-.214 0-.387.19-.387.422 0 .233.173.422.387.422h7.044c.214 0 .387-.189.387-.422 0-.233-.173-.422-.387-.422zm0 1.911H8.475c-.214 0-.387.188-.387.421 0 .234.173.422.387.422h7.044c.214 0 .387-.188.387-.422 0-.233-.173-.421-.387-.421z" fill="#E74C3C"/></g></svg>