<svg width="16" height="16" viewBox="0 0 16 16" xmlns="http://www.w3.org/2000/svg"><title>icon_done</title><path d="M12.62 5.49L6.8 11.527a.33.33 0 0 1-.255.11c-.108 0-.217-.037-.254-.11L3.456 8.473 3.382 8.4a.396.396 0 0 1-.11-.253c0-.073.038-.183.11-.256l.509-.51a.355.355 0 0 1 .51 0l.036.037 2 2.145a.175.175 0 0 0 .254 0l4.873-5.053h.036a.352.352 0 0 1 .51 0l.51.508c.143.11.143.329 0 .472zM8 0a7.978 7.978 0 0 0-8 8.001A7.977 7.977 0 0 0 8.001 16 7.977 7.977 0 0 0 16 8.001 7.977 7.977 0 0 0 8.001 0z" fill="#2ECC71" fill-rule="evenodd"/></svg>