<svg width="22" height="15" viewBox="0 0 22 15" xmlns="http://www.w3.org/2000/svg"><title>cloud</title><path d="M18.691 5.716C20.597 6.197 22 7.936 22 9.873c0 2.34-1.978 4.244-4.41 4.244h-1.453v-.706.706H4.71C2.112 14.117 0 12.084 0 9.583 0 7.905 1.047 6.228 2.573 5.43a1.65 1.65 0 0 1-.005-.135c0-1.751 1.48-3.176 3.3-3.176.124 0 .246.008.368.02.038.004.075.01.111.018.086.01.17.024.25.043.045.009.086.02.13.031.076.02.15.043.225.067l.127.045c.075.03.149.062.222.095.027.014.056.022.082.036C8.58.939 10.506 0 12.497 0c3.28 0 6 2.538 6.194 5.716zm-7.49 5.19l3.717-5.359a.352.352 0 0 0 0-.454.26.26 0 0 0-.4 0l-3.516 5.13-2.516-3.127a.26.26 0 0 0-.4 0 .346.346 0 0 0 0 .453l2.716 3.354a.26.26 0 0 0 .399.003z" fill="#FFF" fill-rule="evenodd"/></svg>