<svg width="12" height="13" viewBox="0 0 12 13" xmlns="http://www.w3.org/2000/svg"><title>icon_User_black</title><path d="M6 7.07c-1.486 0-2.69-1.47-2.69-3.285C3.31 1.269 4.513.5 6 .5s2.69.77 2.69 3.285C8.69 5.599 7.487 7.07 6 7.07zm5.941 4.835a.732.732 0 0 1-.051.673.67.67 0 0 1-.569.322H.679a.67.67 0 0 1-.569-.322.731.731 0 0 1-.051-.673l1.357-3.19a.698.698 0 0 1 .307-.34L3.83 7.23a.131.131 0 0 1 .144.012A3.25 3.25 0 0 0 6 7.961c.73 0 1.43-.249 2.026-.719a.131.131 0 0 1 .144-.012l2.107 1.144a.698.698 0 0 1 .307.34l1.357 3.19z" fill="#2C3E50" fill-rule="evenodd"/></svg>