<svg width="16" height="12" viewBox="0 0 16 12" xmlns="http://www.w3.org/2000/svg"><title>icon_g+</title><path d="M5.1 11.031A5.02 5.02 0 0 1 .042 5.985 5.021 5.021 0 0 1 5.1.94c1.373 0 2.529.504 3.396 1.37L7.123 3.606c-.361-.36-1.012-.793-2.023-.793-1.734 0-3.107 1.441-3.107 3.171 0 1.73 1.373 3.172 3.107 3.172 2.023 0 2.746-1.442 2.89-2.162H5.1v-1.73h4.769c.072.288.072.504.072.865 0 2.883-1.95 4.901-4.841 4.901zm10.838-4.325h-1.445v1.442h-1.445V6.706h-1.445V5.265h1.445V3.823h1.445v1.442h1.445z" fill="#99A3A4" fill-rule="evenodd"/></svg>