<svg width="10" height="13" viewBox="0 0 10 13" xmlns="http://www.w3.org/2000/svg" xmlns:xlink="http://www.w3.org/1999/xlink"><title>icon_padlock_black</title><defs><path id="a" d="M4.944.03H.008v12.06H9.88V.03H4.944z"/></defs><g fill="none" fill-rule="evenodd"><mask id="b" fill="#fff"><use xlink:href="#a"/></mask><path d="M9.64 5.752a.794.794 0 0 0-.584-.24h-.274V3.867c0-1.05-.377-1.953-1.132-2.706C6.895.407 5.992.03 4.94.03S2.984.407 2.23 1.16c-.755.754-1.132 1.656-1.132 2.707v1.645H.823a.796.796 0 0 0-.583.24.794.794 0 0 0-.24.583v4.933c0 .229.08.423.24.583.16.16.355.24.583.24h8.233c.229 0 .423-.08.584-.24.16-.16.24-.354.24-.583V6.335a.793.793 0 0 0-.24-.583zm-2.505-.24h-4.39V3.867c0-.605.214-1.122.643-1.55a2.117 2.117 0 0 1 1.552-.642c.606 0 1.123.214 1.552.642.429.428.643.945.643 1.55v1.645z" fill="#2C3E50" mask="url(#b)"/><circle fill="#FFF" mask="url(#b)" cx="5" cy="8" r="1"/></g></svg>