<svg width="40" height="40" viewBox="0 0 40 40" xmlns="http://www.w3.org/2000/svg"><title>Icons / Target</title><defs><linearGradient x1="0%" y1="0%" x2="102%" y2="101%" id="a"><stop stop-color="#EEABFF" offset="0%"/><stop stop-color="#23F7E1" offset="100%"/></linearGradient></defs><path d="M39.218 19.27c.408 0 .759.342.742.742a.768.768 0 0 1-.758.759H25.797a5.87 5.87 0 0 1-5.058 5.058v13.38c0 .44-.351.791-.759.791a.768.768 0 0 1-.759-.759V25.837a5.869 5.869 0 0 1-5.058-5.058H.76a.774.774 0 0 1-.759-.76c0-.407.343-.758.759-.758h13.413a5.869 5.869 0 0 1 5.058-5.058V.798c0-.407.35-.758.758-.758.408 0 .759.342.759.758v13.413a5.869 5.869 0 0 1 5.058 5.058h13.413zm-21.546-6.283a7.473 7.473 0 0 0-4.733 4.724H4.471c1.02-6.788 6.38-12.18 13.2-13.2v8.476zm9.357 4.724a7.473 7.473 0 0 0-4.724-4.732V4.511a15.682 15.682 0 0 1 13.193 13.2h-8.469zm-4.724 9.325c2.22-.726 3.966-2.472 4.724-4.732h8.477c-1.02 6.82-6.413 12.19-13.2 13.2v-8.468zm-9.358-4.691a7.466 7.466 0 0 0 4.725 4.691v8.51c-6.821-1.02-12.19-6.413-13.201-13.201h8.476z" fill="url(#a)" fill-rule="evenodd"/></svg>