<svg width="28" height="40" viewBox="0 0 28 40" xmlns="http://www.w3.org/2000/svg"><title>icons / Microscope</title><defs><linearGradient x1="0%" y1="0%" x2="102%" y2="101%" id="a"><stop stop-color="#EEABFF" offset="0%"/><stop stop-color="#23F7E1" offset="100%"/></linearGradient></defs><path d="M23.136 10.334L17.164 4.31a.47.47 0 0 1 0-.661L20.609.176a.461.461 0 0 1 .656 0l5.972 6.022a.47.47 0 0 1 0 .662l-3.445 3.474a.461.461 0 0 1-.656 0zM6.764 27.504a.461.461 0 0 1-.656 0l-5.972-6.02a.47.47 0 0 1 0-.662l3.445-3.474a.461.461 0 0 1 .656 0l5.972 6.022a.47.47 0 0 1 0 .662l-3.445 3.474zm5.16-4.692L4.79 15.617a.47.47 0 0 1 0-.661l10.006-10.09a.461.461 0 0 1 .656 0l6.378 6.432a4.615 4.615 0 0 0-2.605 4.814l-6.644 6.7a.461.461 0 0 1-.656 0zm14.79-7.335c0 1.652-1.327 2.991-2.965 2.991s-2.966-1.339-2.966-2.99c0-1.652 1.328-2.992 2.966-2.992 1.638 0 2.966 1.34 2.966 2.991zm-2.871 4.605a4.514 4.514 0 0 0 2.985-1.201 12.164 12.164 0 0 1 1.14 5.164c0 3.239-1.25 6.283-3.521 8.574a11.925 11.925 0 0 1-5.386 3.134c1.855.919 3.041 2.321 3.041 3.892H5.677c0-2.1 2.117-3.897 5.12-4.643a11.964 11.964 0 0 1-3.277-2.308H1.526a1.027 1.027 0 0 1-1.022-1.03v-1.462H14.05v1.461c0 .402-.229.75-.561.92a8.773 8.773 0 0 0 8.69-2.25 8.87 8.87 0 0 0 2.583-6.288 8.91 8.91 0 0 0-.92-3.963z" fill="url(#a)" fill-rule="evenodd"/></svg>