<svg width="18" height="20" viewBox="0 0 18 20" xmlns="http://www.w3.org/2000/svg"><title>icons / implant / mini / filled</title><path d="M17.683 3.55c.65 2.334.191 4.94-.4 7.407-.183.767-.895 1.303-1.73 1.303-.148 0-.296-.017-.44-.051a18.41 18.41 0 0 0-2.315-.378l-.21.917-6.451 1.115-.466-2.023a18.64 18.64 0 0 0-2.688.473c-.15.039-.304.059-.458.059-.862 0-1.595-.59-1.743-1.403C.599 9.964.444 8.945.292 7.961.23 7.547.167 7.135.103 6.726c-.551-3.48 1.23-5.72 3.24-6.397.442-.149.962-.225 1.541-.225 1.191 0 2.442.308 3.398.576.292.082.447.12.54.12.066 0 .133-.023.316-.09.102-.038.227-.084.39-.138.033-.01.066-.024.099-.038l.067-.027A7.33 7.33 0 0 1 12.348 0c1.111 0 2.139.27 2.971.778 1.238.757 2.078 1.741 2.364 2.773zM6.59 15.83l-.303-1.315 6.138-1.061-.304 1.324L6.59 15.83zm.473 2.059L6.74 16.48l5.217-.992-.378 1.642-4.516.758zM7.548 20l-.336-1.46 4.204-.705L10.918 20h-3.37z" fill="#19BB9B" fill-rule="evenodd"/></svg>