<svg width="112" height="17" viewBox="0 0 112 17" xmlns="http://www.w3.org/2000/svg"><title>anenke copy 2</title><defs><linearGradient x1="0%" y1="100%" y2="100%" id="a"><stop stop-color="#97A0EE" offset="0%"/><stop stop-color="#4DC3E4" offset="100%"/></linearGradient></defs><path d="M13.971 23.988l-1.152-2.976H5.547l-1.176 2.976H-.14L7.083 7.164h4.512l7.056 16.824h-4.68zm-7.104-6.336h4.656l-2.304-6-2.352 6zM32.66 7.164h4.08v16.824H32.9l-7.632-10.056v10.056h-4.104V7.164h3.864l7.656 10.128-.024-10.128zm8.368 0H54.3v3.504h-8.88v3.144h8.016v3.48l-8.016.024v3.168h9.12v3.504H41.027V7.164zm28.696 0h4.08v16.824h-3.84l-7.632-10.056v10.056h-4.104V7.164h3.864l7.656 10.128-.024-10.128zm24.544 16.824h-5.256l-4.416-6.528-2.112 2.352v4.176h-4.392V7.164h4.392v7.296l6.312-7.296h5.088l-6.24 6.936 6.624 9.888zm2.8-16.824h13.272v3.504h-8.88v3.144h8.016v3.48l-8.016.024v3.168h9.12v3.504H97.067V7.164z" transform="translate(1 -7)" fill="url(#a)" fill-rule="evenodd"/></svg>