<svg width="14" height="14" viewBox="0 0 14 14" xmlns="http://www.w3.org/2000/svg"><title>icon_linkedin</title><path d="M.25 13.578h2.965V4.681H.25zM1.732 3.467h-.02C.72 3.467.075 2.784.075 1.93c0-.874.663-1.537 1.678-1.537S3.39 1.056 3.41 1.93c0 .854-.643 1.537-1.678 1.537zm12.175 10.111H10.94v-4.76c0-1.195-.428-2.011-1.501-2.011-.82 0-1.307.55-1.521 1.082-.079.19-.099.454-.099.72v4.97H4.854s.04-8.063 0-8.898H7.82v1.261c.394-.605 1.098-1.47 2.673-1.47 1.951 0 3.414 1.272 3.414 4.004v5.102z" fill="#99A3A4" fill-rule="evenodd"/></svg>