<svg width="39" height="25" viewBox="0 0 39 25" xmlns="http://www.w3.org/2000/svg"><title>icon_Orthosis</title><g fill="none" fill-rule="evenodd"><path d="M19.095 3.37l-.026 19.299a.874.874 0 0 1-.612.832v.001c-5.251 1.652-8.133-.678-9.3-4.393-.642-2.044-.723-4.519-.37-6.936.35-2.402 1.132-4.768 2.22-6.61 1.857-3.14 4.578-4.822 7.661-2.996.29.173.445.488.427.803zm-1.771 18.634l.024-18.15c-1.858-.791-3.579.467-4.837 2.596-.973 1.646-1.676 3.786-1.995 5.974-.317 2.173-.25 4.374.31 6.161.83 2.64 2.849 4.334 6.498 3.419z" fill="#72B2E9"/><path d="M11.479 15.538c-.34-1.212-.055-3.433.198-4.613.403-1.876-3.33-3.482-4.982-4.488L7.374 4.8c2.277 1.388 6.688 3.334 6.012 6.486-.453 2.113-.298 3.414-.25 3.686.946 3.027-3.498 5.152-6.05 5.9l-.742-1.609c1.408-.412 5.795-2.055 5.135-3.726" fill="#2C3E50"/><path d="M.748 17.982l4.789-1.073a.877.877 0 0 1 1.047.664l1.15 5.136a.877.877 0 0 1-.664 1.048L2.28 24.83a.876.876 0 0 1-1.046-.664L.084 19.03a.877.877 0 0 1 .664-1.048zm4.359.79l-3.162.689.766 3.507 3.161-.69-.765-3.507zm2.63-16.778L3.177.179a.876.876 0 0 0-1.139.49L.095 5.56c-.179.45.041.96.49 1.14l4.561 1.815a.877.877 0 0 0 1.139-.491l1.943-4.891a.878.878 0 0 0-.491-1.14zm-4.435.097L6.317 3.26 5.021 6.602 2.006 5.434l1.296-3.343z" fill="#2C3E50"/><path d="M19.912 3.34l-.162 19.298a.874.874 0 0 0 .604.837v.002c5.235 1.703 8.14-.6 9.342-4.303.662-2.037.767-4.51.438-6.932-.327-2.405-1.086-4.778-2.156-6.63-1.827-3.16-4.53-4.867-7.632-3.072a.875.875 0 0 0-.434.8zm1.59 18.65l.152-18.149c1.865-.774 3.573.501 4.811 2.642.957 1.656 1.64 3.802 1.937 5.994.296 2.175.208 4.376-.37 6.157-.855 2.631-2.89 4.306-6.53 3.355z" fill="#72B2E9"/><path d="M27.41 15.581c.351-1.208.087-3.433-.154-4.615-.385-1.88 3.363-3.449 5.025-4.44l-.663-1.641c-2.29 1.365-6.72 3.268-6.075 6.427.433 2.117.265 3.416.215 3.688-.975 3.017 3.447 5.185 5.992 5.958l.758-1.6c-1.404-.427-5.775-2.113-5.099-3.777" fill="#2C3E50"/><path d="M38.116 18.13l-4.779-1.12a.876.876 0 0 0-1.053.653l-1.2 5.125a.877.877 0 0 0 .654 1.054l4.779 1.12a.876.876 0 0 0 1.053-.654l1.2-5.124a.877.877 0 0 0-.654-1.054zm-4.367.746l3.155.72-.8 3.5-3.154-.72.8-3.5zM31.282 2.074L35.86.304a.876.876 0 0 1 1.134.501l1.895 4.91a.877.877 0 0 1-.501 1.134l-4.578 1.77a.876.876 0 0 1-1.134-.501l-1.895-4.91a.877.877 0 0 1 .501-1.134zm4.434.14L32.69 3.352l1.264 3.356L36.98 5.57l-1.264-3.356zm-19.392 9.859a.584.584 0 0 1 0-1.17h6.267a.585.585 0 0 1 0 1.17h-6.267m0 2.194a.584.584 0 0 1 0-1.17h6.267a.585.585 0 0 1 0 1.17h-6.267" fill="#2C3E50"/></g></svg>