<svg width="45" height="23" viewBox="0 0 45 23" xmlns="http://www.w3.org/2000/svg"><title>icon_Funcionnal</title><g fill="none" fill-rule="evenodd"><path d="M22.516 15.057c-.069-.047-.15-.28-.246-.311-.289-.097-.788-.198-1.646-.241-.836-.042-2.027-.032-3.721.09-.198.014-.331.049-.452.135-.121.085-.193.194-.273.36-.051.107-.1.216-.147.326a1.023 1.023 0 0 0-.17-.185c-.242-.205-.55-.272-1.018-.28-.841-.013-1.492.078-1.99.213a3.591 3.591 0 0 0-1.141.51l-.073-.106c-1.205-1.739-3.398-.993-3.958 1.297a8.54 8.54 0 0 0-.176 2.962c.122.984.446 1.837.989 2.278.756.614 1.86.457 3.317-1.167.185.378.403.674.644.894.373.34.798.502 1.236.508.428.005.861-.14 1.264-.413.3-.205.587-.482.841-.823 1.048 3.307 5.79 1.62 6.72-.817.93 2.437 5.672 4.124 6.72.817.254.34.54.618.84.823.404.273.837.418 1.265.413a1.837 1.837 0 0 0 1.235-.508c.241-.22.46-.516.645-.894 1.457 1.624 2.56 1.78 3.317 1.167.543-.44.866-1.294.988-2.278a8.54 8.54 0 0 0-.176-2.962c-.559-2.29-2.753-3.035-3.957-1.297l-.073.105a3.591 3.591 0 0 0-1.14-.51c-.5-.134-1.15-.225-1.991-.211-.468.007-.776.074-1.018.279a1 1 0 0 0-.17.185 7.824 7.824 0 0 0-.148-.326c-.08-.166-.151-.275-.272-.36-.121-.086-.254-.12-.452-.135-1.694-.122-2.885-.132-3.721-.09-.858.043-1.357.144-1.646.24-.096.033-.177.265-.246.312zm.647 3.679v-3.155c.199-.055.575-.115 1.295-.136.75-.023 1.859 0 3.5.116.046.003.03-.041.037-.021.016.044.036.097.06.154a6.894 6.894 0 0 1 .582 3.303c-.014.224-.04.447-.073.665v.009h-.001c-.663 4.331-5.248 1.747-5.4-.933v-.002zm.002-3.172c.003-.005.002-.003 0 0zm6.45 3.471a8.248 8.248 0 0 0-.09-1.817c.007-.364.021-.721.124-.968.08-.19.237-.32.541-.325 2.33-.042 2.765.713 2.77.721.177 1.066-.065 2.168-.364 3.19l-.002.005-.004.01c-.185.629-.433 1.042-.71 1.278a.91.91 0 0 1-.63.234c-.228-.008-.466-.105-.696-.273-.395-.289-.756-.78-1.004-1.405.028-.209.05-.426.064-.65zm4.327-2.562c.062-.085.12-.173.18-.26.8-1.186 1.94-.48 2.272.882.196.804.262 1.738.177 2.549-.08.764-.288 1.4-.64 1.666-.436.331-1.185.037-2.332-1.43.195-.695.537-2.726.343-3.407zm-12.073 2.26v.005c-.152 2.68-4.737 5.264-5.4.933l-.002-.009a7.802 7.802 0 0 1-.085-1.366 6.897 6.897 0 0 1 .595-2.602c.024-.057.044-.11.06-.154.007-.02-.009.024.037.02 1.641-.116 2.75-.138 3.5-.115.72.021 1.096.08 1.294.136v3.153zm-.002-3.168c-.002-.004-.003-.006 0-.001zm-6.462 2.704a8.248 8.248 0 0 0 .077 1.416c-.249.625-.609 1.116-1.004 1.405-.23.168-.468.265-.696.273a.91.91 0 0 1-.63-.234c-.277-.235-.525-.648-.71-1.273v-.005l-.006-.015c-.35-1.2-.506-2.066-.354-3.206.079-.11.62-.744 2.76-.705.304.005.46.134.54.325.103.247.118.604.124.968a7.942 7.942 0 0 0-.1 1.051zm-4.315-1.796c-.194.68.148 2.712.342 3.406-1.146 1.468-1.895 1.762-2.332 1.431-.351-.265-.56-.902-.64-1.666a7.792 7.792 0 0 1 .178-2.55c.333-1.36 1.472-2.067 2.272-.882.059.088.118.176.18.261zm11.426-3.555c-.1.07-.22.127-.36.174-.422.142-1.152.29-2.408.353-1.223.061-2.965.045-5.443-.133-.29-.02-.484-.07-.662-.196-.176-.125-.281-.285-.398-.528a11.763 11.763 0 0 1-.215-.476 1.503 1.503 0 0 1-.25.27c-.354.3-.804.398-1.489.409-1.23.02-2.182-.114-2.911-.31-.768-.208-1.305-.49-1.669-.746l-.107.154c-.524.757-.998 1.441-2.094 1.707-1.878.455-3.132-1.299-3.695-3.604a12.495 12.495 0 0 1-.257-4.334c.178-1.438.651-2.687 1.445-3.331 1.107-.898 2.721-.67 4.853 1.707.27-.554.59-.987.943-1.309.545-.498 1.166-.734 1.807-.742.626-.008 1.26.204 1.85.604.44.299.858.705 1.23 1.204.546-1.723 1.378-2.773 2.34-3.302.753-.413 1.573-.505 2.395-.35.792.151 1.583.535 2.31 1.085 1.185.899 2.21 2.255 2.785 3.762.575-1.507 1.6-2.863 2.785-3.762.727-.55 1.518-.934 2.31-1.084.822-.156 1.642-.064 2.394.35.962.528 1.795 1.578 2.34 3.301a5.218 5.218 0 0 1 1.232-1.204c.589-.4 1.222-.612 1.848-.604.642.008 1.263.244 1.808.742.353.322.672.755.943 1.309 2.131-2.376 3.746-2.605 4.852-1.707.795.644 1.268 1.893 1.446 3.331a12.48 12.48 0 0 1-.257 4.334c-.563 2.305-1.817 4.059-3.696 3.604-1.095-.266-1.569-.95-2.093-1.707a34.141 34.141 0 0 0-.107-.154c-.364.256-.902.538-1.669.745-.73.197-1.681.33-2.912.31-.685-.01-1.134-.109-1.488-.407a1.499 1.499 0 0 1-.25-.271c-.068.16-.14.319-.215.476-.117.243-.222.403-.398.528-.178.125-.373.176-.662.196-2.478.178-4.22.194-5.444.133-1.255-.064-1.985-.211-2.407-.353a1.448 1.448 0 0 1-.36-.174zm.947-5.663v4.615c.29.08.84.168 1.894.2 1.097.032 2.719 0 5.12-.17.067-.005.043.06.054.03.023-.064.052-.143.089-.225a10.09 10.09 0 0 0 .85-4.832 11.405 11.405 0 0 0-.106-.974l-.001-.012h-.001c-.345-2.257-1.074-3.518-1.954-4.058-.469-.289-.99-.37-1.52-.288-.56.086-1.134.351-1.677.747-1.45 1.056-2.637 2.999-2.748 4.963v.004zm.002 4.64c.005.008.003.005 0 0zM32.9 6.817a12.12 12.12 0 0 1-.13 2.659c.01.532.03 1.054.181 1.415.117.28.346.468.791.476 3.409.061 4.045-1.043 4.052-1.056l.142-.28c.02-.105.038-.274.04-.542.008-.692-.137-1.87-.715-3.842l-.003-.009-.004-.016c-.271-.918-.634-1.523-1.04-1.867-.292-.247-.607-.354-.922-.343-.333.012-.681.153-1.018.399-.578.423-1.105 1.141-1.469 2.056.042.305.075.622.095.95zm6.43 1.758c.094.987.008 1.613-.1 1.99.09.125.177.253.264.382.375.555.754 1.117 1.363 1.264.887.215 1.578-.992 1.96-2.556.287-1.176.384-2.542.26-3.728-.118-1.119-.422-2.05-.936-2.438-.64-.484-1.734-.054-3.411 2.093.352 1.26.528 2.239.6 2.993zM21.57 7.258V7.25c-.112-1.964-1.298-3.907-2.75-4.963-.542-.396-1.117-.66-1.676-.747-.53-.082-1.051 0-1.52.288-.88.54-1.609 1.801-1.954 4.058h-.001l-.002.012c-.048.32-.085.646-.106.974a10.21 10.21 0 0 0 .229 2.972 10.1 10.1 0 0 0 .622 1.86c.037.082.065.16.089.225.01.03-.013-.035.054-.03 2.4.17 4.023.202 5.12.17 1.053-.032 1.604-.12 1.893-.2v-.048l.001-4.564zm-.003 4.636c-.003.006-.005.009 0 .001zm-9.453-3.956a12.12 12.12 0 0 1 .112-2.071c-.364-.915-.89-1.633-1.468-2.056-.337-.246-.685-.387-1.018-.399-.315-.011-.63.096-.922.343-.405.343-.768.947-1.038 1.862l-.002.007-.007.021v.001c-.578 1.973-.723 3.15-.716 3.843.001.164.009.29.02.388l.02-.012.158.47c.115.162.907 1.088 4.036 1.032.446-.008.675-.196.792-.476.15-.361.172-.883.18-1.415a11.553 11.553 0 0 1-.147-1.538zm-6.313 2.626c-.107-.376-.194-1.002-.099-1.989.072-.754.248-1.733.6-2.993C4.625 3.435 3.53 3.005 2.89 3.49c-.513.389-.817 1.32-.935 2.438a11.393 11.393 0 0 0 .26 3.728c.382 1.564 1.073 2.771 1.96 2.556.609-.147.988-.709 1.363-1.264.086-.129.173-.257.263-.383z" fill="#2C3E50"/><path d="M24.356 5.15c-.665.032-1.23 1.165-1.231 1.168-.298.59-.924.59-1.22-.005-.002-.003-.56-1.13-1.222-1.163-.815-.039-1.879-.182-3.069-.343-3.638-.49-8.527-1.149-9.987.627-1.078 1.31-3.062 2.314-4.69 3.138-.532.269-1.024.517-1.417.744a.593.593 0 0 0-.089.138c-.189.345.06.93.07 1.63.064 3.899 4.132 5.554 7.38 6.05 2.444.373 5.721.517 12.078.414.263-.005.854-1.788 1.538-1.802.718 0 1.316 1.798 1.582 1.802 6.354.103 9.63-.041 12.073-.414 3.248-.496 7.314-2.152 7.378-6.05.011-.7.26-1.285.07-1.63a.595.595 0 0 0-.089-.138c-.393-.227-.885-.475-1.417-.744-1.628-.824-3.612-1.827-4.69-3.138-1.46-1.776-6.347-1.117-9.983-.627-1.189.16-2.25.304-3.065.343zm-1.84-.338c.413-.48 1.02-.982 1.776-1.019.755-.036 1.79-.176 2.947-.332 3.96-.534 9.28-1.251 11.223 1.112.899 1.092 2.737 2.022 4.247 2.786.552.279 1.063.537 1.486.781.227.131.434.36.601.665.081.148.126.321.147.515.053.488-.04 1.108-.052 1.786-.076 4.654-4.554 6.766-8.536 7.374-2.5.382-6.036.53-12.49.425-.61-.01-1.082-.615-1.35-1.251-.265.636-.734 1.24-1.34 1.25-6.458.106-9.997-.042-12.497-.424C4.695 17.872.216 15.76.14 11.106c-.011-.69-.108-1.319-.048-1.811.022-.184.066-.348.143-.49.167-.304.374-.534.602-.665.422-.244.933-.502 1.486-.781 1.509-.764 3.348-1.694 4.246-2.786C8.511 2.21 13.835 2.927 17.796 3.46c1.16.156 2.196.296 2.951.333.752.036 1.357.537 1.77 1.018z" fill="#72B2E9"/><path fill-opacity=".5" fill="#72B2E9" d="M.9 9.448l4.807-3.282 3.196-2.297 5.176.038 5.403.215 2.539.959.474.605 1.661-.857 6.368-1.02 4.473.202 1.884.236 2.691 2.04 3.163 1.81L44.3 9.152l-.33 3.69-1.393 2.209-2.677 1.486-3.355 1.112-6.904.461-4.618-.03-1.64-.366-.87-.81-1.268 1.21-5.433-.104-8.154-.48-3.97-1.673-2.448-2.566-.455-2.706z"/></g></svg>