<svg width="12" height="16" viewBox="0 0 12 16" xmlns="http://www.w3.org/2000/svg"><title>icon_lock</title><path d="M11.132 6.094h-.962V3.428C10.17 1.534 8.718 0 6.924 0H5.05C3.255 0 1.803 1.534 1.803 3.428v2.666H.866c-.476 0-.866.412-.866.914v8.078c0 .503.39.914.866.914h10.268c.476 0 .866-.411.866-.914V7.008c-.002-.502-.392-.914-.868-.914zm-2.844 0H3.67V3.885c0-1.01.775-1.828 1.731-1.828h1.155c.957 0 1.73.817 1.73 1.828v2.21zM7 11.732v1.502c0 1.021-2 1.021-2 0v-1.502a2 2 0 1 1 2 0z" fill="#FFF" fill-rule="evenodd"/></svg>