<svg width="15" height="15" viewBox="0 0 15 15" xmlns="http://www.w3.org/2000/svg"><title>SAOS</title><path d="M7.107 7.396H.62a.622.622 0 0 1-.573-.378.587.587 0 0 1 .14-.661l5.394-5.145H.621A.617.617 0 0 1 0 .604C0 .272.28 0 .621 0h6.486c.256 0 .48.148.579.378a.582.582 0 0 1-.14.657L2.151 6.184h4.955c.346 0 .627.272.627.604 0 .336-.28.608-.627.608zm7.27 1.241h-3.06l3.499-3.334a.599.599 0 0 0 .14-.655.628.628 0 0 0-.579-.379H9.793a.616.616 0 0 0-.627.603c0 .331.281.608.627.608h3.054L9.355 8.81a.59.59 0 0 0-.14.661.631.631 0 0 0 .578.379h4.584a.615.615 0 0 0 .621-.609.615.615 0 0 0-.62-.604zm-7.052 5.15H5.2l2.566-2.447a.587.587 0 0 0 .14-.662.632.632 0 0 0-.58-.379h-3.65a.622.622 0 0 0-.628.609c0 .331.28.603.627.603h2.128L3.236 13.96a.591.591 0 0 0-.14.663.634.634 0 0 0 .578.378h3.651a.619.619 0 0 0 .629-.61.616.616 0 0 0-.629-.602z" fill="#99A3A4" fill-rule="evenodd"/></svg>