<svg width="24" height="20" viewBox="0 0 24 20" xmlns="http://www.w3.org/2000/svg"><title>icon_Delivery</title><g fill="none" fill-rule="evenodd"><path d="M.264.27A.846.846 0 0 1 .889 0H15.11c.24 0 .45.09.625.27.176.18.264.393.264.64v2.726h2.222c.25 0 .521.062.813.185.291.123.525.275.701.454l2.75 2.813c.12.123.224.265.313.426a2.6 2.6 0 0 1 .194.433c.042.128.072.303.09.526.019.223.03.386.035.49.004.104.004.284 0 .54-.004.256-.007.421-.007.497v4.546c.24 0 .45.09.625.27.176.18.264.392.264.639 0 .142-.018.267-.055.376a.539.539 0 0 1-.188.263c-.088.066-.164.12-.23.163-.064.043-.173.071-.326.086l-.312.028a4.384 4.384 0 0 1-.354 0 21 21 0 0 0-.313-.007h-.889c0 1.003-.347 1.86-1.041 2.57-.695.71-1.533 1.066-2.514 1.066-.982 0-1.82-.355-2.514-1.065-.695-.71-1.042-1.568-1.042-2.571H8.89c0 1.003-.347 1.86-1.042 2.57C7.153 19.645 6.315 20 5.333 20c-.981 0-1.819-.355-2.513-1.065-.695-.71-1.042-1.568-1.042-2.571a21.1 21.1 0 0 0-.312.007c-.181.005-.3.005-.355 0a62.52 62.52 0 0 1-.312-.028c-.153-.015-.262-.043-.327-.086a4.423 4.423 0 0 1-.229-.163.538.538 0 0 1-.187-.263A1.16 1.16 0 0 1 0 15.455V.909C0 .663.088.45.264.27zm16.264 17.372c.352.36.769.54 1.25.54s.898-.18 1.25-.54c.352-.36.528-.786.528-1.278s-.176-.919-.528-1.279a1.691 1.691 0 0 0-1.25-.54c-.481 0-.898.18-1.25.54-.352.36-.528.787-.528 1.279 0 .492.176.919.528 1.278zM16 9.091h5.334v-.426a.43.43 0 0 0-.125-.313L18.5 5.582a.411.411 0 0 0-.306-.127H16v3.636zM4.083 17.642c.352.36.77.54 1.25.54.482 0 .899-.18 1.25-.54.352-.36.528-.786.528-1.278s-.176-.919-.527-1.279a1.69 1.69 0 0 0-1.25-.54c-.482 0-.899.18-1.25.54a1.77 1.77 0 0 0-.529 1.279c0 .492.176.919.528 1.278z" fill="#2C3E50"/><path d="M5.007 7.48l6.318-3.403-3.527 3.206 3.064.923c-.001 0-2.037 1.247-6.107 3.743A768.834 768.834 0 0 0 8.41 8.51L5.007 7.48z" fill="#FFF"/></g></svg>