<svg width="24" height="24" viewBox="0 0 24 24" xmlns="http://www.w3.org/2000/svg"><title>icon_calendar</title><path d="M4.496 11.983h2.997v-2.99H4.496v2.99zm5.994 0h2.997v-2.99H10.49v2.99zm5.994 0h2.997v-2.99h-2.997v2.99zM4.496 16.467h2.997v-2.99H4.496v2.99zm5.994 0h2.997v-2.99H10.49v2.99zm5.994 0h2.997v-2.99h-2.997v2.99zM4.496 20.952h2.997v-2.99H4.496v2.99zm5.994 0h2.997v-2.99H10.49v2.99zM5.994 4.508c.828 0 1.499-.669 1.499-1.495V1.518c0-.826-.671-1.495-1.499-1.495-.827 0-1.498.669-1.498 1.495v1.495c0 .827.67 1.495 1.498 1.495zm17.983-1.495v20.929H0V3.013h3.746a2.248 2.248 0 0 0 4.496 0h7.493a2.248 2.248 0 0 0 4.495 0h3.747zM1.499 22.447h20.979V7.497H1.498v14.95zM17.982 4.508c.829 0 1.499-.669 1.499-1.495V1.518c0-.826-.67-1.495-1.499-1.495-.828 0-1.498.669-1.498 1.495v1.495c0 .827.67 1.495 1.498 1.495z" fill="#99A3A4" fill-rule="evenodd"/></svg>