<svg width="42" height="21" viewBox="0 0 42 21" xmlns="http://www.w3.org/2000/svg"><title>icon_Tous</title><path d="M41.863 8.238a1.34 1.34 0 0 0-.403-.653c-.858-.762-9.553-7.48-13.65-7.48-2.231 0-3.76 1.001-4.989 1.806-.738.484-1.375.9-1.86.901-.489 0-1.126-.417-1.865-.902C17.868 1.106 16.34.104 14.108.104 10.011.104 1.316 6.823.458 7.585c-.224.2-.37.448-.425.713l-.032.33c-.016.364.144.718.457.998.417.37.946.952 1.559 1.628 1.56 1.718 3.694 4.072 6.718 6.02C12.57 19.747 16.662 21 20.893 21c4.23 0 8.375-1.309 12.322-3.89 3.086-2.018 5.304-4.461 6.772-6.078.54-.596 1.71-1.86 1.8-2.018.082-.144.154-.487.076-.776zm-9.802 7.477c-3.605 2.358-7.362 3.553-11.168 3.553-3.812 0-7.518-1.143-11.015-3.396-2.814-1.813-6.94-5.893-6.705-6.101.078-.07 1.846.708 2.75 1.084 3.618 1.504 9.084 3.776 14.97 3.776 6.047 0 11.59-2.328 15.258-3.869.884-.371 2.46-1.098 2.481-.995.038.18-3.688 4.062-6.571 5.948zM8.07 9.832c0-.168 10.204-.944 12.412-.955.312-.002.625-.002.939-.002 2.378 0 12.467.703 12.467.917 0 .298-8.103 3.107-12.996 3.107-4.798 0-12.823-2.694-12.823-3.067zm30.007-1.658c-1.094 0-2.531-.063-4.195-.115-1.419-.044-3.106-.216-4.892-.398-2.498-.255-5.08-.518-7.57-.518-.316 0-.633 0-.95.002-2.315.011-4.868.276-7.338.532-1.842.19-3.582.371-5.008.42-.936.03-1.602.062-2.137.086-.733.034-1.263.068-2.05.068-.843 0-1.278-.09-1.005-.297A54.694 54.694 0 0 1 7.33 4.888c3.074-1.94 5.545-3.052 6.777-3.052 1.59 0 2.731.747 3.833 1.47.972.636 1.89 1.237 3.02 1.238 1.126-.001 2.044-.602 3.016-1.239 1.102-.722 2.242-1.469 3.832-1.469 1.233 0 3.703 1.112 6.778 3.052 1.957 1.234 3.41 2.145 4.478 3.095.22.196-.178.191-.987.191z" fill="#2C3E50" fill-rule="evenodd"/></svg>