<svg width="48" height="32" viewBox="0 0 48 32" xmlns="http://www.w3.org/2000/svg"><title>icon_Appareil-Fixes</title><g fill="none" fill-rule="evenodd"><path d="M7.193 24.65c-.193.056-.678.098-1.057.025-.347-.067-.65-.229-.767-.547-1.908-5.207-1.793-14.54-1.76-16.961-.04-.486.347-1.674.02-2.044-.166-.188-.63-.06-1.685.843-.201.173-.42.375-.592.613a1.53 1.53 0 0 0-.306.74c-.558 5.254.508 23.288 7.876 23.72.54.03 1.037-.052 1.413-.3.24-.158.436-.388.572-.705.02-.046.9-9.693-2.683-7.826a.723.723 0 0 0-.1.062c-.446.336-.472 1.004-.489 1.446-.018.474-.032.816-.442.934zm-.463-.965c.023-.61.06-1.534.844-2.124.07-.051.145-.099.228-.142 5.124-2.67 3.987 8.849 3.94 8.96-.21.489-.52.848-.903 1.1-.556.366-1.244.492-1.97.45C.68 31.449-.475 13.06.144 7.229c.049-.46.231-.844.47-1.17.22-.304.49-.555.737-.767 1.758-1.503 3.524-1.543 3.344.96a2.228 2.228 0 0 1-.177.714l-.002.16c-.032 2.308-.16 11.61 1.705 16.701.002.005.5.08.509-.142zm34.987.018c1.866-5.091 1.738-14.393 1.706-16.701l-.003-.16a2.23 2.23 0 0 1-.176-.714c-.192-2.667 1.753-2.32 3.344-.96.247.212.517.463.738.766.237.327.42.712.468 1.17.62 5.832-.535 24.221-8.724 24.7-.726.043-1.415-.083-1.97-.449a2.424 2.424 0 0 1-.903-1.1c-.048-.111-1.184-11.63 3.94-8.96.082.043.159.09.228.142.785.59.82 1.513.844 2.124.008.209.507.147.508.142zm.086.848c-.38.073-.864.031-1.057-.025-.41-.118-.424-.46-.442-.934-.018-.442-.044-1.11-.49-1.446a.726.726 0 0 0-.1-.062c-3.582-1.867-2.702 7.78-2.682 7.826.135.317.333.547.572.705.376.248.873.33 1.412.3 7.369-.432 8.434-18.466 7.876-23.72a1.533 1.533 0 0 0-.305-.74 3.68 3.68 0 0 0-.592-.613c-1.056-.902-1.52-1.03-1.685-.843-.327.37.059 1.558.019 2.044.033 2.421.149 11.755-1.76 16.96-.116.32-.42.481-.766.548z" fill="#99A3A4"/><path d="M23.967 21.054c-.055-.037-.12-.22-.196-.246-.23-.076-.629-.156-1.313-.19-.668-.033-1.618-.024-2.97.072-.158.01-.264.038-.36.106a.666.666 0 0 0-.218.284 5.91 5.91 0 0 0-.117.256.813.813 0 0 0-.137-.146c-.193-.16-.438-.214-.812-.22-.671-.01-1.19.062-1.588.168a2.884 2.884 0 0 0-.91.4l-.059-.082c-.96-1.37-2.711-.782-3.157 1.021a6.638 6.638 0 0 0-.14 2.333c.097.774.355 1.446.788 1.793.603.483 1.484.36 2.647-.919.147.298.322.531.514.705.298.268.636.395.986.4.342.004.687-.11 1.009-.326.24-.16.468-.38.671-.648.836 2.604 4.62 1.276 5.362-.644.742 1.92 4.526 3.248 5.362.644.203.268.432.487.672.648.321.215.667.33 1.008.325a1.47 1.47 0 0 0 .986-.4c.193-.173.367-.406.515-.704 1.162 1.28 2.043 1.402 2.647.92.433-.348.69-1.02.788-1.794a6.638 6.638 0 0 0-.14-2.333c-.446-1.803-2.197-2.39-3.158-1.021l-.058.083a2.885 2.885 0 0 0-.91-.401c-.399-.106-.918-.178-1.589-.167-.374.005-.619.058-.812.22a.81.81 0 0 0-.136.145 6.17 6.17 0 0 0-.118-.256.666.666 0 0 0-.217-.284c-.097-.068-.203-.095-.36-.106-1.352-.096-2.303-.105-2.97-.072-.685.034-1.083.114-1.313.19-.077.026-.142.209-.197.246zm.517 2.896v-2.484c.158-.043.459-.09 1.033-.107.598-.018 1.483 0 2.793.091.036.003.023-.032.03-.016a1.5 1.5 0 0 0 .048.121 5.377 5.377 0 0 1 .464 2.6 6.062 6.062 0 0 1-.058.525v.006h-.001c-.53 3.411-4.188 1.376-4.31-.734v-.002zm.001-2.497c.003-.005.002-.003 0 0zm5.147 2.733a6.44 6.44 0 0 0-.071-1.431c.005-.287.016-.568.099-.762.063-.15.188-.252.431-.256 1.86-.033 2.207.561 2.21.568.141.839-.052 1.707-.29 2.511l-.002.005-.003.008c-.147.494-.345.82-.567 1.005a.732.732 0 0 1-.503.185 1.03 1.03 0 0 1-.555-.215c-.315-.227-.602-.614-.8-1.107a6.79 6.79 0 0 0 .05-.51zm3.453-2.017c.05-.068.096-.137.144-.206.638-.933 1.547-.377 1.812.695.157.633.21 1.369.142 2.007-.064.602-.23 1.103-.51 1.313-.35.26-.947.029-1.861-1.127.155-.547.428-2.146.273-2.682zm-9.634 1.78v.003c-.121 2.11-3.78 4.145-4.31.735v-.007a6.062 6.062 0 0 1-.069-1.076 5.382 5.382 0 0 1 .475-2.049c.02-.045.035-.087.048-.121.006-.016-.007.019.03.016 1.31-.091 2.194-.109 2.792-.091.575.017.875.064 1.033.107v2.484zm-.001-2.496c-.002-.003-.003-.005 0 0zm-5.157 2.13a6.44 6.44 0 0 0 .061 1.114c-.198.493-.485.88-.8 1.107a1.03 1.03 0 0 1-.556.215.731.731 0 0 1-.503-.185c-.221-.184-.419-.51-.566-1.002l-.001-.004-.004-.011c-.28-.945-.404-1.627-.282-2.525.062-.087.494-.585 2.201-.555.243.004.368.106.432.256.082.194.094.475.099.762a6.175 6.175 0 0 0-.08.828zm-3.444-1.414c-.154.536.119 2.135.274 2.682-.915 1.156-1.512 1.387-1.861 1.127-.28-.21-.446-.71-.51-1.313a6.057 6.057 0 0 1 .141-2.007c.265-1.072 1.174-1.628 1.813-.695.047.07.094.138.143.206z" fill="#2C3E50"/><path d="M11.003 29.64c.192.103.413.084.625-.066 1.326-.945.616-3.524 1.388-4.303.334-.338.757-.437 1.298-.491 3.149-.012 6.615.49 9.764.48 3.15.01 6.394-.495 9.543-.485.547.045.974.16 1.307.51.76.797.058 3.35 1.377 4.291.212.15.433.17.625.065 2.128-1.152 2.714.234.361 1.447-.444.23-.943.211-1.407-.08-.84-.525-1.473-1.97-1.556-3.235-.096-1.473-.219-1.477-.902-1.484-3.085-.037-6.262.502-9.348.502-3.08 0-6.47-.515-9.551-.507-.709.001-.828.057-.921 1.489-.083 1.264-.717 2.71-1.556 3.235-.464.29-.963.308-1.407.08-2.352-1.213-1.766-2.599.36-1.449" fill="#72B2E9"/><path d="M23.967 19.022c-.08.054-.175.1-.287.136-.337.112-.92.228-1.921.278-.977.049-2.367.036-4.344-.104-.231-.016-.386-.056-.528-.155-.141-.098-.225-.224-.318-.415a9.203 9.203 0 0 1-.171-.375 1.19 1.19 0 0 1-.2.213c-.282.235-.641.312-1.188.321-.982.015-1.741-.09-2.323-.244-.613-.164-1.041-.386-1.332-.587l-.085.121c-.419.596-.797 1.135-1.67 1.344-1.5.358-2.5-1.022-2.95-2.838a9.713 9.713 0 0 1-.205-3.412c.142-1.133.52-2.116 1.154-2.624.883-.707 2.17-.526 3.872 1.344a3.4 3.4 0 0 1 .752-1.03c.435-.392.93-.578 1.443-.585.5-.006 1.005.161 1.475.476.351.236.685.556.982.949.436-1.357 1.1-2.184 1.868-2.6.6-.326 1.255-.399 1.91-.276.633.119 1.264.42 1.843.854.947.708 1.765 1.775 2.223 2.963.459-1.188 1.277-2.255 2.223-2.963.58-.433 1.21-.735 1.843-.854.656-.123 1.31-.05 1.91.276.768.416 1.433 1.243 1.868 2.6.297-.393.631-.713.982-.949.47-.315.976-.482 1.476-.476.512.007 1.007.193 1.442.585a3.4 3.4 0 0 1 .752 1.03c1.702-1.87 2.99-2.05 3.873-1.344.634.508 1.01 1.491 1.154 2.624a9.713 9.713 0 0 1-.206 3.412c-.45 1.816-1.45 3.196-2.949 2.838-.874-.21-1.252-.748-1.67-1.344l-.086-.121c-.29.201-.719.423-1.331.587-.583.155-1.342.26-2.324.244-.546-.009-.905-.086-1.188-.321a1.187 1.187 0 0 1-.2-.213 9.137 9.137 0 0 1-.17.375c-.094.191-.178.317-.318.415-.142.099-.298.139-.528.155-1.978.14-3.368.153-4.344.104-1.002-.05-1.585-.166-1.922-.278a1.164 1.164 0 0 1-.287-.136zm.756-4.46v3.634c.232.064.671.133 1.511.157.876.026 2.17 0 4.086-.133.053-.004.034.047.043.023.019-.05.042-.112.071-.177a7.873 7.873 0 0 0 .679-3.805 8.866 8.866 0 0 0-.085-.766l-.001-.01c-.276-1.777-.858-2.77-1.56-3.196a1.774 1.774 0 0 0-1.213-.226c-.446.067-.905.276-1.338.588-1.158.831-2.105 2.361-2.193 3.908v.003zm.002 3.654c.004.006.002.004 0 0zm7.529-4a9.417 9.417 0 0 1-.104 2.095c.007.419.024.83.144 1.114.094.22.276.369.632.375 2.72.048 3.227-.822 3.233-.831l.113-.221a2.44 2.44 0 0 0 .033-.427c.005-.545-.11-1.472-.571-3.026l-.003-.006-.003-.013c-.216-.723-.506-1.2-.83-1.47a1.07 1.07 0 0 0-.736-.27c-.266.01-.543.12-.812.314-.461.333-.882.899-1.172 1.619.034.24.06.49.076.748zm5.13 1.386c.076.777.007 1.27-.079 1.566.072.099.141.2.21.301.3.438.602.88 1.088.996.708.17 1.26-.781 1.564-2.013.23-.926.307-2.002.207-2.936-.093-.88-.336-1.614-.746-1.92-.51-.38-1.384-.042-2.723 1.649.281.992.422 1.762.48 2.357zm-14.172-1.038v-.005c-.089-1.547-1.036-3.077-2.193-3.908-.434-.312-.892-.52-1.339-.588-.423-.065-.838 0-1.213.226-.702.426-1.283 1.419-1.559 3.196l-.002.01a8.866 8.866 0 0 0-.1 1.574 7.867 7.867 0 0 0 .694 2.997c.03.065.053.127.071.177.01.024-.01-.027.044-.023 1.915.133 3.21.159 4.085.133.84-.024 1.28-.093 1.51-.157v-.038l.002-3.594zm-.002 3.651c-.003.005-.004.007 0 .001zM15.667 15.1a9.417 9.417 0 0 1 .09-1.631c-.291-.72-.711-1.286-1.173-1.619-.268-.194-.546-.305-.812-.314a1.07 1.07 0 0 0-.735.27c-.324.27-.613.746-.829 1.466l-.001.006-.006.017c-.46 1.554-.577 2.48-.571 3.026 0 .13.007.229.015.306l.017-.01.126.37c.091.128.724.857 3.22.813.356-.006.539-.155.632-.375.12-.284.137-.695.145-1.114a8.983 8.983 0 0 1-.118-1.211zm-5.038 2.068c-.086-.296-.154-.79-.079-1.566.058-.595.198-1.365.48-2.357-1.34-1.691-2.213-2.03-2.723-1.649-.41.306-.653 1.04-.747 1.92-.1.934-.022 2.01.207 2.936.305 1.232.857 2.182 1.564 2.013.486-.116.789-.558 1.088-.996.07-.101.138-.202.21-.3z" fill="#2C3E50"/><path d="M40.644 2.972L31.232.92h-.002a.843.843 0 0 0-.627.11.819.819 0 0 0-.367.513l-.859 3.81a.809.809 0 0 0 .112.619c.114.176.297.31.522.36l9.413 2.051c.225.05.45.004.63-.11a.818.818 0 0 0 .365-.513l.86-3.81a.809.809 0 0 0-.112-.619.83.83 0 0 0-.523-.36zM31.45.052L40.84 2.1c.467.102.85.383 1.09.755.24.37.338.83.235 1.288l-.86 3.81a1.71 1.71 0 0 1-.767 1.072 1.76 1.76 0 0 1-1.31.23l-9.413-2.052a1.737 1.737 0 0 1-1.09-.754c-.24-.37-.338-.83-.234-1.29l.867-3.847.001-.002a1.71 1.71 0 0 1 .756-1.032 1.762 1.762 0 0 1 1.312-.23l.022.005zM7.154 2.087L16.506.048a1.76 1.76 0 0 1 1.31.23c.378.236.664.613.768 1.072l.872 3.87v.004c.081.438-.018.872-.247 1.225v.001c-.24.37-.622.651-1.09.753l-.06.013-9.353 2.039-.06.013H8.64a1.761 1.761 0 0 1-1.246-.243h-.002a1.71 1.71 0 0 1-.765-1.072l-.013-.06-.86-3.81V4.08a1.69 1.69 0 0 1 .248-1.225v-.001c.24-.37.622-.65 1.09-.753l.06-.013zM16.702.92L7.289 2.972h-.002a.832.832 0 0 0-.52.36.809.809 0 0 0-.112.618l.86 3.81v.002a.82.82 0 0 0 .367.512c.18.113.404.158.628.11l.06-.014 9.353-2.039h.002a.832.832 0 0 0 .52-.36.808.808 0 0 0 .111-.618l-.858-3.81a.817.817 0 0 0-.366-.514.846.846 0 0 0-.63-.11z" fill="#99A3A4"/><path d="M43.563 16.542c-1.07.274-2.279.175-2.279.175-.091.37-.206.721-.342 1.044 1.059.083 1.884-.01 2.515-.194 2.134-.62 2.043-2.27 1.243-1.567-.298.262-.706.432-1.137.542m-39.192 0c1.07.274 2.28.175 2.28.175.09.37.205.721.342 1.044-1.06.083-1.885-.01-2.515-.194-2.135-.62-2.043-2.27-1.244-1.567.298.262.706.432 1.137.542M16.945 4.346c2.7.002 3.62 3.448 7.022 3.448 3.51 0 4.59-3.447 7.022-3.448 2.338-.002 15.061 4.447 15.1 3.733.027-.518-12.665-5.264-14.692-5.263-3.681 0-3.887 3.726-7.43 3.726-3.543 0-3.775-3.724-7.02-3.726C14.413 2.815 1.654 7.65 1.77 8.079c.188.688 12.697-3.735 15.175-3.733" fill="#72B2E9"/></g></svg>