<svg width="14" height="12" viewBox="0 0 14 12" xmlns="http://www.w3.org/2000/svg"><title>Path</title><path d="M12.506 3.176c.005.122.008.245.008.368 0 3.754-2.858 8.082-8.083 8.082A8.038 8.038 0 0 1 .077 10.35a5.7 5.7 0 0 0 4.206-1.176A2.844 2.844 0 0 1 1.629 7.2a2.825 2.825 0 0 0 1.283-.049A2.843 2.843 0 0 1 .633 4.367V4.33c.383.213.821.34 1.287.355A2.839 2.839 0 0 1 1.04.894a8.065 8.065 0 0 0 5.856 2.968 2.84 2.84 0 0 1 4.84-2.591A5.688 5.688 0 0 0 13.54.58a2.849 2.849 0 0 1-1.249 1.572 5.683 5.683 0 0 0 1.632-.447c-.38.57-.862 1.07-1.417 1.47z" fill="#55ACEE" fill-rule="evenodd"/></svg>