<svg width="18" height="22" viewBox="0 0 18 22" xmlns="http://www.w3.org/2000/svg" xmlns:xlink="http://www.w3.org/1999/xlink"><title>icons / douille / mini / lined</title><defs><path d="M8 2.333a6.4 6.4 0 0 1 6.4 6.4V17.8a3.2 3.2 0 0 1-3.2 3.2H4.8a3.2 3.2 0 0 1-3.2-3.2V8.733a6.4 6.4 0 0 1 6.4-6.4z" id="a"/><ellipse id="b" cx="8" cy="4.278" rx="8" ry="4.278"/></defs><g fill="none" fill-rule="evenodd"><g transform="matrix(1 0 0 -1 1 24.333)"><use fill="#19BB9B" xlink:href="#a"/><path stroke="#19BB9B" stroke-width="1.5" d="M8 3.083a5.65 5.65 0 0 0-5.65 5.65V17.8a2.45 2.45 0 0 0 2.45 2.45h6.4a2.45 2.45 0 0 0 2.45-2.45V8.733A5.65 5.65 0 0 0 8 3.083z"/></g><g transform="translate(1 1)"><use fill="#19BB9B" xlink:href="#b"/><ellipse stroke="#19BB9B" stroke-width="1.5" cx="8" cy="4.278" rx="7.25" ry="3.528"/><ellipse stroke="#FFF" cx="8" cy="4.278" rx="8.5" ry="4.778"/></g><path d="M3.4 14.444C5.268 15.481 7.136 16 9.002 16s3.732-.519 5.598-1.556v1.167c-1.85 1.037-3.712 1.556-5.584 1.556-1.872 0-3.744-.519-5.616-1.556v-1.167zm0-3.111c1.868 1.037 3.736 1.556 5.602 1.556s3.732-.519 5.598-1.556V12.5c-1.85 1.037-3.712 1.556-5.584 1.556-1.872 0-3.744-.519-5.616-1.556v-1.167zM9.016 7.5c1.866 0 3.728-.489 5.584-1.467C12.75 5.011 10.888 4.5 9.016 4.5c-1.872 0-3.744.511-5.616 1.533C5.278 7.011 7.15 7.5 9.016 7.5z" fill="#FFF"/></g></svg>