<svg width="24" height="24" viewBox="0 0 24 24" xmlns="http://www.w3.org/2000/svg" xmlns:xlink="http://www.w3.org/1999/xlink"><title>icon_En_traitement</title><defs><path id="a" d="M.004.025v23.917h23.973V.025H.004z"/></defs><g fill="none" fill-rule="evenodd"><mask id="b" fill="#fff"><use xlink:href="#a"/></mask><path d="M23.8 9.934a.674.674 0 0 0-.826-.534 2.05 2.05 0 0 1-1.233-.07 2.044 2.044 0 0 1-1.177-2.64c.153-.396.43-.733.799-.973a.669.669 0 0 0 .17-.967 11.903 11.903 0 0 0-2.626-2.532.674.674 0 0 0-.963.2 2.023 2.023 0 0 1-.917.806 2.05 2.05 0 0 1-2.702-1.036 2.025 2.025 0 0 1-.131-1.247.673.673 0 0 0-.107-.524.673.673 0 0 0-.458-.278 11.968 11.968 0 0 0-3.648.053.673.673 0 0 0-.54.821c.101.408.075.829-.075 1.217a2.058 2.058 0 0 1-1.91 1.31 2.027 2.027 0 0 1-1.711-.935.676.676 0 0 0-.968-.172A11.878 11.878 0 0 0 2.223 5.05a.67.67 0 0 0 .203.964c.364.217.646.535.817.92a2.035 2.035 0 0 1-1.038 2.695c-.4.176-.845.22-1.274.125a.675.675 0 0 0-.812.56 11.836 11.836 0 0 0 .046 3.66.672.672 0 0 0 .834.536 2.04 2.04 0 0 1 2.426 2.703c-.158.407-.445.75-.831.99a.673.673 0 0 0-.183.973 11.86 11.86 0 0 0 2.642 2.56.67.67 0 0 0 .97-.211 2.03 2.03 0 0 1 1.768-1.021 2.05 2.05 0 0 1 1.872 1.212c.182.408.223.856.121 1.295a.664.664 0 0 0 .1.532.674.674 0 0 0 .461.285 11.903 11.903 0 0 0 3.683-.06.67.67 0 0 0 .534-.835 2.014 2.014 0 0 1 .06-1.259 2.062 2.062 0 0 1 1.913-1.31 2.027 2.027 0 0 1 1.725.964.676.676 0 0 0 .975.179 11.853 11.853 0 0 0 2.555-2.64.667.667 0 0 0-.21-.964 2.016 2.016 0 0 1-.836-.93 2.043 2.043 0 0 1 2.31-2.82c.184.04.376.002.53-.105a.667.667 0 0 0 .282-.46 11.877 11.877 0 0 0-.067-3.653zm-9.361 7.548a5.958 5.958 0 0 1-2.436.518 6.01 6.01 0 0 1-5.485-3.561A6.006 6.006 0 0 1 11.997 6a6.01 6.01 0 0 1 5.485 3.562 6.007 6.007 0 0 1-3.043 7.92z" fill="#2C3E50" mask="url(#b)"/><path d="M11.996 5.5a6.46 6.46 0 0 0-2.638.562c-3.274 1.457-4.754 5.306-3.297 8.58a6.51 6.51 0 0 0 5.943 3.858c.91 0 1.798-.188 2.638-.561a6.508 6.508 0 0 0 3.298-8.58A6.509 6.509 0 0 0 11.996 5.5z" fill="#2C3E50"/><path d="M15.627 8.965c-.193-.594-.787-1.051-1.235-1.323a.996.996 0 0 0-1.005-.011l-.8.46a1.185 1.185 0 0 1-1.174 0l-.8-.46a.996.996 0 0 0-1.005.01c-.448.273-1.043.73-1.235 1.324-.322.994-.805 2.216.402 3.592 0 0-.644 2.599.885 3.821 0 0 1.118.478.967-.458-.098-.608-.091-2.86 1.373-2.97 1.464.11 1.471 2.362 1.373 2.97-.15.936.966.458.966.458 1.53-1.222.886-3.82.886-3.82 1.207-1.376.724-2.6.402-3.593z" fill="#FFF"/></g></svg>