<svg width="24" height="24" viewBox="0 0 24 24" xmlns="http://www.w3.org/2000/svg"><title>Button / Upload Copy</title><g fill="none" fill-rule="evenodd"><rect fill="#72B2E9" width="24" height="24" rx="12"/><path d="M17.594 10.128C18.979 10.476 20 11.731 20 13.13c0 1.69-1.439 3.066-3.207 3.066h-1.06a.262.262 0 0 1-.267-.255c0-.14.12-.256.267-.256h1.06c1.474 0 2.673-1.146 2.673-2.555 0-1.227-.935-2.32-2.177-2.545A5.092 5.092 0 0 0 16 10.59a.265.265 0 0 1-.264-.217.258.258 0 0 1 .224-.29c.407-.06.816-.05 1.088-.032-.178-1.976-1.894-3.54-3.96-3.54-1.25 0-2.51.606-3.274 1.562.52.42.853 1.05.853 1.751 0 .14-.12.256-.267.256a.262.262 0 0 1-.267-.256c0-.627-.341-1.178-.854-1.497a2.387 2.387 0 0 0-.244-.127 2.002 2.002 0 0 0-.224-.082l-.027-.006a2.098 2.098 0 0 0-.211-.046l-.061-.009a2.018 2.018 0 0 0-.245-.017c-1.03 0-1.867.801-1.867 1.784 0 .023.002.045.004.068l.002.047-.002.045a1.54 1.54 0 0 0-.004.096v.16l-.151.069c-.994.455-1.715 1.554-1.715 2.613 0 1.525 1.297 2.764 2.892 2.764h1.373c.148 0 .267.115.267.256 0 .14-.12.255-.267.255H7.426C5.536 16.196 4 14.727 4 12.92c0-1.212.762-2.423 1.871-3a1.183 1.183 0 0 1-.004-.098c0-1.264 1.077-2.293 2.4-2.293a2.653 2.653 0 0 1 .531.058c.033.006.063.015.094.023.056.015.11.03.164.048l.092.033c.055.02.109.044.162.068.02.01.04.016.06.026C10.24 6.678 11.64 6 13.089 6c2.385 0 4.364 1.833 4.505 4.128zm-5.138 2.574l2.133 2.039c.104.1.104.261 0 .36a.272.272 0 0 1-.19.076.272.272 0 0 1-.188-.075l-1.677-1.605v5.248c0 .14-.12.255-.267.255a.262.262 0 0 1-.267-.255v-5.248l-1.678 1.605a.27.27 0 0 1-.19.075.27.27 0 0 1-.187-.075.247.247 0 0 1 0-.361l2.133-2.039a.273.273 0 0 1 .378 0z" fill="#FFF"/></g></svg>